<svg viewBox="0 0 312 221" xmlns="http://www.w3.org/2000/svg"><path fill-rule="evenodd" clip-rule="evenodd" d="M146.137 4.226c31.611-7.202 60.137 18.932 83.855 36.3 21.025 15.396 32.986 35.305 42.507 56.234 9.693 21.306 27.782 45.778 12.751 65.233-15.288 19.79-54.954 15.11-82.369 24.881-20.237 7.212-34.986 20.765-56.744 24.699-26.786 4.843-59.924 13.892-80.602.134-20.999-13.971-3.685-40.961-11.34-61.305-7.186-19.101-40.719-34.324-31.651-52.962C31.7 78.62 73.623 86.036 92.399 71.874c25.248-19.04 19.597-59.869 53.738-67.648z"/><path d="M265.796 16.664h-62.113v111.652h62.113V16.664z" fill="#EBEBEB"/><path d="M262.671 19.905h-56.506V124.99h56.506V19.905z" fill="#FAFAFA"/><path d="M268.421 129.321l-2.625-1.005V14.77h2.625v114.551zM263.898 50.135h-57.733v1.118h57.733v-1.118zM263.898 75.158h-57.733v1.118h57.733v-1.118zM263.898 100.186h-57.733v1.118h57.733v-1.118z" fill="#E0E0E0"/><path d="M232.994 50.691v77.278h2.854V50.691h-2.854zM218.341 19.905h-1.294v30.791h1.294v-30.79zM229.498 19.905h-1.293v30.791h1.293v-30.79zM240.651 19.905h-1.294v30.791h1.294v-30.79zM251.809 19.905h-1.294v30.791h1.294v-30.79zM203.683 14.77h-2.626v114.236h2.626V14.77z" fill="#E0E0E0"/><path d="M268.421 13.618h-67.364v3.046h67.364v-3.046z" fill="#E0E0E0"/><path d="M275.203 197.647l3.058 12.135 5.203 8.904a1.283 1.283 0 01-.537 1.795 1.278 1.278 0 01-1.175 0c-2.325-1.257-10.867-5.921-11.043-6.825-.2-1.042-4.076-12.588-4.076-12.588l8.57-3.421z"/><path opacity=".6" d="M282.903 220.485l-12.441-7.657.142.509c.121.443.396.827.775 1.085 1.013.69 3.858 2.527 10.316 6.054a1.286 1.286 0 001.208 0v.009zM271.865 208.25a.777.777 0 01.475.918.747.747 0 01-.908.476.82.82 0 01-.476-.975.774.774 0 01.999-.395" fill="white"/><path d="M278.708 215.974a2.764 2.764 0 012.112-1.904c0-.033-.176-.085-.476-.047a2.04 2.04 0 00-1.636 1.456c-.08.309-.047.495 0 .495zM279.997 217.349c.072.038.352-.476.923-.814.369-.181.749-.339 1.137-.476a1.43 1.43 0 00-1.28.243c-.642.409-.851 1.047-.78 1.047zM276.521 214.346a6.587 6.587 0 013.015-2.265 3.507 3.507 0 00-3.015 2.265zM275.284 210.734c.052.062.642-.4 1.498-.671s1.603-.252 1.608-.333a3.179 3.179 0 00-3.106 1.004zM274.295 207.193a4.08 4.08 0 013.253-.78c0-.029-.162-.148-.476-.229a2.78 2.78 0 00-2.439.586c-.257.219-.362.4-.338.423zM275.631 205.785a1.075 1.075 0 00-.109-.476 3.3 3.3 0 00-.694-1.095 1.451 1.451 0 00-.79-.504.513.513 0 00-.528.266.84.84 0 00-.038.6 1.81 1.81 0 001.979 1.194 2.102 2.102 0 001.697-1.608.729.729 0 00-.128-.595.501.501 0 00-.58-.119 1.79 1.79 0 00-.68.633 3.658 3.658 0 00-.566 1.166 1.119 1.119 0 00-.072.476 5.842 5.842 0 01.79-1.514c.156-.226.365-.411.609-.537a.267.267 0 01.318.061.488.488 0 01.072.191.484.484 0 01-.01.204 1.873 1.873 0 01-1.488 1.381 1.576 1.576 0 01-1.698-1.009.604.604 0 010-.419.278.278 0 01.29-.152c.262.065.498.21.675.414.401.42.723.908.951 1.442z" fill="#263238"/><path d="M234.34 199.564l.675 10.199s-10.144 3.37-10.201 5.264l19.818.142-.4-15.933-9.892.328z"/><path opacity=".6" d="M241.136 208.716a.813.813 0 01.585.909.784.784 0 01-.33.473.775.775 0 01-.564.117.85.85 0 01-.618-.952.81.81 0 01.998-.509M244.632 215.17l-.038-1.604-19.153.528a1.373 1.373 0 00-.737 1.076h19.928z" fill="white"/><path d="M234.692 209.668c0 .095.475.124.975.423.499.3.751.695.837.657.085-.038-.072-.595-.666-.952-.595-.356-1.17-.214-1.146-.128zM232.642 210.591c0 .095.404.248.747.647.342.4.447.829.546.824.1-.005.143-.557-.29-1.047-.432-.49-1.003-.514-1.003-.424zM231.538 213.118c.091 0 .21-.476-.057-.99-.266-.514-.723-.718-.761-.637-.038.081.253.357.476.79.224.433.243.828.342.837zM234.796 207.327c.043.085.476-.062 1.032-.038.557.023.98.18 1.028.095.047-.086-.371-.419-1.018-.433-.647-.015-1.094.304-1.042.376z" fill="#263238"/><path opacity=".3" d="M234.478 201.582l.119 1.818 9.73-.385-.038-1.637-9.811.204z"/><path d="M234.697 205.271c.328.079.671.067.993-.034a4.445 4.445 0 001.028-.352c.194-.093.381-.2.561-.319.11-.065.21-.147.295-.242a.429.429 0 00.028-.514.53.53 0 00-.432-.21 1.3 1.3 0 00-.371.062 3.54 3.54 0 00-.609.228 3.514 3.514 0 00-.894.629c-.447.438-.595.804-.561.823.033.019.261-.281.718-.647.266-.211.559-.387.87-.524.183-.08.372-.145.566-.195.209-.062.385-.066.442 0 .057.067 0 .048 0 .11a1.035 1.035 0 01-.214.176 5.37 5.37 0 01-.513.314 5.538 5.538 0 01-.952.395 6.651 6.651 0 00-.955.3z" fill="#263238"/><path d="M234.83 205.404c.176-.285.258-.618.233-.952a3.218 3.218 0 00-.438-1.675.822.822 0 00-.647-.476.478.478 0 00-.404.29 1.333 1.333 0 00-.09.367 2.187 2.187 0 000 .666c.072.372.235.721.475 1.014.405.499.809.604.818.571.01-.034-.299-.233-.632-.709a2.29 2.29 0 01-.343-.924 2.051 2.051 0 010-.575c.024-.21.1-.386.176-.367a.727.727 0 01.357.314c.103.168.19.345.262.529.12.316.196.647.223.985.048.561-.047.928.01.942z" fill="#263238"/><path d="M234.292 110.651l30.196-.224 14.591 95.895-12.532 1.59-16.061-78.848-4.808 79.129-.009.238-13.555-.238 2.178-97.542z" fill="#263238"/><path d="M249.473 126.998a6.457 6.457 0 00-.076-1.17 45.847 45.847 0 01-.18-2.813c-.034-1.099 0-2.094 0-2.817a6.599 6.599 0 000-1.176c-.11.378-.172.768-.186 1.161a23.753 23.753 0 00.171 5.664c.042.393.133.78.271 1.151zM246.986 119.313s-.052-.058-.176-.067a.762.762 0 00-.499.147.876.876 0 00-.376.69.875.875 0 00.594.759.873.873 0 00.933-.24.88.88 0 00.118-.78.76.76 0 00-.304-.424c-.105-.066-.181-.066-.181-.052 0 .014.243.143.319.523a.732.732 0 01-.128.59.662.662 0 01-.97-.054.662.662 0 01-.148-.326.733.733 0 01.257-.548c.163-.123.357-.199.561-.218zM254.719 117.371s.086.1.276.252c.268.209.556.391.861.543.454.23.933.409 1.427.533a7.424 7.424 0 003.681 0 6.87 6.87 0 001.427-.533c.304-.15.592-.33.86-.538.191-.148.286-.238.276-.252-.009-.015-.447.285-1.213.633a7.679 7.679 0 01-1.393.475 7.836 7.836 0 01-3.572 0 7.705 7.705 0 01-1.393-.475c-.79-.353-1.208-.676-1.237-.638zM236.028 119.403c.261.116.543.176.828.176a5.855 5.855 0 003.871-1.104c.419-.314.633-.566.609-.585a7.836 7.836 0 01-5.308 1.518v-.005zM274.295 207.193a1.075 1.075 0 01-.086-.204 11.127 11.127 0 01-.171-.633 83.47 83.47 0 01-.533-2.475 583.755 583.755 0 01-1.721-9.147c-1.427-7.733-3.282-18.432-5.351-30.244l-5.322-30.253-1.655-9.161-.475-2.489-.129-.648c-.028-.147-.052-.218-.052-.218s0 .076.028.223l.105.652.418 2.494 1.579 9.175 5.232 30.268c2.069 11.817 3.971 22.506 5.422 30.234.723 3.865 1.336 6.987 1.802 9.138.467 2.151.818 3.326.909 3.288zM235.814 206.113V202.753c0-1.085 0-2.408.043-3.95.043-1.542.038-3.293.09-5.235.076-3.874.224-8.485.447-13.601.224-5.116.557-10.742.994-16.657a509.47 509.47 0 011.498-16.6 597.793 597.793 0 011.589-13.52c.238-1.904.476-3.66.69-5.183.214-1.523.39-2.855.547-3.912l.347-2.47.085-.642v-.219s0 .071-.047.219l-.11.638-.394 2.465a197.819 197.819 0 00-.59 3.902c-.214 1.523-.476 3.255-.728 5.178a504.17 504.17 0 00-1.641 13.516 508.462 508.462 0 00-1.517 16.609 521.85 521.85 0 00-.975 16.657c-.223 5.13-.342 9.732-.394 13.61-.043 1.937-.043 3.694-.053 5.235-.009 1.542 0 2.856 0 3.95v3.141c.11.153.119.229.119.229z" fill="#455A64"/><path d="M204.596 73.692l18.867 5.511 10.568-6.244 8.018 9.518-14.957 6.482a7.775 7.775 0 01-6.659-.219l-18.548-9.518 2.711-5.53z" fill="#FFBE9D"/><path d="M200.292 71.874l-2.336-1.213-6.496-3.384a.605.605 0 00-.752.861l4.143 3.408-1.75.652a1.474 1.474 0 00-.79.714l-.923 1.832s-1.051.114-1.155.795c-.105.68.685.918.685.918l-.2.8a1.368 1.368 0 00.19 1.09c1.008.414 1.807-1.695 1.807-1.695l1.07.114 1.17 2.38c1.489.362.785-1.984.785-1.984l.657.161c.656.162.998.629 2.021 1.152 1.022.524 3.029.71 3.029.71l1.484 1.094 4.514-6.178-7.153-2.227z" fill="#FAFAFA"/><path d="M200.292 71.874l.128.029.366.104 1.427.42 5.265 1.608.109.033-.066.095-4.48 6.187-.062.086-.086-.067-1.484-1.09h.057a10.646 10.646 0 01-2.929-.647 8.974 8.974 0 01-1.351-.819 2.7 2.7 0 00-.671-.356c-.242-.067-.513-.129-.77-.195l.143-.153c.132.438.187.895.161 1.352a.96.96 0 01-.323.685.95.95 0 01-.766.105h-.052l-.029-.053-1.174-2.38.099.067-.951-.1h-.133l.129-.08a5.39 5.39 0 01-.571 1.075 1.6 1.6 0 01-.994.747h-.171a1.605 1.605 0 01-.167-.038h-.043l-.057-.047-.043-.067a1.477 1.477 0 01-.199-.757c.009-.201.044-.401.104-.594l.138-.557.091.147a1.164 1.164 0 01-.642-.433.884.884 0 01-.091-.776c.103-.241.293-.435.533-.542.217-.105.45-.174.689-.205l-.095.067.581-1.156.285-.567a1.617 1.617 0 01.946-.895l.576-.219 1.127-.428-.033.19-4.133-3.416a.708.708 0 01.1-.819.688.688 0 01.77-.176l6.44 3.398 1.75.952.476.252a.944.944 0 01.152.095.87.87 0 01-.162-.067l-.476-.228-1.774-.895-6.477-3.331a.505.505 0 00-.691.415.51.51 0 00.063.308v-.028l4.152 3.398.147.124-.18.07-1.123.434-.575.219c-.178.066-.34.168-.476.3a1.501 1.501 0 00-.333.476l-.285.57-.58 1.157-.029.057h-.066c-.405.057-.885.229-1.023.59a.646.646 0 00.067.557.95.95 0 00.499.333l.119.034-.029.114-.138.557a2.183 2.183 0 00-.095.537c-.001.22.056.438.167.629l.033.057-.057-.043h.029l.114.028h.119c.346-.099.639-.33.818-.642.218-.318.4-.66.542-1.018l.038-.09h.223l.952.1h.066l.029.061 1.17 2.38-.081-.067a.704.704 0 00.561-.062.739.739 0 00.228-.519 3.68 3.68 0 00-.147-1.256l-.057-.205.2.053c.266.066.513.123.789.2.261.093.508.222.732.385.415.304.856.572 1.318.8.917.344 1.877.559 2.853.637h.034l1.479 1.1h-.152l4.466-6.102.042.129-5.231-1.685-1.403-.476-.362-.124-.123-.033z" fill="#263238"/><path d="M195.911 77.195c0 .028-.518-.067-1.398-.195-.88-.129-2.126-.29-3.595-.414a.815.815 0 01-.684-.365.823.823 0 01-.073-.773 1.573 1.573 0 011.256-.88c.556-.09 1.075-.12 1.579-.21s.984-.185 1.427-.3c.442-.114.88-.242 1.279-.375.174-.053.336-.14.476-.257a.348.348 0 00.1-.405 1.218 1.218 0 00-.3-.366l-.323-.324a7.947 7.947 0 00-.519-.504c-.295-.262-.475-.372-.475-.39.199.069.383.175.542.314.192.148.376.307.551.475l.333.31c.144.11.264.25.352.409a.528.528 0 01-.128.614 1.52 1.52 0 01-.566.314c-.4.143-.828.28-1.289.405-.461.123-.951.228-1.455.318-.504.09-1.056.129-1.575.215a1.338 1.338 0 00-1.07.723.587.587 0 00.042.54.59.59 0 00.463.279h.023c1.47.142 2.721.333 3.596.504.437.086.785.162 1.018.224.143.016.282.054.413.114z" fill="#263238"/><path d="M195.74 73.859c-.389.172-.82.23-1.241.166a4.332 4.332 0 01-.661-.085l.114-.067c-.138.324-.257.528-.295.514-.038-.014 0-.248.1-.585v-.077h.09l.642.043c.419-.016.839.015 1.251.09z" fill="#263238"/><path d="M238.335 66.044l-12.157 9.333 8.523 11.231 10.397-5.906-6.763-14.658z"/><path d="M238.335 66.044c1.759-1.085 7.847-2.417 7.847-2.417l11.766-1.28 10.207 4.687-4.19 17.575 3.671 33.138-35.027 1.903 5.726-53.606z"/><path d="M258.334 80.745h-6.036v1.628h6.036v-1.628z" fill="#FAFAFA"/><path d="M258.343 82.387h-6.059v-1.651h6.059v1.651zm-6.035 0h6.007v-1.623h-6.007v1.623zM236.871 76.221c.068-.001.102-1.212.075-2.705-.027-1.493-.105-2.702-.173-2.7-.068.001-.102 1.212-.074 2.705.027 1.492.104 2.701.172 2.7z" fill="#263238"/><path d="M258.938 46.218l-1.289 18.251a5.707 5.707 0 01-5.674 5.287 5.703 5.703 0 01-5.348-3.777 5.716 5.716 0 01-.326-2.286c.114-1.737.219-3.16.219-3.16s-4.414-.685-4.471-5.101c-.033-2.551.409-8.343.785-12.779a5.787 5.787 0 015.769-5.302h2.668a8.166 8.166 0 015.705 2.813 8.176 8.176 0 011.962 6.054z" fill="#FFBE9D"/><path d="M246.515 60.471a10.26 10.26 0 005.755-1.637s-1.36 3.18-5.764 2.78l.009-1.142z" fill="#EB996E"/><path d="M243.738 48.236a.629.629 0 00.608.638.6.6 0 00.592-.339.606.606 0 00.06-.232.633.633 0 00-.609-.638.604.604 0 00-.651.571zM243.6 47.084c.076.081.556-.271 1.236-.271.68 0 1.175.343 1.251.257.076-.086-.043-.186-.262-.343a1.728 1.728 0 00-1.983.01c-.209.162-.28.314-.242.347zM250.258 48.24a.632.632 0 00.609.638.604.604 0 00.651-.57.629.629 0 00-.608-.639.601.601 0 00-.592.34.606.606 0 00-.06.232zM250.268 47.213c.076.08.556-.272 1.236-.272.68 0 1.175.343 1.251.257.076-.085-.043-.185-.262-.342a1.727 1.727 0 00-1.983.01c-.209.161-.28.309-.242.347zM247.866 52.077a4.493 4.493 0 00-1.104-.2c-.171 0-.337-.053-.366-.172a.887.887 0 01.114-.514l.514-1.318c.713-1.88 1.227-3.426 1.151-3.45-.076-.024-.713 1.47-1.427 3.331l-.475 1.328a.998.998 0 00-.091.68.425.425 0 00.286.253c.096.026.195.04.294.042.366.053.737.06 1.104.02zM250.092 44.857c.066.186.742.095 1.541.195.799.1 1.426.314 1.545.148.048-.081-.066-.253-.323-.433a2.699 2.699 0 00-2.35-.262c-.294.119-.442.266-.413.352zM243.604 45.752c.119.152.585 0 1.151 0 .566 0 1.037.104 1.147-.057.047-.077-.029-.233-.233-.381a1.667 1.667 0 00-1.851.057c-.199.148-.266.31-.214.38z" fill="#263238"/><path d="M257.449 49.535c.076-.033 3.034-.9 2.935 2.123-.1 3.022-3.106 2.298-3.111 2.213-.005-.086.176-4.336.176-4.336z" fill="#FFBE9D"/><path d="M258.258 52.757s.052.038.138.081a.525.525 0 00.394 0 1.306 1.306 0 00.638-1.147 1.748 1.748 0 00-.124-.757.604.604 0 00-.38-.418.265.265 0 00-.314.133c-.043.08-.024.143-.043.147-.019.005-.062-.052-.033-.176a.336.336 0 01.123-.185.4.4 0 01.295-.067.737.737 0 01.533.476c.12.265.174.556.157.847a1.37 1.37 0 01-.809 1.28.557.557 0 01-.475-.095c-.1-.047-.134-.114-.1-.119z" fill="#EB996E"/><path d="M259.128 49.43a1.584 1.584 0 00-1.451.748c-.195.433-.237.918-.432 1.351a1.069 1.069 0 01-1.099.714.951.951 0 01-.628-.69 2.581 2.581 0 010-.952c.176-1.428.476-2.808.533-4.23a7.258 7.258 0 00-.89-4.108 3.96 3.96 0 00-3.528-1.984c-.952.076-1.798.566-2.73.695a3.688 3.688 0 01-3.063-1.024c-.1-.1-.571-.414-.571-.414.01-.341.121-.672.319-.952 1.85-1.708 5.179-2.189 7.609-1.575a8.809 8.809 0 015.784 4.63c1.051 2.29.737 5.474.161 7.791" fill="#263238"/><path d="M242.786 41.973s11.581-3.726 16.589 6.296c0 0 .747-2.508.747-3.855 0-.899-.537-6.248-6.04-7.928.009.019-8.28-3.165-11.296 5.487z"/><path d="M252.741 42.216a2.527 2.527 0 01-1.914 1.183 2.522 2.522 0 01-2.096-.817 1.485 1.485 0 01-2.304.61 1.491 1.491 0 01-.502-.757 3.37 3.37 0 01-1.127.823 1.15 1.15 0 01-1.289-.267 1.127 1.127 0 01.081-1.328 2.745 2.745 0 011.175-.79 8.48 8.48 0 014.371-.66c1.498.178 2.87.926 3.833 2.088" fill="#263238"/><path opacity=".4" d="M242.786 41.973a5.385 5.385 0 013.682-1.675c3.414-.153 9.811 1.77 12.907 7.971 0 0 .747-2.508.747-3.855 0-.899-.537-6.248-6.04-7.928.009.019-8.28-3.165-11.296 5.487z"/><path d="M258.895 47.099a21.814 21.814 0 00-6.749-6.468c-2.663-1.666-7.062-3.331-10.097-4.117a6.591 6.591 0 00-2.787-.295 2.51 2.51 0 00-2.069 1.714c-.29 1.142 1.741 2.912 2.697 3.602a31.36 31.36 0 002.901 1.714s-.024-2.123 3.367-2.56c4.618-.61 12.737 6.41 12.737 6.41z"/><path d="M249.397 38.437a10.928 10.928 0 00-3.329-1.137c.279-.22.584-.403.908-.548.91.15 1.79.446 2.607.876l-.186.809z" fill="#E0E0E0"/><path d="M258.234 49.64a5.484 5.484 0 01-.623.476l-1.522 1.113a16.19 16.19 0 01-2.216 1.495 13.17 13.17 0 012.073-1.694c1.18-.886 2.236-1.49 2.288-1.39zM258.543 54.047a9.22 9.22 0 01-4.047 3.436c-.038-.067 1.003-.657 2.116-1.609 1.113-.952 1.874-1.875 1.931-1.827z" fill="#EBEBEB"/><path d="M241.945 52.586a9.44 9.44 0 001.507.323c2.183-.119 2.954-.856 6.526-.095.577.122 1.171.14 1.754.053a15.04 15.04 0 012.141-.153l.689 4.76s-4.237 3.707-8.052 3.293c-4.941-.524-5.521-6.282-4.565-8.181z" fill="#FAFAFA"/><path d="M241.945 52.586s-.043.123-.129.347a5.315 5.315 0 00-.204 1.038 7.532 7.532 0 00.689 3.807 5.389 5.389 0 001.689 2.046c.851.585 1.85.915 2.882.952a8.01 8.01 0 003.329-.661 16.216 16.216 0 003.201-1.78c.39-.276.766-.562 1.122-.862v.043l-.685-4.759.048.038c-.845.008-1.689.072-2.526.19a4.964 4.964 0 01-1.193-.061c-.381-.072-.747-.157-1.104-.21a11.361 11.361 0 00-2.035-.171c-.585.017-1.167.08-1.741.19-.523.09-.999.167-1.427.2a3.038 3.038 0 01-.58 0c-.176-.024-.333-.062-.476-.095-.561-.138-.86-.238-.86-.238 1.079.35 2.238.37 3.329.057.575-.113 1.159-.18 1.745-.2.687-.008 1.373.046 2.05.162.362.052.733.138 1.108.205a4.9 4.9 0 001.17.057 19.12 19.12 0 012.53-.195h.038l.69 4.759v.028c-.361.305-.737.59-1.132.871a16.228 16.228 0 01-3.224 1.785 8.086 8.086 0 01-3.358.661 5.512 5.512 0 01-2.925-.951 5.448 5.448 0 01-1.717-2.075 7.492 7.492 0 01-.666-3.808c.038-.354.113-.703.224-1.042.085-.228.138-.328.138-.328z" fill="#263238"/><path d="M242.344 55.37a11.648 11.648 0 0010.592-.195 7.73 7.73 0 01-2.25 2.041c-1.041.533-2.264.557-3.434.557a6.126 6.126 0 01-2.739-.438 6.304 6.304 0 01-2.05-1.975M252.432 54.166c-.44.171-.898.293-1.365.362a21.934 21.934 0 01-6.801.242 6.245 6.245 0 01-1.389-.262c.477 0 .953.03 1.427.09 2.254.177 4.521.097 6.758-.237.452-.094.909-.159 1.37-.195z" fill="#E0E0E0"/><path d="M253.25 56.15c-.26.37-.582.693-.952.952a8.016 8.016 0 01-6.073 1.685 3.875 3.875 0 01-1.289-.333c0-.038.499.09 1.308.157a8.78 8.78 0 005.964-1.642c.661-.476 1.013-.847 1.042-.819z" fill="#E0E0E0"/><path d="M253.326 55.065c-.115.099-.243.18-.381.243a8.38 8.38 0 01-1.117.519c-.57.22-1.157.394-1.755.518a11.789 11.789 0 01-4.466.072c-.602-.11-1.194-.27-1.77-.476a8.365 8.365 0 01-1.131-.476 1.576 1.576 0 01-.39-.233c0-.043.594.242 1.579.547a12.724 12.724 0 006.14.333c.59-.118 1.172-.277 1.74-.476.961-.319 1.527-.623 1.551-.57z" fill="#263238"/><path d="M249.778 55.065c-1.87.363-3.798.285-5.631-.228 0-.072 1.26.133 2.81.195 1.551.062 2.816-.048 2.821.033z" fill="#263238"/><path d="M197.262 114.392V75.8h53.648v38.592l-28.432.238-25.216-.238z"/><path opacity=".4" d="M250.91 75.8h-53.648v38.592h53.648V75.8z"/><path d="M222.478 114.63l-25.216-.238V75.8h25.131l.085 38.83z"/><path d="M210.855 75.8h-3.344v6.696h3.344V75.8z" fill="#263238"/><path d="M205.709 105.873h-6.659v6.663h6.659v-6.663z" fill="#FAFAFA"/><path d="M205.723 112.55h-6.682v-6.687h6.682v6.687zm-6.658-.024h6.658v-6.663h-6.658v6.663z" fill="#263238"/><path d="M263.461 84.662l1.108 8.98-16.646 9.885 2.587 5.711 18.919-7.648c2.293-1.161 4.257-2.884 4.095-5.468l-.913-12.564-9.15 1.104z" fill="#FFBE9D"/><path d="M268.15 67.034a9.044 9.044 0 013.039 5.411c.637 3.48 2.801 13.207 2.801 13.207l-11.414 1.351V84.33c0-.005-1.051-4.992-1.051-4.992l2.126-6.868 4.499-5.435z"/><path d="M273.534 85.694a4.853 4.853 0 01-.78.143l-2.136.295c-1.807.238-4.28.552-7.057.88l-.952.115h-.128v-.129c-.19-2.546-.4-4.811-.557-6.434l-.185-1.903a4.048 4.048 0 01-.043-.705c.064.226.109.457.133.69.067.448.157 1.1.257 1.904.2 1.623.438 3.883.637 6.434l-.137-.114.951-.114c2.758-.329 5.255-.614 7.067-.81l2.145-.218c.26-.033.523-.044.785-.034zM267.213 67.662c0 .038-.414.22-1.046.61a9.109 9.109 0 00-3.672 4.35c-.276.69-.38 1.142-.423 1.132.019-.41.108-.814.262-1.194a8.089 8.089 0 013.747-4.44c.349-.216.732-.37 1.132-.458z" fill="#263238"/><path d="M247.666 103.027l-2.445 1.123-1.046-.404-5.336-.334-3.329.738-.095.19c0 1.814 3.433 1.1 4.48 1.385 1.046.286.095 2.527.095 2.527s-4.718 6.154-5.541 7.615c-.409.738-.276 1.147-.038 1.366a.712.712 0 00.894.033l1.741-1.232s4.794.28 5.122.114a5.005 5.005 0 001.161-1.233 36.36 36.36 0 017.609-5.601l-3.272-6.287z" fill="#FAFAFA"/><path d="M247.666 103.027a.54.54 0 01.062.1l.171.309.652 1.228 2.425 4.626.038.071-.071.038a36.722 36.722 0 00-7.548 5.63c-.303.467-.68.88-1.117 1.223a.556.556 0 01-.238.086h-1.494a118.07 118.07 0 01-3.533-.152h.076l-1.118.747-.571.404a.876.876 0 01-.77.162.8.8 0 01-.552-.585 1.326 1.326 0 01.095-.776c.212-.445.465-.868.757-1.266 1.655-2.379 3.362-4.611 4.955-6.71v.024a5.97 5.97 0 00.309-.995c.085-.32.096-.655.034-.98a.556.556 0 00-.238-.343 1.213 1.213 0 00-.447-.105c-.328-.033-.661-.028-.994-.028a9.845 9.845 0 01-1.955-.138 2.067 2.067 0 01-.894-.395 1.184 1.184 0 01-.395-.881l.095-.19v-.043h.048l3.329-.728h.024l5.331.362 1.047.414h-.038l1.845-.814.476-.2.157-.062-.162.086-.476.228-1.793.852-1.051-.395-5.336-.304h.024l-3.33.752.072-.053-.095.191v-.048a.965.965 0 00.323.723c.237.177.513.294.804.343a9.692 9.692 0 001.902.124c.333 0 .666 0 1.013.028.187.008.369.053.538.134a.783.783 0 01.342.476c.074.36.064.733-.028 1.089a6.274 6.274 0 01-.324 1.038c-1.588 2.099-3.291 4.326-4.941 6.705a7.803 7.803 0 00-.733 1.219c-.09.196-.12.415-.085.628a.541.541 0 00.38.404.63.63 0 00.561-.123l.571-.405 1.132-.799.033-.024h.043c1.203.066 2.378.128 3.524.157h1.46a.315.315 0 00.148-.053 4.924 4.924 0 001.056-1.156 36.128 36.128 0 017.609-5.592l-.033.11-2.326-4.621-.627-1.262-.162-.333a.86.86 0 01.014-.152z" fill="#263238"/><path d="M241.55 111.893c-.69.757-1.425 1.47-2.202 2.137a82.84 82.84 0 01-1.608 1.456 3.896 3.896 0 01-.704.562c-.057-.057.899-1.047 2.145-2.199a15.472 15.472 0 012.369-1.956zM243 113.083a6.92 6.92 0 01-1.384 1.675 8.397 8.397 0 01-1.64 1.428c.435-.579.926-1.115 1.464-1.599a15.602 15.602 0 011.56-1.504z" fill="#263238"/><path d="M46.421 204.428c.4-1.546-.613-3.103-1.75-4.226-1.137-1.123-2.497-2.127-3.087-3.612-.95-2.403.328-5.52-1.303-7.529-.951-1.18-2.687-1.575-3.538-2.855a6.46 6.46 0 01-.77-2.256 22.892 22.892 0 00-5.708-10.655 19.876 19.876 0 002.23 10.27c.662 1.261 1.475 2.493 1.694 3.897.356 2.285-.918 4.64-.357 6.887.642 2.57 3.524 4.283 3.662 6.929.114 2.237-1.83 4.197-1.683 6.429.116.95.457 1.859.994 2.651 1.726 2.856 4.28 4.85 8.085 4.788l4.708.166-3.177-10.884z"/><path opacity=".3" d="M46.421 204.428c.4-1.546-.613-3.103-1.75-4.226-1.137-1.123-2.497-2.127-3.087-3.612-.95-2.403.328-5.52-1.303-7.529-.951-1.18-2.687-1.575-3.538-2.855a6.46 6.46 0 01-.77-2.256 22.892 22.892 0 00-5.708-10.655 19.876 19.876 0 002.23 10.27c.662 1.261 1.475 2.493 1.694 3.897.356 2.285-.918 4.64-.357 6.887.642 2.57 3.524 4.283 3.662 6.929.114 2.237-1.83 4.197-1.683 6.429.116.95.457 1.859.994 2.651 1.726 2.856 4.28 4.85 8.085 4.788l4.708.166-3.177-10.884z"/><path d="M50.587 215.445c.432.066.871.057 1.299-.028a7.848 7.848 0 001.531-.386 6.47 6.47 0 001.903-1.037c.34-.276.607-.633.775-1.038a4.88 4.88 0 00.223-1.427c.008-.51.045-1.018.11-1.523a4.21 4.21 0 01.575-1.514c.557-.975 1.48-1.903 1.774-3.226.295-1.323.09-2.713-.128-4.131-.219-1.418-.433-2.955.11-4.426.541-1.471 1.535-2.803 2.054-4.464.518-1.661.276-3.484.385-5.263a6.985 6.985 0 01.614-2.618c.38-.833.908-1.623 1.322-2.498.837-1.776.984-3.808 1.213-5.759l.337-3.012c.07-1.02.245-2.03.523-3.013a26.54 26.54 0 011.128-2.917 9.7 9.7 0 00.546-1.523c.08-.538.13-1.08.153-1.623.051-1.088.01-2.179-.124-3.26-.128-1.09-.323-2.165-.442-3.255v-.186l-.024-.219-.195.096a7.272 7.272 0 00-2.535 2.141 11.536 11.536 0 00-1.56 2.856c-.785 2.022-1.07 4.145-1.465 6.186-.395 2.042-.899 4.017-1.935 5.711-.514.838-1.142 1.604-1.689 2.423a6.657 6.657 0 00-1.17 2.684c-.28 1.994.818 3.745.59 5.511a6.12 6.12 0 01-.861 2.446c-.428.752-.951 1.428-1.427 2.151-.487.685-.91 1.413-1.265 2.175a6.896 6.896 0 00-.58 2.379c-.114 1.59.11 3.098 0 4.521a10.403 10.403 0 01-1.16 3.874c-.571 1.162-1.204 2.209-1.736 3.222a16.53 16.53 0 00-.714 1.504c-.19.481-.328.98-.414 1.49-.14.89-.15 1.795-.033 2.689a6.781 6.781 0 001.346 3.431c.115.149.242.287.38.414a1.9 1.9 0 00.31.262c.176.128.27.19.27.19a6 6 0 01-.913-.904 6.823 6.823 0 01-1.279-3.408 9.361 9.361 0 01.062-2.651c.088-.498.229-.986.419-1.456.2-.476.447-.98.718-1.48.532-1.009 1.174-2.051 1.755-3.217a10.585 10.585 0 001.203-3.941c.124-1.451-.095-2.964.024-4.516a6.664 6.664 0 01.566-2.284c.351-.747.77-1.461 1.25-2.132.476-.695.985-1.399 1.427-2.166a6.363 6.363 0 00.9-2.546c.227-1.903-.862-3.64-.581-5.496a6.394 6.394 0 011.127-2.57c.537-.805 1.165-1.571 1.698-2.432 1.07-1.733 1.589-3.76 1.979-5.792.39-2.032.684-4.136 1.455-6.12.37-1 .881-1.942 1.517-2.798a6.983 6.983 0 012.43-2.052l-.219-.119v.191c.12 1.104.314 2.184.443 3.26.132 1.068.171 2.146.119 3.222-.021.525-.069 1.049-.143 1.57a9.49 9.49 0 01-.528 1.471 26.8 26.8 0 00-1.137 2.95 15.021 15.021 0 00-.528 3.065l-.332 3.013c-.224 1.979-.371 3.959-1.18 5.672-.4.852-.927 1.642-1.317 2.504a7.253 7.253 0 00-.633 2.712c-.105 1.818.133 3.598-.356 5.207-.49 1.608-1.518 2.941-2.036 4.459-.519 1.518-.324 3.127-.1 4.535.224 1.409.476 2.799.152 4.055-.323 1.256-1.165 2.18-1.736 3.184a4.358 4.358 0 00-.585 1.575 13.67 13.67 0 00-.1 1.542c.001.464-.066.926-.2 1.371a2.53 2.53 0 01-.732.99c-.547.446-1.164.8-1.826 1.047a8.19 8.19 0 01-1.508.409 6.067 6.067 0 01-.95.09c-.224-.024-.339-.024-.339-.024z" fill="#263238"/><path d="M65.469 159.945a.573.573 0 00-.048.143l-.104.424c-.09.371-.205.951-.38 1.632-.177.681-.614 1.49-.98 2.46a40.565 40.565 0 00-1.118 3.332c-.352 1.247-.675 2.651-1.008 4.145a17.473 17.473 0 01-1.508 4.602c-.385.766-.823 1.542-1.165 2.379-.34.869-.568 1.778-.68 2.704a54.7 54.7 0 01-1.013 5.71l-2.654 10.899-2.23 8.88-1.48 5.992-.385 1.632-.095.428a.556.556 0 000 .148.556.556 0 00.052-.138l.124-.419.442-1.618 1.574-5.968 2.293-8.866 2.687-10.893c.44-1.884.778-3.791 1.013-5.711.106-.903.325-1.789.651-2.637.333-.828.761-1.599 1.146-2.379a17.577 17.577 0 001.503-4.674c.324-1.499.628-2.888.952-4.145a31.48 31.48 0 011.07-3.331c.361-.952.76-1.771.95-2.489.191-.719.253-1.271.33-1.652l.075-.428a.56.56 0 00-.014-.162z" fill="#263238"/><path d="M51.42 215.469c3.077-1.827 3.957-7.381 2.677-10.727-1.279-3.345-3.529-6.396-3.876-9.96-.266-2.742.633-5.549 0-8.229-.86-3.612-4.385-6.41-4.347-10.127 0-2.084 1.208-4.045 1.113-6.125-.114-2.555-2.074-4.578-3.286-6.829-1.855-3.446-1.979-7.515-2.616-11.374-.637-3.86-2.107-7.996-5.526-9.894-.505 3.279-1.365 5.525-1.1 9.965.096 1.594 1.95 4.65 2.203 8.143.152 2.089.257 4.183.38 6.272.124 2.09.257 4.107.985 6.011.556 1.456 1.455 2.784 1.869 4.283.78 2.856-.247 5.901.385 8.771.533 2.432 2.217 4.526 2.559 6.991.475 3.465-1.76 7.063-.609 10.37.57 1.642 1.902 2.956 2.302 4.65.295 1.313-.029 2.703.243 4.026.432 2.127 4.484 3.779 6.658 3.645"/><path d="M36.4 145.459a.841.841 0 000 .185l.072.538c.071.476.152 1.171.309 2.066.157.894.637 1.903 1.008 3.15.371 1.247.785 2.637 1.127 4.217.343 1.58.647 3.331.951 5.206.305 1.875.643 3.931 1.58 5.887.432.985.917 1.97 1.279 3.017.354 1.079.571 2.198.647 3.332a67.15 67.15 0 00.903 7.172l2.654 13.691 2.288 11.156 1.57 7.514.442 2.042.123.528c.011.061.029.12.052.176a.83.83 0 000-.185l-.095-.533-.385-2.052-1.474-7.533-2.25-11.17-2.63-13.692a67.944 67.944 0 01-.904-7.138 13.801 13.801 0 00-.67-3.393c-.376-1.071-.866-2.061-1.298-3.037-.928-1.927-1.251-3.945-1.584-5.82-.333-1.875-.628-3.631-.99-5.235a43.101 43.101 0 00-1.174-4.221c-.41-1.223-.87-2.242-1.056-3.122-.186-.881-.276-1.585-.366-2.051l-.1-.533a.846.846 0 00-.029-.162z" fill="#263238"/><path d="M197.793 57.592h-15.286v21.44h15.286v-21.44z" fill="#455A64"/><path d="M197.793 57.592h-15.286v2.484h15.286v-2.484zM197.793 76.547h-15.286v2.485h15.286v-2.484zM194.778 61.604h-9.289v4.845h9.289v-4.845z" fill="#263238"/><path d="M192.333 64.026c-.023 0 0-.195-.114-.518a2.18 2.18 0 00-.799-1.143 2.07 2.07 0 00-2.168-.188 2.08 2.08 0 00-1.142 1.854 2.08 2.08 0 002.253 2.067 2.07 2.07 0 001.057-.401c.384-.283.665-.684.799-1.142.095-.329.091-.524.114-.52.024.006 0 .049 0 .144.005.136-.008.272-.038.404-.105.5-.383.947-.785 1.261a2.258 2.258 0 01-2.154.353 2.29 2.29 0 010-4.312 2.26 2.26 0 012.154.352c.402.315.68.761.785 1.261.03.133.043.269.038.405.015.076.01.123 0 .123z" fill="#455A64"/><path d="M186.198 68.671a.362.362 0 100-.723.362.362 0 000 .723zM188.928 68.671a.361.361 0 100-.722.361.361 0 000 .722zM191.653 68.671a.362.362 0 100-.723.362.362 0 000 .723zM186.198 70.984a.362.362 0 100-.723.362.362 0 000 .723zM188.928 70.984a.36.36 0 100-.722.36.36 0 000 .722zM191.653 70.984a.362.362 0 100-.723.362.362 0 000 .723zM186.198 73.297a.362.362 0 100-.723.362.362 0 000 .723zM188.928 73.297a.36.36 0 100-.722.36.36 0 000 .722zM191.653 73.297a.362.362 0 100-.723.362.362 0 000 .723z" fill="#263238"/><path d="M194.488 71.931a1.309 1.309 0 10-.001-2.617 1.309 1.309 0 00.001 2.617z"/><path d="M175.987 9.388h-8.846V215.33h8.846V9.388z" fill="#263238"/><path d="M167.136 18.078H79.05v197.258h88.086V18.078z" fill="#455A64"/><path d="M81.523 9.388h-8.151V215.33h8.151V9.388z" fill="#263238"/><path d="M175.987 9.388H73.372v8.69h102.615v-8.69z" fill="#263238"/><path d="M175.996 9.378a1.817 1.817 0 01-.332.343l-.952.876-3.167 2.855c-1.232 1.128-2.326 2.165-3.082 2.955-.3.3-.582.617-.842.952a2.26 2.26 0 00-.181.295c0 .072-.038.114-.047.114-.01 0 0-.042 0-.128.035-.115.085-.226.147-.329.233-.368.499-.716.795-1.037a42.802 42.802 0 013.043-3.022 92.284 92.284 0 013.22-2.817c.423-.353.766-.629 1.008-.819.12-.096.251-.176.39-.238zM82.031 18.058c.05-.046-1.742-2.08-4.003-4.542-2.261-2.463-4.135-4.421-4.186-4.375-.05.047 1.742 2.08 4.003 4.543 2.261 2.462 4.136 4.42 4.186 4.374z" fill="#455A64"/><path d="M86.922 107.834h-.248a2.84 2.84 0 00-2.84 2.841v20.664a2.84 2.84 0 002.84 2.841h.248a2.84 2.84 0 002.839-2.841v-20.664a2.84 2.84 0 00-2.84-2.841z" fill="#263238"/><path d="M88.01 127.707a.998.998 0 10-1.426.89v1.162a.448.448 0 00.763.316.448.448 0 00.131-.316v-1.162a.995.995 0 00.533-.89z" fill="#455A64"/><path d="M101.527 116.704H88.225c-.833 0-1.508.676-1.508 1.509v.133c0 .834.675 1.509 1.508 1.509h13.302c.833 0 1.508-.675 1.508-1.509v-.133c0-.833-.675-1.509-1.508-1.509z" fill="#263238"/><path d="M92.648 119.945a2.11 2.11 0 01-.476.043l-1.35.057c-.674.033-1.348.009-2.017-.071a4.493 4.493 0 01-1.175-.295 2.087 2.087 0 01-1.046-.843 1.504 1.504 0 01-.062-1.337c.098-.201.256-.368.452-.476.176-.099.363-.179.556-.238a6.388 6.388 0 012.012-.238c.576 0 1.037.029 1.356.048.16 0 .32.019.475.057-.613.059-1.23.082-1.845.071a6.674 6.674 0 00-1.945.281 1.298 1.298 0 00-.856.614 1.27 1.27 0 00.061 1.114c.208.342.52.609.89.761.355.145.727.243 1.108.291a13.7 13.7 0 001.983.118 10.08 10.08 0 011.879.043z" fill="#455A64"/><path d="M120.665 62.246v-2.384l-.028-6.596c0-5.658-.034-13.696-.057-23.257l.109.11H94.531l.124-.125v32.22l-.105-.105 18.948.052 5.303.028H120.675h-1.855l-5.279.029-19.024.052h-.105v-.104V29.823H120.808v.11c0 9.589-.043 17.656-.057 23.319 0 2.817 0 5.04-.029 6.572v2.17c-.009.086-.028.17-.057.252z" fill="#263238"/><path d="M116.366 58.258a.853.853 0 010-.123V56.44l-.029-5.049c0-4.326-.033-10.47-.057-17.699l.114.114h-18.01l.123-.119V58.23l-.1-.1 13.07.052 3.643.024h1.289-1.265l-3.62.024-13.131.052h-.1v-.1V46.76v-6.396V33.706l.124-.128h18.125v.114c0 7.277-.043 13.425-.057 17.77 0 2.147 0 3.846-.029 5.021v1.661a.62.62 0 01-.09.114zM120.665 130.258v-4.497l-.033-12.516c0-10.68-.033-25.7-.057-43.208l.119.119H94.536l.124-.124c0 23.458-.024 44.735-.034 60.236l-.09-.091 19.1.048h7.067H113.717l-19.153.047h-.09v-.014c0-15.505 0-36.778-.033-60.235v-.124h26.381v.119c0 17.518-.043 32.585-.057 43.307l-.033 12.488v4.183a.95.95 0 00-.067.262z" fill="#263238"/><path d="M116.366 126.927v-4.026c0-2.603 0-6.377-.033-11.113 0-9.461-.034-22.738-.058-38.048l.119.119H98.355l.124-.124c0 21.263-.034 40.347-.043 53.187l-.081-.081 13.217.043h4.794-4.747l-13.264.043h-.08c0-12.849-.025-31.924-.044-53.187v-.114h18.254v.118c0 15.339-.043 28.65-.057 38.13 0 4.721-.024 8.49-.034 11.084v3.722a2.615 2.615 0 00-.028.247zM120.665 206.536v-4.497l-.033-12.516c0-10.68-.033-25.699-.057-43.208l.119.119H94.536l.124-.123c0 23.457-.024 44.735-.034 60.235l-.09-.09 19.1.047h7.067H113.717l-19.153.048h-.09v-.091c0-15.505 0-36.778-.033-60.235v-.124h26.381v.119c0 17.518-.043 32.585-.057 43.308l-.033 12.487v4.184a2.037 2.037 0 00-.067.337z" fill="#263238"/><path d="M116.366 203.2v-4.026c0-2.603 0-6.377-.033-11.112 0-9.461-.034-22.739-.058-38.049l.119.119H98.355l.124-.124c0 21.264-.034 40.348-.043 53.188l-.081-.081 13.217.043h4.794-4.747l-13.264.042h-.08v-.081c0-12.849-.025-31.923-.044-53.187v-.124h18.254v.119c0 15.339-.043 28.65-.057 38.13 0 4.721-.024 8.49-.034 11.084v3.721a12.9 12.9 0 00-.028.338zM96.54 60.215c1.277-1.041 2.278-1.927 2.235-1.98-.043-.053-1.114.747-2.39 1.788-1.278 1.04-2.278 1.926-2.235 1.98.043.052 1.113-.748 2.39-1.788zM120.827 61.77a15.852 15.852 0 01-4.28-3.488c.052-.052.951.78 2.14 1.742 1.189.961 2.169 1.704 2.14 1.747zM118.302 32.368c1.13-.822 2.013-1.534 1.973-1.589-.04-.055-.989.567-2.119 1.39-1.13.822-2.014 1.533-1.973 1.589.04.055.988-.567 2.119-1.39zM98.426 33.288a8.96 8.96 0 01-2.164-1.219 8.962 8.962 0 01-1.902-1.59c.71.421 1.395.884 2.05 1.386.7.433 1.373.909 2.016 1.423zM98.26 73.802a8.784 8.784 0 01-3.705-4.189c.066-.038.666 1.08 1.693 2.233 1.027 1.151 2.055 1.894 2.012 1.956zM118.494 71.786c1.069-.94 1.899-1.744 1.854-1.796-.045-.05-.948.67-2.017 1.61-1.07.94-1.9 1.745-1.855 1.796.045.051.948-.67 2.018-1.61zM98.25 127.184c.038.062-.827.69-1.812 1.566-.984.875-1.717 1.656-1.774 1.608a10.462 10.462 0 013.586-3.174zM119.933 130.188c.047-.05-.69-.806-1.646-1.689-.955-.883-1.767-1.558-1.813-1.507-.046.05.69.806 1.646 1.689.955.882 1.767 1.557 1.813 1.507z" fill="#263238"/><path d="M98.698 150.712c.049-.048-.855-1.069-2.02-2.282-1.165-1.214-2.148-2.159-2.198-2.111-.049.047.855 1.069 2.02 2.282 1.164 1.213 2.148 2.158 2.198 2.111zM118.575 148.257c1.152-1.11 2.048-2.05 2.001-2.099-.048-.049-1.02.811-2.172 1.921-1.153 1.11-2.048 2.05-2.001 2.1.048.049 1.02-.811 2.172-1.922zM96.292 204.764c.899-.993 1.586-1.836 1.536-1.882-.051-.046-.82.722-1.72 1.716-.898.994-1.586 1.837-1.535 1.883.05.046.82-.723 1.719-1.717zM120.232 206.536a15.052 15.052 0 01-3.757-3.521 22.084 22.084 0 011.903 1.741 22.26 22.26 0 011.854 1.78zM155.455 62.246v-2.384l-.028-6.596c0-5.658-.033-13.696-.057-23.257l.109.11h-26.158l.124-.125v32.22l-.105-.105 18.948.052 5.303.028H155.465h-1.855l-5.279.029-19.024.052h-.105v-.104V29.823h26.344v.11c0 9.589-.043 17.656-.057 23.319l-.029 6.572v2.17a1.12 1.12 0 01-.005.252z" fill="#263238"/><path d="M151.156 58.258a.853.853 0 010-.123V56.44l-.029-5.049c0-4.326-.033-10.47-.057-17.699l.114.114h-18.01l.123-.119V58.23l-.1-.1 13.07.052 3.643.024h1.289-1.265l-3.62.024-13.131.052h-.1v-.1V46.76v-6.396-3.331-3.327l.124-.128h18.058v.114c0 7.277-.042 13.425-.057 17.77 0 2.147 0 3.846-.028 5.021v1.661a.737.737 0 01-.024.114zM155.455 130.258v-4.497l-.033-12.516c0-10.68-.033-25.7-.057-43.208l.119.119h-26.158l.124-.124c0 23.458-.024 44.735-.034 60.236l-.09-.091 19.1.048h7.067-.451l-1.399.033h-5.188l-19.153.048h-.09v-.048c0-15.505 0-36.778-.033-60.235v-.124h26.381v.119c0 17.518-.043 32.585-.057 43.307l-.033 12.488v4.183l-.015.262z" fill="#263238"/><path d="M151.156 126.927v-1.042-2.984c0-2.603 0-6.377-.033-11.113 0-9.461-.034-22.738-.057-38.048l.118.119h-18.039l.124-.124c0 21.263-.034 40.347-.043 53.187l-.081-.081 13.217.043h4.794-4.747l-13.264.043h-.081c0-12.849-.024-31.924-.043-53.187v-.114h18.244v.118c0 15.339-.042 28.65-.057 38.13 0 4.721-.024 8.49-.033 11.084v3.722c-.014.147-.019.247-.019.247zM155.455 206.536v-4.497l-.033-12.516c0-10.68-.033-25.699-.057-43.208l.119.119h-26.158l.124-.123c0 23.457-.024 44.735-.034 60.235l-.09-.09 19.1.047h7.067H148.507l-19.153.048h-.09v-.091c0-15.505 0-36.778-.033-60.235v-.124h26.381v.119c0 17.518-.043 32.585-.057 43.308l-.033 12.487v4.184c-.062.242-.067.337-.067.337z" fill="#263238"/><path d="M151.156 203.2v-1.042-2.984c0-2.603 0-6.377-.033-11.112 0-9.461-.034-22.739-.057-38.049l.118.119h-18.039l.124-.124c0 21.264-.034 40.348-.043 53.188l-.081-.081 13.217.043h4.794-4.747l-13.264.042h-.081v-.081c0-12.849-.024-31.923-.043-53.187v-.124h18.244v.119c0 15.339-.042 28.65-.057 38.13 0 4.721-.024 8.49-.033 11.084v3.721l-.019.338zM131.324 60.208c1.278-1.04 2.278-1.927 2.235-1.98-.043-.053-1.114.748-2.391 1.788s-2.277 1.927-2.234 1.98c.043.053 1.113-.748 2.39-1.788zM155.608 61.77a15.856 15.856 0 01-4.281-3.488c.052-.052.951.78 2.14 1.742 1.189.961 2.179 1.704 2.141 1.747zM153.09 32.365c1.13-.823 2.014-1.534 1.974-1.59-.04-.055-.989.567-2.119 1.39-1.13.822-2.014 1.534-1.974 1.59.04.054.989-.568 2.119-1.39zM133.216 33.288a8.98 8.98 0 01-2.164-1.219 8.963 8.963 0 01-1.902-1.59c.71.421 1.395.884 2.05 1.386.7.433 1.373.909 2.016 1.423zM133.05 73.802a8.783 8.783 0 01-3.705-4.189c.067-.038.666 1.08 1.693 2.233 1.027 1.151 2.055 1.894 2.012 1.956zM153.282 71.787c1.07-.94 1.9-1.745 1.855-1.796-.045-.051-.949.67-2.018 1.61-1.069.94-1.9 1.744-1.855 1.796.045.05.949-.67 2.018-1.61zM133.04 127.184c.038.062-.827.69-1.812 1.566-.984.875-1.717 1.656-1.774 1.608a10.473 10.473 0 013.586-3.174zM154.721 130.192c.047-.05-.69-.806-1.645-1.689-.956-.883-1.767-1.558-1.814-1.507-.046.05.691.806 1.646 1.689.955.882 1.767 1.557 1.813 1.507z" fill="#263238"/><path d="M133.489 150.709c.049-.048-.855-1.069-2.02-2.282-1.164-1.214-2.148-2.159-2.198-2.111-.049.047.855 1.069 2.02 2.282s2.149 2.158 2.198 2.111zM153.37 148.257c1.153-1.11 2.048-2.05 2.001-2.1-.047-.049-1.02.811-2.172 1.922-1.152 1.11-2.048 2.05-2.001 2.099.048.049 1.02-.811 2.172-1.921zM131.077 204.759c.899-.994 1.586-1.837 1.536-1.883-.051-.045-.821.723-1.719 1.717-.899.994-1.587 1.837-1.536 1.883.051.046.82-.723 1.719-1.717zM155.023 206.536a15.04 15.04 0 01-3.758-3.521 127.48 127.48 0 013.758 3.521z" fill="#263238"/><path d="M206.753 173.37h-58.337v41.965h58.337V173.37z"/><path d="M164.064 173.37c.081 0 0 8.862 0 8.862h-4.319v-8.862h4.319z" fill="#263238"/><path opacity=".4" d="M177.585 215.331h29.168v-41.965h-29.168v41.965z"/><path d="M158.005 207.117h-7.81v5.53h7.81v-5.53z" fill="#FAFAFA"/><path d="M158.014 212.661h-7.833v-5.554h7.833v5.554zm-7.809-.024h7.785v-5.506h-7.785v5.506z" fill="#263238"/><path d="M163.35 207.117h-3.904v5.53h3.904v-5.53z" fill="#FAFAFA"/><path d="M163.36 212.661h-3.929v-5.554h3.929v5.554zm-3.905-.024h3.881v-5.506h-3.881v5.506z" fill="#263238"/></svg>