<svg viewBox="0 0 135 94" xmlns="http://www.w3.org/2000/svg"><g clip-path="url(#clip0)"><path fill-rule="evenodd" clip-rule="evenodd" d="M5.592 39.713c5.49-14.865 30.505-6.666 43.526-15.643 6.48-4.466 2.975-16.731 9.598-20.98 6.875-4.41 16.35-3.662 23.875-.496 7.248 3.05 9.513 11.942 15.492 17.062 8.911 7.63 29.201 8.379 27.856 20.057-1.424 12.361-22.768 8.778-32.12 16.95-6.041 5.28-5.097 15.364-11.036 20.76-8.56 7.78-18.378 18.643-29.676 16.236-11.105-2.365-12.283-18.237-19.801-26.774C24.538 56.931.99 52.171 5.592 39.713z"/><path d="M107.637 49.89s-.018-1.556-.084-1.568l-3.2.701c-.032.203-.437 2.753-.367 3.003l3.597.998s.054-3.043.054-3.134z" fill="#FFBE9D"/><path d="M107.637 52.798s0-.028.017-.07c.037-.349.014-1.87-.171-1.933-.185-.063-.728.047-.763.245-.035.199.087 1.912.087 1.912s.037.269.489.334c.283.03.341-.488.341-.488z" fill="#FFBE9D"/><path d="M106.73 53.345s0-.028.016-.07c.038-.349.014-1.87-.171-1.933-.184-.063-.727.046-.762.245-.035.199.086 1.912.086 1.912s.038.269.489.334c.279.04.342-.488.342-.488z" fill="#FFBE9D"/><path d="M105.836 53.616s0-.028.017-.07c.037-.349.014-1.87-.171-1.933-.185-.063-.728.047-.765.245-.037.199.086 1.912.086 1.912s.038.269.489.334c.274.042.344-.488.344-.488z" fill="#FFBE9D"/><path d="M104.947 53.873s0-.028.017-.07c.037-.348.014-1.87-.171-1.933-.185-.063-.727.047-.765.245-.037.199.087 1.912.087 1.912s.037.269.489.334c.283.043.343-.488.343-.488z" fill="#FFBE9D"/><path d="M106.716 51.484c.054.243.077.492.07.741.024.244.016.49-.024.732a3.025 3.025 0 01-.07-.741 2.8 2.8 0 01.024-.732zM106.268 53.047c.026-.001.028-.474.005-1.056-.024-.583-.063-1.054-.089-1.053-.026.002-.028.474-.005 1.056.023.583.063 1.054.089 1.053z" fill="#EB996E"/><path opacity=".78" d="M104.981 53.666c.026 0 .03-.473.009-1.055-.02-.582-.058-1.052-.084-1.052-.026.001-.03.474-.009 1.056.021.581.058 1.052.084 1.051z" fill="#EB996E"/><path d="M104.335 49.11s-1.266 2.874-1.081 3.052c.243.178.504.33.779.453l.302-3.506zM97.334 10.562l-.936 10.752-5.38-.43c-.032-.629 0-3.06 0-3.06s-2.24-.348-2.269-2.587c-.013-1.087.143-3.335.307-5.362a4.143 4.143 0 014.376-3.805 4.152 4.152 0 013.713 2.856c.172.527.236 1.084.189 1.636z" fill="#FFBE9D"/><path d="M91.03 17.79a5.214 5.214 0 002.922-.83s-.702 1.613-2.929 1.402l.007-.572z" fill="#EB996E"/><path d="M89.662 11.444a.32.32 0 00.308.322.308.308 0 00.3-.17.305.305 0 00.03-.117.32.32 0 00-.308-.323.306.306 0 00-.33.288zM89.545 11.011c.04.042.283-.138.627-.135.344.002.596.173.633.13.038-.042-.02-.093-.13-.172a.877.877 0 00-1.006.004c-.108.07-.143.145-.124.173zM93.053 11.444a.32.32 0 00.316.322.306.306 0 00.323-.287.32.32 0 00-.309-.323.306.306 0 00-.33.288zM92.932 11.067c.04.042.283-.138.627-.135.343.002.596.173.633.13.038-.041-.02-.093-.133-.172a.877.877 0 00-1.006.004c-.105.08-.152.155-.121.173zM91.68 13.62a2.28 2.28 0 00-.559-.1c-.089 0-.17-.027-.187-.087a.445.445 0 01.059-.26l.26-.668c.36-.954.621-1.737.584-1.75-.037-.015-.362.745-.723 1.698l-.25.662a.51.51 0 00-.047.346.22.22 0 00.145.128c.05.014.1.02.15.021.188.027.38.03.568.01zM92.693 13.858c-.056 0-.056.37-.376.636s-.718.234-.72.276c-.003.042.088.072.256.077a.936.936 0 00.602-.21.81.81 0 00.292-.534c.014-.156-.028-.247-.054-.245zM92.84 9.719c.036.093.38.049.782.098s.732.159.783.075c.024-.04-.032-.129-.163-.22a1.371 1.371 0 00-1.193-.13c-.148.067-.223.132-.209.177zM89.671 10.006c.06.077.297 0 .582 0 .286 0 .527.052.583-.03.023-.04-.014-.117-.12-.192a.845.845 0 00-.935.028c-.103.075-.136.157-.11.194z" fill="#263238"/><path d="M97.813 9.179c-.128 1.089-.425 2.463-.51 3.578a.547.547 0 01-.08.292c-.158.213-.54.669-.734.489-.467-.44-.657-1.671-.75-2.31-.094-.637-.078-1.287-.166-1.925v-.045a1.762 1.762 0 00-.65-1.136 1.19 1.19 0 00-.265-.14c-.657-.234-1.757.196-2.412.435-.339.124-.666.276-.994.425a2.324 2.324 0 01-2.313-.194c-.4-.287-.435-1.201-.26-1.779.468-1.56 2.438-2.103 4.954-1.5 2.517.603 4.438 1.57 4.18 3.81z" fill="#263238"/><path d="M96.578 11.577c.038-.017 1.54-.456 1.493 1.075-.047 1.53-1.577 1.169-1.58 1.122-.002-.047.087-2.197.087-2.197z" fill="#FFBE9D"/><path d="M96.978 13.21s.026.02.07.043a.267.267 0 00.2 0 .66.66 0 00.324-.582.882.882 0 00-.063-.384.308.308 0 00-.194-.21.136.136 0 00-.159.068c-.021.042-.014.072-.021.075-.007.002-.033-.026-.019-.09a.17.17 0 01.063-.093.201.201 0 01.15-.035.373.373 0 01.271.246.905.905 0 01.08.43.7.7 0 01-.412.65.285.285 0 01-.234-.05c-.056-.03-.063-.065-.056-.067z" fill="#EB996E"/><path d="M97.79 9.282a2.361 2.361 0 01-2.201.04 4.103 4.103 0 002.2-.04zM97.736 9.72a2.18 2.18 0 01-2.105.04 3.775 3.775 0 002.105-.039z" fill="#455A64"/><path d="M87.072 86.004l.997 4.581s-4.327 2.55-4.224 3.415l8.958-1.61-1.258-7.204-4.473.818z" fill="#263238"/><path d="M92.803 92.392l-.154-.72-8.533 1.814s-.367.234-.272.516l8.96-1.61z" fill="#455A64"/><path d="M97.264 86.507l.147 4.674s-4.718 1.725-4.774 2.592l9.104.04.07-7.311-4.547.005z" fill="#263238"/><path opacity=".6" d="M101.741 93.827l-.021-.736-8.72.234s-.407.175-.363.467l9.104.035z" fill="#455A64"/><path d="M86.586 89.936s-4.678-22.876-4.678-23.334l8.34-4.404 3.229 26.845-6.891.892zM97.079 90.702l-6.444-39.645v-8.553l8.816.818c.112.335 2.994 47.434 2.994 47.434l-.91-.052h-4.444" fill="#263238"/><path d="M85.568 41.899l-3.656 24.703 8.17-1.98 3.33-21.919-7.844-.804z" fill="#263238"/><path d="M93.135 43.993v.122l.038.355.154 1.36c.14 1.183.349 2.891.624 5.002.546 4.221 1.374 10.05 2.262 16.471.442 3.216.85 6.283 1.198 9.074.089.7.161 1.379.26 2.04l.294 1.917.522 3.44c.316 2.104.566 3.808.73 4.986.082.589.142 1.047.177 1.358.02.154.03.273.035.353.003.03.003.059 0 .088 0 .026-.014 0-.014 0h.017a.463.463 0 000-.09c0-.08 0-.202-.023-.356a41.157 41.157 0 00-.157-1.36c-.15-1.18-.388-2.887-.702-4.99l-.503-3.443-.287-1.917c-.096-.657-.167-1.342-.256-2.038a622.25 622.25 0 00-1.188-9.076c-.889-6.432-1.728-12.25-2.294-16.466l-.653-4.986-.175-1.358-.05-.353c-.009-.09-.009-.133-.009-.133zM88.212 89.723s0-.04-.014-.117l-.057-.344-.234-1.316-.849-4.835-2.84-15.948a3.707 3.707 0 01-.067-1.155c.05-.38.112-.769.168-1.147l.349-2.249c.234-1.472.468-2.893.688-4.244.449-2.705.884-5.143 1.272-7.169s.73-3.676.99-4.808c.121-.565.233-1.002.301-1.3l.077-.338c.017-.077.024-.117.024-.117s-.014.037-.035.112l-.09.337c-.074.294-.193.729-.322 1.294-.274 1.127-.625 2.768-1.024 4.801-.4 2.034-.84 4.465-1.296 7.167-.234 1.35-.468 2.772-.702 4.244l-.35 2.249c-.057.38-.12.762-.172 1.154-.039.398-.015.8.07 1.19l2.873 15.938.884 4.83.246 1.31.067.341c.03.08.043.12.043.12zM92.45 62.191c.031-.005-.35-2.566-.85-5.72s-.931-5.707-.962-5.702c-.03.005.35 2.566.85 5.72.501 3.154.932 5.707.962 5.702zM97.002 90.63a.786.786 0 00.21.037c.136.016.335.035.58.054.49.037 1.17.075 1.918.086.749.012 1.429 0 1.921-.023.234 0 .444-.024.58-.035a.8.8 0 00.213-.03 6.221 6.221 0 00-.796-.015h-1.915c-.747 0-1.425-.035-1.916-.053a6.227 6.227 0 00-.795-.021z" fill="#455A64"/><path d="M86.586 89.936a1.3 1.3 0 00.274-.015l.741-.079c.625-.07 1.488-.178 2.44-.302.952-.123 1.812-.233 2.435-.331l.736-.113c.091-.01.182-.027.27-.053a1.129 1.129 0 00-.274 0 43.06 43.06 0 00-.742.077c-.624.07-1.487.175-2.44.299-.951.124-1.812.234-2.434.334l-.737.115a1.28 1.28 0 00-.27.068zM74.315 27.298l5.254 3.994s4.89-8.332 5.321-8.851c.43-.52 1.53-1.073 1.53-1.073l-.604 10.68s-2.645 6.745-6.275 6.378c-2.78-.28-7.584-7.608-7.584-7.608l2.358-3.52z" fill="#455A64"/><path opacity=".2" d="M79.473 31.166a4.61 4.61 0 00-.531 3.842.568.568 0 00.213.34.414.414 0 00.526-.176c.095-.182.142-.386.136-.591.087.197.22.371.388.507a.468.468 0 00.592-.021c.175-.192.08-.496-.026-.734l-1.343-3.039"/><path d="M74.436 30.511c.698-1.09 1.236-1.992 1.204-2.013-.033-.021-.625.847-1.322 1.938-.698 1.09-1.237 1.992-1.204 2.013.033.021.625-.847 1.322-1.938zM74.299 28.347c-.014-.012.054-.082.173-.037a.234.234 0 11-.313.166c.03-.124.126-.14.128-.122.003.019-.033.059-.028.133.005.075.066.155.162.103a.108.108 0 00.042-.152.108.108 0 00-.042-.04c-.054-.044-.113-.032-.122-.051zM79.569 33.823a3.737 3.737 0 01-.04-2.526c.042 0-.07.568-.056 1.264.014.697.145 1.25.096 1.262z" fill="#263238"/><path d="M80.596 33.786a6.122 6.122 0 01-1.07-2.482c.04 0 .235.56.527 1.243.292.683.578 1.218.543 1.24z" fill="#263238"/><path d="M97.42 20.36l-.795-1.57h-5.747l-.903 1.783-3.55.802-1.53 22.88c-.01.29.06.577.203.83l13.96.518.568.234c.501-.308.19-1.582.194-2.183l.178-11.331 2.762-9.055-5.34-2.908z" fill="#455A64"/><path opacity=".2" d="M91.463 21.146l1.015-1.015 1.141 2.752a28.88 28.88 0 003.743-2.616l-3.866 1.241-.98-2.599a9.917 9.917 0 01-.971 2.25"/><path d="M107.663 49.042l-3.764.194V38.444l-3.892-6.114 2.763-9.055c.568.234 4.856 10.986 5.948 13.903.158.421.227.87.203 1.32l-1.258 10.544z" fill="#455A64"/><path d="M86.005 31.03c.27-2.725.457-4.938.418-4.942-.038-.004-.288 2.203-.557 4.929-.27 2.726-.457 4.939-.418 4.942.038.004.288-2.203.557-4.929zM92.508 18.914c.038.014-.269.839-.685 1.84l-.077.184a.467.467 0 01-.126.19.234.234 0 01-.25.015 1.732 1.732 0 01-.162-.1l-.517-.35a2.336 2.336 0 01-.468-.354c.18.069.352.159.51.27l.533.324c.103.063.206.14.253.084.068-.098.121-.206.157-.32.43-1 .795-1.797.832-1.783zM97.079 20.316c-.283.14-.576.258-.877.353-.548.2-1.308.467-2.15.757l-.468.157-.063.02-.026-.06a93.094 93.094 0 01-.73-1.809 4.729 4.729 0 01-.259-.743c.135.224.25.458.346.7.201.45.468 1.076.774 1.791l-.089-.04.468-.158c.842-.288 1.607-.543 2.164-.718.297-.106.6-.19.91-.25zM102.171 23.6c0 .042-.798.262-1.736.68-.938.418-1.637.87-1.667.832.128-.133.277-.245.44-.334a8.937 8.937 0 012.423-1.077c.174-.061.356-.095.54-.101z" fill="#263238"/><path d="M92.508 18.914a.257.257 0 010 .067v.201c0 .178.017.438.02.774 0 .671 0 1.636-.045 2.842-.087 2.4-.386 5.708-.866 9.35-.234 1.816-.489 3.543-.662 5.118a33.14 33.14 0 00-.234 4.208c.016.946.094 1.89.234 2.825.04.332.094.587.12.762l.03.199a.248.248 0 010 .068.25.25 0 01-.019-.066l-.044-.196c-.035-.173-.096-.428-.148-.76a19.44 19.44 0 01-.269-2.832c-.027-1.406.04-2.811.2-4.208.165-1.58.418-3.307.652-5.123.468-3.63.795-6.928.905-9.324.06-1.196.08-2.169.089-2.837v-.972a.248.248 0 01.037-.096zM107.874 47.392c.002-.039-.888-.114-1.987-.168-1.1-.053-1.992-.066-1.994-.027-.002.038.888.114 1.987.167 1.099.054 1.992.067 1.994.028zM104.529 47.81c.011.016 0 .054.011.103.012.049.061.08.11.04s.033-.085-.014-.117c-.047-.033-.084-.02-.098-.033-.014-.014.026-.077.126-.063a.179.179 0 01.138.107.194.194 0 01-.061.22.194.194 0 01-.226.014.185.185 0 01-.078-.159c.01-.103.085-.128.092-.112z" fill="#263238"/><path opacity=".2" d="M100.054 32.302l-1.228-2.216a30.429 30.429 0 00.81 11.673l.378-9.413"/><path d="M93.837 28.235c.073-.011.148-.016.222-.014l.655-.016c.569 0 1.387-.026 2.374-.03h.068v.067l-.215 2.931v.04l-.035.018-.145.077-1.59.835-.04.021-.036-.028-1.492-1.208-.023-.02v-.03l.168-1.94.054-.525a.85.85 0 01.026-.176c.004.066.004.133 0 .199l-.024.54-.107 1.912-.021-.05 1.487 1.19h-.075l1.586-.839.145-.077-.037.059.234-2.929.06.068c-.96 0-1.765-.019-2.338-.03l-.667-.017a1.84 1.84 0 01-.234-.028zM86.925 45.192c0 .04-.295-.014-.482-.297-.187-.282-.13-.57-.093-.558.037.011.049.233.21.479.162.245.377.337.365.376zM87.288 45.04c-.024.028-.29-.233-.396-.647-.105-.414 0-.77.04-.758.04.012 0 .337.098.723.099.385.29.657.258.682zM97.827 43.467c.035 0 .07.55-.217 1.153-.288.602-.732.934-.749.902-.016-.033.356-.39.62-.963.265-.573.302-1.096.346-1.092z" fill="#263238"/><path d="M74.02 27.735s-4.252-3.219-4.848-3.434c-.99-.357-1.226-.262-1.226-.262l2.34 2.51s-2.466.833-2.644.936c-.178.102-.267.64.335.64.493 0 2.858.056 2.858.056l1.95 1.424 1.236-1.87z" fill="#FFBE9D"/><path d="M73.877 21.825c5.369-.758 9.107-5.712 8.35-11.064-.758-5.352-5.724-9.076-11.093-8.317-5.369.758-9.107 5.712-8.35 11.064.758 5.352 5.724 9.076 11.093 8.317z" fill="#F5F5F5"/><path d="M73.629 19.147c4.09-.594 6.924-4.381 6.33-8.459-.592-4.077-4.388-6.901-8.478-6.307-4.09.594-6.924 4.38-6.33 8.458.592 4.078 4.388 6.902 8.478 6.308z" fill="#EBEBEB"/><path d="M79.924 10.46c-.044 0-.124-.314-.325-.863a7.947 7.947 0 00-1.183-2.143 7.659 7.659 0 00-1.17-1.202 7.486 7.486 0 00-1.637-1.01 7.34 7.34 0 00-6.449.2 7.481 7.481 0 00-2.903 2.765 7.658 7.658 0 00-.69 1.532 7.942 7.942 0 00-.372 2.42c0 .584.038.913 0 .92-.037.007-.145-.308-.215-.909a6.91 6.91 0 01.199-2.561 7.477 7.477 0 011.892-3.303c.26-.267.54-.514.838-.739a7.62 7.62 0 012.086-1.124 7.674 7.674 0 013.654-.355c.755.115 1.49.342 2.177.675a7.497 7.497 0 012.915 2.45c.494.7.854 1.487 1.062 2.318.15.587.154.924.121.928z" fill="#E0E0E0"/><path d="M74.035 16.057l.205 1.286-1.148.184-.201-1.25c-1.149.112-2.297-.068-3.008-.468l.407-1.502a4.707 4.707 0 002.36.467l-.306-1.919c-1.327-.105-2.807-.301-3.081-1.944-.194-1.218.522-2.403 2.304-2.901l-.204-1.274 1.149-.185.201 1.253a5.266 5.266 0 012.444.327l-.348 1.506a4.774 4.774 0 00-1.855-.316l.313 1.952c1.324.093 2.793.294 3.053 1.914.192 1.192-.517 2.365-2.285 2.87zm-1.963-4.892L71.81 9.53c-.587.234-.774.608-.713.986.06.38.442.573.975.653v-.003zm2.421 2.452c-.065-.402-.433-.566-.954-.661l.255 1.584c.552-.215.755-.554.697-.923h.002z" fill="#E0E0E0"/><path d="M133.528 52.615s-2.178-1.257-4.428 3.901c-2.25 5.159-3.04 8.101-3.04 8.101s-.611 1.09-1.373.447c-.763-.643-1.872-2.527-3.072-2.104-1.249.44-1.581 1.882-1.214 3.95.368 2.069 1.006 6.627 1.062 7.04.056.414-.142 1.02-.732.664-.589-.355-4.063-3.782-5.59-2.038-1.528 1.744.442 7.337.645 7.947.204.61.099.89-.189 1.063-.288.173-1.347-1.089-2.374-2.024-1.027-.935-2.384-1.837-3.181-.757-.798 1.08-.817 5.376 3.667 12.056l2.281 2.964 3.742-.433c7.932-1.402 11.01-4.399 11.228-5.722.217-1.323-1.366-1.673-2.753-1.764-1.387-.091-3.041.02-3.106-.306-.066-.328.049-.594.633-.875.585-.28 5.984-2.739 6.18-5.05.197-2.312-4.678-2.434-5.347-2.614-.669-.18-.358-.745-.028-.986.33-.24 4.068-2.947 5.813-4.118 1.744-1.171 2.554-2.41 2.004-3.614-.529-1.169-2.655-.647-3.646-.75-.992-.103-.63-1.3-.63-1.3s1.572-2.613 3.729-7.811c2.156-5.198-.323-5.897-.323-5.897" fill="#EBEBEB"/><path d="M116.126 93.05c1.597-3.811 3.85-9.058 6.359-14.846a2798.04 2798.04 0 006.393-14.828l1.916-4.504.521-1.224.138-.318.052-.108s0 .038-.04.112l-.126.323-.501 1.234a578.328 578.328 0 01-1.871 4.52 1773.04 1773.04 0 01-6.36 14.845c-2.503 5.785-4.774 11.027-6.393 14.83" fill="#E0E0E0"/><path d="M123.049 65.653c.048.078.085.16.112.248.066.161.152.397.255.7.206.588.468 1.403.744 2.31l.69 2.326.213.701c.033.084.055.172.066.262a1.069 1.069 0 01-.115-.246c-.063-.16-.15-.397-.25-.7a64.248 64.248 0 01-.725-2.317l-.702-2.319-.215-.7a1.102 1.102 0 01-.073-.265zM129.226 70.977c2.061-.728 3.722-1.345 3.71-1.378-.012-.033-1.691.53-3.752 1.259-2.061.728-3.722 1.346-3.71 1.378.011.033 1.691-.53 3.752-1.259zM121.222 80.95c.09-.02.182-.03.274-.03l.749-.044a61.087 61.087 0 002.467-.19 66.923 66.923 0 002.459-.294l.743-.103c.091-.019.184-.026.276-.023a1.14 1.14 0 01-.266.072c-.173.038-.426.09-.739.143-.625.11-1.495.234-2.459.332a33.04 33.04 0 01-2.477.152h-.751a1.155 1.155 0 01-.276-.014zM117.716 75.479a.999.999 0 01.162.199c.095.133.233.327.397.568.332.484.784 1.154 1.275 1.9.491.745.936 1.426 1.244 1.921.157.248.281.449.365.592.05.072.09.15.12.233a.965.965 0 01-.162-.198 26.477 26.477 0 01-.398-.568c-.332-.484-.783-1.155-1.274-1.9a88.387 88.387 0 01-1.242-1.922 22.99 22.99 0 01-.365-.591.984.984 0 01-.122-.234zM113.987 82.694c.076.079.144.165.203.257l.512.727a240.264 240.264 0 013.273 4.869l.468.75c.063.09.117.185.161.285a1.583 1.583 0 01-.204-.257l-.512-.727a193.848 193.848 0 01-1.651-2.423 211.521 211.521 0 01-1.621-2.445l-.468-.75a1.567 1.567 0 01-.161-.286zM118.55 89.384a1.85 1.85 0 01.346-.05l.948-.088c.8-.077 1.906-.185 3.122-.339 1.217-.154 2.316-.318 3.111-.444l.936-.147a1.83 1.83 0 01.348-.04c-.11.04-.223.07-.339.089-.22.049-.54.114-.936.187-.79.147-1.889.33-3.108.481a57.462 57.462 0 01-3.132.302c-.402.025-.728.042-.952.049-.114.01-.23.01-.344 0zM52.424 68.43L7.844 54.565a2.172 2.172 0 01-1.429-2.719l8.573-27.512a2.17 2.17 0 011.88-1.523c.285-.026.572.005.845.09l44.575 13.867a2.17 2.17 0 011.43 2.716l-8.58 27.52a2.172 2.172 0 01-2.714 1.426z" fill="#E0E0E0"/><path d="M53.888 42.545a3.523 3.523 0 00-6.727-2.092 3.523 3.523 0 006.727 2.092z" fill="white"/><path d="M54.138 46.398a3.668 3.668 0 01-3.127-2.819 3.663 3.663 0 013.716-4.48 3.67 3.67 0 013.353 2.545 3.662 3.662 0 01-1.505 4.196 3.67 3.67 0 01-2.437.558zm.872-6.986a3.381 3.381 0 00-3.8 3.369 3.376 3.376 0 003.835 3.329 3.381 3.381 0 002.894-3.803 3.377 3.377 0 00-2.929-2.895zM12.638 43.857l-.837 2.702-.278-.086.764-2.457-.638-.198.077-.248.912.287zM14.655 47.179l-.078.247-1.896-.589.06-.196 1.467-.75c.4-.206.514-.37.57-.554.099-.313-.063-.575-.467-.701a.963.963 0 00-.833.072l-.145-.233a1.274 1.274 0 011.078-.09c.55.171.81.557.67 1.01-.08.26-.235.468-.702.702l-1.203.617 1.479.465zM17.649 47.6l-.54-.169-.223.701-.278-.086.222-.701-1.527-.468.063-.2 1.992-1.347.31.096-1.928 1.316 1.17.364.194-.626.27.084-.193.627.54.168-.072.24zM21.793 48.89l-.54-.169-.222.702-.278-.087.222-.701-1.528-.468.064-.2 1.992-1.347.31.096-1.928 1.316 1.17.365.193-.627.272.084-.194.627.533.16-.066.249zM24.184 49.54c-.143.467-.576.72-1.238.514-.359-.1-.667-.332-.86-.65l.203-.178c.16.279.423.483.732.57.468.143.775 0 .875-.334.1-.334-.042-.63-.73-.844l-.575-.18.561-1.31 1.48.467-.076.248-1.238-.386-.36.832.349.108c.816.245 1.027.666.877 1.142zM26.862 50.36c-.157.505-.657.701-1.183.542-.719-.234-.955-.844-.688-1.697.285-.918.936-1.24 1.672-1.012.227.06.433.18.597.346l-.183.19a.995.995 0 00-.486-.29c-.583-.183-1.076.077-1.303.81-.019.061-.04.14-.056.234a.906.906 0 01.97-.205c.536.156.803.589.66 1.082zm-.278-.082c.11-.355-.082-.664-.498-.795-.417-.13-.775.038-.88.374-.093.297.068.657.533.802a.62.62 0 00.845-.381zM30.553 51.542c-.14.452-.578.702-1.23.494a1.47 1.47 0 01-.866-.65l.204-.178c.162.28.429.486.741.573.45.14.76 0 .866-.327.105-.328-.061-.608-.564-.765l-.194-.06.063-.206 1.043-.701-1.382-.43.077-.248 1.738.54-.06.196-1.067.732c.57.203.764.598.631 1.03zM33.273 52.356c-.156.505-.657.701-1.18.542-.719-.234-.955-.844-.689-1.697.286-.918.936-1.24 1.673-1.012.226.06.432.18.596.346l-.182.19a.991.991 0 00-.487-.29c-.582-.183-1.076.077-1.302.81-.02.062-.04.14-.057.234a.906.906 0 01.971-.205c.536.154.812.586.657 1.082zm-.276-.077c.11-.356-.081-.664-.498-.795-.416-.13-.774.038-.88.374-.093.297.066.657.534.802a.62.62 0 00.844-.383v.002zM36.36 51.234l-.06.196-1.913 2.155-.302-.093 1.871-2.104-1.392-.432-.156.505-.274-.087.234-.752 1.993.612zM40.22 52.435l-.06.197-1.914 2.155-.302-.094 1.872-2.103-1.385-.442-.157.505-.273-.087.233-.752 1.986.621zM42.274 55.215c-.15.467-.648.65-1.294.448-.645-.2-.95-.621-.802-1.1a.701.701 0 01.728-.503.637.637 0 01-.234-.727c.138-.44.596-.598 1.17-.42.572.177.87.57.731 1.011a.64.64 0 01-.617.468.713.713 0 01.318.822zm-.285-.094c.103-.332-.117-.629-.597-.778-.48-.15-.826-.028-.936.303-.11.332.113.634.592.781.48.147.838.03.943-.306h-.002zm-.529-.998c.421.13.732.021.823-.273.092-.295-.114-.573-.519-.702-.405-.128-.725-.023-.819.278-.093.302.094.566.517.697h-.002zM45.095 55.42c-.285.919-.936 1.241-1.673 1.014a1.299 1.299 0 01-.596-.345l.182-.19c.131.142.3.242.487.29.582.182 1.076-.077 1.303-.811.018-.06.04-.14.056-.234a.905.905 0 01-.97.206c-.536-.166-.815-.6-.66-1.094.154-.493.657-.701 1.18-.542.721.222.957.841.69 1.706zm-.215-.657c.093-.296-.066-.657-.534-.801a.621.621 0 00-.844.38c-.11.356.082.664.498.795s.781-.047.88-.383v.01zM48.253 54.934l-.843 2.702-.278-.087.765-2.456-.639-.199.078-.247.917.287zM50.269 58.255l-.077.248-1.902-.591.06-.197 1.467-.75c.4-.206.515-.37.571-.554.098-.313-.063-.575-.468-.701a.962.962 0 00-.832.072l-.145-.233a1.271 1.271 0 011.078-.09c.55.171.81.557.669 1.01-.082.26-.234.468-.702.702l-1.202.617 1.483.467zM52.86 58.482c-.14.451-.577.701-1.23.493a1.472 1.472 0 01-.865-.65l.203-.177c.163.28.43.486.742.572.449.14.76 0 .865-.327.105-.327-.06-.608-.564-.764l-.194-.06.063-.207 1.041-.7-1.382-.43.077-.249 1.74.54-.06.197-1.065.722c.569.213.763.608.63 1.04zM31.224 54.8l-.366 1.174 21.666 6.739.365-1.174L31.224 54.8zM41.05 60.428l-.366 1.174 11.113 3.457.366-1.174-11.113-3.457z" fill="white"/><path opacity=".5" d="M21.813 36.71l-6.876-2.14a1.16 1.16 0 00-1.453.763l-1.424 4.573a1.16 1.16 0 00.763 1.451l6.876 2.14a1.16 1.16 0 001.453-.763l1.424-4.573a1.16 1.16 0 00-.763-1.451z" fill="#EBEBEB"/><path d="M11.3 39.134l.135-.435 4.678 1.456a1.03 1.03 0 001.311-.666 1.025 1.025 0 00-.7-1.293l-4.679-1.456.136-.434 4.678 1.456a1.484 1.484 0 011.02 1.868 1.483 1.483 0 01-1.902.96L11.3 39.134z" fill="#E0E0E0"/><path d="M17.54 39.608l-.136.434 3.198 1.008.136-.432-3.197-1.01z" fill="#E0E0E0"/><path d="M39.025 36.248l-23.381-7.273-.624 2.004 23.38 7.273.625-2.005z" fill="white"/><path d="M17.646 88.498c3.395-.494 5.747-3.636 5.255-7.02-.492-3.384-3.643-5.728-7.037-5.235-3.394.493-5.747 3.636-5.254 7.02.492 3.384 3.642 5.727 7.036 5.234z" fill="#F5F5F5"/><path d="M17.434 87.04a4.724 4.724 0 004.004-5.35 4.727 4.727 0 00-5.362-3.99 4.724 4.724 0 00-4.004 5.35 4.727 4.727 0 005.363 3.99z" fill="#EBEBEB"/><path d="M21.416 81.544A2.803 2.803 0 0121.21 81a4.84 4.84 0 00-1.492-2.115 4.739 4.739 0 00-1.035-.639 4.641 4.641 0 00-3.438-.154 4.622 4.622 0 00-1.73 1.073 4.734 4.734 0 00-1.189 1.926 5.02 5.02 0 00-.234 1.53c.02.194.02.39 0 .583a1.388 1.388 0 01-.136-.575 4.37 4.37 0 01.131-1.61 4.737 4.737 0 011.196-2.09 4.64 4.64 0 011.149-.867 4.816 4.816 0 012.247-.584 4.828 4.828 0 012.143.467 4.74 4.74 0 011.843 1.55c.315.442.545.939.678 1.465.066.188.09.387.073.584z" fill="#E0E0E0"/><path d="M17.69 85.085l.13.814-.727.117-.126-.793a3.493 3.493 0 01-1.902-.292l.257-.949c.464.224.979.324 1.493.29l-.195-1.213c-.837-.068-1.782-.192-1.948-1.23-.124-.768.33-1.519 1.457-1.834l-.128-.807.727-.117.126.793a3.33 3.33 0 011.547.206l-.22.95a3.017 3.017 0 00-1.17-.2l.199 1.234c.837.058 1.766.187 1.93 1.21.117.76-.33 1.501-1.45 1.822zm-1.243-3.094l-.166-1.03c-.372.149-.488.382-.451.623.037.24.283.358.62.41l-.003-.003zm1.53 1.55c-.04-.255-.274-.358-.603-.419l.161 1.003c.353-.136.482-.35.445-.582l-.003-.003z" fill="#E0E0E0"/><path d="M115.691 84.064c-.454.648-1.336.433-1.743.038-.407-.395-.582-.968-.739-1.515-.36-1.248-.721-2.557-.454-3.826.064-.385.234-.745.489-1.04a1.113 1.113 0 011.053-.351c.444.117.72.552.919.965a9.121 9.121 0 01.903 3.915c0 .631-.073 1.293-.428 1.812"/><path opacity=".2" d="M115.691 84.064c-.454.648-1.336.433-1.743.038-.407-.395-.582-.968-.739-1.515-.36-1.248-.721-2.557-.454-3.826.064-.385.234-.745.489-1.04a1.113 1.113 0 011.053-.351c.444.117.72.552.919.965a9.121 9.121 0 01.903 3.915c0 .631-.073 1.293-.428 1.812"/><path d="M113.992 87.341a3.93 3.93 0 00-2.437-.297c-.45.04-.874.23-1.204.538-.302.332-.358.916-.012 1.201.223.15.492.219.76.192.646 0 1.359-.122 1.871.266.295.222.489.59.84.701a.833.833 0 00.915-.406c.167-.323.204-.698.102-1.047a1.59 1.59 0 00-.835-1.148zM116.935 84.992a2.353 2.353 0 01-.367-2.167 4.17 4.17 0 011.284-1.87 6.917 6.917 0 012.299-1.355 2.457 2.457 0 011.034-.175 1.083 1.083 0 01.868.525c.234.468 0 1.022-.234 1.478a17.565 17.565 0 01-1.511 2.297c-.454.585-.971 1.169-1.661 1.424-.69.254-1.403.233-1.773-.246"/><path d="M115.721 93.825a1.395 1.395 0 01-.042-.295l-.077-.801a11.81 11.81 0 00-.18-1.17 9.215 9.215 0 00-.428-1.388 5.138 5.138 0 00-.702-1.257 2.648 2.648 0 00-.898-.746 2.509 2.509 0 00-.756-.233 1.395 1.395 0 01-.292-.042c.098-.011.198-.011.297 0 .273.02.54.09.788.205.366.176.686.434.936.753.308.389.556.821.736 1.283.183.454.325.924.426 1.403.076.393.129.791.157 1.192.026.34.035.617.04.806.008.096.007.194-.005.29z" fill="#263238"/><path d="M115.667 93.208a.614.614 0 010-.136v-.39c0-.34 0-.83-.016-1.433a58.41 58.41 0 00-.335-4.717c-.201-1.834-.467-3.49-.715-4.674a26.708 26.708 0 00-.171-.8c-.054-.234-.098-.437-.14-.6l-.092-.38a.567.567 0 01-.023-.135c.021.041.036.084.047.129l.112.374c.051.161.103.362.161.596.059.234.127.5.19.797.334 1.544.586 3.104.753 4.675.201 1.839.292 3.505.302 4.728 0 .608 0 1.099-.021 1.437l-.024.39a.542.542 0 01-.028.139z" fill="#263238"/><path d="M115.658 89.975a2.51 2.51 0 010-.406c.014-.262.051-.64.124-1.104.089-.542.21-1.079.36-1.608.179-.65.404-1.286.674-1.905a10.139 10.139 0 011.976-3.076c.147-.154.303-.298.468-.432.072-.06.133-.121.199-.168l.18-.124c.109-.082.224-.156.344-.22-.396.31-.771.646-1.125 1.003A10.691 10.691 0 00116.93 85a15.361 15.361 0 00-.676 1.887 16.44 16.44 0 00-.381 1.594c-.084.467-.133.834-.161 1.094a2.687 2.687 0 01-.054.4z" fill="#263238"/><path d="M64.833 71.436L28.629 33.169a1.003 1.003 0 01.04-1.421L52.436 9.3a1.006 1.006 0 011.422.04l36.201 38.269a1.005 1.005 0 01-.04 1.421L66.258 71.468a1.005 1.005 0 01-1.424-.032z"/><path opacity=".3" d="M64.833 71.436L28.629 33.169a1.003 1.003 0 01.04-1.421L52.436 9.3a1.006 1.006 0 011.422.04l36.201 38.269a1.005 1.005 0 01-.04 1.421L66.258 71.468a1.005 1.005 0 01-1.424-.032z"/><path d="M89.795 47.328L54.118 9.608a1.404 1.404 0 00-1.968-.055l-6.75 6.39a.55.55 0 00-.168.495c.673 3.773 3.375 7.146 6.591 9.38 3.89 2.702 8.495 4.123 12.865 5.925 4.37 1.802 8.773 4.177 11.398 8.118 2.477 3.716 3.064 8.328 4.323 12.621a24.39 24.39 0 001.286 3.406.556.556 0 00.889.173l7.155-6.76a1.402 1.402 0 00.056-1.973z"/><path d="M53.591 20.594c-.322.304-.75.234-1.216-.264l-.912-.965 1.871-1.763.863.912c.442.467.468.89.183 1.169a.618.618 0 01-.646.14.633.633 0 01-.143.771zm-.18-2.255l-.44.416.4.437c.2.21.382.254.53.116.146-.137.11-.322-.09-.532l-.4-.437zm-.184 1.778c.156-.15.119-.339-.094-.563l-.468-.503-.468.435.468.503c.218.226.4.28.56.138l.002-.01zM54.953 22.254l-.819-.867-.557.212-.418-.442 2.652-.934.402.425-1.078 2.597-.428-.454.246-.537zm.198-.447l.436-.97-.995.379.56.591zM58.803 23.399l-1.871 1.762-.33-.36.252-2-1.132 1.065-.402-.425 1.871-1.762.337.357-.255 1.999 1.132-1.07.398.434zM58.73 25.58h-.498l-.468.446-.416-.432 1.871-1.763.407.43-.875.82h1.654l.454.48-1.563.014-.257 1.797-.468-.502.16-1.29zM45.498 27.578l-.313-.343-.468.425-.166-.175.451-.426-.914-.965.126-.12 1.993-.165.185.196-1.935.17.702.744.395-.374.162.17-.395.375.322.343-.145.145zM46.731 28.796c-.285.27-.702.27-1.095-.143a1.227 1.227 0 01-.362-.825l.22-.047c.003.27.112.528.304.718.269.283.55.316.762.114.213-.2.204-.467-.098-.782l-.115-.122.129-.122 1.043-.086-.828-.877.157-.147 1.04 1.101-.123.117-1.067.091c.325.383.307.755.033 1.01zM48.053 30.177c-.29.276-.702.288-1.107-.13a1.217 1.217 0 01-.36-.823l.22-.047c.002.267.11.524.3.713.275.292.563.31.771.114.208-.196.234-.467-.185-.91l-.343-.364.935-.722.887.935-.157.147-.735-.783-.6.468.207.22c.487.497.468.885.166 1.182zM49.486 31.668a.735.735 0 01-1.078-.086c-.43-.456-.348-1 .192-1.512.582-.55 1.186-.52 1.637-.054.14.135.241.305.293.493l-.209.063a.824.824 0 00-.233-.409c-.349-.37-.812-.383-1.278.056-.04.038-.086.087-.133.14a.754.754 0 01.788.246c.311.341.335.769.021 1.063zm-.168-.168c.234-.213.213-.514-.037-.778a.544.544 0 00-.791-.087c-.19.178-.22.503.06.8a.514.514 0 00.768.065zM52.476 35.852l.152-.916-.936.098-.185-.196 1.142-.115.168-1.075.185.196-.138.863.87-.089.18.192-1.085.107-.176 1.139-.177-.204zM53.71 37.159l.153-.916-.936.098-.185-.197 1.142-.114.168-1.075.185.196-.138.862.87-.088.18.191-1.085.108-.176 1.138-.177-.203zM54.946 38.463l.152-.916-.936.098-.185-.197 1.142-.114.168-1.075.185.196-.138.863.87-.09.18.192-1.085.108-.175 1.138-.178-.203zM56.178 39.76l.152-.916-.935.098-.185-.196 1.141-.115.169-1.075.185.196-.138.863.87-.089.18.192-1.085.107-.176 1.139-.178-.204zM60.447 44.278l.152-.916-.935.098-.185-.196 1.141-.115.169-1.075.184.196-.138.863.87-.089.18.192-1.085.107-.175 1.138-.178-.203zM61.682 45.585l.152-.916-.935.098-.185-.197 1.141-.114.169-1.075.184.196-.138.862.87-.088.18.191-1.085.108-.175 1.138-.178-.203zM62.917 46.891l.152-.916-.935.098-.185-.196 1.141-.115.169-1.075.184.197-.138.862.87-.089.18.192-1.085.107-.175 1.139-.178-.204zM64.154 48.196l.153-.917-.936.098-.185-.196 1.142-.114.168-1.075.185.196-.138.862.87-.089.18.192-1.085.108-.176 1.138-.177-.203zM69.698 50.626l-1.712 1.618-.166-.176 1.555-1.47-.381-.404.157-.147.547.58zM69.934 53.317c-.285.27-.701.27-1.094-.143a1.227 1.227 0 01-.363-.825l.22-.047c.003.27.113.528.304.718.269.283.55.315.762.114.213-.2.204-.467-.098-.783l-.114-.121.128-.122 1.043-.086-.828-.877.157-.147 1.041 1.1-.124.118-1.067.09c.328.391.312.756.033 1.01zM71.504 55.063l-.325-.344-.452.425-.166-.175.452-.425-.915-.966.126-.119 1.993-.166.185.197-1.934.17.701.743.396-.373.161.17-.395.374.322.344-.15.145zM72.458 56.661l-.157.148-1.136-1.202.124-.117 1.37.054c.374.014.524-.058.641-.17.199-.188.19-.442-.058-.702a.8.8 0 00-.634-.287v-.234a1.062 1.062 0 01.818.376c.328.349.36.734.075 1.005-.163.155-.36.234-.802.234l-1.123-.042.882.937zM39.255 29.009a.62.62 0 011.015.516l-.233-.016a.36.36 0 00-.099-.297.36.36 0 00-.524.493.359.359 0 00.293.115v.233a.617.617 0 01-.468-1.04l.016-.005zM40.376 30.645l-.358-.379-.234.094-.182-.194 1.17-.41.177.188-.468 1.138-.208-.204.103-.233zm.086-.197l.19-.425-.435.166.245.26zM41.03 31.692l.08-.372-.157-.163-.233.215-.178-.19.816-.771.335.353c.206.217.234.467.04.636a.365.365 0 01-.417.074l-.089.433-.196-.215zm.497-.804l-.145-.155-.286.27.145.154c.11.114.218.123.307.04.088-.085.086-.195-.021-.319v.01zM41.37 31.888l.203-.07a.66.66 0 00.171.35c.105.113.187.122.234.075.152-.145-.402-.519-.098-.806.138-.13.36-.129.58.103.096.097.164.22.196.353l-.198.077a.635.635 0 00-.15-.288c-.105-.112-.19-.114-.234-.067-.15.142.402.518.103.801-.136.129-.36.127-.583-.107a.802.802 0 01-.224-.421zM43.896 33.082l-.816.772-.178-.19.334-.315-.35-.372-.335.316-.178-.19.817-.77.177.189-.322.303.35.372.323-.304.178.19zM43.622 33.613a.617.617 0 110 .846.583.583 0 010-.846zm.665.701a.35.35 0 10-.503 0 .345.345 0 00.503 0zM45.014 34.265l.178.19-.664.63.388.41-.154.145-.567-.599.82-.776zM45.68 34.97l.352.373a.565.565 0 11-.817.77l-.35-.37.816-.772zm-.32.987a.348.348 0 10.508-.467l-.164-.173-.508.467.164.173zM46.528 37.189l-.153.143-.598-.634.816-.771.585.617-.152.143-.407-.43-.178.168.358.378-.148.138-.357-.378-.19.177.424.449zM47.012 38.012l.08-.372-.157-.163-.234.215-.178-.19.816-.771.335.353c.205.217.233.467.04.636a.365.365 0 01-.417.074l-.089.433-.196-.215zm.495-.804l-.145-.154-.285.268.145.155c.11.114.218.123.307.04.088-.085.086-.192-.022-.31zM35.983 31.935l.435-.028a.498.498 0 00.103.467c.138.145.3.14.468-.023l.748-.701-.524-.554.293-.276.865.914-1.022.965c-.388.367-.765.353-1.116-.018a.873.873 0 01-.25-.746zM37.232 33.246a.3.3 0 11.412.437.3.3 0 01-.412-.437zM41.428 34.94l-2.063.973-.37-.39.74-1.354-1.404.65-.367-.388 1.086-2.005.357.378-.771 1.403 1.457-.676.318.337-.777 1.402 1.462-.687.332.358zM41.576 35.086a.275.275 0 01.402.032.27.27 0 01.016.398.302.302 0 01-.418-.43zm-.325.388l.332.35-1.21 1.143-.332-.35 1.21-1.143zM42.35 35.726l.332.35-1.67 1.58-.332-.35 1.67-1.58zM42.989 36.401l.332.351-1.67 1.578-.333-.35 1.67-1.578zM43.494 37.124a.277.277 0 01.402.032.27.27 0 01.077.305.27.27 0 01-.06.093.303.303 0 01-.49-.225.301.301 0 01.07-.205zm-.325.388l.332.35-1.21 1.143-.332-.35 1.21-1.143zM44.3 39.76l-.701.652-.311-.33.15-.142a.547.547 0 01-.517-.208c-.27-.283-.27-.6-.061-.8.208-.198.505-.191.854.178l.264.278c.15-.142.152-.315-.026-.504a.8.8 0 00-.442-.234l.126-.358c.247.062.469.195.639.384.363.35.393.727.026 1.084zm-.64-.058l.124-.117-.234-.234c-.154-.164-.264-.159-.346-.082-.082.077-.075.213.042.337a.355.355 0 00.416.084l-.002.012zM46.537 42.097l-.702.655-.332-.35.639-.604c.196-.184.203-.357.067-.5-.135-.142-.355-.173-.57.033l-.608.575-.333-.35.639-.604c.196-.184.206-.353.068-.5-.138-.147-.354-.17-.569.035l-.608.575-.332-.35 1.21-1.144.317.335-.14.13a.676.676 0 01.517.234.622.622 0 01.178.585.748.748 0 01.61.25c.288.294.316.654-.051.995zM46.142 42.85l.362-.122c.044.2.141.383.28.531.153.161.253.182.321.12.199-.188-.701-.728-.213-1.183.234-.218.587-.164.922.189.156.159.27.353.334.566l-.36.119a.953.953 0 00-.234-.435c-.15-.157-.262-.178-.325-.12-.208.197.685.737.208 1.188-.233.213-.582.154-.935-.208a1.425 1.425 0 01-.36-.645zM60.117 56.355c.52-.49 1.088-.481 1.453-.096.365.386.344.954-.176 1.445-.519.49-1.085.484-1.452.096s-.344-.942.175-1.445zm.936.982c.358-.34.388-.603.215-.786-.173-.182-.437-.165-.795.173-.358.34-.386.606-.218.784.169.177.433.18.79-.16l.008-.011zM62.494 59.466c-.323.304-.772.234-1.088-.1-.41-.435-.393-.961.115-1.443.545-.514 1.17-.467 1.607 0 .146.149.25.334.301.536l-.395.119a.713.713 0 00-.199-.37.577.577 0 00-.874 0 .733.733 0 01.507.258.685.685 0 01.026 1zm-.353-.337a.328.328 0 00-.017-.49.34.34 0 00-.493-.05.331.331 0 00.028.498.326.326 0 00.489.042h-.007zM64.599 58.88l.295.313-2.821 1.26-.295-.314 2.82-1.26zM64.388 61.864l-.297.28-1.13-1.189.235-.234 1.148.066a.536.536 0 00.444-.11c.124-.117.115-.271-.042-.437a.532.532 0 00-.468-.178l-.08-.428a1.006 1.006 0 01.885.349c.332.35.374.755.087 1.023a.865.865 0 01-.746.206l-.686-.04.65.692zM65.906 63.4l-.234-.257-.33.313-.336-.355.33-.314-.803-.848.234-.234 1.703-.208.363.383-1.598.206.4.423.295-.278.325.344-.295.278.234.257-.288.29z" fill="white"/><path d="M73.296 43.932c.886-1.365.54-3.178-.653-4.286a4.25 4.25 0 00-1.242-.816c-1.14-.468-2.65-.129-3.247.951-.489.881-.29 1.982.052 2.929.358.993.935 2.008 1.922 2.393.936.372 2.085.03 2.793-.701.14-.144.265-.302.374-.47z"/><path d="M94.99 44.495H35.174a4.078 4.078 0 00-4.08 4.077v41.144a4.078 4.078 0 004.08 4.076H94.99a4.078 4.078 0 004.08-4.076V48.572a4.078 4.078 0 00-4.08-4.077z"/><path d="M99.07 48.572v-.147a3.235 3.235 0 00-.043-.438 4.004 4.004 0 00-1.434-2.53 4.121 4.121 0 00-1.33-.73c-.132-.044-.27-.072-.407-.11-.138-.037-.286-.044-.433-.07l-.452-.021h-2.519l-24.389.019H35.684a6.389 6.389 0 00-1.242.07 4.213 4.213 0 00-1.17.409 4.275 4.275 0 00-.994.757c-.294.303-.536.65-.718 1.03-.188.38-.312.789-.365 1.21-.041.426-.055.856-.042 1.285v40.386a4.044 4.044 0 001.001 2.658 3.977 3.977 0 002.477 1.332c.48.042.962.056 1.443.042h58.577c.367.012.734-.012 1.097-.072a3.975 3.975 0 001.027-.346 3.6 3.6 0 00.89-.599 3.987 3.987 0 001.348-2.774c.026-2.805 0-5.502.017-8.073 0-10.284.014-18.614.018-24.369v-6.626-1.723-.587 8.936c0 5.755 0 14.08.019 24.369 0 2.571.014 5.266 0 8.078a4.078 4.078 0 01-1.378 2.842 3.7 3.7 0 01-.912.615 4.07 4.07 0 01-1.052.355 5.718 5.718 0 01-1.116.075H36.062c-.486.014-.974 0-1.459-.042a4.092 4.092 0 01-2.552-1.372 4.165 4.165 0 01-1.027-2.728V66.777 55.881v-5.283-1.302c-.013-.433 0-.867.042-1.3a3.9 3.9 0 01.377-1.243c.188-.39.437-.748.74-1.058.3-.309.644-.57 1.021-.779.379-.199.785-.34 1.205-.42l.316-.05.318-.016c.213-.012.419 0 .629 0H68.051l24.39.019h2.51l.467.023c.147.024.295.042.435.07a4.15 4.15 0 011.75.853c.325.275.606.597.835.956a3.97 3.97 0 01.624 2.046c.007.126.007.175.007.175z" fill="#263238"/><path d="M97.39 47.595c.388 0 .702-.027.702-.06 0-.034-.314-.062-.702-.062-.388 0-.702.028-.702.061 0 .034.314.06.702.06zM92.394 47.595c.79 0 1.431-.027 1.431-.06 0-.034-.64-.062-1.431-.062-.79 0-1.432.028-1.432.061 0 .034.641.06 1.432.06zM86.67 47.595c.79 0 1.432-.027 1.432-.06 0-.034-.641-.062-1.432-.062-.79 0-1.431.028-1.431.061 0 .034.64.06 1.431.06zM80.944 47.595c.79 0 1.432-.027 1.432-.06 0-.034-.641-.062-1.432-.062-.79 0-1.431.028-1.431.061 0 .034.64.06 1.431.06zM75.22 47.595c.791 0 1.432-.027 1.432-.06 0-.034-.64-.062-1.431-.062s-1.432.028-1.432.061c0 .034.64.06 1.431.06zM69.495 47.595c.79 0 1.431-.027 1.431-.06 0-.034-.64-.062-1.431-.062s-1.432.028-1.432.061c0 .034.64.06 1.431.06zM63.77 47.595c.791 0 1.432-.027 1.432-.06 0-.034-.64-.062-1.431-.062-.79 0-1.432.028-1.432.061 0 .034.641.06 1.432.06zM58.045 47.595c.79 0 1.431-.027 1.431-.06 0-.034-.64-.062-1.431-.062-.79 0-1.432.028-1.432.061 0 .034.641.06 1.432.06zM52.321 47.595c.79 0 1.432-.027 1.432-.06 0-.034-.641-.062-1.432-.062-.79 0-1.431.028-1.431.061 0 .034.64.06 1.431.06zM46.595 47.595c.79 0 1.432-.027 1.432-.06 0-.034-.641-.062-1.432-.062-.79 0-1.431.028-1.431.061 0 .034.64.06 1.431.06zM40.87 47.595c.79 0 1.43-.027 1.43-.06 0-.034-.64-.062-1.43-.062-.791 0-1.432.028-1.432.061 0 .034.64.06 1.431.06zM35.174 48.937a8.117 8.117 0 01-.061-1.403l.06-.06h.548l.447.013c.138-.006.277.008.412.042a1.407 1.407 0 01-.412.043l-.447.014H35.174l.06-.061c.021.471.001.944-.06 1.412zM35.174 54.18c.033 0 .06-.588.06-1.312 0-.724-.027-1.311-.06-1.311-.034 0-.061.587-.061 1.31 0 .725.027 1.312.06 1.312zM35.174 59.422c.033 0 .06-.587.06-1.312 0-.724-.027-1.31-.06-1.31-.034 0-.061.586-.061 1.31 0 .725.027 1.312.06 1.312zM35.174 64.664c.033 0 .06-.587.06-1.31 0-.725-.027-1.312-.06-1.312-.034 0-.061.587-.061 1.311s.027 1.311.06 1.311zM35.174 69.907c.033 0 .06-.587.06-1.311 0-.725-.027-1.312-.06-1.312-.034 0-.061.587-.061 1.312 0 .724.027 1.31.06 1.31zM35.174 75.15c.033 0 .06-.588.06-1.312 0-.724-.027-1.31-.06-1.31-.034 0-.061.586-.061 1.31 0 .725.027 1.312.06 1.312zM35.174 80.39c.033 0 .06-.587.06-1.311 0-.725-.027-1.312-.06-1.312-.034 0-.061.587-.061 1.312 0 .724.027 1.31.06 1.31zM35.174 85.632c.033 0 .06-.587.06-1.31 0-.725-.027-1.312-.06-1.312-.034 0-.061.587-.061 1.311s.027 1.311.06 1.311zM36.577 89.657c-.465.06-.934.081-1.403.061l-.061-.06v-.543l.014-.446a1.4 1.4 0 01.042-.412 1.4 1.4 0 01.042.412l.014.446v.542l-.06-.06c.471-.021.944 0 1.412.06zM40.809 89.716c.779 0 1.41-.028 1.41-.061 0-.034-.632-.06-1.41-.06-.78 0-1.41.026-1.41.06 0 .033.63.06 1.41.06zM46.45 89.716c.78 0 1.41-.028 1.41-.061 0-.034-.63-.06-1.41-.06-.779 0-1.41.026-1.41.06 0 .033.631.06 1.41.06zM52.092 89.716c.779 0 1.41-.028 1.41-.061 0-.034-.631-.06-1.41-.06-.779 0-1.41.026-1.41.06 0 .033.631.06 1.41.06zM57.734 89.716c.779 0 1.41-.028 1.41-.061 0-.034-.631-.06-1.41-.06-.78 0-1.41.026-1.41.06 0 .033.63.06 1.41.06zM63.376 89.716c.779 0 1.41-.028 1.41-.061 0-.034-.631-.06-1.41-.06-.78 0-1.41.026-1.41.06 0 .033.63.06 1.41.06zM69.017 89.716c.78 0 1.41-.028 1.41-.061 0-.034-.63-.06-1.41-.06-.779 0-1.41.026-1.41.06 0 .033.631.06 1.41.06zM74.66 89.716c.778 0 1.41-.028 1.41-.061 0-.034-.632-.06-1.41-.06-.78 0-1.411.026-1.411.06 0 .033.631.06 1.41.06zM80.303 89.716c.78 0 1.41-.028 1.41-.061 0-.034-.63-.06-1.41-.06-.779 0-1.41.026-1.41.06 0 .033.631.06 1.41.06zM85.945 89.716c.779 0 1.41-.028 1.41-.061 0-.034-.631-.06-1.41-.06-.779 0-1.41.026-1.41.06 0 .033.631.06 1.41.06zM91.587 89.716c.779 0 1.41-.028 1.41-.061 0-.034-.631-.06-1.41-.06-.78 0-1.41.026-1.41.06 0 .033.63.06 1.41.06zM96.52 89.716c.387 0 .702-.028.702-.061 0-.034-.315-.06-.702-.06-.388 0-.702.026-.702.06 0 .033.314.06.702.06z" fill="#263238"/><path opacity=".3" d="M54.541 71.838s.014 2.337-.702 3.74c-.715 1.402-.935 1.956-2.43 2.5-1.495.545-20.33 2.609-20.33 2.609v-6.349l23.462-2.5zM54.211 63.026s.215-2.384-5.775-3.272c-6.85-1.015-17.341-2.258-17.341-2.258v4.515l23.116 1.015z"/><path d="M51.203 60.86H31.717a3.346 3.346 0 00-3.348 3.344v8.718a3.346 3.346 0 003.348 3.345h19.486a3.346 3.346 0 003.347-3.345v-8.718a3.346 3.346 0 00-3.347-3.345z"/><path d="M31.717 76.267h-.201a3.279 3.279 0 01-1.471-.425 3.366 3.366 0 01-1.652-2.338 4.9 4.9 0 01-.056-.935v-1.007-4.726-2.749a3.378 3.378 0 011.342-2.594c.424-.324.92-.542 1.446-.634.267-.044.538-.063.81-.056h19.28c.34.005.677.055 1.003.15.645.2 1.215.587 1.638 1.112.42.518.678 1.148.743 1.812.024.33.015.65.017.97v7.411c0 .297 0 .587-.012.888a3.583 3.583 0 01-.054.442 3.406 3.406 0 01-2.564 2.634 3.614 3.614 0 01-.408.073c-.139 0-.277.016-.412.02h-8.107l-8.3-.018h-3.043 3.044l8.299-.019H50.36c.534-.014 1.079.045 1.602-.093a3.297 3.297 0 002.344-2.209c.204-.54.176-1.126.176-1.72v-1.797-3.71-1.905c0-.32 0-.645-.017-.958a3.27 3.27 0 00-.718-1.746 3.274 3.274 0 00-1.588-1.073 3.67 3.67 0 00-.968-.145H31.91c-.266-.007-.531.01-.793.054-.51.089-.992.299-1.403.612a3.284 3.284 0 00-1.31 2.518c-.012.951 0 1.87 0 2.746v5.733c-.013.313.004.626.051.935a3.329 3.329 0 002.489 2.665c.19.048.383.079.578.091l.194-.01z" fill="#263238"/><path d="M46.663 74.743a5.602 5.602 0 005.605-5.6c0-3.093-2.51-5.6-5.605-5.6a5.602 5.602 0 00-5.604 5.6c0 3.093 2.509 5.6 5.604 5.6z" fill="#263238"/><path d="M48.1 73.72a5.894 5.894 0 001.335-.702 4.795 4.795 0 001.132-1.169 4.38 4.38 0 00.608-3.807 4.792 4.792 0 00-.713-1.461 5.89 5.89 0 00-1.053-1.08c.033.012.064.03.091.051.086.054.169.113.248.176.295.23.558.5.782.8.336.444.591.945.753 1.479a4.406 4.406 0 01-.62 3.903 4.716 4.716 0 01-1.17 1.169c-.306.216-.64.39-.991.519a2.71 2.71 0 01-.29.088.35.35 0 01-.113.033z" fill="#FAFAFA"/><path d="M111.646.005a.799.799 0 01.141 0h.411c.092 0 .192 0 .304.014l.363.051.423.06.468.118c.818.208 1.595.549 2.302 1.01A8.11 8.11 0 01119.8 7.35c.033.37.04.74.024 1.11-.014.187 0 .379-.038.568l-.098.58a8.15 8.15 0 01-.772 2.26 8.72 8.72 0 01-1.478 2.031 8.553 8.553 0 01-2.129 1.529 7.738 7.738 0 01-2.594.794 5.138 5.138 0 01-.701.059 6.23 6.23 0 01-.702.012 8.2 8.2 0 01-4.192-1.346h.085l-2.842 1.14-.169.068.049-.176.835-3.038.014.075a8.143 8.143 0 01-1.515-3.469 7.295 7.295 0 01-.11-1.776c.005-.286.031-.572.079-.854l.066-.416c.026-.135.068-.268.098-.402a8.12 8.12 0 013.169-4.618 7.802 7.802 0 011.902-.989l.426-.152.402-.103.37-.09c.119-.024.234-.036.339-.052.215-.028.404-.066.568-.073l.417-.014h.255a.381.381 0 01.086 0 .385.385 0 01-.086.012l-.255.021-.414.028c-.164.012-.351.054-.564.087a8.086 8.086 0 00-6.461 5.988c-.03.13-.072.262-.095.395l-.061.409a5.618 5.618 0 00-.075.839 7.26 7.26 0 00.114 1.741 8.01 8.01 0 001.495 3.394l.026.033v.042l-.828 3.038-.119-.107 2.839-1.143.045-.019.039.026a8.02 8.02 0 004.098 1.318c.228.01.456.005.683-.012.227-.003.453-.022.676-.056a7.566 7.566 0 002.538-.776 8.38 8.38 0 002.084-1.49 8.528 8.528 0 001.45-1.985c.362-.696.62-1.44.765-2.211l.087-.561c.028-.185.023-.374.037-.557a7.996 7.996 0 00-3.646-7.11 7.732 7.732 0 00-2.262-1.019l-.468-.124-.421-.067-.36-.059c-.11-.012-.211-.014-.302-.023l-.416-.035a.795.795 0 01-.141-.021z" fill="#263238"/><path d="M114.315 10.076h-.372l-1.022.017-3.431.03h-.028v-.028l-.082-.568-.594-4.102.021.019h-1.233.318l.915-.042h.019v.018l.61 4.112.082.568-.033-.028H114.215l.1.004z"/><path d="M109.56 10.17h-.117l-.016-.115v-.028l-.068-.467-.597-4.088h-1.113c-.098 0-.112 0-.112-.035 0 0 0-.012.105-.017h.234l.858-.014v-.02l.024.02h.079v.08l.024.02h-.021l.603 4.056.075.514h4.676c.11 0 .124 0 .124.035s0 .033-.124.035h-.276l-1.023.017-3.361.03.026-.023zm0-.073h.912-.912zm-.313-1.657l.233 1.599-.074-.507-.159-1.092z"/><path d="M109.342 9.104h.372l1.034-.014 3.563-.033-.031.026.328-1.92.173-1.007.032.038-4.198.014H109.034h.334l1.242-.016 4.199-.036h.037v.038l-.171 1.007-.329 1.92v.025H109.354l-.012-.042z"/><path d="M110.746 9.141h-1.383c-.025 0-.051 0-.051-.032 0-.033.028-.03.051-.033h.349l1.034-.014 3.508-.033.319-1.87.159-.935-4.126.014h-1.666c-.03 0-.058 0-.058-.032 0-.033.025-.03.056-.033h.423l1.242-.016 4.147-.036h.138l-.018.113-.48 2.804-.019.113h-.114l-3.511-.01zm3.508-.07h-.519.519zm.548-2.863l-.162.935-.315 1.87.479-2.805h-.002zm-.049-.063h-1.03H114.753zM110.701 11.404s0-.042-.028-.115a.478.478 0 00-.409-.337.458.458 0 00-.425.214.453.453 0 00.657.602.482.482 0 00.175-.252c.021-.072.021-.115.026-.115a.25.25 0 010 .122.48.48 0 01-.173.283.508.508 0 11-.48-.881.503.503 0 01.482.077c.09.07.152.169.175.28a.228.228 0 010 .122z"/><path d="M110.21 11.946a.54.54 0 11.089-1.072.526.526 0 01.428.403.335.335 0 010 .127.382.382 0 010 .126.508.508 0 01-.182.3.532.532 0 01-.335.116zm-.1-1.01l-.059.017a.483.483 0 000 .907l.061.016-.058-.019a.484.484 0 01-.317-.452.478.478 0 01.317-.452l.056-.017zm.112.045a.416.416 0 00-.152.028.423.423 0 00.21.816.439.439 0 00.195-.08.457.457 0 00.184-.32v-.019-.02a.641.641 0 00-.021-.087.452.452 0 00-.168-.234.433.433 0 00-.246-.082l-.002-.002zM113.808 11.385s0-.042-.028-.114a.488.488 0 00-.178-.26.457.457 0 00-.656.127.454.454 0 00.182.643.453.453 0 00.474-.04.482.482 0 00.175-.253c.021-.072.021-.114.026-.114a.228.228 0 010 .121.48.48 0 01-.173.283.504.504 0 01-.728-.104.506.506 0 010-.591.507.507 0 01.248-.186.504.504 0 01.482.077c.09.07.152.169.176.28a.242.242 0 010 .131z"/><path d="M113.319 11.927a.532.532 0 01-.435-.227.534.534 0 010-.622.537.537 0 01.767-.116.51.51 0 01.185.297.382.382 0 010 .126.382.382 0 010 .126.509.509 0 01-.183.3.531.531 0 01-.334.116zm-.105-1.01l-.057.017a.481.481 0 000 .907l.068.019-.065-.02a.483.483 0 01-.23-.727.483.483 0 01.23-.177l.054-.018zm.117.045a.426.426 0 00-.354.668.425.425 0 00.411.176.45.45 0 00.38-.4v-.02-.022a.649.649 0 00-.021-.086.448.448 0 00-.169-.234.433.433 0 00-.247-.08v-.002zM125.008 44.453c5.695-.509 9.899-5.524 9.391-11.202-.508-5.678-5.536-9.868-11.231-9.36-5.695.51-9.9 5.525-9.392 11.203.508 5.678 5.537 9.868 11.232 9.36z"/><path opacity=".3" d="M131.921 33.216c-.047 0-.112-.337-.292-.935a8.368 8.368 0 00-1.123-2.337 8.127 8.127 0 00-1.169-1.335 7.725 7.725 0 00-4.938-2.036 7.718 7.718 0 00-3.518.701 7.726 7.726 0 00-1.871 1.216 7.856 7.856 0 00-2.155 3.094 8.358 8.358 0 00-.535 2.567c-.033.617-.014.963-.063.967-.05.005-.134-.334-.173-.967a7.27 7.27 0 01.364-2.667 7.905 7.905 0 013.118-4.095 8.034 8.034 0 012.262-1.061 8.091 8.091 0 013.867-.162c.788.16 1.548.438 2.254.823a7.91 7.91 0 012.927 2.749c.483.766.819 1.614.991 2.503.096.624.096.975.054.975z"/><path opacity=".3" d="M125.395 38.774l.143 1.365-1.221.126-.138-1.33c-1.216.051-2.414-.206-3.141-.659l.517-1.554a4.959 4.959 0 002.456.617l-.213-2.036c-1.39-.187-2.95-.482-3.13-2.225-.133-1.293.69-2.501 2.594-2.92l-.14-1.353 1.221-.126.138 1.33a5.553 5.553 0 012.554.486l-.452 1.552a5.03 5.03 0 00-1.934-.44l.215 2.074c1.387.175 2.924.467 3.102 2.192.136 1.276-.681 2.47-2.571 2.9zm-1.782-5.264l-.18-1.732c-.632.213-.852.594-.81.996.043.402.436.622.992.736h-.002zm2.404 2.72c-.044-.427-.423-.62-.966-.75l.176 1.683c.599-.208.833-.542.793-.932h-.003z"/><path d="M116.231 34.892c.008.02.013.041.016.063l.033.184.049.3c.018.137.045.273.082.406a7.917 7.917 0 001.003 2.426c.322.514.7.991 1.128 1.422l.369.334c.064.056.124.117.192.168l.208.154c.141.103.276.215.428.311l.468.283c.67.378 1.391.657 2.14.83a7.824 7.824 0 004.849-.447 7.997 7.997 0 001.953-1.206l.405-.362c.131-.122.234-.26.365-.386l.175-.19c.056-.065.106-.135.157-.2l.309-.39c.341-.502.626-1.04.849-1.604.324-.82.508-1.69.545-2.57.01-.139.01-.277 0-.415v-.49a.24.24 0 010-.066.222.222 0 010 .063l.014.187.019.304c.01.139.01.278 0 .416a7.695 7.695 0 01-.513 2.597 8.13 8.13 0 01-.846 1.636l-.302.409c-.052.068-.101.14-.159.206l-.178.194c-.122.128-.234.266-.367.392l-.409.37a8.107 8.107 0 01-1.979 1.232 7.895 7.895 0 01-4.912.453 8.089 8.089 0 01-2.171-.849l-.468-.29c-.152-.098-.29-.214-.432-.317l-.211-.16c-.068-.053-.129-.116-.192-.172l-.379-.358a8.098 8.098 0 01-1.129-1.447 7.683 7.683 0 01-.978-2.46 2.727 2.727 0 01-.07-.412l-.038-.304-.021-.187a.228.228 0 01-.002-.058z" fill="#263238"/><path d="M119.808 63.75c1.439-2.984.179-6.571-2.814-8.012-2.993-1.442-6.586-.191-8.025 2.793s-.18 6.571 2.813 8.012c2.994 1.442 6.587.191 8.026-2.793z"/><path opacity=".3" d="M118.582 63.002a2.66 2.66 0 01.131-.549c.121-.488.166-.992.133-1.493a4.553 4.553 0 00-1.502-3.078 4.462 4.462 0 00-2.51-1.115 4.491 4.491 0 00-1.295.049 4.59 4.59 0 00-1.998.902 4.858 4.858 0 00-1.017 1.1c-.202.298-.295.468-.321.468.029-.19.098-.373.204-.535.245-.466.575-.882.973-1.227a4.592 4.592 0 012.093-1.03c.224-.048.45-.078.678-.09a4.649 4.649 0 011.446.145 4.713 4.713 0 011.979 1.07c.345.315.642.68.879 1.083.403.68.624 1.452.641 2.241a4.234 4.234 0 01-.25 1.545c-.05.189-.14.364-.264.514z"/><path opacity=".3" d="M113.67 63.835l-.337.724-.646-.299.328-.701a3.376 3.376 0 01-1.371-1.265l.723-.624c.251.431.609.79 1.041 1.04l.5-1.08c-.636-.507-1.328-1.117-.898-2.042.318-.685 1.09-1.043 2.166-.685l.334-.718.646.3-.327.7c.45.24.838.584 1.129 1.003l-.701.645a2.943 2.943 0 00-.833-.794l-.51 1.098c.641.5 1.317 1.106.894 2.017-.302.68-1.065 1.024-2.138.68zm.68-3.156l.426-.918c-.379-.082-.601.042-.702.257-.1.215.035.432.276.654v.007zm.389 2.073c.105-.233-.026-.437-.258-.661l-.414.893c.353.072.587-.03.674-.236l-.002.004z"/><path d="M110.255 59.16s-.073.19-.188.533a4.627 4.627 0 00-.212 1.505c.009.351.056.7.142 1.04.102.394.252.773.447 1.13a4.533 4.533 0 003.354 2.258 4.66 4.66 0 001.329-.02 4.88 4.88 0 001.153-.343c.319-.147.621-.329.901-.543.405-.31.757-.685 1.04-1.11.197-.304.286-.483.297-.467a.646.646 0 01-.058.133c-.059.127-.125.25-.199.37-.272.44-.62.83-1.027 1.152a4.727 4.727 0 01-.91.565 4.9 4.9 0 01-1.169.363 4.71 4.71 0 01-1.361.025 4.606 4.606 0 01-3.436-2.32c-.2-.361-.353-.745-.457-1.144a4.704 4.704 0 01-.128-1.063 4.406 4.406 0 01.255-1.522c.047-.132.101-.262.163-.388a.665.665 0 01.064-.154z" fill="#263238"/><path d="M12.185 73.99c5.367-.78 9.086-5.748 8.308-11.098-.778-5.35-5.76-9.056-11.126-8.276C4 55.396.28 60.364 1.059 65.714c.778 5.35 5.76 9.055 11.126 8.276z"/><path opacity=".3" d="M18.145 62.998c-.044 0-.123-.313-.325-.863a7.946 7.946 0 00-1.183-2.143 7.66 7.66 0 00-1.17-1.201 7.483 7.483 0 00-1.637-1.01 7.339 7.339 0 00-6.449.199 7.338 7.338 0 00-1.707 1.25 7.48 7.48 0 00-1.186 1.51 7.665 7.665 0 00-.69 1.533 7.941 7.941 0 00-.372 2.42c0 .584.037.913 0 .92-.037.007-.145-.308-.215-.909a6.911 6.911 0 01.206-2.545 7.49 7.49 0 011.892-3.303c.26-.267.54-.514.837-.739a7.627 7.627 0 012.086-1.124 7.675 7.675 0 013.654-.355c.756.11 1.49.333 2.18.662a7.498 7.498 0 012.915 2.449 6.92 6.92 0 011.071 2.319c.124.598.126.925.093.93z"/><path opacity=".3" d="M12.256 68.598l.206 1.286-1.149.184-.201-1.25c-1.148.112-2.297-.068-3.008-.468l.407-1.503a4.708 4.708 0 002.36.468l-.304-1.921c-1.326-.106-2.807-.302-3.08-1.945-.195-1.218.521-2.403 2.303-2.9l-.203-1.274 1.149-.185.2 1.253a5.266 5.266 0 012.445.327l-.349 1.505a4.774 4.774 0 00-1.854-.315l.313 1.951c1.324.094 2.793.295 3.052 1.914.19 1.193-.519 2.366-2.287 2.873zm-1.963-4.892l-.262-1.636c-.587.234-.774.608-.713.986.06.379.444.57.975.65zm2.421 2.452c-.065-.402-.432-.566-.954-.662l.255 1.585c.552-.208.758-.556.7-.923z"/><path d="M3.374 65.4a.234.234 0 01.02.06l.039.172.063.283c.024.129.057.256.098.38a7.503 7.503 0 001.079 2.245c.332.47.715.902 1.143 1.288l.368.296c.063.05.124.103.19.15l.205.136c.138.088.274.189.421.273l.454.234c.654.322 1.351.549 2.07.673a7.417 7.417 0 004.566-.676 7.609 7.609 0 001.787-1.243l.365-.365c.116-.121.217-.257.325-.383l.156-.19c.05-.062.092-.133.138-.198l.265-.39a7.742 7.742 0 00.72-1.562 7.498 7.498 0 00.381-2.459 2.785 2.785 0 00-.016-.392l-.021-.288v-.177a.23.23 0 010-.061c.006.019.01.038.012.058l.023.176.033.287c.019.13.028.263.028.395a7.288 7.288 0 01-.349 2.487 7.732 7.732 0 01-.715 1.59l-.267.397c-.047.068-.089.138-.138.203l-.157.194c-.107.129-.208.267-.327.39l-.386.377a7.66 7.66 0 01-1.81 1.269 7.49 7.49 0 01-4.639.685 7.668 7.668 0 01-2.105-.701l-.468-.25c-.15-.085-.285-.188-.426-.279l-.205-.14c-.068-.047-.129-.103-.192-.154l-.37-.304a7.728 7.728 0 01-1.146-1.314 7.288 7.288 0 01-1.052-2.28 2.648 2.648 0 01-.09-.386l-.05-.286-.029-.175a.232.232 0 01.01-.044z" fill="#263238"/></g><defs><clipPath id="clip0"><path fill="white" d="M0 0h135v94H0z"/></clipPath></defs></svg>