<svg viewBox="0 0 312 236" xmlns="http://www.w3.org/2000/svg"><g clip-path="url(#clip0)"><path fill-rule="evenodd" clip-rule="evenodd" d="M146.137 4.226c31.611-7.202 60.137 18.932 83.855 36.3 21.025 15.396 32.986 35.305 42.507 56.234 9.693 21.306 27.782 45.778 12.751 65.233-15.288 19.79-54.954 15.11-82.369 24.881-20.237 7.212-34.986 20.765-56.744 24.699-26.786 4.843-59.924 13.892-80.602.134-20.999-13.971-3.685-40.961-11.34-61.305-7.186-19.101-40.719-34.324-31.651-52.962C31.7 78.62 73.623 86.036 92.399 71.874c25.248-19.04 19.597-59.869 53.738-67.648z"/><path d="M68.845 179.238l-.78 43.353-67.96.157L0 178.815l68.845.423z" fill="#EBEBEB"/><path d="M29.352 201.029c.215-11.936.316-21.614.227-21.615-.09-.002-.336 9.673-.55 21.609-.215 11.937-.316 21.614-.227 21.616.09.002.336-9.673.55-21.61zM.098 222.748c.08-.16.173-.313.278-.458l.84-1.274 3.153-4.634 10.492-15.256c4.096-5.949 7.783-11.353 10.416-15.285a442.084 442.084 0 003.078-4.68l.816-1.286c.088-.155.19-.302.301-.44-.07.162-.154.319-.249.469l-.764 1.32c-.688 1.159-1.7 2.757-2.991 4.744-2.581 3.968-6.238 9.395-10.336 15.343a2072.096 2072.096 0 01-10.566 15.181l-3.235 4.576-.891 1.24c-.101.156-.215.303-.342.44z" fill="#E0E0E0"/><path d="M28.8 222.626a3.17 3.17 0 01-.312-.429l-.845-1.256-3.067-4.634-10.202-15.245c-3.998-5.948-7.58-11.352-10.127-15.303-1.273-1.975-2.314-3.573-2.985-4.691l-.793-1.286a3.17 3.17 0 01-.26-.458c.115.135.22.278.312.429l.845 1.257 3.067 4.634 10.202 15.244c3.998 5.943 7.58 11.353 10.127 15.297 1.273 1.975 2.314 3.574 2.986 4.692l.792 1.286c.1.147.186.302.26.463zM35.817 217.712l10.912.196.04-2.235-10.912-.197-.04 2.236zM41.7 213.804c2.95-.017 5.341-.103 5.34-.193 0-.089-2.391-.148-5.341-.131-2.95.017-5.34.103-5.34.193 0 .089 2.392.148 5.342.131zM50.877 178.989l-.3 16.739-2.356-1.871-3.05 1.772.301-16.733 5.405.093z" fill="#E0E0E0"/><path d="M60.692 146.408l-.596 33.084-51.867.122-.075-33.53 52.538.324z" fill="#F5F5F5"/><path d="M30.556 163.033c.163-9.109.241-16.494.174-16.495-.067-.001-.254 7.382-.417 16.491-.164 9.109-.242 16.494-.175 16.495.067.001.254-7.382.418-16.491zM8.229 179.608c.06-.121.13-.237.208-.347l.642-.973 2.408-3.539 8.009-11.625c3.125-4.541 5.943-8.688 7.945-11.665 1.001-1.5 1.8-2.728 2.35-3.574l.624-.985c.069-.117.146-.23.232-.335a2.575 2.575 0 01-.191.359l-.579 1.007c-.526.863-1.302 2.103-2.286 3.621-1.967 3.029-4.762 7.17-7.887 11.711a1387.35 1387.35 0 01-8.067 11.584l-2.47 3.475-.678.945a2.553 2.553 0 01-.26.341z" fill="#E0E0E0"/><path d="M30.132 179.516a2.471 2.471 0 01-.238-.325l-.642-.955-2.314-3.539-7.836-11.637a998.08 998.08 0 01-7.731-11.677c-.972-1.505-1.736-2.728-2.28-3.579l-.579-.985a2.488 2.488 0 01-.196-.353c.087.101.167.21.237.324l.642.956 2.315 3.539 7.812 11.613a879.18 879.18 0 017.725 11.677c.973 1.506 1.736 2.728 2.28 3.579l.58.985c.085.119.16.245.225.377zM35.877 175.523l8.327.166.034-1.708-8.327-.167-.034 1.709z" fill="#E0E0E0"/><path d="M39.983 172.778c2.25-.013 4.074-.078 4.073-.145 0-.067-1.824-.111-4.074-.098-2.25.013-4.074.078-4.073.145 0 .067 1.824.111 4.074.098z" fill="#EBEBEB"/><path d="M50.2 146.217l-.225 12.772-1.8-1.431-2.332 1.355.231-12.771 4.126.075z" fill="#E0E0E0"/><path d="M66.31 219.62a9.451 9.451 0 00-8.512-6.418l-1.591-87.663h7.662v1.309h1.44v-3.139H53.407s1.418 64.674 2.448 89.58a9.374 9.374 0 00-5.763 3.253 9.388 9.388 0 00-2.182 6.252l-27.134-.365.775 3.568 26.752-.736c.035.122.064.249.104.371a9.453 9.453 0 0012.052 6.194 9.438 9.438 0 005.506-4.878 9.464 9.464 0 00.347-7.351v.023z" fill="#E0E0E0"/><path d="M25.977 231.227h1.44l2.767-5.438-2.292.063-1.915 5.375z" fill="#E0E0E0"/><path d="M139.826 27.016h-58.54v119.821h58.54V27.016z" fill="#EBEBEB"/><path d="M110.533 27.016s-12.002 54.353-29.27 58.071c0 0 6.98 38.124 7.61 61.756h-7.586V27.016h29.246zM110.753 27.016s12.002 54.353 29.293 58.066c0 0-6.979 38.123-7.61 61.755h7.61V27.016h-29.293z" fill="#E0E0E0"/><path d="M111.627 26.79h-2.135v120.053h2.135V26.79zM95.355 26.79h-.527v120.053h.527V26.79zM126.956 26.79h-.526v120.053h.526V26.79z" fill="#FAFAFA"/><path d="M139.832 56.556v.48l-58.545.244v-.481l58.545-.243zM139.832 116.173v.47l-58.545.237v-.475l58.545-.232zM139.826 85.725h-58.54v1.998h58.54v-1.998z" fill="#FAFAFA"/><path d="M140.694 147.706H80.442V26.147h60.252v121.559zm-58.54-1.738h56.804V27.885h-56.78l-.023 118.083z" fill="#F5F5F5"/><path d="M311.132 27.016h-58.539v119.821h58.539V27.016z" fill="#EBEBEB"/><path d="M281.862 27.016s-12.001 54.353-29.269 58.071c0 0 6.979 38.124 7.61 61.756h-7.61V27.016h29.269zM282.059 27.016s12.002 54.353 29.276 58.066c0 0-6.979 38.123-7.61 61.755h7.61V27.016h-29.276z" fill="#E0E0E0"/><path d="M282.933 26.79h-2.135v120.053h2.135V26.79zM266.661 26.79h-.527v120.053h.527V26.79zM298.262 26.79h-.526v120.053h.526V26.79z" fill="#FAFAFA"/><path d="M311.132 56.556v.48l-58.539.244v-.481l58.539-.243zM311.132 116.173v.47l-58.539.237v-.475l58.539-.232zM311.132 85.725h-58.539v1.998h58.539v-1.998z" fill="#FAFAFA"/><path d="M312 147.706h-60.269V26.147H312v121.559zm-58.539-1.738h56.803V27.885h-56.797l-.006 118.083z" fill="#F5F5F5"/><path d="M129.103 214.054a10.83 10.83 0 00-6.724-.817c-1.221.203-2.488.579-3.322 1.483-.833.903-.989 2.531-.035 3.319a3.182 3.182 0 002.095.533c1.777 0 3.75-.336 5.168.735.81.608 1.348 1.628 2.315 1.929a2.313 2.313 0 002.517-1.124c.463-.893.564-1.93.283-2.896a4.41 4.41 0 00-2.297-3.162zM133.79 205.001c-1.25 1.79-3.68 1.193-4.808.104-1.129-1.089-1.603-2.67-2.037-4.182-.99-3.446-1.991-7.06-1.25-10.57a5.87 5.87 0 011.348-2.896 3.067 3.067 0 012.893-.968c1.227.325 1.985 1.524 2.535 2.67a25.213 25.213 0 012.488 10.814c0 1.738-.196 3.568-1.157 5.005M137.222 207.567a6.505 6.505 0 01-1.013-5.984 11.543 11.543 0 013.542-5.143 19.067 19.067 0 016.365-3.747 6.744 6.744 0 012.853-.487c.487.028.96.174 1.378.426.417.253.767.604 1.018 1.022.665 1.274 0 2.821-.666 4.055a48.335 48.335 0 01-4.166 6.371c-1.25 1.61-2.679 3.203-4.583 3.927-1.904.724-3.877.643-4.89-.678" fill="#EBEBEB"/><path d="M133.877 231.969a3.907 3.907 0 01-.116-.811l-.214-2.219a32.089 32.089 0 00-.497-3.249 25.006 25.006 0 00-1.158-3.834 14.138 14.138 0 00-1.956-3.476 7.306 7.306 0 00-2.476-2.061 6.931 6.931 0 00-2.084-.649 3.888 3.888 0 01-.81-.116c.273-.03.549-.03.822 0a6.333 6.333 0 012.176.579 7.32 7.32 0 012.61 2.08 13.855 13.855 0 012.031 3.544 23.547 23.547 0 011.157 3.898c.211 1.087.356 2.186.434 3.29.07.944.099 1.703.11 2.23.018.265.008.531-.029.794z" fill="#E0E0E0"/><path d="M133.721 230.26a1.576 1.576 0 010-.376v-1.078c0-.938 0-2.317-.046-3.962-.081-3.342-.371-7.958-.926-13.032-.556-5.074-1.302-9.638-1.979-12.91a55.082 55.082 0 00-.475-2.207c-.156-.649-.266-1.205-.388-1.662l-.254-1.049a1.603 1.603 0 01-.064-.37c.059.111.103.23.133.353l.313 1.031c.139.446.277 1.002.445 1.651.168.648.348 1.378.521 2.201.922 4.267 1.616 8.58 2.078 12.922.578 5.085.81 9.713.827 13.061 0 1.674 0 3.029-.058 3.967l-.063 1.078a1.598 1.598 0 01-.064.382z" fill="#E0E0E0"/><path d="M133.68 221.334a7.259 7.259 0 010-1.123c.041-.724.139-1.767.348-3.053a40.16 40.16 0 01.989-4.442 39.315 39.315 0 011.858-5.259 27.999 27.999 0 015.486-8.497c.402-.425.831-.823 1.284-1.193.197-.168.371-.331.55-.464l.498-.342c.3-.217.618-.411.949-.579a33.317 33.317 0 00-3.102 2.775 29.528 29.528 0 00-5.318 8.468 42.06 42.06 0 00-1.869 5.212 44.93 44.93 0 00-1.053 4.402 45.814 45.814 0 00-.446 3.018 7.257 7.257 0 01-.174 1.077z" fill="#E0E0E0"/><path d="M262.031 213.492c-8.414-5.514-10.549-16.067-10.457-25.601 0-1.593-.202-3.267.533-4.68.735-1.413 2.494-2.41 3.952-1.772 1.21.527 1.736 1.888 2.46 3.011a9.384 9.384 0 003.859 3.476c1.036.504 2.315.793 3.31.214 1.372-.788 1.488-2.687 1.441-4.269-.088-2.946-.179-5.894-.272-8.844-.133-1.58-.008-3.17.371-4.709.463-1.512 1.527-2.937 3.038-3.394 1.51-.458 3.42.365 3.779 1.905.075.654.106 1.312.092 1.97a1.664 1.664 0 001.024 1.54c.643.168 1.273-.295 1.736-.77 1.615-1.639 2.685-3.719 3.681-5.792.995-2.074 1.962-4.188 3.42-5.966 1.458-1.778 3.472-3.209 5.787-3.388 2.314-.18 4.768 1.158 5.399 3.365.63 2.207-.625 4.512-2.014 6.371a35.58 35.58 0 01-7.257 7.165 2.9 2.9 0 00-1.215 1.349c-.324 1.06.718 2.086 1.777 2.41 1.203.365 2.494.208 3.749.324 1.256.116 2.616.626 3.119 1.784.695 1.599-.63 3.331-1.95 4.472a30.656 30.656 0 01-8.934 5.381c-1.158.451-2.396.857-3.328 1.697-.932.84-1.47 2.276-.868 3.376.602 1.101 2.083 1.425 3.31 1.159 1.227-.267 2.315-.944 3.472-1.408 2.182-.874 5.023-.793 6.481 1.055a4.955 4.955 0 01.649 4.413 11.547 11.547 0 01-2.315 3.968 30.786 30.786 0 01-12.922 9.441c-5.064 1.871-9.78 2.456-14.895.747"/><path d="M292.817 157.685a1.179 1.179 0 01-.151.157l-.463.428c-.41.377-1.012.933-1.776 1.668a59.692 59.692 0 00-5.955 6.667c-1.157 1.494-2.355 3.186-3.605 5.022a159.384 159.384 0 00-3.883 5.937 71.234 71.234 0 00-3.784 6.852c-.579 1.222-1.106 2.502-1.638 3.805l-1.603 3.962a144.047 144.047 0 00-5.335 15.355 69.912 69.912 0 00-2.35 13.043 51.211 51.211 0 00.07 8.938c.11 1.048.214 1.865.301 2.415l.092.625c.007.072.007.144 0 .215a1.359 1.359 0 01-.052-.209l-.116-.625c-.11-.545-.225-1.361-.353-2.416a48.919 48.919 0 01-.162-8.966 68.7 68.7 0 012.315-13.096 140.877 140.877 0 015.324-15.395l1.603-3.962c.532-1.297 1.053-2.589 1.649-3.817a70.765 70.765 0 013.814-6.875c1.319-2.126 2.65-4.101 3.911-5.937 1.262-1.836 2.471-3.521 3.64-5.01a56.384 56.384 0 016.042-6.62 48.9 48.9 0 011.811-1.628l.486-.411c.052-.045.109-.086.168-.122z" fill="#263238"/><path d="M273.032 184.271a3.119 3.119 0 01-.174-.672 51.63 51.63 0 01-.341-1.853 135.9 135.9 0 01-.868-6.152c-.29-2.403-.631-4.575-.92-6.133-.139-.782-.266-1.414-.353-1.848a3.094 3.094 0 01-.128-.66c.098.211.172.432.22.66.122.428.278 1.054.446 1.83.341 1.558.694 3.73 1.007 6.14l.781 6.163.249 1.865c.05.216.077.438.081.66zM293.523 179.979a4.408 4.408 0 01-.816.116c-.527.058-1.291.139-2.228.272-1.881.243-4.467.678-7.297 1.274-2.83.597-5.37 1.257-7.193 1.779a70.68 70.68 0 00-2.153.637 4.498 4.498 0 01-.798.214c.244-.132.499-.24.764-.324a40.775 40.775 0 012.129-.73c1.811-.579 4.352-1.263 7.193-1.871a73.511 73.511 0 017.332-1.193 35.176 35.176 0 012.245-.18 4.34 4.34 0 01.822.006zM264.618 207.08a1.05 1.05 0 01-.145-.243l-.37-.724a88.692 88.692 0 01-1.279-2.717c-1.047-2.316-2.402-5.537-3.837-9.122s-2.76-6.823-3.755-9.146l-1.187-2.751-.318-.747a.147.147 0 01-.118-.156.144.144 0 01.144-.131c.036 0 .071.013.098.037a.148.148 0 01.046.094.142.142 0 01-.029.101.142.142 0 01-.089.055l.371.724c.318.631.752 1.558 1.278 2.716 1.054 2.317 2.402 5.537 3.843 9.123 1.441 3.585 2.754 6.823 3.756 9.146l1.192 2.751.318.747c.037.077.064.159.081.243zM291.764 197.72a1.04 1.04 0 01-.267.116l-.787.284-2.893 1.008c-2.454.851-5.827 2.067-9.554 3.411-3.727 1.344-7.118 2.531-9.594 3.336-1.239.4-2.24.719-2.94.921l-.804.226a1.116 1.116 0 01-.29.064c.083-.051.173-.09.266-.116l.787-.284 2.894-1.008c2.453-.851 5.827-2.067 9.56-3.411 3.732-1.344 7.117-2.531 9.588-3.331a119.75 119.75 0 012.94-.921l.804-.231c.093-.034.191-.056.29-.064z" fill="#263238"/><path d="M70.159 230.399l.943-5.896-10.543-1.738-1.528 8.781.648.15c2.893.655 14.733 2.925 16.782 2.636 2.309-.325-6.302-3.933-6.302-3.933z"/><path d="M76.814 233.826c.016-.098-3.919-.81-8.788-1.59-4.87-.779-8.83-1.332-8.845-1.234-.016.098 3.919.809 8.788 1.589 4.87.78 8.83 1.332 8.846 1.235zM70.153 231.633c-.08-.058.046-.359.318-.632.272-.272.58-.394.637-.312.058.081-.127.318-.382.579-.255.26-.492.428-.573.365zM70.76 232.131c-.086-.047 0-.388.284-.724.284-.336.579-.516.643-.44.063.075-.11.353-.36.666-.248.312-.474.55-.566.498z" fill="#263238"/><path d="M62.37 231.476c-.046 0-.18-.156-.365-.451a7.015 7.015 0 00-.775-1.078 2.455 2.455 0 00-1.065-.683c-.312-.093-.532-.075-.544-.133-.011-.058.209-.157.579-.122.493.071.946.312 1.279.683.319.355.57.765.74 1.211.145.342.191.556.15.573zM70.362 230.532c.04.093-.174.267-.492.33-.319.064-.58 0-.58-.115 0-.116.232-.18.51-.238.278-.058.521-.075.562.023zM70.286 229.93c0 .098-.3.139-.66.087-.358-.052-.63-.174-.578-.272.052-.099.318-.139.66-.087.341.052.584.173.578.272z" fill="#263238"/><path d="M107.478 229.125l-.22-5.966-10.688.324.243 8.926h.665c2.952.081 15.046 0 16.973-.678 2.17-.741-6.973-2.606-6.973-2.606z"/><path d="M106.669 231.367c4.931-.198 8.926-.438 8.922-.538-.004-.099-4.005-.019-8.937.178-4.931.198-8.925.438-8.921.537.004.1 4.004.02 8.936-.177zM107.709 230.335c-.087-.04 0-.359.191-.677.191-.319.492-.499.579-.429.087.069-.064.336-.26.631-.197.296-.417.522-.51.475zM108.404 230.706c-.093-.029-.058-.388.139-.764.196-.377.463-.614.544-.58.081.035-.041.371-.22.724-.18.354-.365.655-.463.62z" fill="#263238"/><path d="M100.042 231.702c-.041.029-.209-.121-.446-.376a7.058 7.058 0 00-.972-.904 2.457 2.457 0 00-1.157-.463c-.324-.029-.538 0-.579 0-.04 0 .174-.197.579-.232a2.12 2.12 0 011.389.423c.38.286.706.639.96 1.043.174.272.266.48.226.509zM107.698 229.217c.058.082-.122.296-.423.417-.301.122-.578.093-.578 0 0-.092.191-.225.457-.335.266-.11.486-.168.544-.082zM107.513 228.644c0 .098-.267.197-.631.214-.365.018-.648-.046-.648-.15 0-.105.283-.197.63-.215.348-.017.631.053.649.151z" fill="#263238"/><path d="M121.968 80.61l-.579-1.94a17.606 17.606 0 00-.943-3.284 5.147 5.147 0 00-.856-1.472 7.858 7.858 0 00-1.505-1.494c-.579-.336-.434-1.158.15-1.216.585-.058 2.136.845 3.328 2.577 1.192 1.732 1.418-1.529 1.516-2.716.098-1.188.579-4.843.978-5.091.579-.365 1.076.19.949 1.378-.127 1.187-.272 4.761.359 4.802.631.04 1.059-6.013 1.059-6.013s-.116-1.314.607-1.291c1.308.04.371 6.429.267 7.031-.076.423.578.487.659.035.081-.452.301-6.053 1.632-6.024 1.024 0-.723 5.265-.133 6.464.59 1.2.92-4.118 1.892-4.054.365 0 .631.092 0 3.11-.63 3.018-3.744 11.144-3.744 11.144l-5.682-2.033M82.873 79.011l9.617.713c.127-1.112.313-5.439.313-5.439s4.016-.376 4.31-4.35c.296-3.973.169-13.16.169-13.16a13.836 13.836 0 00-13.999.893l-.619.417.209 20.926z" fill="#FFBE9D"/><path d="M96.767 63.565a.58.58 0 10-.81-.83.58.58 0 00.81.83z" fill="#263238"/><path d="M96.97 62.695c-.07.064-.44-.26-.985-.295-.544-.035-.96.22-1.018.15-.058-.07.04-.156.225-.272a1.354 1.354 0 011.604.116c.15.156.202.301.173.301zM90.775 63.608a.58.58 0 10-.948-.666.58.58 0 00.948.666z" fill="#263238"/><path d="M90.986 62.823c-.064.063-.44-.261-.984-.296-.544-.035-.96.22-1.019.15-.058-.069.04-.156.226-.277a1.353 1.353 0 011.603.116c.156.15.208.278.174.307zM92.907 67.48c.29-.092.593-.135.897-.128.144 0 .26-.029.278-.11a.783.783 0 00-.076-.423l-.364-1.158a15.842 15.842 0 01-.764-2.983c.442.929.793 1.899 1.047 2.896l.342 1.158c.076.184.09.387.04.58a.37.37 0 01-.26.208.915.915 0 01-.243 0c-.3.036-.603.022-.897-.04z" fill="#263238"/><path d="M91.09 67.978c-.579-.377 1.522.932 2.638.95a1.517 1.517 0 01-1.822.492c-1.163-.516-.816-1.442-.816-1.442z" fill="white"/><path d="M92.814 74.227a9.253 9.253 0 01-5.092-1.795s1.047 2.942 5.04 2.826l.052-1.03z" fill="#EB996E"/><path d="M82.757 62.116l.486 2.855 1.77-.034-.115-5.943s7.025.539 7.83-2.27c0 0 2.065 3.11 4.629 3.098 0 0 2.25-.231.11-3.36-3.299-4.818-15.046-.949-15.046-.949a8.198 8.198 0 00-.428 2.734c-.046 3.075.764 3.869.764 3.869z" fill="#263238"/><path d="M81.79 59.22l15.654-3.11s-1.117-6.262-9.56-4.443c-8.217 1.796-6.094 7.553-6.094 7.553z"/><path d="M81.79 59.22c.22-.04 19.131.405 20.48-2.218.642-1.252-4.948-1.286-4.948-1.286l.127.394-15.659 3.11z"/><path opacity=".2" d="M81.79 59.22c.22-.04 19.131.405 20.48-2.218.642-1.252-4.948-1.286-4.948-1.286l.127.394-15.659 3.11z"/><path d="M83.434 61.612c-.087-.035-2.951-.405-2.68 2.983.272 3.388 3.6 1.992 3.594 1.894-.006-.099-.914-4.877-.914-4.877z" fill="#FFBE9D"/><path d="M83.22 65.377s-.058.046-.15.098a.578.578 0 01-.44.047 1.466 1.466 0 01-.782-1.257c-.031-.29.002-.583.099-.857a.684.684 0 01.405-.487.3.3 0 01.358.133c.053.093.035.162.058.162s.07-.063.03-.202a.376.376 0 00-.151-.203.445.445 0 00-.336-.058.826.826 0 00-.579.58c-.12.305-.164.635-.127.96a1.535 1.535 0 00.978 1.397.635.635 0 00.532-.134c.105-.092.116-.173.105-.18z" fill="#EB996E"/><path d="M92.657 54.415l-1.915.037.037 1.917 1.915-.037-.037-1.917zM92.632 53.375l-.96.019.018.961.96-.018-.018-.962z" fill="#263238"/><path d="M121.262 78.12s-2.951 18.835-5.04 18.934c-2.379.11-9.693-10.27-9.693-10.27-4.682-7.228-10.856-8.398-13.107-8.578v-.892l-11.065-.909v1.784h-4.895s-8.779-.4-10.092 11.399l6.307 4.993 2.587 9.632c.787 2.942-.41 6.695-1.736 13.287l-.793-.186-.335 6.644c-.047.313-.093.625-.134.95h.087l-2.673 53.049-13.669 51.382 15.387.579 14.19-50.13s1.226-40.081 2.476-40.105c2.1-.04 3.472 89.164 4.248 88.961.775-.203 16.608-.041 16.608-.041s-5.226-103.933-5.174-103.933l-1.354-19.693-.515-5.688c3.004 4.229 8.681 10.832 14.745 10.716 9.878-.191 11.267-30.843 11.267-30.843l-7.627-1.043z" fill="#455A64"/><path d="M88.503 139.284a10.017 10.017 0 001.667-6.308v-4.726c-.026-.656-.001-1.312.075-1.964.097.648.143 1.303.139 1.958.034 1.211.115 2.896.098 4.738-.01.875-.087 1.749-.231 2.612a8.94 8.94 0 01-.62 2.062 6.15 6.15 0 01-.74 1.245c-.243.25-.348.4-.388.383zM79.424 130.868c.052.177.08.36.08.544.03.354.064.863.082 1.495a9.905 9.905 0 01-.967 4.836 5.423 5.423 0 01-1.84 2.045 4.404 4.404 0 01-2.147.677 3.483 3.483 0 01-1.493-.254 1.306 1.306 0 01-.474-.29 4.444 4.444 0 001.95.33 4.375 4.375 0 002.008-.695 5.33 5.33 0 001.736-1.958 10.502 10.502 0 001.018-4.697c-.02-.678-.005-1.357.047-2.033zM105.84 140.095s-.092.168-.382.359a2.455 2.455 0 01-1.383.359 3.473 3.473 0 01-1.985-.741 7.77 7.77 0 01-1.736-1.912 9.897 9.897 0 01-1.597-4.367 8.857 8.857 0 01-.04-1.413 1.641 1.641 0 01.075-.516c.052 0 0 .736.174 1.9a10.588 10.588 0 001.637 4.228 7.908 7.908 0 001.655 1.859 3.342 3.342 0 001.829.748c.452.034.905-.052 1.313-.249.29-.145.423-.278.44-.255zM73.745 227.382c.003-.084-3.404-.288-7.61-.456-4.205-.168-7.618-.237-7.62-.154-.004.083 3.403.287 7.609.455 4.205.169 7.618.238 7.62.155zM109.376 224.19c-.21.055-.426.084-.642.087l-1.736.127a359.013 359.013 0 01-11.574.533l-1.736.035c-.213.026-.43.026-.642 0a2.68 2.68 0 01.642-.087l1.736-.128c1.481-.098 3.524-.208 5.787-.312 2.262-.105 4.305-.18 5.787-.22l1.736-.035c.213-.026.429-.026.642 0zM80.986 140.512c.007.075.007.151 0 .226v.666l-.046 2.56a501.26 501.26 0 01-.313 9.406 748.678 748.678 0 01-.694 13.942 296.13 296.13 0 01-.579 8.224c-.121 1.425-.237 2.897-.486 4.345s-.579 2.925-.874 4.413c-2.638 11.845-5.607 22.427-7.916 30.032a232.415 232.415 0 01-2.928 8.943l-.886 2.404-.237.619a1.235 1.235 0 01-.092.209c.014-.075.036-.149.063-.22l.209-.631.833-2.422c.694-2.108 1.736-5.16 2.835-8.966 2.263-7.61 5.209-18.198 7.83-30.032.318-1.482.63-2.942.874-4.396.243-1.454.359-2.896.486-4.321.237-2.844.416-5.595.579-8.219.323-5.241.578-9.968.757-13.935l.406-9.401.104-2.554.034-.666c.007-.077.02-.152.041-.226z" fill="#263238"/><path d="M102.223 224.578a1.216 1.216 0 010-.209l-.046-.613-.162-2.364-.515-8.688c-.411-7.338-.926-17.48-1.4-28.688a2388.106 2388.106 0 01-1.048-28.711c-.098-3.661-.185-6.632-.237-8.688 0-1.014-.035-1.808-.046-2.369v-.614a1.122 1.122 0 010-.209c.007.07.007.139 0 .209l.034.614.105 2.363.335 8.688 1.158 28.705c.474 11.208.954 21.35 1.313 28.694l.417 8.689.104 2.363v.614c.003.071-.001.143-.012.214zM89.516 76.99c.044.518.044 1.04 0 1.558a22.49 22.49 0 01-.376 3.875l-.04.191-.174-.093c-.37-.19-.747-.4-1.129-.62-1.609-.938-2.974-1.916-3.981-2.588a18.165 18.165 0 01-1.615-1.118c.609.253 1.19.568 1.736.938 1.042.631 2.425 1.581 4.016 2.508.376.22.753.423 1.111.62l-.214.098c.241-1.262.4-2.54.475-3.822.017-.52.081-1.038.19-1.547zM93.45 78.282c-.07.487-.177.97-.318 1.442-.104.44-.22.973-.41 1.558-.1.306-.218.606-.353.898a.58.58 0 01-.209.254.33.33 0 01-.416-.046 1.947 1.947 0 01-.26-.51 117.442 117.442 0 01-1.338-3.307 7.24 7.24 0 01-.445-1.396c.268.416.493.859.671 1.32.376.83.88 1.988 1.418 3.273.05.143.114.281.19.412h.047a.324.324 0 00.099-.128 8.83 8.83 0 00.358-.857c.197-.58.336-1.083.47-1.523.103-.484.27-.951.497-1.39zM91.373 117.859a2.135 2.135 0 01-.046-.411l-.075-1.188-.232-4.373-.648-14.44-.579-14.445-.133-4.379V77.43a2.168 2.168 0 010-.417c.03.135.045.273.047.411l.075 1.188.231 4.373.66 14.463.579 14.445.133 4.379v1.193a2.19 2.19 0 01-.012.394z" fill="#263238"/><path d="M98.426 88.988l-5.317.103.02 1.1 5.318-.103-.021-1.1z" fill="white"/><path d="M104.268 106.724c.083-.006-.132-4.048-.48-9.029-.349-4.98-.698-9.013-.782-9.007-.083.006.132 4.048.481 9.029.348 4.98.698 9.013.781 9.007zM128.704 83.014c.019-.081-1.737-.552-3.92-1.052-2.184-.5-3.97-.84-3.988-.76-.019.082 1.737.553 3.92 1.053 2.184.5 3.97.84 3.988.76zM122.44 80.549a.544.544 0 10-.022-1.088.544.544 0 00.022 1.088z" fill="#263238"/><path d="M98.37 86.532l-1.915.037.037 1.917 1.915-.037-.037-1.917zM98.35 85.486l-.96.018.019.962.96-.02-.018-.96zM127.043 96.365l-.781 30.923-48.493-.243.156-31.347 49.118.667z"/><path d="M98.78 111.69c.216-8.516.323-15.42.24-15.423-.083-.002-.325 6.9-.54 15.416-.216 8.516-.323 15.421-.24 15.423.083.002.325-6.9.54-15.416zM77.769 127.039c.051-.116.115-.227.19-.33l.58-.909 2.262-3.296 7.557-10.819a1246.19 1246.19 0 007.523-10.843c.95-1.396 1.736-2.531 2.228-3.32l.579-.909c.077-.118.169-.227.272-.324-.046.118-.104.23-.174.336l-.55.938a118.96 118.96 0 01-2.152 3.377c-1.858 2.821-4.49 6.673-7.448 10.901-2.957 4.228-5.66 8.022-7.627 10.767l-2.315 3.244-.648.875c-.08.114-.173.219-.277.312z" fill="#263238"/><path d="M97.765 127.357c.07-.044-4.28-7.085-9.716-15.725-5.436-8.64-9.9-15.609-9.97-15.565-.07.045 4.28 7.085 9.715 15.725 5.437 8.641 9.9 15.609 9.97 15.565zM103.895 122.795l7.784.234.048-1.599-7.784-.234-.048 1.599zM111.317 120.773c0-.083-1.704-.154-3.807-.157-2.103-.003-3.808.062-3.808.145 0 .083 1.704.153 3.807.156 2.103.004 3.808-.061 3.808-.144zM117.24 96.115l-.307 11.938-1.666-1.35-2.188 1.251.301-11.937 3.86.098z" fill="#263238"/><path d="M76.97 92.959s-2.355 16.415-1.238 17.376c6.157 5.184 14.715 7.9 17.777 8.758.445-.105.972-.249 1.568-.441a4.75 4.75 0 001.44-.753A7.306 7.306 0 0098 116.521a.628.628 0 01.981-.12.63.63 0 01.176.328c0 .58-.88 2.028-2.58 3.093 0 0 3.923 6.32 5.173 6.887 1.25.568 4.826 2.184 4.224 2.491-.601.307-4.965-.962-4.965-.962l-8.83-2.363s-29.212-4.581-27.268-17.996c1.192-8.219 2.494-15.639 2.963-17.504l9.097 2.584z" fill="#FFBE9D"/><path d="M67.376 89.594l-2.622 17.909c-.579 5.514 3.084 9.893 8.05 12.36 7.557 3.747 18.778 6.423 18.685 6.406-.093-.017.758-7.97.758-7.97s-15.728-6.823-16.203-9.748c-.474-2.925 2.002-15.181 2.002-15.181l-10.67-3.776z" fill="#455A64"/><path d="M91.489 126.263a.518.518 0 010-.145v-.411l.121-1.593.51-5.855.058.104-7.91-3.835-2.316-1.117c-.77-.406-1.539-.858-2.314-1.35a22.897 22.897 0 01-2.234-1.639c-.359-.301-.712-.62-1.053-.956a1.886 1.886 0 01-.457-.579 1.587 1.587 0 01-.128-.359 2.254 2.254 0 01-.08-.365c-.255-1.958.265-3.805.537-5.566l.88-5.109 1.603-8.659c.235-1.094.368-2.206.4-3.325a5.796 5.796 0 00-.51-2.444 4.053 4.053 0 00-.926-1.28c-.272-.243-.44-.342-.428-.353a2.2 2.2 0 01.469.307c.415.35.752.785.99 1.274.375.777.573 1.628.578 2.49a17.914 17.914 0 01-.359 3.366l-1.447 8.688-.868 5.114-.231 1.344c-.093.446-.168.898-.232 1.35a10.225 10.225 0 00-.069 2.768c.014.114.037.226.07.336a1.568 1.568 0 00.51.828c.334.331.676.643 1.029.939.7.584 1.434 1.126 2.199 1.622.752.486 1.516.932 2.274 1.343l2.28 1.124 7.876 3.892.07.035v.052l-.58 5.844-.179 1.587-.052.412a.507.507 0 01-.081.121z" fill="#263238"/><path d="M90.03 117.175c.02.41-.01.821-.092 1.223a56.854 56.854 0 01-.463 2.896 41.627 41.627 0 01-.642 2.896 4.636 4.636 0 01-.388 1.158c-.08 0 .318-1.842.735-4.101.2-1.373.484-2.733.85-4.072z" fill="#263238"/><path d="M91.489 126.263a1.008 1.008 0 01-.278-.046l-.775-.185-2.847-.742c-2.396-.649-5.723-1.494-9.294-2.809a38.342 38.342 0 01-4.89-2.178 27.07 27.07 0 01-3.68-2.369 20.205 20.205 0 01-2.205-1.958c-.243-.249-.422-.451-.538-.579a.961.961 0 01-.168-.226c.277.232.541.478.793.736a24.959 24.959 0 002.251 1.871 29.175 29.175 0 003.68 2.317c1.574.819 3.2 1.535 4.867 2.143 3.547 1.303 6.863 2.183 9.259 2.896l2.818.834.764.243c.083.007.165.025.243.052zM91.196 119.614a.509.509 0 10-.02-1.018.509.509 0 00.02 1.018z" fill="#263238"/><path d="M228.051 34.963h-63.863v197.446h63.863V34.963z" fill="#E0E0E0"/><path d="M208.609 129.891c.754-.031 1.316-1.243 1.256-2.706-.06-1.464-.719-2.626-1.473-2.595-.753.031-1.316 1.242-1.256 2.706.06 1.464.719 2.626 1.473 2.595z" fill="white"/><path d="M156.735 27.977V232.41h10.023V36.475h58.857v195.934h11.03V27.977h-79.91z" fill="#263238"/><path d="M166.758 36.474h-5.012V232.41h5.012V36.474z" fill="#263238"/><path opacity=".5" d="M166.758 36.474h-5.012V232.41h5.012V36.474z"/><path d="M197.225 67.213a8.343 8.343 0 006.308 7.646c1.788.44 3.848.231 5.266 1.436 2.43 2.062 1.006 6.342 2.65 9.105 1.007 1.703 3.009 2.537 4.143 4.153 1.887 2.688.619 6.742-1.95 8.74-2.569 1.999-5.995 2.381-9.218 2.317-7.089-.185-14.346-2.438-19.473-7.466-2.407-2.363-10.208-11.34-6.666-24.292" fill="#263238"/><path d="M171.624 86.257s-12.401 10.797-12.731 9.482c-1.736-7.147-1.25-16.264-.972-19.757.197-.301.417-.631.683-.996.308-.42.683-.787 1.111-1.083a7.156 7.156 0 011.684-.944c.579-.162.666-.927.168-1.106-.498-.18-2.083.225-3.553 1.46-1.47 1.233-.874-1.692-.671-2.764.202-1.071.659-4.402.376-4.715-.411-.457-.996-.092-1.158.98-.162 1.07-.92 4.257-1.481 4.135-.561-.122.532-5.549.532-5.549s.423-1.13-.22-1.286c-1.157-.284-1.892 5.56-1.944 6.123-.04.388-.654.283-.579-.134.076-.417 1.21-5.392.035-5.693-.903-.232-.648 4.807-1.458 5.716-.81.91.197-3.846-.677-4.054-.324-.07-.579-.075-.758 2.734a61.815 61.815 0 00.249 6.777c-.77 7.709-2.28 31.306 8.373 30.495 12.569-.962 15.462-10.878 15.462-10.878l-2.471-8.943zM181.531 82.747c.185-.99-.139-5.178-.139-5.178s-3.703-.469-3.865-4.251c-.162-3.782.214-12.505.214-12.505l6.823-3.279 7.337 5.92-1.273 19.235-9.097.058z" fill="#B78876"/><path d="M179.329 67.21a.478.478 0 00-.46-.494.478.478 0 00-.477.478.478.478 0 00.46.495.477.477 0 00.477-.479zM177.926 66.645c.058.064.411-.231.92-.254.509-.024.886.237.938.167.052-.069-.035-.144-.197-.266a1.226 1.226 0 00-1.481.07c-.163.133-.209.254-.18.283zM185.431 67.494a.477.477 0 00-.459-.496.477.477 0 00-.478.477c-.005.269.2.49.459.496a.477.477 0 00.478-.477zM183.545 66.75c.058.063.411-.232.92-.255.509-.023.886.237.938.168.052-.07-.035-.145-.197-.267a1.228 1.228 0 00-1.482.07c-.156.127-.208.249-.179.284zM181.641 71.117a3.134 3.134 0 00-.827-.128c-.128 0-.255-.029-.278-.127a.762.762 0 01.081-.417l.365-1.072c.342-.912.614-1.85.816-2.803-.41.883-.752 1.794-1.025 2.728l-.353 1.078a.868.868 0 00-.058.55.328.328 0 00.214.197.81.81 0 00.22 0c.281.036.565.034.845-.006z" fill="#263238"/><path d="M183.308 71.638c.521-.342-1.435.84-2.465.823a1.387 1.387 0 001.672.52 1.102 1.102 0 00.793-1.343z" fill="white"/><path d="M181.392 77.57a9.025 9.025 0 004.908-1.611s-1.158 2.757-4.844 2.537l-.064-.927z" fill="#A36957"/><path d="M197.225 67.27c-.035-.266-.069-.671-.11-1.094a14.679 14.679 0 00-.202-1.535c-1.875-7.923-8.594-9.51-9.931-9.533-1.429 0-3.923-.875-7.638 2.954a7.452 7.452 0 00-1.788 8.056l.625-.579 5.41-1.332c-.399-1.5.261-3.342.631-4.2l.035-.034c.978 5.682 7.037 6.371 7.037 6.371l-.579 15.06c5.966-1.2 6.435-10.89 6.423-14.168l.087.035z" fill="#263238"/><path d="M206.594 226.686s-13.969-47.13-14.236-48.653c-.243-1.361 6.227-34.428 7.17-43.006l-19.64.185v.145l-9.49.26 4.75 94.18 10.417.266-.157-30.959c5.151 15.118 11.667 32.193 11.667 32.193l9.519-4.611z" fill="#B78876"/><path d="M179.159 175.925s0 .364-.058 1.031c-.047.932-.03 1.867.052 2.797.121 1.378.353 2.743.694 4.084a40.734 40.734 0 001.667 4.801 705.747 705.747 0 013.269 8.688l.978 2.641c.13.32.234.649.313.985a6.694 6.694 0 01-.423-.938l-1.047-2.607a768.324 768.324 0 01-3.35-8.647l-.938-2.473a22.746 22.746 0 01-.717-2.369 24.1 24.1 0 01-.637-4.136c-.063-.94-.048-1.883.046-2.821.035-.33.075-.579.11-.758a.9.9 0 01.041-.278z" fill="#A36957"/><path d="M185.455 210.358c0-.283.179-10.495.179-10.495s-3.42-9.464-3.507-9.18c-.086.284 3.328 19.675 3.328 19.675z" fill="#A36957"/><path d="M197.428 231.146l9.166-4.46 1.065 1.975-3.247 1.837c-2.216 1.21-9.751 5.154-11.533 5.479-1.967.359 4.549-4.831 4.549-4.831z"/><path d="M192.486 235.71c-.041-.069 3.315-1.737 7.494-3.707 4.178-1.969 7.603-3.527 7.644-3.475.04.052-3.31 1.738-7.494 3.707-4.184 1.969-7.604 3.545-7.644 3.475z" fill="#263238"/><path d="M205.286 229.721c-.046 0-.064-.173-.04-.451.024-.37.124-.731.295-1.06a1.79 1.79 0 01.873-.805c.307-.122.516-.093.521-.064.006.029-.173.093-.405.237a2.073 2.073 0 00-.694.753 4.9 4.9 0 00-.359.973c-.087.261-.15.423-.191.417zM196.93 231.569c0 .087.283.197.648.313.365.116.671.203.723.133.052-.069-.208-.29-.578-.417-.371-.127-.782-.116-.793-.029zM196.299 232.061c0 .082.243.238.579.354.335.116.677.139.712.063.034-.075-.226-.231-.579-.353-.353-.121-.689-.145-.712-.064zM195.778 232.519c-.034.075.157.226.417.359.26.133.498.209.579.139.081-.069-.105-.261-.388-.405-.284-.145-.567-.174-.608-.093z" fill="#263238"/><path d="M196.97 231.644c.05-.323.016-.654-.098-.961a2.815 2.815 0 00-.48-.985 2.342 2.342 0 00-.498-.481 1.436 1.436 0 00-.353-.191.693.693 0 00-.503 0 .531.531 0 00-.274.353.532.532 0 00.1.435c.127.185.27.357.428.516.263.27.55.516.857.735.269.23.579.407.914.521.029-.034-.284-.272-.758-.677a8.687 8.687 0 01-.77-.753 3.923 3.923 0 01-.376-.475c-.104-.151-.075-.336.035-.377.11-.04.318 0 .492.145a2.2 2.2 0 01.445.406c.216.263.386.561.504.88.082.313.194.618.335.909z" fill="#263238"/><path d="M196.97 231.465a2.445 2.445 0 00-.908-.579 4.946 4.946 0 00-1.157-.36 3.72 3.72 0 00-.73-.057 1.713 1.713 0 00-.41.046.572.572 0 00-.232.11.31.31 0 00-.094.121.301.301 0 00-.027.151.933.933 0 00.578.614c.222.112.461.188.706.226.403.058.81.071 1.215.041.701-.047 1.077-.284 1.048-.319a8.363 8.363 0 01-1.059.104 6.714 6.714 0 01-1.158-.098 2.175 2.175 0 01-.578-.209c-.18-.087-.371-.26-.382-.376-.012-.116.208-.128.434-.116a3.74 3.74 0 01.66.04c.374.057.742.15 1.099.279.322.152.654.28.995.382zM197.607 231.048c.058.087 2.187-.73 4.67-1.952 2.482-1.222 4.398-2.317 4.334-2.41-.063-.092-2.089.887-4.56 2.103-2.471 1.216-4.502 2.172-4.444 2.259z" fill="#263238"/><path d="M176.335 229.692l9.218.064-.15 2.676h-.579c-2.674 0-13.605-.197-15.364-.759-1.979-.614 6.875-1.981 6.875-1.981z"/><path d="M185.394 232.176c.005-.08-3.608-.349-8.069-.6s-8.08-.39-8.085-.31c-.004.08 3.608.348 8.069.599 4.461.252 8.081.391 8.085.311z" fill="#263238"/><path d="M182.475 231.975c-.035 0 .052-.18.237-.406.251-.309.557-.568.903-.764a2.19 2.19 0 011.255-.273c.342.041.51.162.492.191-.017.029-.208 0-.497 0a2.552 2.552 0 00-1.065.313 5.99 5.99 0 00-.903.655c-.231.197-.388.307-.422.284zM175.64 229.82c-.063.064.133.301.382.579.249.278.463.487.579.452.116-.035 0-.342-.278-.637-.278-.296-.619-.458-.683-.394zM174.767 229.947c-.07.058.069.319.312.58.243.26.503.434.579.388.075-.047-.058-.307-.313-.58-.254-.272-.486-.446-.578-.388zM174.061 230.086c-.081.047 0 .267.15.498.15.232.312.412.405.377.093-.035.064-.272-.093-.521-.156-.25-.387-.4-.462-.354z" fill="#263238"/><path d="M175.635 229.907c.233-.243.404-.539.497-.863.134-.337.195-.698.18-1.06a1.937 1.937 0 00-.145-.637 1.157 1.157 0 00-.191-.33.658.658 0 00-.446-.226.575.575 0 00-.63.579 3.1 3.1 0 00.063.637c.066.349.167.691.301 1.019.099.322.267.619.492.869a3.712 3.712 0 00-.249-.932 7.096 7.096 0 01-.22-.997 3.395 3.395 0 01-.04-.579c0-.174.139-.318.254-.307.116.012.267.168.342.354.08.183.129.379.145.579a2.77 2.77 0 01-.093.984 4.588 4.588 0 00-.26.91z" fill="#263238"/><path d="M175.744 229.756c.041 0-.086-.376-.457-.898a4.204 4.204 0 00-.787-.839 3.46 3.46 0 00-.578-.389 1.694 1.694 0 00-.388-.15.692.692 0 00-.272 0 .393.393 0 00-.272.174.791.791 0 00.116.776c.128.2.291.377.48.521.324.232.673.427 1.042.579.335.196.726.273 1.111.22a8.19 8.19 0 01-.99-.405 6.169 6.169 0 01-.937-.614 1.856 1.856 0 01-.4-.452.61.61 0 01-.11-.498c0-.052.261 0 .452.104.203.095.397.21.579.342.292.22.559.47.798.747.353.475.561.8.613.782zM176.549 229.692c1.464.232 2.945.33 4.427.296a27.69 27.69 0 004.432-.157 38.686 38.686 0 00-4.426-.144c-2.442-.029-4.427-.076-4.433.005z" fill="#263238"/><path d="M204.528 102.516s.382-1.414-.689-10.073c-.468-3.77-3.032-6.105-5.786-7.53v-.051l-.238-.07a22.603 22.603 0 00-7.193-2.097l-9.716-.156s-7.112-.886-11.643 4.054c-4.531 4.94-7.621 7.849-7.621 7.849l7.239 8.688 1.939-1.923s-.203 4.008 1.123 6.336l3.124 5.514-2.071 9.719c-1.285 3.702-5.521 17.238-3.86 30.646 2.054 16.606 2.384 21.431 2.384 21.431l23.46 3.215s9.374-35.158 6.163-49.123c-2.205-9.598-3.889-9.146-4.433-11.225l.608-14.944 7.21-.26z"/><path d="M171.826 99.688c.538-.908.916-1.678.845-1.721-.072-.042-.566.66-1.104 1.567-.538.908-.917 1.678-.845 1.721.071.042.566-.659 1.104-1.567zM193.701 116.139a3.719 3.719 0 01-.747.15c-.486.081-1.186.168-2.06.261a58.24 58.24 0 01-13.68-.243 43.806 43.806 0 01-2.048-.33 3.765 3.765 0 01-.741-.174c.254-.007.508.012.758.058l2.06.237c1.736.191 4.144.388 6.811.435a76.902 76.902 0 006.823-.192l2.066-.162c.25-.039.504-.053.758-.04zM201.606 142.452a2.792 2.792 0 01-.093.463l-.318 1.315-.237.95c-.099.342-.226.713-.353 1.106-.267.788-.527 1.709-.955 2.671l-.625 1.529c-.22.527-.504 1.054-.77 1.616-.515 1.129-1.198 2.259-1.886 3.475a45.517 45.517 0 01-12.153 13.235c-1.157.788-2.216 1.564-3.298 2.166-.532.313-1.036.637-1.545.904l-1.47.747c-.926.504-1.817.834-2.581 1.158-.388.162-.741.319-1.076.446l-.926.313-1.285.429a2.696 2.696 0 01-.451.127c.139-.074.284-.136.434-.185l1.261-.481.915-.336c.33-.133.677-.301 1.059-.469.752-.348 1.637-.695 2.552-1.205l1.452-.764c.504-.267 1.001-.58 1.528-.91 1.07-.608 2.129-1.39 3.264-2.178a46.451 46.451 0 0012.1-13.159c.694-1.199 1.377-2.317 1.898-3.435.266-.579.578-1.071.781-1.599l.637-1.511c.434-.956.706-1.865.989-2.647.133-.394.272-.753.376-1.095l.261-.938.37-1.298c.036-.15.084-.297.145-.44z" fill="#263238"/><path d="M204.158 97.448a2.244 2.244 0 01-.365.214 30.11 30.11 0 01-1.082.544 14.807 14.807 0 01-4.242 1.402 7.845 7.845 0 01-3.096-.174 5.681 5.681 0 01-1.603-.7 6.024 6.024 0 01-1.371-1.246 27.162 27.162 0 01-2.078-3.325c-.677-1.158-1.556-2.316-2.893-2.757-1.337-.44-2.743-.11-4.051.25a15.541 15.541 0 01-3.836.828 5.601 5.601 0 01-5.787-5.949c.04-.647.186-1.283.434-1.882.197-.515.494-.985.874-1.384-.304.449-.56.928-.764 1.43a5.931 5.931 0 00-.376 1.848 5.333 5.333 0 002.378 4.703 5.396 5.396 0 003.252.962c1.286-.12 2.551-.4 3.767-.835a12.6 12.6 0 012.037-.445 4.905 4.905 0 012.165.197 4.553 4.553 0 011.817 1.198 9.536 9.536 0 011.232 1.692 27.701 27.701 0 002.037 3.301 5.377 5.377 0 002.824 1.877 7.706 7.706 0 003.003.203 15.611 15.611 0 004.219-1.298l1.105-.492c.128-.067.262-.121.4-.162zM190.391 117.969c.199-.296.339-.629.411-.979a3.188 3.188 0 00-.15-1.421 3.188 3.188 0 00-.753-1.214 4.176 4.176 0 00-1.672-1.043 10.564 10.564 0 00-2.257-.492c-.816-.11-1.684-.174-2.581-.365a6.263 6.263 0 01-2.598-1.118 4.014 4.014 0 01-.961-1.1 7.414 7.414 0 01-.579-1.281 13.721 13.721 0 00-.943-2.386 4.267 4.267 0 00-3.518-2.085 4.399 4.399 0 00-2.709.88 9.596 9.596 0 00-.798.724.927.927 0 01.156-.237 4.38 4.38 0 013.368-1.581 4.462 4.462 0 013.756 2.154c.405.776.735 1.588.983 2.427a4.638 4.638 0 001.441 2.242 6.03 6.03 0 002.46 1.065c.868.192 1.736.267 2.552.383 1.632.202 3.182.672 4.05 1.668a3.275 3.275 0 01.857 2.803c-.058.269-.17.524-.33.747-.127.145-.185.215-.185.209zM199.47 159.104a8.2 8.2 0 00-2.314.099c-.894.184-1.776.416-2.645.695a12.731 12.731 0 01-3.582.643 10.412 10.412 0 01-4.328-.846 9 9 0 01-3.924-3.185 8.15 8.15 0 01-1.256-5.428c.111-1 .413-1.97.892-2.855a6.938 6.938 0 012.042-2.317c.822-.608 1.736-1.158 2.147-2.004.206-.42.273-.895.191-1.355a5.067 5.067 0 00-.463-1.338 7.902 7.902 0 01-.966-2.711 5.726 5.726 0 01.405-2.745 6.678 6.678 0 013.565-3.557 9.874 9.874 0 014.34-.776c1.202.062 2.408.027 3.605-.104a5.906 5.906 0 002.5-.979 3.716 3.716 0 001.157-1.257c.185-.347.231-.579.249-.55a2.044 2.044 0 01-.197.579 3.61 3.61 0 01-1.123 1.321 5.927 5.927 0 01-2.54 1.048c-1.205.151-2.421.201-3.634.151a9.718 9.718 0 00-4.236.793 6.436 6.436 0 00-3.397 3.429 5.463 5.463 0 00-.376 2.612 7.65 7.65 0 00.949 2.618c.229.448.395.926.492 1.419a2.493 2.493 0 01-.22 1.541c-.498.961-1.435 1.512-2.239 2.114a6.947 6.947 0 00-2.824 4.947 7.879 7.879 0 001.192 5.212 8.757 8.757 0 003.79 3.116c1.331.584 2.771.878 4.224.864a12.712 12.712 0 003.542-.58 23.727 23.727 0 012.668-.648 6.775 6.775 0 011.736-.081c.196.021.389.06.578.115zM191.282 177.575s0-.405.046-1.129a6.703 6.703 0 00-.526-2.966 2.894 2.894 0 00-1.406-1.424 5.428 5.428 0 00-2.315-.348 6.791 6.791 0 01-2.714-.336 3.183 3.183 0 01-1.158-.909 7.087 7.087 0 01-.798-1.269 10.492 10.492 0 00-1.482-2.438 7.385 7.385 0 00-2.06-1.639 7.032 7.032 0 00-4.346-.777 7.587 7.587 0 00-2.852 1.008c-.62.377-.915.649-.938.626-.023-.023.064-.081.203-.209.209-.187.432-.359.665-.515a7.261 7.261 0 012.894-1.118 7.154 7.154 0 014.507.741 7.58 7.58 0 012.153 1.692c.318.358.601.746.845 1.158.243.429.457.875.683 1.309a4.049 4.049 0 001.823 2.045 6.657 6.657 0 002.598.33 5.616 5.616 0 012.442.399 3.127 3.127 0 011.493 1.564c.395.97.55 2.021.451 3.064 0 .365-.063.649-.098.834a1.073 1.073 0 01-.11.307zM177.4 129.681c-.142.338-.3.668-.475.99a7.663 7.663 0 00-.862 2.815 3.714 3.714 0 00.422 1.94c.392.682.833 1.335 1.32 1.952a7.01 7.01 0 011.302 5.248 5.925 5.925 0 01-3.183 4.338 5.304 5.304 0 01-2.35.579 5.074 5.074 0 01-4.293-2.45 3.82 3.82 0 01-.336-.753 1.013 1.013 0 01-.064-.278c.029 0 .128.377.504.968a5 5 0 002.228 1.859 4.79 4.79 0 001.967.4 5.099 5.099 0 002.222-.58 5.675 5.675 0 003.01-4.135 6.797 6.797 0 00-1.239-5.051c-.488-.632-.927-1.3-1.313-1.998a3.887 3.887 0 01-.411-2.068 7.304 7.304 0 01.972-2.855c.173-.313.312-.551.411-.707a.968.968 0 01.168-.214z" fill="white"/><path d="M194.835 110.242a3.064 3.064 0 01-.069-.689l-.093-1.882-.301-6.215a199.535 199.535 0 01-.214-6.22v-1.89a3.112 3.112 0 01.046-.694c.049.226.072.457.07.69l.092 1.882.301 6.214c.116 2.393.191 4.634.214 6.221v1.888c.012.233-.004.466-.046.695z" fill="#263238"/><path d="M194.633 102.904s.972 11.688-.145 12.47c-6.186 4.327-14.415 6.07-17.36 6.58-.411-.145-.886-.33-1.436-.579a4.586 4.586 0 01-1.284-.857 7.18 7.18 0 01-1.273-1.466.581.581 0 00-.928-.234.574.574 0 00-.183.321c-.076.539.659 2.021 2.164 3.203 1.504 1.182-1.458 1.251-2.541 1.292-1.082.04-4.415.336-4.658.689-.359.515.122 1.008 1.198.938 1.076-.069 4.328-.04 4.328.545 0 .585-5.497.718-5.497.718s-1.157-.162-1.204.51c-.029 1.216 5.787.625 6.366.579.388-.047.411.579 0 .614-.411.035-5.498 0-5.538 1.251-.035.95 4.803-.44 5.862.162 1.059.602-3.779.672-3.773 1.581 0 .336.046.579 2.818.139a54.798 54.798 0 005.856-1.564s28.766-2.467 28.043-15.453c-.486-8.786-.33-7.165-.868-11.781" fill="#B78876"/></g><defs><clipPath id="clip0"><path fill="white" d="M0 0h312v236H0z"/></clipPath></defs></svg>