<svg viewBox="0 0 312 256" xmlns="http://www.w3.org/2000/svg"><path fill-rule="evenodd" clip-rule="evenodd" d="M145.125 18.608c28.229-4.206 58.024 9.565 77.62 24.273 18.266 13.71 11.445 36.032 24.486 52.361 12.701 15.903 40.957 23.822 49.989 40.888 10.61 20.047 24.518 46.406 4.929 62.881-20.725 17.431-63.431 5.339-94.392 12.363-22.898 5.195-39.37 18.912-62.632 23.262-28.149 5.265-59.73 13.636-85.729 4.485-25.937-9.129-37.275-31.152-45.189-50.565-6.98-17.123 4.768-34.664 3.206-52.426-1.696-19.275-27.8-40-12.765-56.254 15.275-16.513 56.04-5.973 79.986-16.417 25.42-11.086 31.133-40.477 60.491-44.851z"/><path d="M104.316 172.57H60.881v82.358h43.435V172.57z" fill="#E0E0E0"/><path d="M104.316 172.57H83.953v82.358h20.363V172.57z" fill="#EBEBEB"/><path d="M73.894 180.317h-3.902v9.482h3.902v-9.482zM73.894 217.424h-3.902v9.481h3.902v-9.481zM72.417 193.666c6.37 0 11.536-.065 11.536-.145 0-.08-5.165-.145-11.536-.145-6.371 0-11.536.065-11.536.145 0 .08 5.165.145 11.536.145zM73.894 199.009h-3.902v9.482h3.902v-9.482zM72.417 212.358c6.37 0 11.536-.065 11.536-.145 0-.08-5.165-.145-11.536-.145-6.371 0-11.536.065-11.536.145 0 .08 5.165.145 11.536.145z" fill="#F5F5F5"/><path d="M92.18 180.317h-3.902v9.482h3.902v-9.482zM100.654 180.317h-3.903v9.482h3.903v-9.482zM92.18 198.309h-3.902v9.482h3.902v-9.482zM100.654 198.309h-3.903v9.482h3.903v-9.482zM92.18 216.294h-3.902v9.482h3.902v-9.482zM100.654 216.294h-3.903v9.482h3.903v-9.482zM107.58 170.576H57.616v2.063h49.964v-2.063z" fill="#E0E0E0"/><path d="M82.936 172.98c11.975 0 21.683-.065 21.683-.145 0-.08-9.708-.145-21.683-.145s-21.683.065-21.683.145c0 .08 9.708.145 21.683.145zM71.223 203.457H32.341v51.238h38.882v-51.238z" fill="#EBEBEB"/><path d="M71.217 203.457H52.988v51.238h18.229v-51.238z" fill="#E0E0E0"/><path d="M43.99 210.396h-3.498v8.485h3.498v-8.485zM43.99 243.61h-3.498v8.485h3.498v-8.485zM42.664 222.382c5.702 0 10.324-.076 10.324-.17 0-.094-4.622-.17-10.324-.17-5.701 0-10.323.076-10.323.17 0 .094 4.622.17 10.323.17zM43.99 227.126h-3.498v8.485h3.498v-8.485zM42.664 239.113c5.702 0 10.324-.077 10.324-.171 0-.094-4.622-.17-10.324-.17-5.701 0-10.323.076-10.323.17 0 .094 4.622.171 10.323.171zM60.363 210.396h-3.498v8.485h3.498v-8.485zM67.946 210.396h-3.498v8.485h3.498v-8.485zM60.363 226.496h-3.498v8.485h3.498v-8.485zM67.946 226.496h-3.498v8.485h3.498v-8.485zM60.363 242.601h-3.498v8.485h3.498v-8.485zM67.946 242.601h-3.498v8.485h3.498v-8.485z" fill="#F5F5F5"/><path d="M74.147 201.671h-44.73v1.849h44.73v-1.849z" fill="#E0E0E0"/><path d="M52.085 203.867c10.72 0 19.41-.077 19.41-.171 0-.094-8.69-.17-19.41-.17s-19.41.076-19.41.17c0 .094 8.69.171 19.41.171zM52.893 10.832s-6.188 1.893-.48 15.14c5.708 13.248 9.838 19.948 9.838 19.948s.966 3.06-1.579 3.356c-2.544.297-8.019-.952-9.345 2.05-1.37 3.11.745 6.271 5.266 9.217 4.521 2.946 14.195 9.772 15.072 10.39.878.619 1.66 2.057-.044 2.524-1.705.467-14.238.984-13.657 6.914.58 5.93 14.522 12.075 16.044 12.775 1.522.7 1.837 1.381 1.654 2.227-.183.845-4.42.63-7.975.883-3.555.252-7.627 1.23-7.008 4.618.618 3.387 8.625 10.964 29.045 14.339l9.572.946 5.771-7.715c11.302-17.361 11.119-28.388 9.036-31.12-2.084-2.732-5.538-.385-8.152 2.05-2.614 2.435-5.291 5.71-6.036 5.274-.745-.435-1.03-1.135-.524-2.725.505-1.59 5.392-16.017 1.408-20.452-3.984-4.435-12.799 4.485-14.302 5.412-1.502.928-2.027-.63-1.894-1.684.133-1.053 1.63-12.8 2.526-18.124.896-5.325 0-9.022-3.246-10.094-3.106-1.047-5.885 3.83-7.823 5.501-1.939 1.672-3.542-1.104-3.542-1.104s-2.135-7.57-8.082-20.717c-5.948-13.147-11.669-9.785-11.669-9.785" fill="#EBEBEB"/><path d="M99.656 118.456c-4.332-9.696-11.744-27.064-18.185-41.94-6.44-14.875-12.28-28.325-16.562-38.046l-5.083-11.5-1.383-3.155-.353-.814c-.076-.183-.114-.284-.114-.284s.05.089.14.272l.378.807 1.433 3.104c1.263 2.7 3.006 6.618 5.172 11.469 4.331 9.696 10.203 23.146 16.644 38.015 6.44 14.87 13.821 32.249 18.102 41.971" fill="#E0E0E0"/><path d="M58.91 53.39c.219.054.43.133.632.233.417.164 1.01.422 1.743.744 1.458.631 3.454 1.596 5.638 2.675l5.576 2.795 1.692.832c.222.088.434.2.631.335a3.114 3.114 0 01-.631-.227 42.223 42.223 0 01-1.737-.751c-1.452-.63-3.434-1.634-5.62-2.719l-5.593-2.75-1.699-.827a3.115 3.115 0 01-.631-.34zM79.765 51.197c2.26-5.139 4.03-9.332 3.953-9.365-.076-.034-1.97 4.104-4.23 9.243-2.26 5.139-4.03 9.332-3.954 9.365.077.034 1.971-4.104 4.231-9.243zM84.382 83.72a3.25 3.25 0 01.43-.567l1.262-1.476c1.042-1.262 2.482-2.978 3.99-4.946a201.132 201.132 0 003.79-5.123l1.11-1.577c.125-.202.27-.39.436-.561-.09.222-.204.434-.34.63-.234.392-.588.947-1.036 1.628a87.816 87.816 0 01-3.707 5.186 88.01 88.01 0 01-4.066 4.901c-.543.631-.991 1.092-1.313 1.42a3.241 3.241 0 01-.556.486zM67.959 80.655c.212-.005.424.014.631.057l1.768.258c1.49.234 3.542.568 5.803.966 2.26.397 4.313.763 5.79 1.047l1.749.353c.216.032.428.089.631.17a2.777 2.777 0 01-.631-.056l-1.768-.259c-1.49-.234-3.542-.568-5.809-.965a396.779 396.779 0 01-5.79-1.047l-1.749-.354a2.781 2.781 0 01-.625-.17zM73.162 102.199c.281-.001.563.024.84.075l2.266.322c1.894.284 4.546.7 7.451 1.173a497 497 0 017.438 1.262l2.248.416c.279.04.554.105.82.196a4.463 4.463 0 01-.839-.076l-2.267-.321a636.995 636.995 0 01-7.45-1.174 497 497 0 01-7.439-1.262l-2.247-.416a4.537 4.537 0 01-.821-.195zM93.733 105.422c.153-.259.329-.503.524-.732l1.503-1.93c1.263-1.634 3.012-3.892 4.862-6.441a249.39 249.39 0 004.635-6.605l1.376-2.025c.156-.257.333-.5.53-.726a5.154 5.154 0 01-.435.789 73.017 73.017 0 01-1.301 2.076 142.092 142.092 0 01-4.571 6.661 145.327 145.327 0 01-4.938 6.397c-.632.795-1.193 1.438-1.579 1.893a5.22 5.22 0 01-.606.643z" fill="#E0E0E0"/><path d="M237.475 142.989c-12.793-8.926-15.691-25.499-15.186-40.374.082-2.486-.189-5.11.998-7.293s3.946-3.671 6.175-2.624c1.85.87 2.652 3.015 3.688 4.794a14.555 14.555 0 005.834 5.571c1.585.82 3.549 1.325 5.108.46 2.147-1.186 2.399-4.144 2.387-6.617l-.089-13.829c0-2.473 0-4.996.746-7.343.745-2.347 2.468-4.53 4.824-5.185 2.355-.657 5.266.7 5.764 3.116.209 1.01 0 2.05.07 3.079.069 1.028.549 2.163 1.522 2.447.972.284 1.976-.41 2.721-1.135 2.526-2.524 4.287-5.716 5.91-8.914 1.623-3.199 3.195-6.473 5.512-9.198 2.318-2.725 5.525-4.883 9.067-5.085 3.543-.202 7.325 1.987 8.209 5.463.884 3.476-1.137 7.022-3.353 9.848a55.236 55.236 0 01-11.504 10.958c-.783.555-1.63 1.148-1.895 2.07-.536 1.646 1.023 3.286 2.659 3.829 1.843.63 3.845.422 5.777.63 1.932.209 4.022 1.08 4.748 2.902 1.017 2.524-1.105 5.18-3.157 6.94a47.376 47.376 0 01-14.011 8.081c-1.818.669-3.738 1.262-5.203 2.523-1.465 1.262-2.355 3.502-1.465 5.243.891 1.741 3.157 2.302 5.052 1.949 1.894-.353 3.611-1.388 5.43-2.076 3.403-1.261 7.791-1.047 9.976 1.893 1.433 1.93 1.56 4.618.834 6.939-.726 2.322-2.191 4.284-3.751 6.113-5.449 6.391-12.433 11.539-20.325 14.27-7.893 2.732-15.205 3.476-23.047.631" fill="#F5F5F5"/><path d="M237.279 154.036c.695-6.9 2.051-13.717 4.047-20.358a221.692 221.692 0 018.802-23.859l2.627-6.138c.865-2.012 1.73-4.006 2.69-5.905a110.801 110.801 0 016.156-10.598c2.122-3.274 4.256-6.308 6.27-9.129 2.014-2.82 3.953-5.406 5.815-7.696a87.872 87.872 0 019.585-10.093 84.496 84.496 0 012.867-2.48l.764-.63c.084-.076.175-.144.272-.203a1.8 1.8 0 01-.24.234l-.733.63c-.631.575-1.604 1.42-2.803 2.524a92.912 92.912 0 00-9.472 10.195c-1.843 2.29-3.756 4.889-5.758 7.709-2.002 2.82-4.117 5.86-6.226 9.135a112.011 112.011 0 00-6.106 10.566c-.953 1.893-1.805 3.867-2.671 5.886l-2.626 6.132a226.917 226.917 0 00-8.84 23.796c-2 6.628-3.372 13.429-4.098 20.313" fill="#E0E0E0"/><path d="M255.578 97.72a5.01 5.01 0 01-.24-1.054c-.133-.681-.285-1.678-.461-2.908-.348-2.46-.72-5.88-1.105-9.646-.385-3.766-.809-7.173-1.194-9.62a155.71 155.71 0 00-.473-2.903 4.908 4.908 0 01-.139-1.072c.141.333.244.68.309 1.035.177.675.385 1.659.632 2.883.467 2.447.934 5.854 1.326 9.626l.972 9.659c.126 1.16.227 2.139.316 2.927.058.354.077.714.057 1.072zM287.401 91.796c-.416.089-.838.14-1.263.151-.815.076-2.002.17-3.454.34-2.917.316-6.945.89-11.321 1.717-4.376.826-8.347 1.76-11.182 2.523-1.421.366-2.564.694-3.353.915-.411.14-.834.242-1.263.303.38-.195.777-.354 1.187-.474.777-.27 1.894-.63 3.321-1.06 2.823-.832 6.769-1.81 11.183-2.655a112.288 112.288 0 0111.365-1.59 55.755 55.755 0 013.479-.196 6.75 6.75 0 011.301.026zM241.718 133.047a1.617 1.617 0 01-.221-.385l-.543-1.148c-.467-1.003-1.105-2.466-1.894-4.29-1.535-3.64-3.498-8.743-5.588-14.396-2.09-5.652-4.003-10.768-5.462-14.434l-1.736-4.34-.468-1.186a1.609 1.609 0 01-.132-.422c.091.12.165.251.221.39l.543 1.149c.467 1.003 1.105 2.466 1.894 4.29 1.534 3.64 3.498 8.743 5.588 14.396 2.09 5.652 4.003 10.762 5.462 14.434l1.736 4.34.467 1.186c.063.132.107.272.133.416zM284.004 119.452a1.7 1.7 0 01-.417.17l-1.231.411-4.527 1.463a1922.124 1922.124 0 00-14.896 4.978c-5.809 1.968-11.093 3.69-14.945 4.851-1.894.58-3.486 1.034-4.572 1.325l-1.262.328a1.71 1.71 0 01-.449.082c.131-.077.271-.137.417-.177l1.231-.41 4.528-1.464c3.826-1.261 9.086-3.009 14.901-4.977 5.815-1.968 11.094-3.691 14.945-4.851a136.537 136.537 0 014.572-1.325l1.263-.328c.143-.045.292-.071.442-.076z" fill="#E0E0E0"/><path d="M96.366 157.878c10.04-10.094 9.932-25.5 7.034-38.817-.486-2.22-.669-4.624-2.09-6.39-1.42-1.767-4.148-2.656-5.986-1.35-1.521 1.085-1.894 3.154-2.525 4.914a13.295 13.295 0 01-4.338 5.962c-1.263.996-2.974 1.772-4.521 1.261-2.121-.713-2.835-3.337-3.233-5.564l-2.19-12.447c-.392-2.227-.803-4.498-1.895-6.485s-2.961-3.665-5.19-3.873c-2.23-.208-4.622 1.489-4.673 3.747.085.936.232 1.866.442 2.782.108.934-.139 2.031-.966 2.454-.827.423-1.844-.044-2.633-.574-2.709-1.829-4.792-4.416-6.775-7.047-1.983-2.63-3.934-5.299-6.466-7.368-2.532-2.07-5.77-3.489-8.991-3.085-3.22.404-6.257 2.984-6.497 6.258-.24 3.274 2.172 6.132 4.628 8.309a50.516 50.516 0 0012.142 7.967 4.156 4.156 0 012.071 1.546c.752 1.394-.385 3.154-1.761 3.88-1.56.851-3.391 1.009-5.09 1.526-1.698.518-3.44 1.628-3.788 3.388-.499 2.441 1.837 4.473 3.997 5.678a43.3 43.3 0 0013.89 4.971c1.75.303 3.568.511 5.096 1.419 1.528.909 2.69 2.763 2.179 4.473-.512 1.709-2.47 2.586-4.243 2.58-1.775-.006-3.48-.631-5.222-.978-3.27-.599-7.18.335-8.657 3.331-.972 1.968-.631 4.416.385 6.359a16.496 16.496 0 004.376 4.883c5.948 4.858 13.07 8.34 20.616 9.507 7.545 1.167 14.238.631 20.836-3.224"/><path d="M98.349 167.776a99.16 99.16 0 00-6.977-17.664 202.437 202.437 0 00-11.833-20.017l-3.372-5.085c-1.111-1.665-2.21-3.318-3.39-4.87a101.232 101.232 0 00-7.268-8.542c-2.444-2.599-4.862-4.977-7.135-7.185-2.273-2.208-4.42-4.214-6.49-5.968a80.308 80.308 0 00-10.28-7.532 64.046 64.046 0 00-2.98-1.76l-.79-.436a1.709 1.709 0 00-.278-.132c.079.065.163.122.253.17l.77.467c.676.41 1.673 1.01 2.943 1.823a84.982 84.982 0 0110.172 7.62c2.033 1.761 4.18 3.786 6.446 5.994 2.267 2.208 4.667 4.599 7.097 7.198 2.561 2.701 4.973 5.54 7.224 8.504 1.168 1.545 2.26 3.154 3.372 4.857l3.365 5.085a207.65 207.65 0 0111.833 19.96 100.922 100.922 0 017.027 17.595" fill="#263238"/><path d="M72.663 120.14c.05-.328.065-.66.044-.991 0-.63 0-1.558-.063-2.693-.088-2.271-.322-5.407-.587-8.832-.265-3.426-.455-6.58-.505-8.832 0-1.136-.045-2.05-.05-2.688a4.53 4.53 0 00-.051-.99 4.487 4.487 0 00-.108.984c-.05.631-.076 1.552-.082 2.694 0 2.277.12 5.419.385 8.876l.708 8.832c.075 1.066.145 1.962.195 2.681.004.323.042.644.114.959zM43.069 120.007c.39.014.781-.01 1.168-.069.745-.069 1.824-.17 3.157-.259 2.67-.195 6.377-.334 10.462-.309 4.085.026 7.792.221 10.47.429 1.338.095 2.418.202 3.156.272a6.34 6.34 0 001.168.069 6.168 6.168 0 00-1.149-.233 58.2 58.2 0 00-3.157-.411c-2.677-.29-6.39-.523-10.494-.555-3.503-.034-7.006.112-10.494.436a53.49 53.49 0 00-3.157.391 6.143 6.143 0 00-1.13.239zM90.924 149.651c.061-.121.106-.251.132-.384l.303-1.123c.259-.978.594-2.398.985-4.164.783-3.526 1.711-8.435 2.665-13.879.953-5.444 1.837-10.339 2.525-13.879l.853-4.188.227-1.142c.035-.132.052-.268.05-.404a1.532 1.532 0 00-.132.385l-.303 1.123c-.259.978-.594 2.397-.985 4.163-.783 3.527-1.711 8.435-2.665 13.879-.953 5.444-1.837 10.334-2.525 13.879l-.853 4.189-.227 1.142a1.5 1.5 0 00-.05.403z" fill="#263238"/><path d="M50.658 144.327c.13.047.266.077.404.088l1.175.17 4.312.581c3.644.486 8.663 1.224 14.213 2.037 5.55.814 10.583 1.502 14.239 1.893 1.825.208 3.308.36 4.331.442l1.181.088c.138.019.279.019.417 0a1.556 1.556 0 00-.404-.088l-1.175-.171-4.312-.58c-3.644-.486-8.663-1.218-14.213-2.038-5.55-.82-10.583-1.501-14.233-1.892-1.824-.208-3.308-.36-4.331-.442l-1.18-.088a1.5 1.5 0 00-.424 0z" fill="#263238"/><path d="M211.284 43.517a7.023 7.023 0 002.418-6.624 9.32 9.32 0 00-4.016-5.98c-.94-.632-2.109-1.155-3.207-.834a3.002 3.002 0 00-1.945 2.34 6.089 6.089 0 00.366 3.155c1.2 3.457 2.993 6.586 6.384 7.962M214.485 49.421a16.42 16.42 0 0114.523-3.785c1.262.297 2.746.978 2.961 2.29.215 1.312-.96 2.423-2.109 3.085a14.052 14.052 0 01-15.533-1.262M233.023 22.087a8.216 8.216 0 00-6.358 1.09 14.514 14.514 0 00-4.546 4.745c-2.286 3.608-3.094 8.466-3.195 12.737 4.748-.19 8.802-3.918 10.734-5.943 3.062-3.192 6.661-10.825 3.359-12.617" fill="#455A64"/><path d="M207.293 55.875c.433-.57.83-1.166 1.187-1.785a30.129 30.129 0 002.671-7.615 15.14 15.14 0 00-.593-8.03 9.865 9.865 0 00-1.15-2.177 2.73 2.73 0 00-.587-.687c.549.953 1.022 1.95 1.415 2.977.802 2.534.954 5.228.442 7.835a34.902 34.902 0 01-2.526 7.57" fill="#263238"/><path d="M207.262 55.932l2.475-3.154a780.584 780.584 0 018.208-10.473 857.819 857.819 0 018.385-10.32l2.526-3.117c.332-.367.632-.762.897-1.18-.358.316-.69.66-.992 1.029-.631.7-1.559 1.735-2.67 3.022a327.252 327.252 0 00-8.499 10.245 326.252 326.252 0 00-8.095 10.566c-1.004 1.376-1.812 2.524-2.349 3.28" fill="#263238"/><path d="M226.053 48.431a2.967 2.967 0 00-.821-.252 6.929 6.929 0 00-.992-.19 11.574 11.574 0 00-1.332-.145 17.313 17.313 0 00-3.485.133 18.498 18.498 0 00-7.925 3.06c-.96.66-1.85 1.418-2.658 2.258-.314.317-.609.652-.884 1.003a6.91 6.91 0 00-.631.807c-.31.46-.265.675-.24.694a27.549 27.549 0 011.964-2.27 19.304 19.304 0 012.67-2.133 19.548 19.548 0 017.742-3.01 19.316 19.316 0 013.409-.233c1.97.082 3.164.36 3.183.278z" fill="#263238"/><path d="M189.247 255.754l-84.527-.391c-10.166-.044-18.368-8.542-18.311-18.982l.915-217.556C87.37 8.385 95.653-.05 105.825 0l84.527.391c10.166.045 18.368 8.542 18.311 18.983l-.921 217.556c-.045 10.44-8.323 18.875-18.495 18.824z" fill="#263238"/><path d="M200.095 200.599a1.862 1.862 0 10-1.863-1.861c0 1.028.834 1.861 1.863 1.861z" fill="#E0E0E0"/><path d="M200.095 202.819c.091 0 .164-.912.164-2.037 0-1.126-.073-2.038-.164-2.038-.091 0-.164.912-.164 2.038 0 1.125.073 2.037.164 2.037z" fill="#E0E0E0"/><path d="M192.032 7.57l-16.903-.062a4.196 4.196 0 00-4.123 4.27v3.066a4.193 4.193 0 01-4.123 4.252l-32.948-.151a4.206 4.206 0 01-4.085-4.309V11.57a4.207 4.207 0 00-4.085-4.309h-5.948l-14.813-.088a13.314 13.314 0 00-9.428 3.858 13.292 13.292 0 00-3.933 9.39L90.74 233.58a13.282 13.282 0 003.861 9.42 13.298 13.298 0 009.399 3.929l87.015.404a13.326 13.326 0 009.429-3.858 13.274 13.274 0 003.932-9.39l.897-213.166a13.29 13.29 0 00-3.854-9.413 13.312 13.312 0 00-9.387-3.935z" fill="#FAFAFA"/><path d="M96.53 175.781c.74-.555 37.134-16.572 37.134-16.572l-42.507-21.184-.145 34.135 5.518 3.621z" fill="#EBEBEB"/><path d="M98.753 137.368l31.002-15.746-33.32-18.458-5.14 1.287-.125 29.864 7.583 3.053z"/><path opacity=".7" d="M98.753 137.368l31.002-15.746-33.32-18.458-5.14 1.287-.125 29.864 7.583 3.053z" fill="white"/><path d="M92.42 101.018l95.577-44.6-94.7-30.919-.877 75.519zM91.309 217.171l43.675-22.395L200 232.993l-15.488 13.57h-55.483l-37.72-23.033v-6.359zM143.583 192.36l54.012 31.99 6.023-.681v-30.767l-29.6-15.651-30.435 15.109zM152.461 161.808l50.924 28.621v-37.422l-18.425-7.885-32.499 16.686zM98.071 177.573l29.872 16.377 36.25-18.762-28.799-14.636-37.323 17.021zM142.914 121.414l42.318 20.957 19.624-10.018.126-14.043-28.584-13.86-33.484 16.964zM99.63 139.69l42.324 20.957 19.625-10.018.126-14.043-28.59-13.86-33.484 16.964zM105.496 102.034l34.488 17.26 32.165-17.26-33.326-15.19-33.327 15.19z" fill="#EBEBEB"/><path d="M172.149 212.295a3.845 3.845 0 01-.632-.316l-1.787-1.003-6.844-3.955-25.358-14.857-.524-.309.549-.277 33.263-16.895v.764l-24.839-13.248-.79-.417.79-.416 34.506-18.093v.877l-4.116-2.082-77.286-39.176-.726-.366.733-.347 41.042-19.556 11.365-5.356 2.999-1.375.771-.34a1.02 1.02 0 01.271-.096 1.006 1.006 0 01-.246.152l-.745.391-2.955 1.533-11.29 5.552-40.865 19.852v-.738l77.367 39.012 4.117 2.082.852.429-.846.442-34.525 18.055v-.833l24.814 13.298.733.391-.745.373-33.364 16.73v-.587l25.206 15.141 6.756 4.106 1.736 1.086c.216.104.421.229.613.372z"/><path d="M164.729 55.225c0-6.309-6.617-10.283-13.367-7.129a7.663 7.663 0 00-3.548 3.4c-1.699 3.287-.947 7.04.593 10.151l5.254 13.298a2.259 2.259 0 003.387 1.05 2.26 2.26 0 00.831-1.05l5.152-13.367c1.774-4.082 1.698-6.353 1.698-6.353zm-6.314 5.476c-4.533 2.637-9.136-2.233-6.648-7.04a3.784 3.784 0 011.439-1.527c4.534-2.637 9.137 2.233 6.649 7.04a3.783 3.783 0 01-1.465 1.527h.025z"/><path d="M154.652 124.076l-.151-7.431 19.39 9.381v7.721l-19.239-9.671z" fill="#F5F5F5"/><path d="M173.891 126.026l24.083-11.955v8.321l-24.083 11.355v-7.721z" fill="#E0E0E0"/><path d="M154.501 116.645l23.633-11.803 19.84 9.229-24.083 11.955-19.39-9.381z" fill="#F5F5F5"/><path d="M157.033 119.856v3.602l1.894.858v-3.451l-1.894-1.009zM160.063 121.187v3.608l1.895.858v-3.45l-1.895-1.016z" fill="#FAFAFA"/><path d="M93.645 77.192v-9.678l22.952 11.11v9.135L93.645 77.191z" fill="#E0E0E0"/><path d="M116.597 78.623l28.514-14.156v9.854l-28.514 13.437v-9.135z" fill="#F5F5F5"/><path d="M93.645 67.514l27.972-13.973 23.494 10.926-28.514 14.157-22.952-11.11zM96.644 71.312v4.27l2.242 1.01v-4.075l-2.242-1.205zM100.23 72.895v4.265l2.242 1.016v-4.082l-2.242-1.199z" fill="#FAFAFA"/><path d="M162.835 158.022v7.621l8.209 4.031v-7.873l-8.209-3.779z" fill="#E0E0E0"/><path d="M181.462 156.812l-10.45 4.996v7.867l10.45-5.829v-7.034z" fill="#E0E0E0"/><path d="M162.829 158.023l10.362-5.016 8.271 3.804-10.45 4.997-8.183-3.785z" fill="#F5F5F5"/><path d="M165.74 163.492v3.602l1.894.858v-3.444l-1.894-1.016z" fill="#FAFAFA"/><path d="M96.758 154.079v7.621l8.208 4.031v-7.873l-8.208-3.779z" fill="#E0E0E0"/><path d="M115.391 152.869l-10.456 4.996v7.867l10.456-5.829v-7.034z" fill="#E0E0E0"/><path d="M96.758 154.08l10.361-5.016 8.272 3.805-10.456 4.996-8.177-3.785z" fill="#F5F5F5"/><path d="M99.662 159.549v3.602l1.894.858v-3.444l-1.894-1.016z" fill="#FAFAFA"/><path d="M130.671 103.776v7.62l8.208 4.031v-7.866l-8.208-3.785z" fill="#F5F5F5"/><path d="M149.304 102.571l-10.456 4.99v7.873l10.456-5.829v-7.034z" fill="#E0E0E0"/><path d="M130.671 103.782l10.355-5.015 8.278 3.804-10.456 4.99-8.177-3.779z" fill="#F5F5F5"/><path d="M133.576 109.251v3.602l1.894.858v-3.45l-1.894-1.01zM121.579 169.088v7.621l8.208 4.031v-7.867l-8.208-3.785z" fill="#E0E0E0"/><path d="M140.212 167.876l-10.457 4.997v7.873l10.457-5.829v-7.041z" fill="#EBEBEB"/><path d="M121.579 169.088l10.361-5.009 8.272 3.798-10.457 4.996-8.176-3.785z" fill="#F5F5F5"/><path d="M124.483 174.557v3.609l1.894.851v-3.444l-1.894-1.016z" fill="#FAFAFA"/><path d="M155.347 187.502v9.557l17.218 10.138v-9.866l-17.218-9.829z" fill="#F5F5F5"/><path d="M185.693 190.278l-13.109 7.053v9.866l13.109-7.305v-9.614z" fill="#E0E0E0"/><path d="M155.347 187.502l12.988-6.289 17.358 9.065-13.109 7.053-17.237-9.829zM161.857 196.34v4.517l2.374 1.432v-4.472l-2.374-1.477z" fill="#FAFAFA"/><path d="M113.882 207.172v9.558l17.237 10.144v-9.873l-17.237-9.829z" fill="#E0E0E0"/><path d="M151.691 205.866l-20.572 11.141v9.867l20.629-11.425-.057-9.583z" fill="#FAFAFA"/><path d="M113.882 207.172l21.758-10.523 16.108 9.255-20.629 11.103-17.237-9.835z" fill="#F5F5F5"/><path d="M120.392 216.01v4.524l2.374 1.425v-4.472l-2.374-1.477z" fill="#FAFAFA"/><path d="M179.132 171.435v38.172l10.759 5.558v-38.652l-10.759-5.078z" fill="#F5F5F5"/><path d="M187.082 167.775l-7.95 3.659 10.759 5.079 7.236-4.076-10.045-4.662z" fill="#FAFAFA"/><path d="M189.891 176.513v38.652l6.548-3.52.688-39.207-7.236 4.075z" fill="#E0E0E0"/><path d="M133.664 140.516v38.173l10.753 5.558v-38.652l-10.753-5.079z" fill="#F5F5F5"/><path d="M141.607 136.857l-7.943 3.659 10.753 5.079 7.242-4.076-10.052-4.662z" fill="#FAFAFA"/><path d="M144.417 145.595v38.652l6.548-3.223.694-39.504-7.242 4.075zM138.545 213.109v9.557l17.237 10.144v-9.866l-17.237-9.835z" fill="#E0E0E0"/><path d="M168.891 215.89l-13.109 7.053v9.867l13.109-7.305v-9.615z" fill="#FAFAFA"/><path d="M138.545 213.109l13.146-7.243 17.2 10.025-13.109 7.053-17.237-9.835z" fill="#F5F5F5"/><path d="M145.055 221.947v4.523l2.38 1.426v-4.473l-2.38-1.476z" fill="#FAFAFA"/><path d="M176.884 99.158L145.49 85.02l43.719-22.23 14.346 21.372-26.671 14.996z" fill="#EBEBEB"/><path d="M204.824 112.14l.221-24.477-24.341 13.841 24.12 10.636z"/><path d="M184.468 138.516a1.862 1.862 0 100-3.723 1.862 1.862 0 000 3.723z" fill="#E0E0E0"/><path d="M184.468 140.731c.09 0 .164-.913.164-2.038 0-1.125-.074-2.038-.164-2.038-.091 0-.165.913-.165 2.038 0 1.125.074 2.038.165 2.038zM133.664 133.955a1.862 1.862 0 10-1.863-1.861c0 1.028.834 1.861 1.863 1.861z" fill="#E0E0E0"/><path d="M133.664 136.176c.091 0 .164-.912.164-2.038 0-1.125-.073-2.037-.164-2.037-.091 0-.164.912-.164 2.037 0 1.126.073 2.038.164 2.038zM108.774 159.934a1.862 1.862 0 100-3.723 1.862 1.862 0 000 3.723z" fill="#E0E0E0"/><path d="M108.773 162.148c.091 0 .165-.912.165-2.037 0-1.126-.074-2.038-.165-2.038-.09 0-.164.912-.164 2.038 0 1.125.074 2.037.164 2.037zM110.636 139.886a1.862 1.862 0 10.002-3.72 1.862 1.862 0 00-.002 3.72z" fill="#E0E0E0"/><path d="M110.636 142.106c.091 0 .164-.912.164-2.038 0-1.125-.073-2.037-.164-2.037-.09 0-.164.912-.164 2.037 0 1.126.074 2.038.164 2.038zM156.603 138.049a1.862 1.862 0 10.002-3.724 1.862 1.862 0 00-.002 3.724z" fill="#E0E0E0"/><path d="M156.603 140.264c.091 0 .164-.912.164-2.038 0-1.125-.073-2.037-.164-2.037-.09 0-.164.912-.164 2.037 0 1.126.074 2.038.164 2.038zM186.021 151.985a1.862 1.862 0 10-1.863-1.861c0 1.028.834 1.861 1.863 1.861z" fill="#E0E0E0"/><path d="M186.021 154.206c.09 0 .164-.913.164-2.038 0-1.125-.074-2.038-.164-2.038-.091 0-.164.913-.164 2.038 0 1.125.073 2.038.164 2.038zM187.208 162.931a1.862 1.862 0 10.001-3.725 1.862 1.862 0 00-.001 3.725z" fill="#E0E0E0"/><path d="M187.208 165.151c.091 0 .164-.912.164-2.037 0-1.126-.073-2.038-.164-2.038-.091 0-.164.912-.164 2.038 0 1.125.073 2.037.164 2.037zM134.984 185.641a1.862 1.862 0 100-3.723 1.862 1.862 0 000 3.723z" fill="#E0E0E0"/><path d="M134.984 187.856c.09 0 .164-.913.164-2.038 0-1.125-.074-2.038-.164-2.038-.091 0-.165.913-.165 2.038 0 1.125.074 2.038.165 2.038zM196.168 218.086a1.862 1.862 0 100-3.723 1.862 1.862 0 000 3.723z" fill="#E0E0E0"/><path d="M196.168 220.307c.09 0 .164-.913.164-2.038 0-1.126-.074-2.038-.164-2.038-.091 0-.165.912-.165 2.038 0 1.125.074 2.038.165 2.038zM160.581 238.437a1.862 1.862 0 10-1.863-1.861c0 1.028.834 1.861 1.863 1.861z" fill="#E0E0E0"/><path d="M160.581 240.658c.091 0 .164-.912.164-2.038 0-1.125-.073-2.037-.164-2.037-.091 0-.164.912-.164 2.037 0 1.126.073 2.038.164 2.038zM146.242 232.816a1.862 1.862 0 100-3.723 1.862 1.862 0 000 3.723z" fill="#E0E0E0"/><path d="M146.242 235.031c.09 0 .164-.913.164-2.038 0-1.125-.074-2.038-.164-2.038-.091 0-.164.913-.164 2.038 0 1.125.073 2.038.164 2.038zM179.132 228.735a1.862 1.862 0 10-1.863-1.861c0 1.028.834 1.861 1.863 1.861z" fill="#E0E0E0"/><path d="M179.132 230.949c.091 0 .164-.912.164-2.038 0-1.125-.073-2.037-.164-2.037-.091 0-.164.912-.164 2.037 0 1.126.073 2.038.164 2.038zM151.091 192.896a1.862 1.862 0 10-1.863-1.861c0 1.028.834 1.861 1.863 1.861z" fill="#E0E0E0"/><path d="M151.091 195.117c.091 0 .164-.913.164-2.038 0-1.125-.073-2.038-.164-2.038-.091 0-.164.913-.164 2.038 0 1.125.073 2.038.164 2.038zM155.782 174.734a1.862 1.862 0 10.002-3.724 1.862 1.862 0 00-.002 3.724z" fill="#E0E0E0"/><path d="M155.782 176.955c.091 0 .165-.913.165-2.038 0-1.125-.074-2.038-.165-2.038-.09 0-.164.913-.164 2.038 0 1.125.074 2.038.164 2.038zM110.636 176.778a1.862 1.862 0 10.002-3.72 1.862 1.862 0 00-.002 3.72z" fill="#E0E0E0"/><path d="M110.636 178.992c.091 0 .164-.912.164-2.038 0-1.125-.073-2.037-.164-2.037-.09 0-.164.912-.164 2.037 0 1.126.074 2.038.164 2.038zM196.648 159.934a1.862 1.862 0 100-3.723 1.862 1.862 0 000 3.723z" fill="#E0E0E0"/><path d="M196.648 162.148c.09 0 .164-.912.164-2.037 0-1.126-.074-2.038-.164-2.038-.091 0-.165.912-.165 2.038 0 1.125.074 2.037.165 2.037zM191.647 132.094a1.862 1.862 0 100-3.723 1.862 1.862 0 000 3.723z" fill="#E0E0E0"/><path d="M191.647 134.315c.09 0 .164-.913.164-2.038 0-1.125-.074-2.037-.164-2.037-.091 0-.164.912-.164 2.037s.073 2.038.164 2.038zM153.932 107.491a1.862 1.862 0 10.002-3.724 1.862 1.862 0 00-.002 3.724z" fill="#E0E0E0"/><path d="M153.932 109.712c.091 0 .165-.913.165-2.038 0-1.125-.074-2.038-.165-2.038-.09 0-.164.913-.164 2.038 0 1.125.074 2.038.164 2.038zM118.327 142.598a1.861 1.861 0 100-3.722 1.862 1.862 0 100 3.722z" fill="#E0E0E0"/><path d="M118.327 144.812c.09 0 .164-.912.164-2.037 0-1.126-.074-2.038-.164-2.038-.091 0-.164.912-.164 2.038 0 1.125.073 2.037.164 2.037zM140.212 94.212a1.862 1.862 0 100-3.724 1.862 1.862 0 000 3.724z" fill="#E0E0E0"/><path d="M140.212 96.426c.09 0 .164-.912.164-2.038 0-1.125-.074-2.037-.164-2.037-.091 0-.164.912-.164 2.037 0 1.126.073 2.038.164 2.038zM178.191 90.13a1.862 1.862 0 10.002-3.724 1.862 1.862 0 00-.002 3.724z" fill="#E0E0E0"/><path d="M178.191 92.344c.091 0 .164-.912.164-2.037 0-1.126-.073-2.038-.164-2.038-.09 0-.164.912-.164 2.038 0 1.125.074 2.037.164 2.037zM188.692 88.414a1.862 1.862 0 100-3.723 1.862 1.862 0 000 3.723z" fill="#E0E0E0"/><path d="M188.692 90.628c.09 0 .164-.912.164-2.037 0-1.126-.074-2.038-.164-2.038-.091 0-.164.912-.164 2.038 0 1.125.073 2.037.164 2.037zM184.468 74.687a1.862 1.862 0 100-3.724 1.862 1.862 0 000 3.724z" fill="#E0E0E0"/><path d="M184.468 76.901c.09 0 .164-.912.164-2.037 0-1.126-.074-2.038-.164-2.038-.091 0-.165.912-.165 2.038 0 1.125.074 2.037.165 2.037zM125.986 106.311a1.862 1.862 0 10-1.863-1.861c0 1.028.834 1.861 1.863 1.861z" fill="#E0E0E0"/><path d="M125.986 108.532c.091 0 .164-.912.164-2.038 0-1.125-.073-2.037-.164-2.037-.091 0-.164.912-.164 2.037 0 1.126.073 2.038.164 2.038zM169.276 88.704a1.862 1.862 0 100-3.723 1.862 1.862 0 000 3.723z" fill="#E0E0E0"/><path d="M169.276 90.925c.09 0 .164-.912.164-2.038 0-1.125-.074-2.037-.164-2.037-.091 0-.164.912-.164 2.037 0 1.126.073 2.038.164 2.038zM116.976 46.79a1.862 1.862 0 100-3.723 1.862 1.862 0 000 3.724z" fill="#E0E0E0"/><path d="M116.976 49.005c.09 0 .164-.913.164-2.038 0-1.125-.074-2.038-.164-2.038-.091 0-.165.913-.165 2.038 0 1.126.074 2.038.165 2.038zM138.349 56.979a1.862 1.862 0 10-1.863-1.861c0 1.028.834 1.86 1.863 1.86z" fill="#E0E0E0"/><path d="M138.349 59.2c.091 0 .164-.913.164-2.038 0-1.126-.073-2.038-.164-2.038-.091 0-.164.912-.164 2.038 0 1.125.073 2.037.164 2.037zM104.379 89.165a1.862 1.862 0 10-1.863-1.861c0 1.028.834 1.86 1.863 1.86z" fill="#E0E0E0"/><path d="M104.379 91.38c.091 0 .164-.913.164-2.038 0-1.126-.073-2.038-.164-2.038-.091 0-.164.912-.164 2.038 0 1.125.073 2.037.164 2.037zM106.242 58.84a1.862 1.862 0 100-3.724 1.862 1.862 0 000 3.724z" fill="#E0E0E0"/><path d="M106.242 61.06c.09 0 .164-.912.164-2.037 0-1.126-.074-2.038-.164-2.038-.091 0-.165.912-.165 2.038 0 1.125.074 2.037.165 2.037z" fill="#E0E0E0"/><path d="M188.262 143.753l15.356-8.132-.063 14.667-15.293-6.535zM124.483 195.76l-33.642 17.349v-32.363l3.726-1.666 29.916 16.68z" fill="#EBEBEB"/><path d="M172.584 215.253a2.145 2.145 0 10-2.146-2.144c0 1.184.961 2.144 2.146 2.144z"/><path d="M194.374 60.007l10.716 3.255v16.869l-10.716-20.124z" fill="#EBEBEB"/><path d="M205.197 37.473l-.063-18.408a13.28 13.28 0 00-4.401-8.194 13.299 13.299 0 00-8.701-3.3l-16.903-.064a4.196 4.196 0 00-4.123 4.271v3.066a4.193 4.193 0 01-4.123 4.252l-32.948-.151a4.207 4.207 0 01-4.085-4.309V11.57a4.207 4.207 0 00-4.085-4.309h-5.948l-14.813-.088a13.267 13.267 0 00-8.998 3.489c-1.484 2.851-3.1 6.94-2.361 10.024l111.47 36.255.082-19.468z"/><path opacity=".7" d="M205.197 37.473l-.063-18.408a13.28 13.28 0 00-4.401-8.194 13.299 13.299 0 00-8.701-3.3l-16.903-.064a4.196 4.196 0 00-4.123 4.271v3.066a4.193 4.193 0 01-4.123 4.252l-32.948-.151a4.207 4.207 0 01-4.085-4.309V11.57a4.207 4.207 0 00-4.085-4.309h-5.948l-14.813-.088a13.267 13.267 0 00-8.998 3.489c-1.484 2.851-3.1 6.94-2.361 10.024l111.47 36.255.082-19.468z" fill="white"/><path d="M192.032 7.57h.454c.451.008.9.046 1.345.114 1.766.22 3.464.814 4.982 1.741a12.754 12.754 0 013.025 2.498 13.274 13.274 0 012.525 3.975 13.75 13.75 0 01.973 5.394v6.264l-.265 74.983c-.127 31.656-.272 69.35-.436 111.207l-.063 15.885v4.031a14.206 14.206 0 01-.524 4.044 13.434 13.434 0 01-1.711 3.734 14.385 14.385 0 01-2.779 3.054 13.447 13.447 0 01-7.678 2.946c-.701.044-1.395.038-2.09.031H183.52l-16.94-.075-34.817-.165-17.78-.082-8.979-.069a14.04 14.04 0 01-8.638-2.422 13.586 13.586 0 01-5.253-7.287 14.601 14.601 0 01-.537-4.491v-4.479l.076-17.772.151-34.741.31-65.684.265-59.433c.042-9.307.084-18.286.126-26.937V20.61c0-.536.05-1.072.082-1.608a7.926 7.926 0 01.278-1.584 13.571 13.571 0 012.816-5.614 13.48 13.48 0 0110.854-4.75l11.593.056H125.437a4.245 4.245 0 012.607.738 4.378 4.378 0 011.642 2.183c.248.849.336 1.737.259 2.618v1.293c-.015.421-.002.843.038 1.262.1.825.443 1.602.985 2.233a3.94 3.94 0 002.033 1.262 4.54 4.54 0 001.2.126h6.023l17.541.095 7.735.044c.631 0 1.231.031 1.812 0a3.92 3.92 0 001.635-.568 4.206 4.206 0 001.895-2.675 7.347 7.347 0 00.113-1.615v-1.59a9.076 9.076 0 01.076-1.545c.087-.498.258-.978.505-1.42a4.192 4.192 0 012.128-1.892 6.666 6.666 0 012.639-.271l8.625.056 5.304.038h1.806-15.747a6.58 6.58 0 00-2.602.271 4.081 4.081 0 00-2.064 1.824c-.241.43-.408.896-.493 1.381a8.854 8.854 0 00-.069 1.527v1.59c.024.549-.012 1.099-.108 1.64a4.353 4.353 0 01-1.932 2.763 4.059 4.059 0 01-1.692.593c-.631.05-1.212 0-1.831 0h-7.735l-17.541-.07h-6.023a4.73 4.73 0 01-1.263-.126 4.132 4.132 0 01-2.128-1.274 4.418 4.418 0 01-1.036-2.34 9.97 9.97 0 01-.038-1.294v-1.293a6.917 6.917 0 00-.252-2.523 4.173 4.173 0 00-1.541-2.032 4.029 4.029 0 00-2.487-.7h-8.31l-11.593-.05a13.268 13.268 0 00-10.652 4.599 13.325 13.325 0 00-2.759 5.513c-.139.505-.177 1.035-.271 1.552-.095.517-.07 1.054-.076 1.584v3.223l-.108 26.938-.233 59.432c-.089 20.932-.177 42.898-.265 65.678l-.177 34.754-.076 17.771v4.479c-.057 1.49.12 2.981.524 4.416a13.247 13.247 0 005.108 7.11 13.703 13.703 0 008.436 2.334l8.979.044 17.78.082 34.766.164 16.941.082h8.341a13.126 13.126 0 007.501-2.87 14.058 14.058 0 002.715-2.984 13.092 13.092 0 001.673-3.646c.363-1.289.538-2.624.518-3.962v-4.031c.025-5.358.049-10.653.07-15.885l.505-111.207.372-74.983.032-6.264a13.64 13.64 0 00-.954-5.363 13.244 13.244 0 00-2.487-3.955 13.267 13.267 0 00-7.95-4.233c-.445-.07-.894-.113-1.345-.126l-.429-.044zM231.521 132.915c9.351.233 18.803.486 27.845 2.877 9.042 2.391 17.774 7.166 23.141 14.825 5.904 8.428 7.079 19.203 7.672 29.48a328.804 328.804 0 01-.802 51.143c-.846 8.611-3.902 16.604-11.915 19.884-9.635 3.943-22.585 0-22.585 0" fill="#263238"/><path d="M256.6 249.068h5.393c2.11.038 4.219-.071 6.314-.328.631-.101 1.263-.171 1.894-.335l.973-.214c.328-.089.631-.19.985-.29.675-.177 1.332-.461 2.02-.713a19.985 19.985 0 002.021-1.003 14.57 14.57 0 003.757-3.003 11.434 11.434 0 002.475-4.542 54.604 54.604 0 001.42-11.501c.127-4.094.082-8.403.12-12.863.038-4.46.045-9.084.063-13.816.019-4.731.07-9.355-.082-13.809a94.243 94.243 0 00-1.206-12.781c-1.363-8.069-4.192-15.065-7.835-20.074a44.754 44.754 0 00-5.582-6.195 117.688 117.688 0 00-4.742-4.176l-3.069-2.561-.795-.669c-.177-.151-.266-.24-.266-.24s.101.07.285.215l.814.631 3.107 2.523c1.338 1.104 2.974 2.467 4.786 4.138a44.435 44.435 0 015.645 6.195c3.693 5.047 6.56 12.056 7.949 20.188a93.789 93.789 0 011.231 12.825c.158 4.466.114 9.091.089 13.822-.025 4.731-.044 9.349-.07 13.816-.025 4.466 0 8.762-.139 12.869a54.493 54.493 0 01-1.458 11.564 11.66 11.66 0 01-2.526 4.636 14.75 14.75 0 01-3.832 3.035 19.77 19.77 0 01-2.053 1.003c-.7.252-1.363.536-2.045.706-.335.095-.67.202-.998.284l-.985.215c-.631.157-1.263.227-1.894.321a43.822 43.822 0 01-6.314.278h-5.039l-.411-.151z" fill="#455A64"/><path d="M284.143 202.851a12.859 12.859 0 016.598-.309c0 .095-1.49-.038-3.302.051-1.812.088-3.277.353-3.296.258z" fill="#455A64"/><path d="M243.739 133.401h.953c.631 0 1.553 0 2.74.101a42.37 42.37 0 019.85 2.1l1.535.568.795.297.79.359 1.622.738c.556.246 1.08.568 1.642.852a44.771 44.771 0 016.693 4.372 45.864 45.864 0 016.44 6.05 33.713 33.713 0 015.21 7.917c2.816 5.898 4.034 12.068 4.659 17.664.463 4.961.674 9.943.632 14.926 0 4.252 0 7.69.088 10.093l.076 2.738v.713a.12.12 0 01.104.127.119.119 0 01-.038.079.118.118 0 01-.164 0 .118.118 0 01-.037-.079.115.115 0 01.026-.084.12.12 0 01.077-.043l-.05-.713c-.044-.631-.088-1.545-.139-2.731-.101-2.379-.145-5.817-.189-10.094-.045-4.277-.114-9.311-.72-14.894s-1.894-11.69-4.654-17.538a33.56 33.56 0 00-5.158-7.848 46.008 46.008 0 00-6.384-6.025 45.098 45.098 0 00-6.636-4.371c-.55-.291-1.08-.631-1.623-.858l-1.61-.738-.783-.36-.789-.297-1.522-.574a43.887 43.887 0 00-9.787-2.189c-1.181-.101-2.109-.12-2.728-.164l-.713-.044-.208-.05z" fill="#E0E0E0"/><path d="M237.892 133.382s2.292-6.05 10.456-4.902c0 0 3.637-.202 4.3 1.817 0 0-7.577-1.893-10.842 3.369l-3.914-.284z" fill="#263238"/><path d="M261.159 140.75h-4.78s-.928-12.617-12.52-12.144c0 .025 14.408-4.819 17.3 12.144zM284.212 210.56l6.851.953-.682 2.428-6.396-.492.227-2.889z" fill="#455A64"/><path d="M284.629 212.762c.213-.443.482-.856.802-1.23l.095-.132.107.132.96 1.161h-.221l.688-.505.707-.511.133-.094.094.126.878 1.261h-.177a5.564 5.564 0 011.263-.731 5.508 5.508 0 01-1.086.94l-.126-.013-.082-.101-.928-1.199.221.032-.701.517-.689.499-.126.094-.095-.12-.909-1.198h.202c-.288.4-.628.76-1.01 1.072zM184.562 255.647s-1.326-4.315-1.061-6.138c.266-1.823 2.722-3.482 2.722-3.482l-2.665-69.173s-.347-30.281 15.685-39.662l9.566-2.41 23.596-1.394c.764.253 28.495 10.674 32.309 14.743l-11.959 60.997s1.452 18.024 2.905 30.982c.296 2.649 2.285 15.727 2.285 15.727l-73.383-.19z"/><path opacity=".3" d="M255.211 236.034c-.221 1.684-.865 3.735-2.481 4.252a10.526 10.526 0 01-5.051.076c-5.917-1.054-11.366-3.83-16.701-6.574-9.989-5.122-20.067-10.308-28.686-17.493-1.212-1.01-2.525-2.587-1.761-3.975.84-1.577 3.207-1.047 4.83-.303 16.935 7.804 32.909 16.22 49.844 24.017"/><path d="M195.65 139.072s-10.564 3.52-13.98 13.298c-3.788 10.801-6.276 31.77-6.276 31.77l10.431 1.312 9.825-46.38zM264.702 148.125s5.682 7.444 8.423 16.491c2.74 9.046 4.331 35.264 4.331 35.264l-28.414-.397-1.509-23.064s-2.866-38.495 17.169-28.294z"/><path d="M179.12 161.789c.218-.287.482-.537.783-.738a3.876 3.876 0 012.992-.574c1.377.202 2.716 1.262 4.477 1.956a5.055 5.055 0 002.93.359c1.042-.227 1.938-.971 2.892-1.69a7.74 7.74 0 011.578-.991 2.534 2.534 0 011.964-.082c.64.283 1.174.76 1.528 1.363.392.568.707 1.192 1.118 1.747a3.116 3.116 0 001.603 1.262 3.8 3.8 0 002.109 0 8.124 8.124 0 002.059-.883c.631-.385 1.263-.858 1.97-1.262a9.3 9.3 0 012.197-1.066 4.127 4.127 0 012.526 0 6.554 6.554 0 012.185 1.331c.631.555 1.262 1.155 1.932 1.678a4.893 4.893 0 002.247 1.104c.85.149 1.725.06 2.526-.258 1.642-.631 3.094-1.729 4.704-2.619a8.916 8.916 0 012.57-1.021 5.056 5.056 0 012.74.214c1.724.669 3 1.968 4.528 2.7.374.184.768.323 1.174.416.403.079.815.104 1.225.076a6.774 6.774 0 002.355-.675c1.497-.675 2.848-1.621 4.42-2.126a4.796 4.796 0 012.387-.214 4.462 4.462 0 012.077 1.059c1.162.966 2.071 2.196 3.397 2.606a3.99 3.99 0 001.989.057 14.325 14.325 0 001.894-.568c1.219-.429 2.526-.871 3.732-.587a3.968 3.968 0 011.604.789c.461.353.859.738 1.263 1.097.384.353.808.659 1.263.915a4.16 4.16 0 001.37.442 5.69 5.69 0 002.576-.265 7.687 7.687 0 001.964-1.003 17.318 17.318 0 002.323-2.013l.568-.567c.063-.069.13-.132.203-.19a1.766 1.766 0 01-.177.208l-.543.593a16.13 16.13 0 01-2.299 2.07 7.72 7.72 0 01-1.989 1.041 5.829 5.829 0 01-2.652.296 4.329 4.329 0 01-1.433-.448 7.038 7.038 0 01-1.263-.927c-.814-.694-1.622-1.584-2.784-1.817-1.162-.233-2.381.164-3.599.631-.63.24-1.275.436-1.932.587a4.261 4.261 0 01-2.122-.057 5.19 5.19 0 01-1.894-1.148c-.55-.486-1.061-1.029-1.629-1.496a4.183 4.183 0 00-1.951-.99 4.5 4.5 0 00-2.236.208c-1.483.486-2.835 1.432-4.356 2.126a7.105 7.105 0 01-2.457.707c-.439.03-.881.002-1.313-.082a5.653 5.653 0 01-1.263-.442c-1.591-.763-2.866-2.056-4.502-2.681a4.74 4.74 0 00-2.557-.202 8.62 8.62 0 00-2.475.991c-1.585.87-3.043 1.999-4.755 2.643a4.987 4.987 0 01-2.689.271 5.21 5.21 0 01-2.387-1.167c-1.37-1.066-2.463-2.454-4.016-2.965a3.8 3.8 0 00-2.33 0 9.04 9.04 0 00-2.121 1.028c-.676.41-1.301.877-1.977 1.262-.666.4-1.384.706-2.134.908a4.047 4.047 0 01-2.267 0 3.395 3.395 0 01-1.736-1.343c-.423-.581-.739-1.205-1.118-1.76a3.076 3.076 0 00-1.402-1.262 2.254 2.254 0 00-1.774.069 7.59 7.59 0 00-1.534.953c-.947.707-1.894 1.476-2.987 1.71a5.24 5.24 0 01-3.037-.398c-1.787-.706-3.1-1.785-4.42-2a3.864 3.864 0 00-2.93.505 6.785 6.785 0 00-.902.599zM175.773 178.847h.278l.814.082a7.024 7.024 0 003.107-.082c.669-.145 1.421-.277 2.241-.422.821-.145 1.705-.341 2.678-.461a7.401 7.401 0 013.125.227c1.074.316 2.115.865 3.265 1.262 1.2.408 2.496.446 3.719.107 1.262-.303 2.525-.896 3.914-1.369a7.393 7.393 0 014.42-.429c1.528.429 2.76 1.559 4.294 1.931.38.089.773.117 1.162.082a5.48 5.48 0 001.162-.278c.77-.265 1.515-.631 2.329-.94a3.738 3.738 0 012.615-.088 9.537 9.537 0 012.209 1.463 5.32 5.32 0 001.099.663c.4.164.83.244 1.263.233a6.727 6.727 0 002.526-.75 14.829 14.829 0 012.576-1.035 4.265 4.265 0 011.433-.095c.483.064.949.216 1.377.448a24.27 24.27 0 012.311 1.584c.366.254.76.465 1.174.631.203.082.415.142.631.176l.322.057h.329a7.124 7.124 0 002.576-.536c.833-.303 1.654-.631 2.526-.915a5.05 5.05 0 012.658-.189c.856.235 1.631.7 2.241 1.343.574.599 1.19 1.156 1.844 1.666a3.474 3.474 0 002.216.631 6.069 6.069 0 002.223-.675c.701-.341 1.37-.738 2.039-1.111 1.326-.731 2.785-1.413 4.294-1.261a8.262 8.262 0 013.789 1.772 21.16 21.16 0 003.157 2.12 9.163 9.163 0 003.308.896 11.588 11.588 0 003.069-.24 11.008 11.008 0 004.42-2.151 9.915 9.915 0 002.052-2.347c.177-.309.297-.561.385-.719.04-.083.087-.164.139-.24a1.832 1.832 0 01-.107.259c-.082.164-.19.423-.36.738a9.588 9.588 0 01-2.027 2.41 11.05 11.05 0 01-4.452 2.233 11.675 11.675 0 01-3.119.265 9.377 9.377 0 01-3.397-.896 21.34 21.34 0 01-3.214-2.126 8.027 8.027 0 00-3.668-1.709c-1.408-.158-2.81.485-4.123 1.224-.67.372-1.333.775-2.052 1.122a6.31 6.31 0 01-2.33.713 3.79 3.79 0 01-2.412-.681 17.08 17.08 0 01-1.895-1.691 4.562 4.562 0 00-2.102-1.261 4.733 4.733 0 00-2.526.189c-.833.246-1.648.631-2.494.908a7.41 7.41 0 01-2.696.562h-.354l-.353-.063a3.187 3.187 0 01-.689-.196 6.175 6.175 0 01-1.262-.675 24.483 24.483 0 00-2.273-1.564 3.646 3.646 0 00-1.263-.41 3.909 3.909 0 00-1.32.088c-.871.257-1.717.595-2.526 1.009a6.994 6.994 0 01-2.639.776c-.47.008-.936-.08-1.37-.259a5.6 5.6 0 01-1.168-.706 9.377 9.377 0 00-2.128-1.426 3.419 3.419 0 00-2.399.089c-.79.271-1.535.63-2.33.933a5.772 5.772 0 01-1.263.29c-.423.039-.85.01-1.263-.088-1.635-.416-2.854-1.546-4.3-1.949a7.117 7.117 0 00-4.281.41c-1.351.46-2.627 1.053-3.946 1.356a6.539 6.539 0 01-3.852-.132c-1.174-.404-2.204-.953-3.252-1.262a7.216 7.216 0 00-3.043-.24c-.96.101-1.844.297-2.671.429a53.99 53.99 0 00-2.242.391c-.334.063-.631.139-.953.183a3.63 3.63 0 01-.859 0c-.524-.057-.966-.12-1.326-.17l-.814-.114h-.196zM186.286 193.723h.189l.55.057c.48.05 1.193.145 2.102.284 1.825.252 4.42.795 7.71 1.06 1.781.145 3.573.114 5.348-.095a12.86 12.86 0 013.025 0 5.418 5.418 0 011.54.454c.488.248.948.548 1.37.896.859.662 1.674 1.464 2.728 1.785a2.852 2.852 0 001.617 0c.55-.168 1.086-.379 1.603-.631a6.13 6.13 0 011.737-.58 2.723 2.723 0 011.843.398c1.093.63 1.806 1.766 2.918 2.233 1.111.467 2.38.183 3.523-.158a13.65 13.65 0 013.548-.82 4.036 4.036 0 011.775.366 6.658 6.658 0 011.458.984 12.426 12.426 0 002.602 2.006 3.956 3.956 0 002.993 0c.972-.303 1.894-.776 2.835-.997a4.157 4.157 0 012.822.208c.414.221.751.562.966.978.177.388.325.789.442 1.199.107.371.292.715.543 1.009.248.266.558.466.903.581a3.328 3.328 0 001.995 0 3.556 3.556 0 001.497-.921c.355-.36.662-.762.915-1.199.345-.607.643-1.24.891-1.893l.202-.511a.087.087 0 01-.059-.035.093.093 0 01.01-.127.093.093 0 01.065-.025c.023 0 .046.008.064.025a.093.093 0 01.01.127.087.087 0 01-.059.035l-.17.524a11.997 11.997 0 01-.84 1.949 5.99 5.99 0 01-.909 1.262 3.7 3.7 0 01-1.553.991 3.494 3.494 0 01-2.122.031 2.371 2.371 0 01-1.004-.631 2.928 2.928 0 01-.631-1.085 8.583 8.583 0 00-.436-1.161 2.06 2.06 0 00-.865-.864 3.906 3.906 0 00-2.646-.17c-.922.208-1.812.687-2.81 1.003a5.822 5.822 0 01-1.572.315 3.594 3.594 0 01-1.635-.321 12.534 12.534 0 01-2.677-2.038 6.406 6.406 0 00-1.389-.94 3.718 3.718 0 00-1.636-.334 13.496 13.496 0 00-3.46.813 9.8 9.8 0 01-1.831.404 3.797 3.797 0 01-1.894-.258c-1.263-.537-1.951-1.66-2.955-2.259a2.4 2.4 0 00-1.636-.36 5.838 5.838 0 00-1.641.556c-.533.265-1.087.489-1.655.668a3.159 3.159 0 01-1.787 0c-1.155-.359-1.976-1.192-2.822-1.848a7.193 7.193 0 00-1.313-.864 5.1 5.1 0 00-1.453-.436 12.698 12.698 0 00-2.955 0 26.84 26.84 0 01-5.392.057c-3.29-.303-5.891-.877-7.71-1.167l-2.089-.341-.544-.088-.189-.101zM185.402 235.794l.183-.075.556-.196c.486-.17 1.199-.429 2.134-.732a16.42 16.42 0 013.485-.807 5.11 5.11 0 012.217.366c.759.317 1.554.544 2.367.675.9.033 1.792-.169 2.589-.587a15.03 15.03 0 012.785-1.117 6.858 6.858 0 013.22.19c1.073.284 2.122.706 3.227 1.028 1.1.382 2.278.484 3.428.296a22.078 22.078 0 003.422-1.331 5.706 5.706 0 011.895-.448 3.459 3.459 0 011.932.505c1.155.688 1.982 1.804 3.188 2.252a3.159 3.159 0 001.895.044 10.916 10.916 0 001.806-.687 13.289 13.289 0 011.818-.719 3.45 3.45 0 011.97-.038 3.78 3.78 0 011.604 1.066c.442.442.833.915 1.263 1.262a3.527 3.527 0 003.214.668c1.117-.22 2.165-.631 3.239-.933a6.463 6.463 0 011.635-.246 2.986 2.986 0 011.572.378c.463.254.856.618 1.143 1.06.291.416.518.852.752 1.262a3.537 3.537 0 001.837 1.835 3.155 3.155 0 002.336-.239 5.463 5.463 0 001.724-1.319 16.31 16.31 0 001.825-3.028c.337-.665.734-1.299 1.187-1.892.161-.21.34-.404.537-.581 0 0-.177.208-.48.631a13.693 13.693 0 00-1.124 1.937 15.858 15.858 0 01-1.8 3.091 5.637 5.637 0 01-1.774 1.382 3.342 3.342 0 01-2.526.271 3.784 3.784 0 01-1.982-1.931c-.48-.813-.916-1.76-1.806-2.214-.891-.454-1.97-.366-2.999-.095-1.03.272-2.097.72-3.252.953-.59.14-1.201.163-1.8.069a3.693 3.693 0 01-.896-.271 4.005 4.005 0 01-.783-.523c-.48-.404-.878-.877-1.307-1.306-.4-.45-.909-.789-1.478-.984a3.151 3.151 0 00-1.787.044c-.608.192-1.201.428-1.774.706-.609.293-1.243.529-1.894.707a3.51 3.51 0 01-2.052-.051c-1.333-.511-2.16-1.652-3.246-2.283a3.122 3.122 0 00-1.755-.467 5.382 5.382 0 00-1.793.423c-1.12.542-2.284.99-3.48 1.337a7.308 7.308 0 01-3.58-.315c-1.117-.335-2.165-.757-3.214-1.041a6.589 6.589 0 00-3.087-.202c-.947.268-1.865.629-2.741 1.079a5.388 5.388 0 01-2.715.58 10.515 10.515 0 01-2.418-.707 4.921 4.921 0 00-2.134-.378c-1.177.128-2.336.38-3.46.751l-2.153.675-.562.164-.133.056zM220.875 220.168a2.104 2.104 0 01-.36.228 7.93 7.93 0 01-1.111.504 9.152 9.152 0 01-4.452.461 9.58 9.58 0 01-1.465-.341c-.498-.158-.997-.385-1.502-.599a3.444 3.444 0 00-1.604-.328 3.347 3.347 0 00-1.585.681c-.505.353-.991.776-1.566 1.129a3.676 3.676 0 01-.947.417 2.384 2.384 0 01-.524.082 2.193 2.193 0 01-.537 0c-1.446-.183-2.595-1.136-3.845-1.773a3.465 3.465 0 00-1.945-.498h-.24c-.076 0-.151.05-.227.075-.154.048-.3.116-.436.202a3.974 3.974 0 00-.739.631 13.129 13.129 0 01-1.389 1.47 2.051 2.051 0 01-.94.435 1.75 1.75 0 01-1.011-.151 3.758 3.758 0 01-1.338-1.325c-.304-.478-.64-.935-1.004-1.369a3.496 3.496 0 00-2.684-1.066 4.028 4.028 0 00-2.267.915 5.5 5.5 0 00-1.332 1.419c-.31.446-.487.971-.511 1.514a1.146 1.146 0 010-.429c.05-.411.192-.806.416-1.154a5.458 5.458 0 011.307-1.432 4.192 4.192 0 012.368-.997 3.732 3.732 0 011.572.241c.5.193.952.492 1.326.875.377.437.723.899 1.036 1.382.3.502.721.92 1.225 1.218a1.524 1.524 0 001.635-.259c.484-.448.933-.931 1.345-1.445.237-.266.506-.501.802-.7.158-.099.327-.178.505-.233.089 0 .177-.07.265-.089l.278-.038a3.796 3.796 0 012.134.53c1.263.631 2.431 1.584 3.732 1.742a2.759 2.759 0 001.806-.429c.543-.328 1.029-.745 1.553-1.104a3.623 3.623 0 011.737-.72c.6-.02 1.195.105 1.736.366.518.221.998.448 1.477.631a9.14 9.14 0 005.797 0c.991-.378 1.49-.7 1.509-.669zM186.021 252.651l.189.05.228.076.328.05a3.97 3.97 0 002.115-.511 16.028 16.028 0 013.258-1.425 3.082 3.082 0 012.198.315 16.75 16.75 0 012.033 1.426 3.615 3.615 0 002.424.858 8.757 8.757 0 002.715-.978 6.438 6.438 0 011.503-.498 4.554 4.554 0 011.642.031c1.092.202 2.121.669 3.208.965a6.72 6.72 0 003.403.051 23.84 23.84 0 003.454-1.142c1.177-.5 2.411-.856 3.675-1.06a6.991 6.991 0 013.895.631c1.225.53 2.343 1.218 3.524 1.691 1.129.516 2.4.633 3.605.334 2.362-.675 4.079-2.586 6.314-3.325a5.207 5.207 0 013.372 0c1.005.358 1.956.85 2.829 1.464.852.562 1.654 1.129 2.468 1.59.772.45 1.606.784 2.476.99a9.267 9.267 0 004.565-.189 9.487 9.487 0 003.094-1.583 9.637 9.637 0 002.02-2.183.908.908 0 01-.094.17l-.31.492a8.402 8.402 0 01-1.541 1.622 9.48 9.48 0 01-7.785 1.892 9.25 9.25 0 01-2.526-.997c-.833-.467-1.641-1.028-2.494-1.583a11.55 11.55 0 00-2.765-1.413 4.908 4.908 0 00-3.189 0c-1.08.424-2.102.981-3.043 1.659a12.097 12.097 0 01-3.29 1.691 5.816 5.816 0 01-3.788-.341c-1.213-.486-2.33-1.173-3.53-1.691a6.668 6.668 0 00-3.725-.593c-1.239.2-2.45.547-3.606 1.035a23.921 23.921 0 01-3.504 1.148 7.032 7.032 0 01-3.549-.063c-1.117-.309-2.14-.776-3.157-.978a4.264 4.264 0 00-1.54-.044 6.17 6.17 0 00-1.44.467 8.9 8.9 0 01-2.804.984 3.85 3.85 0 01-2.576-.921c-.627-.523-1.292-1-1.989-1.426a2.898 2.898 0 00-2.064-.315 16.587 16.587 0 00-3.221 1.362 3.932 3.932 0 01-2.172.461l-.334-.063-.228-.095-.271-.088zM187.58 144.182s.184.227.632.568c.64.48 1.384.805 2.172.946 1.252.215 2.529.24 3.788.076.739-.057 1.535-.132 2.387-.12a7.433 7.433 0 012.652.473 24.88 24.88 0 012.614 1.369c.45.252.921.463 1.408.631a5.822 5.822 0 001.56.259 15.767 15.767 0 003.353-.385 12.28 12.28 0 013.637-.278 8.925 8.925 0 013.542 1.464 9.618 9.618 0 003.536 1.571 5.466 5.466 0 001.957-.133c.65-.184 1.284-.422 1.894-.712a23.883 23.883 0 013.915-1.666 5.54 5.54 0 012.179-.132c.71.131 1.391.385 2.014.75 1.231.694 2.285 1.596 3.485 2.152a6.496 6.496 0 003.789.466 24.027 24.027 0 003.656-.946 20.752 20.752 0 013.535-.858 9.665 9.665 0 013.435.215 42.612 42.612 0 015.759 2.126 9.676 9.676 0 004.887.775 11.628 11.628 0 003.662-.914 7.129 7.129 0 002.589-1.893 3.854 3.854 0 01-.537.631 6.82 6.82 0 01-1.995 1.363c-1.168.53-2.416.863-3.694.984a10.81 10.81 0 01-2.399 0 10.166 10.166 0 01-2.589-.719 43.39 43.39 0 00-5.733-2.076 9.41 9.41 0 00-3.34-.195 20.588 20.588 0 00-3.486.858 24.334 24.334 0 01-3.7.965 6.808 6.808 0 01-3.965-.486c-1.263-.58-2.317-1.483-3.511-2.158a5.871 5.871 0 00-1.894-.712 5.228 5.228 0 00-2.046.126 23.803 23.803 0 00-3.858 1.646 12.35 12.35 0 01-1.963.732 5.761 5.761 0 01-2.084.139 9.88 9.88 0 01-3.656-1.621 8.624 8.624 0 00-3.416-1.432c-2.431-.265-4.71.738-6.946.63a6.092 6.092 0 01-1.629-.277 8.918 8.918 0 01-1.446-.631 25.03 25.03 0 00-2.576-1.375c-1.73-.688-3.479-.473-4.944-.385a12.554 12.554 0 01-3.82-.133c-.8-.159-1.55-.51-2.184-1.022a2.868 2.868 0 01-.626-.656z" fill="#FAFAFA"/><path opacity=".3" d="M234.943 151.437l8.916 6.163c-2.836 7.022-.209 16.768 2.247 24.742.954 3.104 4.117 6.309 3.966 9.577-.152 3.268 2.563 8.756-.581 9.576a7.372 7.372 0 01-6.081-1.445 17.022 17.022 0 01-4.148-4.901c-6.264-10.119-9.187-29.474-4.319-43.712z"/><path d="M188.01 247.282c.115-.002.229.011.341.038l.96.177 3.523.669a255.3 255.3 0 0011.668 1.892 264.86 264.86 0 0011.751 1.35l3.574.316.972.094a.17.17 0 01.065-.104.169.169 0 01.229.021.172.172 0 010 .23.173.173 0 01-.229.021.172.172 0 01-.065-.105l-.972-.031c-.846-.032-2.071-.107-3.58-.215-3.025-.214-7.192-.631-11.776-1.261a181.297 181.297 0 01-11.669-2.007 111.558 111.558 0 01-3.504-.775l-.947-.234a1.327 1.327 0 01-.341-.076zM201.888 245.636c.178.023.353.061.524.113.341.076.834.24 1.491.36a31.108 31.108 0 0023.2-3.972 31.057 31.057 0 0013.763-19.079c.176-.631.246-1.155.328-1.496.028-.175.07-.348.126-.517a3.156 3.156 0 01-.063.53c-.063.347-.114.864-.271 1.514a28.838 28.838 0 01-1.718 5.381 30.559 30.559 0 01-11.962 13.999 30.6 30.6 0 01-17.841 4.593 28.88 28.88 0 01-5.594-.827c-.631-.145-1.143-.328-1.478-.423a3.248 3.248 0 01-.505-.176zM207.483 134.745c.014.151.014.303 0 .454v1.299c-.04 1.589.122 3.177.48 4.725a8.527 8.527 0 001.363 2.94 8.411 8.411 0 002.823 2.398 14.44 14.44 0 003.896 1.394c1.45.32 2.934.464 4.42.429a16.257 16.257 0 008.208-2.316 12.906 12.906 0 004.71-5.103 11.41 11.41 0 001.232-4.555c.037-1.123-.076-1.747-.038-1.747.042.146.069.296.082.447.061.433.088.87.082 1.306a11.113 11.113 0 01-1.149 4.65 12.989 12.989 0 01-4.755 5.261 16.386 16.386 0 01-8.353 2.385 18.568 18.568 0 01-4.515-.442 14.514 14.514 0 01-3.972-1.445 8.607 8.607 0 01-2.898-2.523 8.684 8.684 0 01-1.37-3.041 17.786 17.786 0 01-.385-4.788c0-.568.05-1.003.069-1.299a2.3 2.3 0 01.07-.429z" fill="#263238"/><path d="M203.625 135.842s-15.363.581-19.012 15.91c-4.224 17.753-1.673 37.328 3.637 47.131l.252-17.462a80.135 80.135 0 018.543-34.867l6.58-10.712z" fill="#455A64"/><path d="M185.566 186.228a3.308 3.308 0 01-.038-.536l-.05-1.533c0-.669-.038-1.482 0-2.429.038-.946 0-2.025.107-3.217l.114-1.893c.044-.63.126-1.324.189-2.018.12-1.401.348-2.883.562-4.416a84.71 84.71 0 015.569-19.727c.632-1.445 1.213-2.833 1.844-4.082.309-.63.587-1.261.897-1.823l.884-1.653c.543-1.059 1.117-1.98 1.591-2.801.473-.82.909-1.514 1.263-2.069l.846-1.261c.093-.154.198-.3.315-.436a3.23 3.23 0 01-.258.473l-.783 1.287a41.352 41.352 0 00-1.232 2.095c-.454.832-1.016 1.747-1.547 2.813l-.858 1.659c-.297.581-.569 1.199-.878 1.83-.631 1.262-1.187 2.637-1.812 4.082a88.013 88.013 0 00-5.55 19.657c-.228 1.558-.461 3.034-.594 4.416-.069.694-.158 1.369-.208 2.012l-.133 1.893c-.107 1.186-.113 2.265-.158 3.211a43.43 43.43 0 00-.044 2.429v1.533a3.15 3.15 0 01-.038.504zM192.594 139.728c-.048.142-.109.28-.183.41l-.587 1.148a61.903 61.903 0 00-2.059 4.258c-.398.915-.859 1.893-1.263 3.01-.208.549-.448 1.11-.631 1.697l-.632 1.823a71.387 71.387 0 00-2.222 8.283 79.554 79.554 0 00-1.421 15.513c0 1.999.051 3.614.108 4.731l.044 1.262c.014.149.014.299 0 .448a2.252 2.252 0 01-.057-.448l-.107-1.262c-.095-1.117-.171-2.738-.215-4.738a74.458 74.458 0 011.332-15.582 68.12 68.12 0 012.216-8.308l.632-1.823c.215-.587.461-1.148.675-1.697.424-1.098.903-2.088 1.314-3.003.859-1.811 1.597-3.255 2.159-4.227l.632-1.123c.075-.132.164-.257.265-.372z" fill="#263238"/><path d="M253.26 141.753s-10.317 28.067-2.715 51.73l.417 8.372s-5.815-.398-10.223-8.706c-4.407-8.308-5.828-16.882-7.318-29.234-1.49-12.352 5.285-28.092 5.285-28.092s12.022 2.65 14.554 5.93z" fill="#455A64"/><path d="M251.233 201.18a.648.648 0 01-.151-.07l-.429-.239a8.457 8.457 0 01-1.478-1.174 13.84 13.84 0 01-3.271-6.062 36.704 36.704 0 01-1.01-4.681c-.297-1.691-.537-3.514-.751-5.438a96.944 96.944 0 01-.543-12.554c.09-4.194.455-8.377 1.092-12.523a76.392 76.392 0 012.147-10.036 30.58 30.58 0 012.645-6.391c.411-.713.758-1.262 1.004-1.596l.291-.398a.644.644 0 01.107-.126.616.616 0 01-.107.126l-.259.417c-.227.359-.562.902-.947 1.621a32.194 32.194 0 00-2.526 6.397 79.736 79.736 0 00-2.071 10.018 100.026 100.026 0 00-.549 25.026c.208 1.892.435 3.734.72 5.425.225 1.582.552 3.148.978 4.687a14.021 14.021 0 003.157 6.038c.593.58 1.248 1.094 1.951 1.533z" fill="#263238"/><path d="M250.861 200.902l-.171-.057-.486-.202a10.693 10.693 0 01-1.736-1.053 18.58 18.58 0 01-4.698-5.747 61.14 61.14 0 01-4.521-10.094 63.804 63.804 0 01-2.98-13.178 65.14 65.14 0 01-.164-13.513 61.867 61.867 0 011.995-10.857c.448-1.508.827-2.883 1.263-4.044.435-1.161.776-2.195 1.155-2.984l.821-1.848.221-.48a.715.715 0 01.089-.157.79.79 0 01-.057.17l-.19.492-.764 1.892c-.36.802-.682 1.824-1.098 2.997-.417 1.173-.802 2.523-1.263 4.044a63.503 63.503 0 00-1.894 10.819 66.084 66.084 0 00.189 13.443 64.762 64.762 0 002.923 13.128 62.807 62.807 0 004.42 10.056 18.935 18.935 0 004.578 5.76c.53.412 1.094.779 1.686 1.098l.473.233a.74.74 0 01.209.082zM245.955 152.376l6.686 1.767-.966 2.334-6.295-1.255.575-2.846z" fill="#263238"/><path d="M246.106 154.616c.264-.413.58-.79.941-1.123l.114-.119.088.145.808 1.261-.214-.056.738-.423.765-.423.138-.075.076.138.726 1.331-.17-.05c.41-.25.852-.445 1.313-.58a5.55 5.55 0 01-1.193.801l-.108.063-.069-.114-.783-1.299.215.063-.758.429-.745.416-.139.076-.076-.133-.757-1.299h.202a5.686 5.686 0 01-1.112.971z"/><path d="M191.123 192.468l-7.281-13.431h-22.168l-.701 1.337 18.759 31.164 21.241 1.022-9.85-20.092z" fill="#455A64"/><path d="M275.638 199.874v23.474a14.257 14.257 0 01-5.247 11.052 14.284 14.284 0 01-14.416 2.158l-51.725-22.906 5.051-17.235 41.61 13.702-.05-10.687 24.777.442z" fill="#FFBE9D"/><path d="M190.422 193.799l-7.287-13.425h-22.162l18.058 32.495 21.241 1.022-9.85-20.092z" fill="#263238"/><path d="M211.347 198.265l-3.504-4.347a12.178 12.178 0 00-9.472-4.523h-3.075l-2.077 2.322s-14.99.631-15.539 2.523v.946l12.818.865s-10.905-.032-11.562 0c-.656.031-3.043-.183-2.992 1.097.037 1.054 1.262 1.893 3.157 2.158.776.114 10.222.934 10.222.934l-10.399-.095c-1.168 0-1.017 1.893-.329 2.094.55.183 13.892 4.069 13.892 4.069s-2.242 1.502-4.067 1.369c-1.825-.132-4.963-2.479-5.613-1.369-.65 1.111-.524 1.761-.133 2.025a46.61 46.61 0 006.138 2.871c1.433.391 13.165 2.246 13.165 2.246l4.23.681 5.14-15.866zM164.073 185.61s-2.317.808-1.137 3.785a25.397 25.397 0 004.704 7.438 2.73 2.73 0 00.922 2.669s-1.641.41-.631 3.154a3.115 3.115 0 001.951 4.1s-.821 2.36 2.153 3.489 5.847-.82 5.847-.82l-13.809-23.815z" fill="#FFBE9D"/><path d="M168.777 196.606c2.109.568 4.42 1.022 6.371 1.76.631.246 1.263.259 1.698.795a1.462 1.462 0 01.038 1.892 2.041 2.041 0 01-1.711.347 30.258 30.258 0 01-6.529-1.81" fill="#FFBE9D"/><path d="M169.617 200.12c2.109.567 4.42 1.022 6.371 1.76.631.246 1.263.258 1.698.795a1.458 1.458 0 01.038 1.892 2.04 2.04 0 01-1.711.347 30.265 30.265 0 01-6.535-1.842" fill="#FFBE9D"/><path d="M170.81 203.703c2.109.568 4.42 1.022 6.371 1.76.631.246 1.263.259 1.699.795a1.467 1.467 0 01.037 1.892 2.048 2.048 0 01-1.711.347 30.28 30.28 0 01-6.535-1.798" fill="#FFBE9D"/><path d="M168.777 199.647c.038-.088 1.522.429 3.391.946 1.869.517 3.409.846 3.39.94a18.801 18.801 0 01-6.781-1.892v.006zM168.373 202.744c.031-.088 1.736.473 3.858 1.092 2.121.618 3.858 1.066 3.839 1.16a27.393 27.393 0 01-7.691-2.252h-.006zM176.916 208.521c.022-.087-1.562-.559-3.538-1.052-1.976-.493-3.595-.822-3.617-.734-.022.088 1.562.559 3.537 1.052 1.976.494 3.596.822 3.618.734zM167.022 196.177c.031-.088 1.894.543 4.249 1.142 2.355.599 4.281.959 4.268 1.053a4.654 4.654 0 01-1.262-.107 31.654 31.654 0 01-6.043-1.558 4.66 4.66 0 01-1.212-.53zM193.369 192.069c2.904-.015 5.259-.101 5.258-.192 0-.09-2.355-.151-5.26-.136-2.905.015-5.259.101-5.259.191.001.091 2.356.152 5.261.137z" fill="#EB996E"/><path d="M173.79 185.819a1.108 1.108 0 00-.172-1.56 1.11 1.11 0 10.172 1.56z" fill="#EBEBEB"/><path d="M248.209 209.513c.172-.009.345.01.511.057.46.086.913.202 1.358.347a15.567 15.567 0 017.495 5.198c.29.365.555.749.795 1.148.103.14.182.295.234.461-.044 0-.448-.574-1.212-1.457a17.787 17.787 0 00-7.394-5.123c-1.092-.416-1.8-.58-1.787-.631z" fill="#EB996E"/><path d="M219.991 147.33a12.672 12.672 0 01-8.507-4.267 12.648 12.648 0 01-3.13-8.981c.24-4.794.486-9.116.486-9.116s-10.286-1.596-10.412-11.872c-.126-10.277 1.654-33.87 1.654-33.87a35.778 35.778 0 0135.915 4.51l1.522 1.173-3.896 50.778a12.633 12.633 0 01-4.396 8.65 12.659 12.659 0 01-9.236 2.995z" fill="#FFBE9D"/><path d="M208.821 124.847a23.936 23.936 0 0013.405-3.785s-3.157 7.393-13.43 6.472l.025-2.687z" fill="#EB996E"/><path d="M202.621 95.329a1.467 1.467 0 001.414 1.482 1.402 1.402 0 001.516-1.325 1.473 1.473 0 00-1.415-1.482 1.407 1.407 0 00-1.515 1.325zM202.027 93.682c.183.19 1.295-.63 2.873-.63 1.579 0 2.741.794 2.911.63.082-.088-.101-.429-.631-.801a4.034 4.034 0 00-2.33-.72 3.874 3.874 0 00-2.286.739c-.461.347-.625.694-.537.782zM217.522 95.7a1.472 1.472 0 001.415 1.483 1.406 1.406 0 001.376-.785c.082-.168.129-.352.139-.54a1.467 1.467 0 00-1.414-1.482 1.414 1.414 0 00-1.037.344 1.424 1.424 0 00-.339.442 1.421 1.421 0 00-.14.539zM217.56 93.979c.183.189 1.294-.631 2.873-.631 1.579 0 2.74.795 2.911.63.082-.088-.101-.428-.632-.8a4.027 4.027 0 00-2.329-.72 3.873 3.873 0 00-2.293.739c-.454.346-.618.693-.53.782zM211.827 105.687c0-.088-.973-.258-2.57-.46-.404-.044-.783-.12-.852-.398a2.048 2.048 0 01.271-1.192l1.193-3.072c1.655-4.372 2.861-7.968 2.684-8.031-.177-.063-1.661 3.426-3.321 7.797l-1.143 3.092a2.329 2.329 0 00-.209 1.583 1.014 1.014 0 00.663.587c.225.06.456.092.689.094 1.597.082 2.588.089 2.595 0zM216.48 106.779c-.259 0-.259 1.697-1.73 2.914-1.471 1.218-3.296 1.028-3.308 1.262 0 .107.41.334 1.18.353a4.272 4.272 0 002.76-.959 3.714 3.714 0 001.338-2.447c.044-.72-.126-1.136-.24-1.123zM217.156 87.79c.158.43 1.736.227 3.586.448 1.85.22 3.353.726 3.599.34.108-.182-.151-.586-.757-1.002a6.323 6.323 0 00-5.475-.631c-.682.303-1.023.637-.953.845zM202.608 89.109c.278.359 1.364 0 2.677 0 1.314 0 2.419.24 2.671-.133.114-.183-.063-.543-.549-.883a3.88 3.88 0 00-4.313.132c-.454.34-.612.713-.486.884z" fill="#263238"/><path d="M236.256 95.55c.177-.076 7.066-2.089 6.845 4.939-.221 7.028-7.236 5.35-7.243 5.148-.006-.202.398-10.088.398-10.088z" fill="#FFBE9D"/><path d="M238.087 103.044c.032 0 .12.089.322.19.288.134.616.152.916.05.751-.246 1.414-1.407 1.49-2.675a4.027 4.027 0 00-.284-1.76 1.412 1.412 0 00-.89-.971.633.633 0 00-.733.315c-.101.196-.063.334-.101.347-.038.013-.145-.12-.082-.41a.78.78 0 01.291-.429.92.92 0 01.681-.158 1.724 1.724 0 011.263 1.13c.28.618.403 1.296.36 1.974-.088 1.413-.859 2.713-1.894 2.978a1.325 1.325 0 01-1.111-.221c-.221-.189-.253-.347-.228-.36z" fill="#EB996E"/><path d="M196.142 70.347a10.867 10.867 0 017.649-5.761 10.885 10.885 0 019.242 2.519 10.64 10.64 0 018.144-5.78 10.657 10.657 0 019.352 3.508c1.97 2.234 2.993 5.262 5.304 7.142 2.002 1.627 4.711 2.163 6.718 3.785a7.758 7.758 0 012.742 7.604 7.77 7.77 0 01-5.513 5.915c2.203 3.974.138 9.677-4.105 11.317l-1.023-.422a14.616 14.616 0 01-2.102-16.137h-.366a8.215 8.215 0 01-10.703-2.442 9.134 9.134 0 01-9.799.41 3.797 3.797 0 00-1.478-.668 3.509 3.509 0 00-1.844.548 8.663 8.663 0 01-4.975 1.003 4.82 4.82 0 01-3.738-2.674h-.12a5.536 5.536 0 01-4.117-3.987 8.193 8.193 0 01.732-5.88z" fill="#263238"/></svg>