<svg viewBox="0 0 121 94" xmlns="http://www.w3.org/2000/svg"><g clip-path="url(#clip0)"><path fill-rule="evenodd" clip-rule="evenodd" d="M.59 39.715c5.49-14.866 30.505-6.667 43.526-15.644 6.479-4.466 2.975-16.73 9.598-20.98 6.875-4.41 16.35-3.662 23.875-.495 7.248 3.05 9.513 11.942 15.492 17.061 8.911 7.631 29.201 8.38 27.855 20.058-1.424 12.36-22.767 8.777-32.118 16.949-6.043 5.28-5.098 15.364-11.037 20.761-8.561 7.78-18.379 18.642-29.676 16.236-11.106-2.365-12.283-18.238-19.801-26.774C19.535 56.932-4.011 52.172.59 39.715z"/><path d="M104.368 4.847c.119-.87-1.107-1.585-2.03-1.66-.435-.034-.896.033-1.305-.112-.902-.316-1.263-1.481-2.144-1.853-.652-.279-1.416-.03-2.055.291-.64.322-1.27.727-1.981.772-.62.04-1.295-.191-1.836.113-.405.218-.616.692-.99.968s-.84.326-1.292.35a3.641 3.641 0 00-1.333.218c-.41.189-.752.624-.667 1.07l15.633-.157z" fill="#EAEAEA"/><path d="M41.203 5.86c.187-1.36-1.74-2.479-3.175-2.596-.688-.057-1.403.05-2.056-.178C34.561 2.594 33.995.769 32.62.189c-1.031-.435-2.217-.048-3.215.454-.998.503-1.985 1.135-3.103 1.199-.97.063-2.025-.298-2.873.176-.633.352-.964 1.087-1.547 1.522-.583.435-1.305.509-2.022.548-.718.04-1.44.046-2.086.342-.646.295-1.179.976-1.044 1.672l24.474-.241zM91.157 13.586c.183-1.329-1.692-2.42-3.101-2.536-.672-.054-1.37.048-2.007-.174-1.38-.48-1.93-2.262-3.276-2.827-1.007-.435-2.175-.046-3.14.435-.966.48-1.94 1.109-3.03 1.178-.948.061-1.977-.291-2.805.172-.618.346-.942 1.057-1.512 1.477-.57.42-1.283.498-1.975.535-.691.037-1.407.043-2.035.333-.629.289-1.15.954-1.02 1.633l23.901-.226z" fill="#F5F5F5"/><path d="M88.676 93.488c-4.591-2.118-6.466-7.242-7.16-12.027-.115-.798-.352-1.62-.1-2.392.252-.772 1.048-1.399 1.82-1.192.64.172 1.02.811 1.451 1.32a4.717 4.717 0 002.175 1.444c.552.172 1.207.218 1.657-.145.618-.5.529-1.462.38-2.251l-.819-4.411c-.146-.79-.294-1.594-.183-2.392.111-.799.529-1.588 1.242-1.932.714-.343 1.72-.078 2.018.666.088.321.154.648.198.978.08.325.298.653.627.694.328.042.606-.243.802-.517.672-.944 1.04-2.07 1.375-3.184.335-1.114.652-2.25 1.23-3.263.58-1.013 1.484-1.874 2.61-2.142 1.127-.267 2.449.218 2.934 1.274.485 1.057.04 2.308-.504 3.337a17.909 17.909 0 01-3.045 4.156 1.472 1.472 0 00-.496.77c-.076.557.516.99 1.066 1.07.624.091 1.25-.085 1.879-.124.628-.04 1.344.113 1.681.652.468.749-.054 1.716-.62 2.393a15.336 15.336 0 01-4.006 3.382c-.544.317-1.12.613-1.522 1.105-.403.491-.55 1.252-.168 1.757.383.504 1.142.554 1.74.33.598-.224 1.075-.652 1.614-.972 1.011-.604 2.427-.78 3.291.033.567.535.761 1.385.652 2.162a5.853 5.853 0 01-.846 2.175c-1.372 2.353-3.304 4.395-5.655 5.72-2.35 1.324-4.65 1.978-7.316 1.522" fill="#EAEAEA"/><path d="M89.37 90.287a71.852 71.852 0 011.442-8.12l.487-2.11c.16-.692.322-1.38.52-2.04.382-1.27.834-2.517 1.355-3.737a78.51 78.51 0 011.476-3.273 48.53 48.53 0 011.416-2.79 28.472 28.472 0 012.486-3.78c.326-.422.59-.742.772-.955l.218-.242a.595.595 0 01.073-.078.572.572 0 01-.063.09l-.198.25c-.174.217-.434.543-.75.97a30.122 30.122 0 00-2.444 3.797 52.914 52.914 0 00-1.397 2.792 78.791 78.791 0 00-1.461 3.273 36.282 36.282 0 00-1.342 3.724c-.196.652-.355 1.337-.515 2.031l-.488 2.108a73.688 73.688 0 00-1.45 8.103" fill="#E0E0E0"/><path d="M91.858 78.003a1.628 1.628 0 01-.137-.324c-.08-.217-.187-.52-.314-.902a95.522 95.522 0 01-.906-3.017 65.062 65.062 0 00-.931-3.003c-.13-.381-.24-.688-.318-.899a1.607 1.607 0 01-.106-.335 1.6 1.6 0 01.158.314c.094.204.218.506.364.885.289.755.635 1.816.974 2.999l.87 3.027.267.916c.039.11.065.224.079.34z" fill="#E0E0E0"/><path d="M101.669 74.284a2.242 2.242 0 01-.396.122c-.257.07-.629.17-1.088.307-.911.267-2.157.68-3.514 1.196a51.587 51.587 0 00-3.424 1.442c-.434.198-.778.367-1.017.485-.121.067-.248.123-.379.167.11-.083.228-.156.353-.217.232-.133.572-.318.998-.529.852-.435 2.055-.965 3.414-1.487a36.4 36.4 0 013.539-1.16 14.04 14.04 0 011.087-.26c.14-.036.283-.058.427-.066zM89.461 90.078a.527.527 0 01-.091-.11l-.24-.338c-.217-.294-.493-.724-.843-1.261-.699-1.075-1.616-2.59-2.61-4.276-.994-1.686-1.892-3.21-2.567-4.298l-.802-1.287-.218-.353a.531.531 0 01-.067-.128c.035.033.066.07.091.111l.24.335c.217.294.493.724.843 1.261.698 1.075 1.616 2.59 2.61 4.278a245.233 245.233 0 002.569 4.296l.802 1.285.218.352c.028.041.05.086.065.133zM102.171 83.308a.552.552 0 01-.124.078l-.368.202-1.361.727a459.752 459.752 0 00-4.467 2.442 166.03 166.03 0 01-4.49 2.405 49.8 49.8 0 01-1.382.685l-.381.177a.536.536 0 01-.137.052.562.562 0 01.124-.08l.368-.203 1.359-.726a416.515 416.515 0 004.467-2.443 165.864 165.864 0 014.489-2.405c.581-.296 1.053-.53 1.383-.685l.381-.176a.532.532 0 01.139-.05z" fill="#E0E0E0"/><path d="M108.939 38.901l-4.173-3.427-.024 1.853-11.642-.144-.04 3.045 11.645.143-.022 1.788 4.256-3.258zM102.734 43.834l-2.694-2.214-.016 1.196-7.516-.091-.026 1.964 7.518.093-.015 1.155 2.749-2.103zM14.191 16.206s-2.427.755-.135 5.964c2.292 5.209 3.937 7.83 3.937 7.83s.391 1.2-.61 1.326c-1 .126-3.157-.348-3.666.837-.529 1.23.315 2.467 2.103 3.61 1.788 1.145 5.615 3.792 5.96 4.033.343.241.651.805 0 .998-.653.194-5.597.435-5.347 2.756.25 2.32 5.757 4.704 6.355 4.974.598.27.729.537.653.87-.076.332-1.74.254-3.132.376-1.392.122-3 .511-2.743 1.844.257 1.333 3.43 4.287 11.477 5.544l3.765.35 2.238-3.08c4.386-6.861 4.276-11.196 3.447-12.27-.829-1.075-2.175-.133-3.2.835-1.024.968-2.061 2.266-2.355 2.097-.293-.17-.409-.435-.217-1.07.191-.636 2.064-6.325.483-8.047-1.582-1.723-5.02 1.81-5.607 2.175-.587.365-.8-.246-.753-.653.048-.407.596-5.044.922-7.142.327-2.099-.04-3.55-1.304-3.967-1.227-.403-2.301 1.522-3.058 2.192-.757.67-1.407-.43-1.407-.43s-.87-2.96-3.252-8.128c-2.381-5.168-4.606-3.806-4.606-3.806" fill="#EAEAEA"/><path d="M32.951 58.408c-1.74-3.802-4.71-10.612-7.294-16.445a2739.021 2739.021 0 00-6.644-14.917l-2.038-4.51-.555-1.227-.139-.329c-.03-.072-.043-.11-.043-.11s.02.034.054.106l.152.315.574 1.218a512.018 512.018 0 012.073 4.496c1.74 3.801 4.093 9.073 6.675 14.904 2.581 5.83 5.546 12.647 7.262 16.457" fill="#E0E0E0"/><path d="M16.707 32.942c.09.02.176.05.26.09.162.062.397.16.686.286.577.25 1.364.616 2.225 1.036l2.203 1.087.67.324c.085.034.166.077.242.128a1.22 1.22 0 01-.26-.087 18.177 18.177 0 01-.684-.289 80.593 80.593 0 01-2.219-1.05l-2.21-1.064-.671-.32a1.222 1.222 0 01-.242-.14zM24.895 32.004c.872-2.031 1.554-3.688 1.524-3.7-.03-.014-.76 1.623-1.632 3.654-.871 2.03-1.553 3.688-1.523 3.7.03.013.76-1.623 1.631-3.654zM26.827 44.789a1.28 1.28 0 01.167-.218l.483-.585a62.59 62.59 0 001.553-1.957c.587-.777 1.1-1.503 1.464-2.03l.435-.624c.048-.078.105-.15.17-.217-.036.087-.08.169-.133.246-.092.154-.218.376-.403.652-.348.54-.848 1.273-1.44 2.053-.59.781-1.159 1.462-1.583 1.945-.217.239-.387.435-.51.563a1.276 1.276 0 01-.203.172zM20.357 43.638c.086-.003.172.003.256.02l.696.096c.587.084 1.394.217 2.286.358.892.142 1.699.287 2.282.394l.689.133c.086.011.17.033.25.065a1.089 1.089 0 01-.252-.017l-.696-.096c-.587-.085-1.394-.218-2.286-.36a97.159 97.159 0 01-2.281-.393l-.69-.132a1.088 1.088 0 01-.254-.068zM22.477 52.1c.11 0 .22.01.329.029l.891.12a253.988 253.988 0 015.864.906l.885.157c.11.015.217.04.322.074-.11 0-.22-.009-.329-.028l-.891-.12a253.988 253.988 0 01-5.864-.907l-.885-.156a1.776 1.776 0 01-.322-.074zM30.579 53.299c.06-.102.128-.2.204-.29l.585-.765c.494-.652 1.17-1.542 1.89-2.551a113.5 113.5 0 001.8-2.61l.536-.8c.064-.102.136-.198.217-.287a2.031 2.031 0 01-.17.31c-.115.196-.286.48-.502.823a55.825 55.825 0 01-3.695 5.172c-.256.315-.465.57-.613.741-.076.093-.16.179-.252.257z" fill="#E0E0E0"/><path d="M86.912 84.476a1.77 1.77 0 01.95 1.011c.162.449.219.929.166 1.403-.076.915-.566 1.855-1.1 2.61-.79-.653-1.003-1.814-1.075-2.412-.113-.946.259-2.721 1.061-2.61M87.867 90.972a1.523 1.523 0 01.435-1.45 2.005 2.005 0 011.463-.51.843.843 0 01.653.272.653.653 0 01.03.653c-.11.203-.272.372-.47.492-.652.434-1.365.743-2.126.541"/><path d="M86.966 93.802c.002-.064.01-.127.022-.19l.079-.51a5.3 5.3 0 01.474-1.638 3.244 3.244 0 011.124-1.273 2.21 2.21 0 01.602-.256.138.138 0 01.048 0 3.451 3.451 0 00-.626.31 3.352 3.352 0 00-1.087 1.264 5.71 5.71 0 00-.486 1.614c-.039.218-.071.387-.097.507-.013.059-.03.116-.053.172z" fill="#263238"/><path d="M86.749 85.853c.007.027.01.054.01.082l.023.235a83.365 83.365 0 01.213 6.592c0 .365 0 .653-.016.87v.235a.381.381 0 010 .083.394.394 0 010-.083v-1.105c0-.733-.017-1.74-.045-2.86a127.89 127.89 0 00-.107-2.858l-.041-.87v-.235a.386.386 0 01-.037-.086z" fill="#263238"/><path d="M86.553 91.568a3.534 3.534 0 00-2.01-2.527c-.26-.115-.598-.185-.804.013-.207.198-.148.54-.035.802a3.02 3.02 0 002.828 1.788"/><path d="M84.696 89.904a.91.91 0 01.165.066c.064.027.127.058.187.093.07.041.155.08.24.14.094.059.186.123.273.193.103.078.2.161.294.25.214.205.403.433.566.68.157.251.286.519.382.799.041.122.076.246.103.372.025.11.044.22.056.332.012.092.02.184.022.277.005.072.005.145 0 .217 0 .06-.004.12-.015.178-.016 0 0-.254-.055-.652a3.044 3.044 0 00-.063-.326 3.534 3.534 0 00-.106-.365 4.004 4.004 0 00-.381-.784 4.088 4.088 0 00-.837-.924c-.092-.078-.183-.139-.268-.198-.335-.237-.57-.328-.563-.348z" fill="#263238"/><path d="M21.66 88.402c.2-.779-.31-1.56-.881-2.123-.572-.563-1.255-1.07-1.553-1.816-.483-1.21.165-2.775-.653-3.784-.491-.585-1.361-.783-1.785-1.412a3.247 3.247 0 01-.387-1.133 11.507 11.507 0 00-2.862-5.355 9.986 9.986 0 001.122 5.162c.332.635.741 1.252.852 1.957.179 1.148-.463 2.334-.18 3.462.322 1.29 1.772 2.156 1.842 3.48.059 1.122-.92 2.11-.848 3.232.059.477.23.933.5 1.33.87 1.445 2.144 2.439 4.078 2.406l2.368.083-1.613-5.49z"/><path opacity=".3" d="M21.66 88.402c.2-.779-.31-1.56-.881-2.123-.572-.563-1.255-1.07-1.553-1.816-.483-1.21.165-2.775-.653-3.784-.491-.585-1.361-.783-1.785-1.412a3.247 3.247 0 01-.387-1.133 11.507 11.507 0 00-2.862-5.355 9.986 9.986 0 001.122 5.162c.332.635.741 1.252.852 1.957.179 1.148-.463 2.334-.18 3.462.322 1.29 1.772 2.156 1.842 3.48.059 1.122-.92 2.11-.848 3.232.059.477.23.933.5 1.33.87 1.445 2.144 2.439 4.078 2.406l2.368.083-1.613-5.49z"/><path d="M23.754 93.954c.216.033.437.029.652-.013.263-.039.52-.104.77-.194a3.26 3.26 0 00.953-.522c.172-.138.306-.318.391-.522.072-.229.109-.467.111-.707.004-.255.022-.511.055-.765.046-.27.144-.529.289-.761.278-.492.744-.955.894-1.62.15-.666.045-1.364-.066-2.078-.11-.713-.217-1.485.055-2.224.272-.74.774-1.41 1.033-2.245.259-.835.137-1.74.194-2.644a3.51 3.51 0 01.308-1.305c.192-.42.457-.816.666-1.257.42-.892.493-1.903.609-2.895l.17-1.523a7.417 7.417 0 01.263-1.522c.16-.5.35-.989.567-1.466.113-.247.204-.503.274-.766.04-.27.066-.542.076-.815a9.6 9.6 0 00-.063-1.64c-.065-.546-.163-1.087-.217-1.635v-.094l-.013-.109-.098.048a3.66 3.66 0 00-1.275 1.077 5.807 5.807 0 00-.782 1.444c-.396 1.018-.538 2.083-.738 3.101-.2 1.018-.452 2.018-.972 2.864-.259.422-.574.807-.848 1.218a3.35 3.35 0 00-.587 1.351c-.14 1.003.41 1.881.298 2.769a3.073 3.073 0 01-.435 1.228c-.218.379-.468.729-.707 1.088a6.953 6.953 0 00-.635 1.087 3.462 3.462 0 00-.292 1.188c-.058.798.057 1.557 0 2.273a5.218 5.218 0 01-.585 1.957c-.287.583-.604 1.11-.87 1.62a8.306 8.306 0 00-.359.755 3.717 3.717 0 00-.217.748c-.07.448-.077.903-.018 1.353.063.626.298 1.223.68 1.724.056.078.12.151.19.218a.94.94 0 00.155.133c.09.065.135.095.135.095a2.996 2.996 0 01-.463-.472 3.43 3.43 0 01-.653-1.711 4.701 4.701 0 01.03-1.334c.047-.25.12-.495.218-.73.1-.244.218-.492.361-.744.27-.507.592-1.03.883-1.618.33-.614.535-1.288.605-1.981.063-.731-.048-1.492.013-2.271.025-.397.12-.785.282-1.148.177-.375.387-.733.629-1.07.24-.35.496-.703.715-1.088a3.2 3.2 0 00.453-1.279c.113-.946-.435-1.83-.292-2.762.092-.467.285-.908.568-1.292.27-.404.587-.789.853-1.222.537-.87.798-1.89.996-2.912.198-1.022.343-2.08.733-3.075.186-.502.443-.975.763-1.405.323-.433.74-.786 1.222-1.031l-.108-.061v.096c.058.554.158 1.087.217 1.637a9.46 9.46 0 01-.009 2.404c-.068.253-.156.5-.265.739-.22.482-.41.977-.572 1.481a7.539 7.539 0 00-.267 1.54l-.168 1.522c-.113.996-.187 1.99-.592 2.852-.2.435-.465.826-.652 1.259-.193.43-.3.893-.317 1.364-.053.913.067 1.807-.181 2.61-.248.802-.761 1.478-1.024 2.242-.264.763-.163 1.572-.05 2.279.113.707.228 1.407.076 2.038-.153.63-.587 1.087-.87 1.6a2.193 2.193 0 00-.292.8 6.832 6.832 0 00-.05.777c0 .234-.033.466-.1.69a1.27 1.27 0 01-.37.491 3.252 3.252 0 01-.928.524 4.07 4.07 0 01-.76.207c-.159.028-.32.043-.482.046-.107-.011-.163-.01-.163-.01z" fill="#263238"/><path d="M31.238 66.05a.28.28 0 00-.024.072l-.052.218c-.046.187-.103.467-.192.82-.09.352-.309.748-.491 1.237-.183.49-.385 1.048-.564 1.681a39.81 39.81 0 00-.509 2.084 8.78 8.78 0 01-.759 2.314c-.193.385-.413.774-.587 1.2-.17.437-.285.894-.341 1.36a27.507 27.507 0 01-.503 2.86l-1.34 5.474-1.122 4.462-.744 3.013-.195.82-.048.217a.276.276 0 00-.01.074.278.278 0 00.025-.07l.061-.217.218-.813.791-3.002 1.155-4.456 1.355-5.479c.22-.946.39-1.904.507-2.868.053-.454.164-.9.328-1.327.168-.415.383-.802.576-1.192a8.83 8.83 0 00.757-2.349c.163-.752.316-1.452.49-2.083.174-.63.356-1.192.54-1.68.182-.486.382-.889.469-1.252.087-.363.126-.64.165-.829l.037-.217a.284.284 0 00.007-.072z" fill="#263238"/><path d="M24.171 93.96c1.547-.92 1.99-3.71 1.347-5.391-.644-1.681-1.775-3.215-1.958-5.002-.134-1.377.318-2.79 0-4.132-.435-1.817-2.205-3.224-2.175-5.09.011-1.048.607-2.033.56-3.08-.06-1.282-1.045-2.302-1.654-3.431-.933-1.74-.996-3.778-1.304-5.718-.31-1.94-1.06-4.02-2.78-4.974-.254 1.649-.687 2.775-.552 5.002.05.803.98 2.336 1.107 4.093.076 1.05.128 2.101.191 3.154s.128 2.064.496 3.02c.28.734.733 1.4.942 2.156.391 1.425-.124 2.967.193 4.409.268 1.222 1.114 2.275 1.288 3.514.243 1.74-.885 3.552-.307 5.22.287.824.963 1.485 1.157 2.338.15.652-.013 1.36.122 2.022.217 1.068 2.255 1.9 3.345 1.834"/><path d="M16.618 58.769a.43.43 0 000 .093l.035.272c.035.237.076.587.157 1.04.08.452.32.965.506 1.583.187.618.394 1.325.568 2.118.174.794.324 1.673.478 2.61.155.938.324 1.975.794 2.96.218.494.461.99.653 1.523.178.541.288 1.103.326 1.672.087 1.209.238 2.412.454 3.604l1.336 6.883 1.159 5.607.79 3.778.217 1.026.06.266c.006.03.015.06.027.089a.418.418 0 000-.094l-.046-.27-.193-1.03-.742-3.787-1.12-5.613-1.34-6.877a34.145 34.145 0 01-.454-3.593 6.932 6.932 0 00-.337-1.705c-.19-.54-.435-1.035-.653-1.522-.465-.97-.63-1.984-.796-2.925-.165-.942-.315-1.825-.498-2.61a23.294 23.294 0 00-.591-2.12c-.207-.614-.435-1.127-.531-1.569-.096-.441-.14-.796-.183-1.03l-.05-.268a.433.433 0 00-.026-.111zM64.624 93.888H34.356c-3.658-.017-6.742-3.136-6.742-6.792l.322-76.231a6.624 6.624 0 016.655-6.596l30.407.141a6.625 6.625 0 016.592 6.65l-.322 76.232a6.625 6.625 0 01-6.644 6.596z" fill="#263238"/><path d="M65.03 7.307l-5.895-.028a1.464 1.464 0 00-1.438 1.49v1.07a1.464 1.464 0 01-1.438 1.49l-11.492-.053a1.466 1.466 0 01-1.424-1.503v-1.07A1.466 1.466 0 0041.918 7.2h-2.072l-5.161-.024a4.64 4.64 0 00-4.661 4.62l-.315 74.409a4.639 4.639 0 004.617 4.658l30.346.14a4.641 4.641 0 004.66-4.62l.316-74.418a4.639 4.639 0 00-4.617-4.658z" fill="#F5F5F5"/><path d="M52.151 76.93c-.035.9-.067 1.74-.096 2.443h4.35l-.533-2.677-3.72.235zM34.435 78.051l.037 1.32H51.62l.094-2.414-17.28 1.094zM56.1 76.683l.536 2.69h8.036l-.096-3.227-8.475.537zM52.586 39.06l1.52-8.813-3.98-.293v9.106h2.46zM34.076 73.162l-4.32 1.692-.012 3.06 4.46-.282-.128-4.47zM34.056 72.475l-.237-8.208-.002.002v-2.895l-4.006.424-.052 12.354 4.295-1.684.002.007zM33.817 54.913l-3.974-.525-.028 6.753 4.002-.424v-5.804zM63.434 61.496l-.165 2.35-4.693.508.363 1.861 5.326-.402-.078-2.669.424-1.768-1.177.12zM54.976 66.513l3.743-.282-.815-4.176-3.267.328.34 4.13zM55.011 66.946l.287 3.484.507 4.776.209 1.046 8.55-.541-.286-9.463-9.267.698z" fill="#F5F5F5"/><path d="M40.298 50.502l.328.563-6.591 3.843v9.135l6.96-.492 13.407-1.364-.49-5.974-12.811-1.675.084-.652 12.673 1.655-.83-10.12-12.545 1.21-.041-.435 12.549-1.207-.435-5.281H40.483l-10.585 1.934-.052 12.092 4.012.522 6.44-3.754zm-5.59 12.67s.05-7.52 0-7.803l5.381-2.862.699 10.28-6.08.386zM62.995 61.54l-4.874.493.37 1.892 4.37-.472.134-1.913zM52.212 75.32l-.046 1.174 3.628-.23-.187-.936-3.395-.009zM44.398 39.06l.64-2.9h4.87V29.94l-15.23-1.13v5.845l-4.756 1.076-.022 5.246 10.533-1.916h3.965zM54.56 21.74l-.13-.533 5.816-2.302-3.782-7.594a1.365 1.365 0 01-.218.017l-6.411-.03.174 10.626 4.552-.185zM63.373 17.668V7.3l-4.238-.021a1.463 1.463 0 00-1.438 1.49v1.07a1.524 1.524 0 01-.622 1.226l3.784 7.599 2.514-.996zM41.512 18.112l-.49-10.916h-1.178l-4.6-.022-1.958 9.763 8.226 1.175zM40.463 8.3l.157 8.89-6.114-.893 1.34-7.995 4.617-.002zM41.733 18.153v.094c0 .852.029 2.392.042 4.025l8.01-.326-.168-10.648-4.847-.022a1.466 1.466 0 01-1.425-1.503v-1.07A1.466 1.466 0 0041.921 7.2h-.679l.49 10.953h.002zM32.638 16.848l1.94-9.667a4.637 4.637 0 00-4.554 4.615l-.02 4.82.02-.142 2.614.374z" fill="#F5F5F5"/><path d="M34.026 28.762l-4.074-.302-.028 6.6 4.102-.928v-5.37zM32.595 17.053l-2.593-.372-.045 10.69.559.04 2.079-10.358zM40.822 72.349l.068-8.582-6.853.485.243 8.408 6.542-.311zM42.084 70.367l9.708 4.65c.116-3.045.218-5.872.218-6.061l.217-.011.103-.205c.137.07.137.07.065 2.14a1949.61 1949.61 0 01-.157 4.233h3.339l-.496-4.663-.653-8.047-12.681 1.279.337 6.685zM65.872 56.126l-.108-1.13-11.634 1.209.49 5.963 10.045-1.013 1.207-5.029zM49.909 36.813H45.56l-.496 2.247h4.844v-2.247zM64.078 37.57l-10.874-.752-.435 2.57.459 5.581 11.479-1.105-.629-6.294zm-10.483 1.814l.585-1.623 9.455.599.554 4.64-10.265 1.219-.329-4.835zM65.207 49.236l-.479-4.937-11.485 1.105.43 5.252 11.534-1.42zM34.217 78.066l-4.456.283-.017-.291-.007 1.315h4.517l-.037-1.307zM69.567 15.217l.066.165.015-3.416a4.639 4.639 0 00-4.617-4.66h-1.447v10.281l5.983-2.37z" fill="#F5F5F5"/><path d="M51.78 75.254l-9.907-4.745-.35-6.801-.416.041-.07 8.806-6.742.32v.196l.131 4.54 17.31-1.087.043-1.27zm-17.071-1.818l9.452-.653 6.148 2.854-15.6.844v-3.045zM66.751 26.635l.405-2.403c-3.554-1.268-3.8-4.972-3.789-6.09l-2.318.918 3.492 7.01 2.21.565zM54.076 55.554l4.83-.502-.95-4.265-4.228.52.348 4.247zM64.093 30.321l-9.021-.002-.748-.054-1.02 5.907 10.709.742-.248-2.57 1.055-3.794-.727-.229zM63.874 29.234l.113-2.827-3.545-7.119-5.498 2.175 1.89 7.762 7.04.009zm-3.648-9.071l3.25 6.18-.47 1.927-5.559-.217-1.39-5.846 4.17-2.044zM65.276 63.258l.168 5.539 3.908-.22.013.216-3.914.221.197 6.63 3.696-.235.028.435-3.71.234.1 3.295h3.601l.078-18.484-3.684.372-.48 1.997zM41.518 18.334l-8.277-1.188-2.07 10.313 10.384.77c.041-1.594.015-6.46-.037-9.895zM55.133 29.234h1.253l-1.773-7.277-4.606.187.11 6.718 5.016.372zM41.766 28.242l8.132.603-.11-6.692-8 .326c0 2.264.013 4.678-.022 5.763zM65.27 49.886l-7.099.875.955 4.269 6.575-.685-.431-4.459z" fill="#F5F5F5"/><path d="M67.195 24.014l.454-2.697 1.958.153.024-5.81-6.044 2.393c-.122 4.084 2.446 5.522 3.608 5.961zM64.868 34.44l.245 2.55 4.426.306.024-5.248-3.708-1.17-.987 3.563zM66.973 56.213l-1.164 4.835 3.63-.366.022-5.07c-1.114-.293-2.086-.532-2.61-.632l.122 1.233zM64.524 29.317l5.043 1.591.011-2.868-4.952-1.279-.102 2.556zM66.799 54.303c.407.061 1.176.218 2.675.62l.048-11.092-3.697.357.974 10.115zM65.77 43.762l3.745-.359.022-5.454-4.36-.3.593 6.113z" fill="#F5F5F5"/><path d="M67.612 24.151c.71.218 1.37.383 1.982.505l.01-2.751-1.594-.124-.398 2.37zM67.175 26.744l2.408.622v-2.488a20.565 20.565 0 01-2.019-.514l-.389 2.38z" fill="#F5F5F5"/><path d="M69.372 75.841l-.028-.435-3.698.233-.2-6.629 3.915-.218-.013-.217-3.915.218-.157-5.536.481-1.996 3.684-.372v-.218l-3.63.366 1.162-4.824-.12-1.235c.522.1 1.494.339 2.61.633v-.679c-1.498-.394-2.268-.557-2.675-.62l-.979-10.109 3.698-.356v-.435l-3.746.36-.591-6.115 4.35.302v-.652L65.092 37l-.246-2.549.99-3.562 3.697 1.17v-1.14l-5.044-1.592.102-2.555 4.955 1.28v-.671l-2.408-.622.4-2.377c.722.217 1.394.389 2.019.513v-.218a20.944 20.944 0 01-1.982-.504l.4-2.37 1.595.123v-.435l-1.958-.152-.454 2.697c-1.16-.435-3.728-1.875-3.606-5.964l6.044-2.392v-.276l-.066-.165-5.976 2.364V7.322h-.218V17.69l-2.518.996-3.784-7.6c-.18.13-.388.214-.607.246l3.782 7.593-5.779 2.273.13.532-4.566.188-.16-10.62h-.217l.174 10.637-8.01.326a914.97 914.97 0 00-.04-4.026v-.082l-.492-10.946h-.218l.49 10.915-8.228-1.18 1.957-9.764h-.667l-1.945 9.67-2.61-.376-.02.141v.074l2.593.372-2.079 10.357-.559-.042v1.088l4.074.302v5.372l-4.102.929v.67l4.756-1.077V28.81l15.224 1.129v6.222h-4.878l-.64 2.897h-3.964L29.9 40.974v.667l10.583-1.93h12.066l.435 5.28-12.549 1.207.041.435 12.543-1.207.83 10.12-12.672-1.656-.085.653 12.812 1.674.498 5.97-13.41 1.353-6.96.492v-9.124l6.592-3.845-.328-.563-6.438 3.756-4.012-.529v.653l3.971.528v5.805l-4.002.424v.652l4.006-.434v2.905l.237 8.206-4.295 1.683v.703l4.32-1.692.128 4.469-4.461.283v.145l.017.29 4.457-.283.037 1.305h.217l-.037-1.32 17.28-1.088-.094 2.414h.435l.096-2.442 3.73-.237.532 2.677h.218l-.537-2.69 8.482-.537.098 3.227h1.087l3.604-3.532zm-17.197.653l.046-1.175h3.397l.187.935-3.63.24zm3.847-.244l-.217-1.046-.507-4.785-.287-3.48 9.267-.698.285 9.463-8.54.546zm2.108-14.22l4.874-.49-.137 1.913-4.37.472-.367-1.894zm-.218.023l.816 4.175-3.743.283-.34-4.132 3.267-.326zm6.362 3.758l-5.335.406-.363-1.861 4.693-.507.168-2.351 1.176-.12-.435 1.769.096 2.664zm-6.307-15.026l.952 4.265-4.843.51-.348-4.247 4.239-.528zm1.17 4.243l-.953-4.27 7.097-.87.435 4.461-6.58.679zm4.889-18.117l-10.711-.74 1.02-5.906.748.054h9.021l.716.23-1.066 3.794.272 2.568zm-.652-18.776c0 1.123.234 4.826 3.788 6.09l-.411 2.41-2.21-.572-3.492-7.01 2.325-.918zm-2.928 1.16l3.54 7.122-.112 2.828h-7.04l-1.89-7.762 5.502-2.188zm-5.826 2.66l1.772 7.277H55.14l-5.015-.372-.11-6.718 4.606-.188zm-4.824.197l.11 6.692-8.131-.602c.035-1.087.026-3.5 0-5.763l8.02-.327zM33.247 17.15l8.278 1.188c.041 3.436.078 8.305.037 9.893l-10.385-.77 2.07-10.31zm20.866 13.104l-1.523 8.81h-2.464v-9.113l3.987.303zm-8.552 6.56h4.35v2.244h-4.843l.493-2.245zm7.177 2.576l.435-2.57 10.875.752.609 6.296-11.48 1.105-.439-5.583zm11.98 4.911l.478 4.937-11.527 1.42-.435-5.252 11.483-1.105zM54.13 56.213l11.634-1.21.108 1.132-1.209 5.026-10.043 1.005-.49-5.953zm.95 14.245l.497 4.663h-3.35c.059-1.537.116-3.075.157-4.232.072-2.07.072-2.07-.065-2.14l-.103.204-.217.011c0 .18-.094 3.023-.218 6.062l-9.706-4.65-.344-6.684 12.682-1.278.668 8.044zm-14.19-6.683l-.068 8.582-6.542.311-.243-8.408 6.853-.485zm-6.599 9.31v-.195l6.742-.32.07-8.806.415-.041.35 6.8 9.907 4.746-.048 1.268-17.31 1.088-.126-4.54z" fill="white"/><path d="M44.16 72.772l-9.451.664v3.034l15.6-.844-6.148-2.854zM63.63 38.36l-9.452-.598-.585 1.624.32 4.835 10.265-1.218-.548-4.643zM29.737 76.494l-.022 8.173v1.666a4.635 4.635 0 004.61 4.52l30.347.139a4.64 4.64 0 004.66-4.62l.031-9.878H29.737zM40.62 17.194l-.157-8.891h-4.619l-1.338 7.995 6.114.896zM63.006 28.27l.47-1.926-3.25-6.181-4.169 2.05 1.39 5.849 5.559.208zM34.709 55.36c.05.281 0 7.804 0 7.804l6.076-.385-.698-10.28-5.378 2.862zM54.978 61.47l-.321-4.661 10.422-1.34v.803l-1.26 4.286-8.84.912z" fill="#EBEBEB"/><path d="M64.696 73.345l-.13-3.045-9.163.435c-.24.01-.478-.04-.692-.148l-12.997-6.544a.944.944 0 01-.515-.792L39.43 28.945a.576.576 0 01.607-.598l5.57.413v-6.09h.652v6.172a.575.575 0 01-.615.572l-5.566-.413 1.764 34.217a.29.29 0 00.159.244l12.995 6.564c.113.058.24.085.367.078l9.24-.45a.567.567 0 01.417.15.575.575 0 01.187.4l.135 3.117-.646.024z" fill="white"/><path d="M60.733 20.206a1.27 1.27 0 100-2.54 1.27 1.27 0 000 2.54z"/><path opacity=".6" d="M60.759 20.388a1.271 1.271 0 10-.102-2.54 1.271 1.271 0 00.102 2.54z" fill="white"/><path d="M60.733 19.736a.844.844 0 100-1.687.844.844 0 000 1.687z"/><path d="M64.97 73.81l-.157-3.562a.192.192 0 00-.202-.185l-9.556.504-1.153-14.493-1.457-16.694v-.015l1.633-8.917a.707.707 0 01.694-.581l8.64-.026a.618.618 0 00.616-.579l.148-2.392a1.8 1.8 0 00-.174-.887l-3.375-7.043.195-.093 3.376 7.042c.148.31.215.653.193.996l-.148 2.393a.835.835 0 01-.832.783l-8.641.026a.49.49 0 00-.48.402l-1.628 8.9 1.44 16.659 1.135 14.282 9.352-.485a.4.4 0 01.296.107.407.407 0 01.135.285l.157 3.562-.207.011z"/><path d="M65.02 74.062a.542.542 0 100-1.083.542.542 0 000 1.083zM54.625 64.032a.509.509 0 10-.07-1.015.509.509 0 00.07 1.015z"/><path d="M54.637 63.919a.92.92 0 00-.855.98l1.834-.126a.92.92 0 00-.979-.854zM61.884 58.084h-4.515a.69.69 0 00-.69.689V61.6a.69.69 0 00.69.69h.091v.676l.783-.676h3.64a.69.69 0 00.69-.69v-2.827a.69.69 0 00-.69-.69z"/><path opacity=".4" d="M61.884 58.084h-4.515a.69.69 0 00-.69.689V61.6a.69.69 0 00.69.69h.091v.676l.783-.676h3.64a.69.69 0 00.69-.69v-2.827a.69.69 0 00-.69-.69z" fill="white"/><path d="M58.802 60.306v.372h-.152v-.376l-.435-.698h.163l.343.565.346-.565h.152l-.417.702zM59.187 60.27a.422.422 0 11.424.415.405.405 0 01-.424-.416zm.696 0a.274.274 0 10-.261.293.266.266 0 00.267-.294h-.006zM60.999 59.865v.813h-.14v-.115a.333.333 0 01-.276.133.319.319 0 01-.35-.355v-.468h.148v.45c0 .16.08.24.217.24a.24.24 0 00.253-.27v-.42l.148-.008z" fill="white"/><path d="M35.113 80.698c.032 0 .057-.146.057-.326 0-.18-.026-.327-.057-.327-.031 0-.056.147-.056.327 0 .18.025.326.056.326zM35.113 82.003c.032 0 .057-.146.057-.326 0-.18-.026-.327-.057-.327-.031 0-.056.146-.056.327 0 .18.025.326.056.326zM35.113 83.308c.032 0 .057-.146.057-.327 0-.18-.026-.326-.057-.326-.031 0-.056.146-.056.326 0 .18.025.327.056.327zM35.113 84.613c.032 0 .057-.146.057-.327 0-.18-.026-.326-.057-.326-.031 0-.056.146-.056.326 0 .18.025.327.056.327zM35.113 85.735c.032 0 .057-.105.057-.235s-.026-.235-.057-.235c-.031 0-.056.105-.056.235s.025.235.056.235z" fill="#263238"/><path d="M36.038 86.85a.924.924 0 10-1.72.468c.034.059.08.103.123.166l.537.71a.167.167 0 00.266 0l.528-.697c.052-.058.1-.12.144-.183.08-.141.123-.3.122-.463zm-.925.403a.407.407 0 110-.813.407.407 0 010 .813z" fill="#455A64"/><path d="M58.576 87.253c0 .03-4.69.056-10.47.056s-10.47-.026-10.47-.056c0-.03 4.687-.057 10.47-.057s10.47.026 10.47.057z" fill="#263238"/><path d="M43.967 86.392c3.504 0 6.344-.026 6.344-.057 0-.031-2.84-.056-6.344-.056-3.504 0-6.344.025-6.344.056s2.84.057 6.344.057z"/><path d="M39.38 88.349c.926 0 1.677-.025 1.677-.057 0-.03-.75-.056-1.677-.056-.926 0-1.677.025-1.677.056 0 .032.751.057 1.677.057z" fill="#263238"/><path d="M36.038 79.64a.924.924 0 10-1.72.469c.034.058.08.102.123.165l.537.711a.168.168 0 00.266 0l.528-.698c.049-.057.093-.117.135-.178a.917.917 0 00.13-.468zm-.925.403a.407.407 0 110-.813.407.407 0 010 .813z"/><path d="M62.997 80.043c0 .03-5.678.057-12.68.057-7 0-12.68-.026-12.68-.057 0-.03 5.675-.056 12.68-.056 7.006 0 12.68.026 12.68.056z" fill="#263238"/><path d="M55.577 79.125c0 .03-4.02.057-8.978.057-4.959 0-8.978-.026-8.978-.057 0-.03 4.019-.056 8.978-.056 4.958 0 8.978.026 8.978.056z"/><path d="M42.62 81.14c2.718 0 4.92-.026 4.92-.057 0-.031-2.202-.057-4.92-.057-2.716 0-4.919.026-4.919.057 0 .031 2.203.056 4.92.056z" fill="#263238"/><path d="M99.302 27.814l-.99-2.208a5.638 5.638 0 112.01-.2l-1.02 2.408z" fill="white"/><path d="M99.302 27.814l.99-2.419.026.04h-.218l.218-.061a5.61 5.61 0 002.484-1.505 5.05 5.05 0 00.554-.688c.083-.128.17-.254.25-.387l.218-.422a5.555 5.555 0 00.147-4.409 5.567 5.567 0 00-3.107-3.13 5.473 5.473 0 00-2.543-.377 5.573 5.573 0 00-2.492.82 5.653 5.653 0 00-1.779 1.774 5.477 5.477 0 00-.809 2.238 5.655 5.655 0 001.046 4.048c.368.487.808.915 1.305 1.27.804.56 1.74.899 2.716.983h.026v.015l.966 2.219-1.016-2.197.022.015a5.612 5.612 0 01-2.757-.972 6.086 6.086 0 01-1.338-1.283 5.728 5.728 0 01-1.087-4.113c.102-.811.382-1.59.82-2.281a5.763 5.763 0 011.811-1.814 5.676 5.676 0 012.543-.837 5.577 5.577 0 012.59.398 5.76 5.76 0 012.066 1.433 5.697 5.697 0 01.931 6.248l-.218.435c-.082.135-.172.263-.256.394a5.07 5.07 0 01-.566.694 5.626 5.626 0 01-2.525 1.505v-.055h.048l-.017.04-1.049 2.38z" fill="#263238"/><path d="M101.162 19.784a2.128 2.128 0 00-.829-1.686 2.12 2.12 0 00-3.402 1.835c.024.325.122.64.288.921.08.137.183.235.285.379l1.228 1.629a.382.382 0 00.612 0l1.209-1.603c.11-.13.212-.266.306-.407.195-.322.299-.691.303-1.068zm-2.119.922a.933.933 0 11.354-.07.933.933 0 01-.358.07h.004z"/><path d="M83.432 17.5c.196-.724.742-1.087 1.453-1.324a2.343 2.343 0 012.136.346c.4.305.713.746 1.187.911.781.272 1.697-.313 2.447.037a1.069 1.069 0 01-.505 2.032c.51.187.668.913.37 1.368a1.422 1.422 0 01-1.444.526 2.994 2.994 0 01-1.398-.785c-.405-.364-.766-.774-1.197-1.103a2.33 2.33 0 00-1.496-.55c-.733.039-1.364.594-1.69 1.25-.326.657-.402 1.41-.435 2.145-.032.735-.054 1.479-.272 2.175-.026.082-.065.174-.147.2-.12.037-.218-.09-.281-.2a10.786 10.786 0 01-1.233-4.01c-.083-.814-.061-1.584.385-2.27.446-.684 1.577-1.187 2.131-.756" fill="#263238"/><path d="M82.023 20.906l-.376 8.232c-.063 1.4.128 3.48 2.346 3.48 1.925-.146 2.493-1.944 2.552-3.25.028-.619.052-1.137.058-1.2 0 0 2.106-.102 2.351-2.174.12-.999.196-3.078.244-4.957a3.878 3.878 0 00-3.478-3.958l-.2-.022c-2.164-.102-3.462 1.681-3.497 3.85z" fill="#FFBE9D"/><path d="M86.601 28.13a4.841 4.841 0 01-2.62-1.06s.478 1.557 2.564 1.592l.056-.533z" fill="#EB996E"/><path d="M88.656 22.572a.298.298 0 01-.317.268.284.284 0 01-.276-.298.298.298 0 01.317-.268.285.285 0 01.276.298zM88.637 22c-.042.035-.248-.154-.566-.187-.317-.032-.567.103-.598.06-.03-.044.03-.086.14-.149a.816.816 0 01.484-.096.783.783 0 01.435.198c.098.085.124.16.105.174zM85.525 22.349a.298.298 0 01-.318.267.283.283 0 01-.276-.298.298.298 0 01.317-.267.285.285 0 01.276.298zM85.503 21.727c-.042.034-.248-.155-.566-.188-.317-.032-.567.103-.598.06-.03-.044.029-.086.14-.149a.815.815 0 01.484-.095c.162.019.315.088.435.197.105.081.127.16.105.175zM86.407 24.21c.174-.035.35-.048.527-.039.082 0 .16 0 .18-.06a.416.416 0 00-.028-.247l-.174-.652c-.24-.916-.405-1.666-.368-1.675.038-.008.261.727.5 1.642l.164.653a.475.475 0 010 .324.204.204 0 01-.146.104.55.55 0 01-.139 0 2.078 2.078 0 01-.516-.05zM85.72 20.489c-.041.082-.354 0-.73.013-.377.013-.692.074-.733 0-.018-.04.043-.115.174-.187a1.272 1.272 0 011.115 0c.129.059.19.135.174.174zM88.617 21.067c-.063.066-.274-.032-.537-.063-.263-.03-.492 0-.535-.084-.02-.04.024-.11.128-.166a.785.785 0 01.87.12c.08.083.102.16.074.194z" fill="#263238"/><path d="M82.023 22.457c-.033-.02-1.377-.572-1.483.848-.107 1.42 1.342 1.233 1.348 1.192.007-.041.135-2.04.135-2.04z" fill="#FFBE9D"/><path d="M81.49 23.927s-.026.016-.07.033a.248.248 0 01-.184 0 .613.613 0 01-.242-.57.821.821 0 01.096-.348.287.287 0 01.2-.176.127.127 0 01.141.078c.016.042 0 .07.013.072.013.002.033-.022.026-.08a.158.158 0 00-.05-.094.187.187 0 00-.134-.045.348.348 0 00-.274.2.842.842 0 00-.116.389.652.652 0 00.316.64.265.265 0 00.228-.022c.046-.042.055-.074.05-.077z" fill="#EB996E"/><path d="M89.674 20.65a3.005 3.005 0 01-2.592-.88c-.46-.482-.781-1.136-1.392-1.397a1.692 1.692 0 00-1.305.039 3.262 3.262 0 00-1.07.792c.287 1.087-.107 2.24-.494 3.303a.566.566 0 01-.2.31c-.18.11-.422-.018-.55-.186a1.757 1.757 0 01-.285-.963 5.853 5.853 0 01.259-2.295 3.986 3.986 0 011.305-1.885 3.775 3.775 0 012.74-.716 4.638 4.638 0 012.573 1.242c.34.294.603.667.763 1.087" fill="#263238"/><path d="M86.505 25.113a1.414 1.414 0 01-.182.359.477.477 0 01-.34.197.435.435 0 01-.36-.197.683.683 0 01-.1-.412c0-.13.065-.284.193-.3a.325.325 0 01.157.035l.678.274" fill="#EB996E"/><path d="M86.234 25.667a.98.98 0 01-.361-.045.517.517 0 01-.275-.248.543.543 0 01.06-.537c.025-.029.02-.027.051-.022.03.004.072.028.11.043l.11.046.387.152c.117.056.242.094.37.111a1.235 1.235 0 00-.335-.19l-.378-.175-.11-.05a1.23 1.23 0 00-.123-.05.158.158 0 00-.1 0 .186.186 0 00-.074.058.583.583 0 00-.076.129.637.637 0 00.022.541.58.58 0 00.637.29c.056-.024.089-.046.085-.053z" fill="#263238"/><path d="M99 84.221l1.583 4.598s5.207-.065 5.581.755l-8.804 3.395-2.762-7.064L99 84.22z"/><path d="M97.715 89.489a.385.385 0 00-.092.507.37.37 0 00.5.093.407.407 0 00.094-.537.385.385 0 00-.533-.04" fill="#E0E0E0"/><path opacity=".6" d="M97.36 92.969l-.25-.722 8.536-2.976s.457.02.52.313L97.36 92.97z" fill="white"/><path d="M100.709 88.719c.016.044-.191.146-.35.365-.158.22-.202.435-.248.435-.045 0-.078-.274.12-.537s.474-.306.478-.263zM101.782 88.745c.026.037-.133.183-.218.422-.085.24-.043.446-.087.461-.043.015-.165-.217-.065-.513.1-.296.352-.411.37-.37zM102.732 89.648c-.035.023-.178-.168-.159-.435.02-.268.185-.45.218-.42.032.03-.044.202-.057.435-.013.233.039.4-.002.42zM100.233 87.712c0 .046-.217.063-.459.174-.241.11-.395.259-.435.23-.039-.028.087-.252.368-.378.28-.126.535-.07.526-.026z" fill="#263238"/><path d="M66.695 83.617l-.098.128-1.908 2.481-2.36 1.619 3.16 6.09h3.48s-.252-.838-1.924-1.27l-.111-3.344 3.005-3.301"/><path opacity=".6" d="M62.33 87.853l3.16 6.088 3.48.002-.392-.522-2.83-.159-2.916-5.754-.502.345z" fill="white"/><path d="M67.016 91.142c-.026.035-.217-.078-.496-.072-.278.007-.467.12-.493.085-.026-.035.163-.235.491-.237.329-.002.537.198.498.224zM66.969 90.313c-.035.024-.19-.18-.468-.235-.278-.054-.498.072-.522.037-.024-.035.028-.074.126-.126a.653.653 0 01.796.16c.07.086.083.155.068.164zM66.99 89.25c-.039.02-.156-.183-.398-.266-.241-.082-.459 0-.478-.043-.02-.044.035-.066.13-.103a.605.605 0 01.707.25c.055.088.065.153.04.162zM67.923 88.425c-.041.016-.139-.182-.354-.324-.216-.141-.435-.16-.435-.204 0-.044.259-.1.52.078.26.178.31.444.27.45z" fill="#263238"/><path opacity=".6" d="M64.694 88.162a.413.413 0 100-.826.413.413 0 000 .826z" fill="white"/><path d="M78.282 58.564l10.76 15.768 5.815 13.789 4.926-2.634-4.98-13.81-7.319-14.505-9.202 1.392z" fill="#263238"/><path d="M73.839 57.172l-1.796 12.695L64.7 85.883l4.374 2.542 9.34-15.874L83.6 57.172h-9.761z" fill="#263238"/><path d="M69.074 88.425a.488.488 0 01.039-.076l.122-.217.478-.84 1.775-3.077 5.89-10.129 1.098-1.88 3.23-9.725.97-2.875.265-.776.072-.2a.37.37 0 01.028-.068.376.376 0 01-.028.068l-.061.204-.248.78-.933 2.907-3.195 9.736-1.088 1.884-5.918 10.11-1.82 3.063-.496.829-.13.217a.48.48 0 01-.05.065z" fill="#455A64"/><path d="M88.17 50.3l-.364-5.448-1.379-12.843.49-2.68-5.438-2.174-.652 1.305c-3.263.491-4.64 6.936-4.64 6.936l-.112 13.103-3.621 8.882.94.829c1.485.892 15.323.33 15.323.33l-.548-8.24z"/><path opacity=".3" d="M73.839 53.973a17.087 17.087 0 003.284 3.178c.674.506 1.475.987 2.31.854.835-.132 1.405-.793 1.933-1.415l2.973-3.509c.186-.183.319-.414.383-.667a.928.928 0 00-.415-.87 2.025 2.025 0 00-.947-.311c-2.087-.248-4.132.79-6.23.807-.718 0-1.888-.137-2.567.098l-.724 1.827"/><path d="M85.046 45.424a3.215 3.215 0 01.402 4.108l-1.86 2.721-2.698 3.515a2.123 2.123 0 01-3.173.217l-12.308-9.482a1.84 1.84 0 01-.376-2.523l5.002-7.042a1.84 1.84 0 012.57-.435l12.441 8.92z" fill="#455A64"/><path d="M78.671 56.529a.352.352 0 01.033-.066l.109-.184c.098-.161.246-.396.435-.694.39-.6.965-1.46 1.679-2.519.713-1.059 1.572-2.316 2.503-3.725a9.25 9.25 0 00.653-1.107 1.39 1.39 0 00.137-.625 1.061 1.061 0 00-.233-.595c-.274-.353-.685-.596-1.066-.87l-1.176-.835-8.13-5.799-2.447-1.783-.672-.476-.172-.129a.356.356 0 01-.045-.047c.022.01.043.022.063.036l.178.12.677.468 2.477 1.74 8.149 5.772 1.177.837c.378.28.793.522 1.087.9.15.187.238.414.254.653.004.232-.047.462-.147.672a9.25 9.25 0 01-.666 1.122c-.935 1.407-1.803 2.658-2.523 3.713-1.457 2.105-2.334 3.42-2.334 3.42zM83.343 28.897s-3.495-1.85-8.773 6.525l.935 1.087s4.408-7.749 7.32-6.814c2.913.935-1.363 13.156-1.363 13.156s6.407-12.18 1.881-13.954z" fill="#263238"/><path d="M71.666 38.319a4.55 4.55 0 00-.49 5.82l4.757 7.379 3.98-2.453-3.86-6.988s1.79-1.849 3.74-3.928c2.626-2.801 5.42-6.242 3.42-8.217 0 0-1.366-1.087-3.463.544-1.52 1.161-5.82 5.511-8.084 7.843z"/><path d="M96.71 33.07l2.073-.515s.56.502.271 1.022c-.29.597-.55 1.208-.778 1.831l-1.603.518-.453 1.305-2.76-1.177.742-2.446 1.547-1.914 1.165-.176.785.663s-.652.476-1.087-.037l-.535.207.048.321a.485.485 0 00.585.398z" fill="#FFBE9D"/><path d="M98.77 32.64l1.357-.653a.553.553 0 01.511.1l.067.142-1.622 1.061-.314-.65z" fill="#FFBE9D"/><path d="M95.92 34.752a1.43 1.43 0 01.14-.346c.13-.26.2-.547.204-.837a.975.975 0 00-.12-.449 1.324 1.324 0 01-.093-.202.586.586 0 01-.024-.198.979.979 0 01.046-.372c.025.122.037.246.034.37a.67.67 0 00.13.355c.09.15.138.32.142.493a1.725 1.725 0 01-.246.87 1.086 1.086 0 01-.213.316z" fill="#EB996E"/><path d="M102.054 29.806c.019.04.3.457.3.457l-6.181 4.55-.388-.494 6.269-4.513z" fill="#263238"/><path d="M98.245 35.317a.34.34 0 00-.102-.478.967.967 0 00-.533-.122 3.963 3.963 0 00-.904.05.598.598 0 00-.275.113.25.25 0 00-.087.268c.044.113.179.156.299.18.32.063.647.089.974.076" fill="#FFBE9D"/><path d="M97.617 35.402a1.74 1.74 0 01-.583.022c-.09 0-.19-.018-.294-.033a.87.87 0 01-.339-.1.26.26 0 01-.12-.183.303.303 0 01.063-.217.594.594 0 01.385-.19c.258-.041.519-.055.779-.04.218-.015.436.028.63.125a.404.404 0 01.19.392c-.02.109-.08.144-.083.137-.002-.006.035-.048.04-.141a.369.369 0 00-.188-.32 1.226 1.226 0 00-.591-.09 3.915 3.915 0 00-.755.049.503.503 0 00-.317.143.161.161 0 00.028.248c.092.05.194.082.298.094.102.02.198.034.285.045.35.046.572.042.572.059z" fill="#EB996E"/><path d="M98.77 34.051c-.494-.121-.847-.17-1.34-.291a.785.785 0 00-.487-.013c-.153.065-.248.278-.138.4.043.04.095.07.15.087l1.475.578" fill="#FFBE9D"/><path d="M98.426 34.815a3.199 3.199 0 01-.576-.183l-.614-.217-.363-.14a.279.279 0 01-.17-.175.323.323 0 01.044-.246.365.365 0 01.19-.155.556.556 0 01.217-.028c.13.015.26.041.387.078l.635.148c.2.033.394.09.58.168-.2-.016-.4-.045-.596-.09-.182-.032-.402-.07-.652-.123a2.396 2.396 0 00-.37-.07.317.317 0 00-.309.13.218.218 0 00-.032.157.167.167 0 00.106.104l.355.144.605.25c.195.064.383.147.563.248z" fill="#EB996E"/><path d="M99.083 33.282l-1.336-.242a.787.787 0 00-.487.018c-.148.074-.23.295-.11.409.045.037.098.064.156.078l1.507.485" fill="#FFBE9D"/><path d="M98.813 34.03c-.2-.03-.395-.079-.585-.146l-.624-.187-.37-.115a.281.281 0 01-.183-.161.313.313 0 01.022-.248.365.365 0 01.174-.17.55.55 0 01.218-.045c.131.004.263.022.391.052l.64.128c.199.03.395.079.585.146a3.173 3.173 0 01-.599-.068l-.652-.104a2.104 2.104 0 00-.372-.044.31.31 0 00-.296.157c-.146.265.255.285.461.374l.618.218c.197.052.389.123.572.213z" fill="#EB996E"/><path d="M96.377 37.042l-4.023 8.595a2.628 2.628 0 01-3.681 1.173 2.629 2.629 0 01-1.113-1.236l-3.001-6.875 1.705-7.416 4.023 8.654 3.298-4.674 2.792 1.779z"/><path d="M89.732 41.359c.316-.824.549-1.502.52-1.513-.03-.011-.31.648-.626 1.473-.316.824-.549 1.501-.52 1.512.03.011.31-.648.626-1.472zM88.221 50.208c-.012-.06-.02-.12-.024-.18l-.047-.533-.168-1.957-.561-6.453c-.228-2.52-.455-4.8-.637-6.447l-.218-1.957-.06-.53a1.168 1.168 0 01-.016-.185c.017.06.03.12.037.182l.083.529c.067.459.159 1.124.259 1.957.202 1.647.434 3.915.67 6.446.234 2.532.408 4.805.526 6.458l.13 1.957.029.533a.82.82 0 01-.003.18z" fill="#263238"/><path d="M79.076 49.558l.524 1.088s1.04.126 1.47.326c.431.2 1.977 1.544 1.977 1.544a.511.511 0 01-.589.272 7.85 7.85 0 01-.979-.652.52.52 0 00-.348.802c.307.461.653 1 .696 1.087.044.087.72.375 1.231.579a.347.347 0 01-.052.653.161.161 0 01-.091 0s.248.522-.653.371c0 0-.596.407-1.059.155 0 0-.85.191-1.227.067-.376-.124-1.937-2.325-1.937-2.325l-1.355-2.46 2.392-1.507z" fill="#FFBE9D"/><path d="M80.485 53.501c.038.153.098.3.179.435.16.354.403.665.707.907.32.21.69.334 1.074.359.154.024.311.024.465 0a2.095 2.095 0 00-.452-.076 2.475 2.475 0 01-1.018-.374 2.792 2.792 0 01-.702-.844 2.134 2.134 0 00-.253-.407zM80.042 54.008a.909.909 0 00.141.411c.072.14.154.273.246.4.11.164.252.303.417.41.17.087.351.154.538.2l.435.117c.133.046.273.072.415.078a1.461 1.461 0 00-.391-.163 10.542 10.542 0 00-.436-.141 2.762 2.762 0 01-.508-.198 1.461 1.461 0 01-.39-.372 4.351 4.351 0 01-.26-.374c-.131-.222-.183-.372-.207-.368zM79.574 54.634c-.041.029.237.422.6.87a.465.465 0 00.194.137 1.9 1.9 0 00.52.146c.191.024.313 0 .31-.015a1.622 1.622 0 00-.295-.07 2.915 2.915 0 01-.311-.096 1.861 1.861 0 01-.174-.074.377.377 0 01-.148-.104 10.89 10.89 0 00-.48-.572 1.303 1.303 0 00-.216-.222z" fill="#EB996E"/><path d="M85.938 28.99c-.027.362-.081.721-.161 1.075-.046.36-.119.716-.218 1.066a4.115 4.115 0 01.098-1.088c.047-.362.141-.716.28-1.052zM84.042 29.085c.103-.326.163-.598.133-.608-.03-.009-.137.248-.24.574-.103.327-.163.599-.133.608.03.01.137-.247.24-.574zM83.346 28.554c.146-.285.241-.527.214-.54-.028-.015-.169.204-.315.488-.145.284-.241.526-.213.54.027.015.168-.204.314-.488zM81.937 28.27c.262-.343.454-.637.429-.656-.025-.02-.257.244-.52.588-.261.344-.454.638-.429.657.025.02.257-.244.52-.588zM76.075 42.146a3.894 3.894 0 01-.361-.263 3.273 3.273 0 00-2.003-.591c-.145.016-.29.024-.435.024.136-.063.284-.099.435-.105a2.85 2.85 0 012.057.607c.123.088.227.2.307.328zM74.907 39.367c.134.081.252.186.35.309a3.63 3.63 0 01.911 2.03c.028.155.028.312 0 .466a4.769 4.769 0 00-1.257-2.805h-.004z" fill="#263238"/><path d="M79.929 49.012a.873.873 0 01-.085-.132l-.218-.39-.828-1.453-2.758-4.913-.02-.037.029-.03.843-.89 4.466-4.673 1.36-1.407.375-.379c.042-.045.088-.088.137-.126-.036.051-.076.1-.12.144l-.367.391-1.335 1.433-4.442 4.696-.846.887v-.065L78.845 47l.799 1.468.217.398c.027.046.05.095.068.145z" fill="#263238"/><path opacity=".3" d="M77.845 40.241l1.553 1.114c.22-.116.413-.28.563-.479a16.116 16.116 0 002.514-5.409l-4.63 4.774z"/><path d="M80.087 37.797a2.175 2.175 0 00-.252-.825 2.37 2.37 0 00-.615-.698c-.31-.23-.65-.415-1.012-.55-.382-.154-.763-.259-1.102-.396a2.091 2.091 0 01-.812-.528 1.193 1.193 0 01-.295-.583.49.49 0 010-.24s0 .085.04.231c.057.203.164.388.312.537.223.22.493.386.79.487.33.129.717.231 1.104.388.371.139.72.332 1.033.574.257.201.47.455.622.743.103.195.167.407.19.625a.638.638 0 01-.003.235zM87.2 38.767a2.12 2.12 0 01-.29-.02 5.473 5.473 0 00-.787 0c-.333.024-.725.08-1.162.148a9.706 9.706 0 01-1.437.14 3.35 3.35 0 01-1.425-.28 2.271 2.271 0 01-.905-.765 1.625 1.625 0 01-.28-.748 1.113 1.113 0 010-.217c0-.05 0-.077.013-.074.013.002 0 .104.03.287.045.256.149.499.303.709.228.31.532.558.883.717.436.183.907.272 1.38.26.478-.011.954-.054 1.425-.13.435-.06.835-.11 1.172-.123.266-.014.533-.004.796.03.097.01.192.031.283.066zM88.659 36.74a2.355 2.355 0 01-1.573 1.166c-.01-.033.411-.179.846-.503s.698-.683.727-.663zM89.278 38.205a3.218 3.218 0 01-2.038 1.444c.377-.182.74-.388 1.09-.617.334-.255.65-.531.948-.827zM87.482 41.207a3.319 3.319 0 00-1.264-.394 9.172 9.172 0 00-1.45 0 9.942 9.942 0 01-1.793-.01 8.021 8.021 0 01-3.086-1.001 7.487 7.487 0 01-.822-.546 2.125 2.125 0 01-.274-.237c.105.06.206.127.3.202.27.184.549.355.836.511a8.4 8.4 0 003.06.96c.59.056 1.183.063 1.774.019a8.518 8.518 0 011.464.022c.33.037.651.13.95.276.081.039.158.084.23.137.053.032.077.06.075.06zM79.196 38.54a.506.506 0 01-.046.15l-.015.042-.018-.041a1.59 1.59 0 00-.702-.725 3.476 3.476 0 00-.746-.296c-.28-.082-.592-.154-.905-.27a4.133 4.133 0 01-1.722-1.195 3.573 3.573 0 01-.372-.52.823.823 0 01-.103-.218c.018-.01.175.285.533.679a4.333 4.333 0 001.703 1.146c.307.111.614.185.898.272.266.075.522.182.762.32.318.17.563.451.69.79h-.034a.508.508 0 01.077-.134z" fill="#F5F5F5"/></g><defs><clipPath id="clip0"><path fill="white" d="M0 0h121v94H0z"/></clipPath></defs></svg>