<svg viewBox="0 0 129 94" xmlns="http://www.w3.org/2000/svg"><g clip-path="url(#clip0)"><path fill-rule="evenodd" clip-rule="evenodd" d="M.629 39.713c5.853-14.865 32.522-6.666 46.404-15.643 6.907-4.466 3.172-16.731 10.232-20.98 7.33-4.41 17.431-3.662 25.454-.496 7.727 3.05 10.142 11.942 16.516 17.062 9.5 7.63 31.131 8.379 29.697 20.057-1.518 12.361-24.273 8.778-34.242 16.95-6.442 5.28-5.435 15.364-11.767 20.76-9.127 7.78-19.593 18.643-31.638 16.236-11.84-2.365-13.094-18.237-21.11-26.774C20.827 56.931-4.276 52.171.629 39.713z"/><path d="M48.018 57.116s-2.296-1.496-3.347-1.225c-1.051.271-2.407 1.656-2.407 1.656s2.673-.72 3.482-.569c.752.1 1.512.146 2.272.138zM48.79 57.656c-.332.707-.91 1.297-1.231 2.001a3.185 3.185 0 00-.017 2.578 4.533 4.533 0 001.17-2.195 11.26 11.26 0 00.266-2.295l-.187-.089zM48.439 57.476c.104-.289-2.493-.162-3.33.774-.838.936-1.666 1.954-.952 4.318 0 0 1.568-2.561 1.568-2.521 0 .04 2.504-2.006 2.714-2.57z" fill="#E0E0E0"/><path d="M48.458 57.443c-.238.087 2.119.758 3.208.84a3.524 3.524 0 001.749-.257s-1.582-1.808-4.957-.583zM60.382 66.74s1.137-.432 1.455-.134c.319.298 1.634 1.926 2.876 2.026 0 0-1.137-2.257-2.167-2.622-.675-.242-2.164.73-2.164.73z" fill="#E0E0E0"/><path d="M60.674 66.617s-.045-.796-.476-1.216c-.43-.42-1.974-.707-1.974-.707.312.46.693.874 1.132 1.232.409.278.851.51 1.318.691z" fill="#E0E0E0"/><path d="M60.674 66.57s-.792-.01-1.351.914a7.217 7.217 0 00-.816 2.002c.048-.078 1.494-.667 1.872-1.417.23-.469.33-.984.295-1.498zM60.852 66.57s.143 1.762.462 2.06c.319.297.78 1.394.78 1.394s.714-1.595.319-2.357c-.395-.763-1.56-1.096-1.56-1.096zM53.95 69.972c-.09.127-1.903 1.448-2.189 2.088-.285.64-.045 1.619 0 1.917.046.298 1.642-.383 1.903-1.534.178-.814.273-1.64.286-2.47zM54.307 68.983c0 .222.028 2.301.613 3.028a10.19 10.19 0 001.665 1.504s.386-2.64-.428-3.454a4.454 4.454 0 00-1.85-1.078zM54.038 69.341c-.133-.029-1.782-.176-2.567.703a8.077 8.077 0 00-1.222 1.874s2.492-1.156 2.951-1.668c.46-.511.838-.909.838-.909zM55.172 68.385a1.366 1.366 0 011.413-.033c.742.43 1.972 2.105 1.972 2.105s-1.508-.084-2.293-.796a4.966 4.966 0 01-1.092-1.276zM54.1 68.645s-.952-.76-1.687-.93c-.735-.168-2.87.33-2.87.33a4.04 4.04 0 002.483.598c1.481-.118 2.074.002 2.074.002zM50.927 76.376s-.683 1.236 0 1.917c.682.68 1.053 2.046 1.053 2.046s1.19-1.066.588-2.26a3.974 3.974 0 00-1.641-1.703zM49.83 76.407c-.183.085-1.368 1.577-1.458 2.642-.09 1.065-.183 2.89 0 2.77.183-.12 1.503-1.278 1.87-2.385.366-1.108-.412-3.026-.412-3.026zM49.383 76.292c-.183.042-1.903-.256-2.871.889a13.927 13.927 0 00-1.687 2.813s2.508-1.199 3.093-1.857c.585-.658 1.465-1.845 1.465-1.845zM59.166 74.246s-.52 1.45 0 2.726c.297.742.67 1.455 1.113 2.13 0 0 .77-2.557.271-3.237-.5-.68-1.384-1.619-1.384-1.619zM59.452 74.093c.185.16 2.321 3.028 3.774 3.284 1.454.256.238-.11.238-.11s-.459-1.934-1.108-2.732c-.65-.798-2.904-.442-2.904-.442z" fill="#E0E0E0"/><path d="M59.118 74.042a24.058 24.058 0 012.194-1.283c.63-.267 2.656.082 2.656.082s-2.476 1.205-3.073 1.078c-.597-.126-1.777.365-1.777.365M64.608 60.093s-1.367 1.354-1.189 2.413c.131.705.327 1.398.585 2.072l.602-1.861.002-2.624zM64.794 59.822s-.316 2.072.316 2.92c.633.847 1.494 2.445 1.584 2.328.09-.118 1.404-1.228.452-2.793a8.241 8.241 0 00-2.352-2.455zM64.335 60.189s-2.184-.591-2.498.38c-.314.972-.578 1.821-.578 1.821a8.44 8.44 0 011.542-1.19 16.132 16.132 0 001.534-1.011zM54.542 60.738l.178-.144c.517-.412 2.022-1.544 2.783-1.37.753.199 1.49.448 2.203.747 0 0-3.3 1.603-5.164.767z" fill="#E0E0E0"/><path d="M54.984 60.752c0-.154-.991-.403-1.87.444-.877.848-1.012 1.366-1.012 1.366s2.82-.35 2.883-1.81z" fill="#E0E0E0"/><path d="M54.837 60.923s-1.004 1.078-.238 2.136a58.754 58.754 0 011.427 2.073 3.212 3.212 0 000-2.106 7.407 7.407 0 00-1.189-2.103zM58.58 63.609c-.044-.258.32-2.37-2.67-2.162h-.274s1.427 2.157 1.758 2.835c.196.462.514.87.925 1.186.352.295.307-1.601.262-1.86zM59.159 74.153c.018-.33-.035-.66-.158-.97a2.412 2.412 0 00-.556-.834c-.045-.044-.111-.09-.173-.066a.156.156 0 00-.049.042.142.142 0 00-.025.058c-.108.392-.049.809.166 1.16.217.348.49.661.81.93M50.734 76.107a4.987 4.987 0 00-2.424-2.072.37.37 0 00-.202-.038.27.27 0 00-.128.085.242.242 0 00-.055.137.786.786 0 00.238.565 4.305 4.305 0 002.692 1.505" fill="#E0E0E0"/><path d="M62.712 72.987s-.154 0-.428.04a5.054 5.054 0 00-1.13.272 6.6 6.6 0 00-1.503.791c-.562.406-1.093.846-1.591 1.319a59.62 59.62 0 00-2.707 2.595c-.333.344-.595.627-.778.825l-.209.222a.421.421 0 01-.078.073.418.418 0 01.073-.08 23.101 23.101 0 01.947-1.085c.65-.702 1.6-1.632 2.688-2.619a14.602 14.602 0 011.608-1.323c.47-.327.988-.591 1.536-.785.37-.13.758-.212 1.151-.245.108-.005.215-.005.322 0a.463.463 0 01.1 0zM54.23 78.517c-.016 0-.195-.277-.582-.667a4.978 4.978 0 00-1.812-1.15 5.265 5.265 0 00-2.165-.308c-.566.035-.907.133-.911.115.075-.034.155-.06.238-.075a5.062 5.062 0 012.882.174c.703.258 1.33.668 1.83 1.198.15.158.287.328.409.507a.887.887 0 01.111.206z" fill="#E0E0E0"/><path d="M54.818 60.722c.002.02.002.04 0 .06l-.017.178-.071.683c-.064.591-.157 1.45-.26 2.51-.201 2.122-.437 5.057-.432 8.305.005 3.249.254 6.186.43 8.307l.22 2.515.056.685.012.178c.002.02.002.04 0 .06a.263.263 0 010-.06l-.024-.178-.076-.683c-.064-.593-.152-1.45-.254-2.512-.195-2.121-.452-5.059-.464-8.314-.012-3.255.238-6.193.476-8.312.111-1.06.216-1.916.292-2.508l.093-.68.026-.176a.25.25 0 01-.007-.058z" fill="#E0E0E0"/><path d="M61.635 66.441a1.94 1.94 0 01-.319.045c-.204.02-.502.058-.866.113a16.827 16.827 0 00-5.406 1.78 15.78 15.78 0 00-.752.417 1.859 1.859 0 01-.278.151c.079-.067.164-.128.255-.182.166-.113.418-.267.735-.445a15.084 15.084 0 015.432-1.778c.367-.047.666-.072.873-.08.108-.016.217-.023.326-.02zM54.254 65.499a.48.48 0 01-.028-.114l-.062-.329a4.45 4.45 0 00-.11-.516c-.054-.198-.097-.429-.188-.667l-.13-.387c-.045-.133-.11-.266-.17-.409-.109-.284-.268-.573-.425-.89a11.541 11.541 0 00-1.301-1.847 15.02 15.02 0 00-3.187-2.693c-.224-.153-.44-.269-.624-.384-.183-.116-.347-.203-.475-.276l-.305-.178a.539.539 0 01-.102-.067c.04.013.078.029.114.05l.314.155c.136.069.305.153.49.262.186.11.407.223.633.374a14.293 14.293 0 013.228 2.693c.5.58.938 1.207 1.305 1.87.157.29.297.586.421.889.057.145.122.278.165.416l.123.391c.07.224.129.451.174.68.043.172.073.346.093.52l.04.332c.008.041.01.083.007.125z" fill="#E0E0E0"/><path d="M64.95 59.995a.567.567 0 01-.113.047l-.336.118c-.292.098-.713.249-1.227.445a36.169 36.169 0 00-7.576 3.898c-.45.302-.809.553-1.056.731l-.286.202a.548.548 0 01-.104.065.531.531 0 01.09-.08l.274-.223c.238-.186.59-.444 1.037-.76a32.407 32.407 0 017.592-3.907c.519-.184.952-.324 1.242-.411l.343-.1c.039-.013.08-.02.12-.025zM58.638 93.738h-8.587l-.897-9.806h10.488l-1.004 9.806z" fill="#E0E0E0"/><path d="M60.339 83.932h-11.85v1.507h11.85v-1.507z" fill="#E0E0E0"/><path d="M54.345 85.495c3.268 0 5.918-.023 5.918-.051 0-.029-2.65-.051-5.918-.051-3.269 0-5.918.022-5.918.05 0 .029 2.65.052 5.918.052zM96.38 93.884l7.292.054.072-8.605-7.293-.053-.072 8.604z" fill="#EBEBEB"/><path d="M100.889 85.59l-.131 8.332-1.151-.009.245-8.331 1.037.008z" fill="#FAFAFA"/><path d="M92.26 85.526l4.186.031 7.29.053-7.3.899-.062 7.38-4.181-.03.067-8.333z" fill="#E0E0E0"/><path d="M94.538 85.544l-.166 8.332-1.242-.01.202-8.33 1.206.008z" fill="#FAFAFA"/><path d="M97.85 83.009c0 .053-.122.107-.346.158-.317.067-.64.107-.965.12a5.973 5.973 0 01-.688 0c-.124 0-.254-.022-.388-.042a3.388 3.388 0 01-.425-.085 1.275 1.275 0 01-.262-.107.796.796 0 01-.276-.242.685.685 0 01-.119-.376c0-.097.011-.194.036-.289.066-.295.16-.583.28-.862a2.29 2.29 0 01.267-.445c.056-.07.116-.136.18-.198a1.32 1.32 0 01.239-.185 1.038 1.038 0 01.708-.124c.186.05.357.137.5.258.389.307.712.68.951 1.1.163.277.272.578.324.89.028.222 0 .349-.052.36-.12.027-.29-.413-.754-.965-.27-.318-.584-.6-.935-.838a.573.573 0 00-.212-.103.092.092 0 00-.04 0 .268.268 0 00-.065.032.593.593 0 00-.092.077 1.093 1.093 0 00-.103.12 1.726 1.726 0 00-.176.3 5.341 5.341 0 00-.25.732.6.6 0 00-.02.107h-.022c-.026 0-.034.013-.015 0l.027-.018a.08.08 0 00.021.018.496.496 0 00.105.051c.106.036.215.066.326.091.111.03.226.051.333.071.218.043.428.072.62.096.388.049.714.08.935.122.221.043.352.123.352.176z" fill="#E0E0E0"/><path d="M97.7 83.071c-.02-.108.525-.266 1.376-.5a12.51 12.51 0 001.428-.48c.111-.041.215-.096.311-.162.034-.025.05-.05.045-.047-.004.002 0 .031 0 .015a.608.608 0 00-.052-.12l-.104-.202a3.441 3.441 0 00-.222-.371 1.39 1.39 0 00-.406-.398.716.716 0 00-.134-.067.355.355 0 00-.214-.018.744.744 0 00-.257.14 5.438 5.438 0 00-.996 1.012c-.49.65-.619 1.158-.74 1.14-.052 0-.093-.144-.074-.395.037-.353.144-.697.314-1.014a4.48 4.48 0 011-1.27c.146-.135.322-.238.515-.304a1.18 1.18 0 01.714 0c.107.035.209.082.304.14a2.232 2.232 0 01.636.62c.101.147.192.301.271.46l.107.223c.05.1.086.205.107.313a.672.672 0 01-.081.445.882.882 0 01-.271.278c-.155.095-.323.17-.5.222a7.89 7.89 0 01-1.598.358c-.9.111-1.46.08-1.48-.018z" fill="#EBEBEB"/><path d="M90.936 85.512l10.72.079.024-2.848-10.72-.08-.024 2.85z" fill="#E0E0E0"/><path d="M94.878 85.542l9.69.071.024-2.848-9.69-.071-.024 2.848z" fill="#EBEBEB"/><path d="M101.614 82.747l-.066 2.861-1.132-.022.078-2.846 1.12.007zM93.587 82.702l-.11 2.835-1.244-.009.07-2.848 1.284.022z" fill="#FAFAFA"/><path d="M104.45 93.909l4.132.03.041-4.876-4.132-.03-.041 4.876z" fill="#EBEBEB"/><path d="M107.004 89.21l-.073 4.721-.654-.004.14-4.72.587.004z" fill="#FAFAFA"/><path d="M102.114 89.175l2.371.015 4.134.032-4.138.509-.034 4.182-2.371-.018.038-4.72z" fill="#E0E0E0"/><path d="M103.406 89.184l-.093 4.72-.704-.004.114-4.723.683.007z" fill="#FAFAFA"/><path d="M105.282 87.747c0 .072-.271.16-.744.196-.291.022-.583 0-.866-.067a.585.585 0 01-.335-.222.437.437 0 01-.077-.238c0-.06.007-.12.022-.178.037-.17.091-.337.162-.498.042-.091.094-.177.157-.258a.921.921 0 01.257-.222.597.597 0 01.444-.071c.113.03.216.084.302.158.225.178.41.397.545.642.224.423.19.723.119.732-.071.009-.193-.223-.461-.527a2.751 2.751 0 00-.528-.456.25.25 0 00-.1-.047l-.017.011a.445.445 0 00-.095.098.933.933 0 00-.093.16 3.088 3.088 0 00-.14.405l-.012.049H103.75c-.014 0-.019 0 0 0a.217.217 0 00.041-.034v-.013c.014.01.03.018.047.025.233.072.472.124.714.155.44.076.73.123.73.2z" fill="#E0E0E0"/><path d="M105.197 87.783c-.015-.082.292-.193.768-.338.271-.08.537-.176.797-.284a.694.694 0 00.157-.085c.014 0 .014-.018 0 0a.118.118 0 00-.015.058l-.083-.162a1.82 1.82 0 00-.121-.2.855.855 0 00-.133-.15.496.496 0 00-.131-.086.125.125 0 00-.069-.011.319.319 0 00-.119.062c-.211.16-.4.344-.564.547-.283.351-.378.63-.475.618-.098-.011-.146-.343.085-.827.138-.28.33-.533.566-.747a.893.893 0 01.319-.19.759.759 0 01.461 0 .94.94 0 01.191.087 1.222 1.222 0 01.387.367c.061.087.114.178.16.272l.062.126c.031.063.054.13.066.198a.451.451 0 01-.054.305.583.583 0 01-.176.182 1.2 1.2 0 01-.303.14c-.298.097-.608.16-.922.19-.519.041-.84.004-.854-.072z" fill="#E0E0E0"/><path d="M101.367 89.165l6.075.045.014-1.614-6.075-.045-.014 1.614z" fill="#E0E0E0"/><path d="M103.603 89.18l5.49.04.014-1.614-5.49-.04-.014 1.614z" fill="#EBEBEB"/><path d="M107.416 87.598l-.038 1.621-.64-.01.043-1.615.635.004zM102.866 87.574l-.062 1.605-.704-.004.038-1.614.728.013z" fill="#FAFAFA"/><path d="M46.483 0H14.996v48.722h31.487V0z" fill="#E0E0E0"/><path d="M45.437 0H13.949v48.722h31.488V0z" fill="#EBEBEB"/><path d="M44.093.987H15.288v46.746h28.805V.987z" fill="#FAFAFA"/><path d="M38.486 7.062H20.773V41.66h17.713V7.062z" fill="#EBEBEB"/><path d="M20.773 29.418c-.04-3.231 3.069-6.386 6.491-6.838 1.632-.222 3.368.087 4.893-.498 2.724-1.043 3.59-4.425 6.33-5.428l.126 25.006h-17.84V29.418z" fill="#E0E0E0"/><path d="M106.833 77.953l-49.063-.02a2.847 2.847 0 01-1.941-.753 2.486 2.486 0 01-.804-1.816l.038-68.055c0-.338.07-.672.208-.984.137-.313.34-.596.595-.835.255-.24.558-.429.892-.558.333-.13.691-.196 1.052-.196l49.064.025c.36 0 .718.067 1.051.196.333.13.636.319.89.557.255.239.457.522.595.834.138.312.209.646.208.983l-.038 68.056c0 .68-.29 1.333-.805 1.814a2.848 2.848 0 01-1.942.752z" fill="#263238"/><path d="M107.78 9.806H56.661V70.93h51.119V9.806z" fill="white"/><path d="M82.303 76.218c1.156 0 2.093-.876 2.093-1.957 0-1.08-.937-1.956-2.093-1.956s-2.093.876-2.093 1.956c0 1.081.937 1.957 2.093 1.957zM90.264 6.855H74.413c-.16 0-.29.122-.29.271v.267c0 .15.13.271.29.271h15.85c.161 0 .291-.121.291-.27v-.268c0-.15-.13-.27-.29-.27z" fill="#455A64"/><path d="M105.603 62.475a.64.64 0 01-.434-.168.555.555 0 01-.179-.406l.023-43.395c0-.152.065-.298.18-.405a.636.636 0 01.434-.168c.163 0 .319.06.434.168.115.107.18.253.18.405l-.026 43.393a.556.556 0 01-.178.406.626.626 0 01-.434.17z" fill="#E0E0E0"/><path d="M92.928 14.806c0 .032-4.743.056-10.592.054-5.849-.002-10.592-.031-10.592-.062s4.74-.056 10.592-.054c5.851.002 10.592.04 10.592.063zM61.628 15.91h.259l.7-.016-.022.02v-.474-.273a.25.25 0 01.083-.14.28.28 0 01.155-.065h.335c.066.009.127.04.17.086a.248.248 0 01.068.17v.691l-.035-.033h.882l-.038.036v-1.028-.262a.251.251 0 00-.04-.109.27.27 0 00-.084-.082l-.385-.356-.371-.345-.181-.167c-.062-.055-.11-.113-.18-.126a.254.254 0 00-.2.035c-.053.043-.11.103-.165.152l-.333.27c-.2.194-.406.372-.556.537a.547.547 0 00-.045.307v1.058a.86.86 0 010 .109.639.639 0 010-.098v-.293l-.012-.472V14.584c0-.06.017-.12.05-.173.164-.19.359-.354.559-.552l.314-.3c.057-.051.102-.102.17-.158a.315.315 0 01.26-.046.476.476 0 01.214.142l.18.167.374.342.386.356a.346.346 0 01.1.106.32.32 0 01.045.136v1.325H63.329v-.033-.692a.188.188 0 00-.049-.127.213.213 0 00-.125-.068h-.319a.22.22 0 00-.122.05.195.195 0 00-.066.108v.756H61.728l-.1-.014zM102.083 13.7a.03.03 0 00-.012-.009.035.035 0 00-.014-.003h-2.869l-.016-.111-.031-.222a.033.033 0 00-.012-.021.037.037 0 00-.024-.008h-.578c-.045 0-.076 0-.076.035 0 .036.029.034.076.036h.528l.295 2.13a.033.033 0 00.012.02.037.037 0 00.024.009h2.335c.055 0 .081 0 .081-.036 0-.035-.026-.033-.081-.035l-2.278-.03-.055-.377 2.395.031a.036.036 0 00.023-.007.033.033 0 00.013-.02l.176-.89.095-.477a.031.031 0 00-.007-.016zm-2.885.048l2.778.034-.238 1.247h-2.35l-.19-1.28zM100.03 16.06a.251.251 0 00-.095-.148.3.3 0 00-.269-.044.285.285 0 00-.137.097.255.255 0 000 .307.285.285 0 00.233.113c.062 0 .124-.02.173-.056a.253.253 0 00.1-.146.625.625 0 000-.122h-.005zm-.335.223a.187.187 0 01-.089-.065.168.168 0 010-.2.187.187 0 01.089-.064.198.198 0 01.064 0c.041 0 .081.012.114.035a.19.19 0 01.074.098v.038-.007.038a.19.19 0 01-.076.098.203.203 0 01-.188.031l.012-.002zM101.543 16.072a.253.253 0 00-.095-.15.303.303 0 00-.269-.044.282.282 0 00-.139.097.254.254 0 00-.054.156c0 .055.019.11.054.154a.3.3 0 00.408.057.252.252 0 00.1-.146.163.163 0 000-.062.186.186 0 00-.005-.062zm-.335.222a.188.188 0 01-.089-.064.166.166 0 01-.033-.1c0-.036.011-.071.033-.1a.188.188 0 01.089-.065.202.202 0 01.064 0 .2.2 0 01.188.133.239.239 0 010 .038v.011a.239.239 0 010 .038.19.19 0 01-.076.098.201.201 0 01-.164.013l-.012-.002zM69.708 64.37c0 .315-.238.504-.647.504h-.428v.467h-.167v-1.479h.593c.406.01.651.2.649.507zm-.166 0c0-.236-.167-.372-.476-.372h-.433v.74h.42c.322.01.489-.126.489-.369zM71.133 64.24v1.112h-.155v-.203a.462.462 0 01-.181.167.501.501 0 01-.247.056.49.49 0 01-.373-.128.428.428 0 01-.107-.161.403.403 0 01-.022-.19v-.644h.16v.63a.292.292 0 00.085.26.354.354 0 00.271.098.412.412 0 00.303-.115.34.34 0 00.102-.29v-.583l.164-.009zM72.182 64.234v.135h-.038a.41.41 0 00-.303.117.338.338 0 00-.097.292v.567h-.162v-1.111h.143v.222a.436.436 0 01.19-.178.477.477 0 01.267-.044zM72.339 64.796a.516.516 0 01.041-.221.546.546 0 01.133-.187.622.622 0 01.44-.157.55.55 0 01.27.05.51.51 0 01.205.172l-.119.076a.397.397 0 00-.15-.123.48.48 0 00-.523.086.42.42 0 00-.135.306.42.42 0 00.135.307.48.48 0 00.328.127.426.426 0 00.195-.04.396.396 0 00.15-.123l.12.076a.514.514 0 01-.206.172.554.554 0 01-.27.05.623.623 0 01-.442-.16.548.548 0 01-.132-.188.517.517 0 01-.04-.223zM74.817 64.71v.644h-.16v-.63a.29.29 0 00-.01-.138.307.307 0 00-.076-.12.355.355 0 00-.27-.097.414.414 0 00-.308.11.36.36 0 00-.088.134.342.342 0 00-.02.156v.583h-.162v-1.568h.143v.652a.495.495 0 01.194-.156.534.534 0 01.25-.047.485.485 0 01.379.122.422.422 0 01.108.163c.022.062.03.127.02.191zM76.144 64.665v.69h-.154v-.174a.439.439 0 01-.178.144.474.474 0 01-.231.04c-.27 0-.433-.13-.433-.324s.116-.316.459-.316h.378v-.067c0-.19-.114-.293-.338-.293a.633.633 0 00-.395.131l-.07-.111a.791.791 0 01.475-.15.453.453 0 01.356.104.396.396 0 01.106.148.372.372 0 01.025.178zm-.161.356v-.183h-.374c-.238 0-.304.085-.304.198 0 .114.112.21.3.21.08.004.16-.015.228-.055s.12-.1.15-.17zM76.416 65.227l.07-.118a.748.748 0 00.424.125c.238 0 .32-.071.32-.182 0-.29-.772-.063-.772-.5 0-.183.167-.319.476-.316a.849.849 0 01.421.104l-.071.12a.64.64 0 00-.35-.095c-.214 0-.31.078-.31.184 0 .3.772.074.772.503 0 .19-.181.318-.49.316a.834.834 0 01-.49-.14zM78.72 64.847h-.994a.414.414 0 00.15.287.449.449 0 00.326.1.506.506 0 00.364-.144l.09.097a.64.64 0 01-.316.168.669.669 0 01-.362-.024.625.625 0 01-.287-.207.563.563 0 01-.083-.536.533.533 0 01.122-.184.577.577 0 01.417-.168.602.602 0 01.42.164.497.497 0 01.155.4l-.001.047zm-.994-.113h.845a.387.387 0 00-.135-.26.44.44 0 00-.288-.106.44.44 0 00-.287.105.387.387 0 00-.135.26zM81.39 64.244l-.453 1.112h-.152l-.376-.911-.376.911h-.152l-.447-1.112h.155l.373.945.383-.945h.138l.378.945.378-.945h.15zM82.493 64.67v.688h-.155v-.173a.44.44 0 01-.177.144.474.474 0 01-.232.04c-.269 0-.433-.13-.433-.324s.12-.316.46-.314h.378v-.066c0-.192-.115-.294-.338-.294a.633.633 0 00-.395.131l-.071-.11a.792.792 0 01.475-.15.453.453 0 01.356.102.396.396 0 01.106.148.371.371 0 01.026.177zm-.162.355v-.183h-.378c-.238 0-.305.085-.305.198 0 .114.112.21.3.21a.401.401 0 00.233-.054.362.362 0 00.153-.173l-.003.002zM82.764 65.232l.074-.118a.749.749 0 00.423.125c.238 0 .319-.072.319-.183 0-.289-.77-.062-.77-.5 0-.182.166-.318.475-.316a.85.85 0 01.421.105l-.069.12a.64.64 0 00-.35-.096c-.214 0-.309.078-.309.185 0 .3.77.073.77.502 0 .192-.18.318-.49.316a.833.833 0 01-.494-.14zM84.465 65.232l.073-.118a.749.749 0 00.424.125c.238 0 .319-.072.319-.183 0-.289-.771-.062-.771-.5 0-.182.166-.318.476-.316a.85.85 0 01.42.105l-.068.12a.64.64 0 00-.35-.096c-.214 0-.31.078-.31.185 0 .3.772.073.772.502 0 .192-.181.318-.49.316a.833.833 0 01-.495-.14zM86.808 64.249v1.112h-.155v-.203a.463.463 0 01-.181.167.502.502 0 01-.247.056.489.489 0 01-.373-.127.427.427 0 01-.107-.162.404.404 0 01-.022-.19v-.644h.16v.63a.292.292 0 00.085.26.354.354 0 00.271.098.413.413 0 00.303-.115.358.358 0 00.085-.135.34.34 0 00.017-.155v-.583l.164-.009zM87.138 64.814a.516.516 0 01.042-.221.546.546 0 01.133-.187.62.62 0 01.44-.156.549.549 0 01.27.049c.083.04.154.099.205.172l-.12.076a.398.398 0 00-.15-.123.48.48 0 00-.523.086.42.42 0 00-.135.306.42.42 0 00.136.307.48.48 0 00.328.127.425.425 0 00.195-.04.395.395 0 00.15-.123l.119.076a.512.512 0 01-.206.172.554.554 0 01-.27.05.627.627 0 01-.239-.036.592.592 0 01-.202-.123.548.548 0 01-.133-.19.517.517 0 01-.04-.222zM88.39 64.814a.514.514 0 01.04-.221.547.547 0 01.134-.187.62.62 0 01.44-.156.548.548 0 01.27.049c.084.04.154.099.205.172l-.12.076a.398.398 0 00-.15-.123.48.48 0 00-.523.086.42.42 0 00-.135.306.42.42 0 00.136.307.48.48 0 00.328.127.425.425 0 00.195-.04.394.394 0 00.15-.123l.119.076a.513.513 0 01-.206.172.555.555 0 01-.27.05.627.627 0 01-.239-.036.593.593 0 01-.202-.123.518.518 0 01-.172-.412zM90.799 64.852h-.997a.392.392 0 00.15.287.45.45 0 00.326.1.504.504 0 00.364-.145l.09.098a.64.64 0 01-.315.167.67.67 0 01-.362-.023.624.624 0 01-.288-.208.562.562 0 01-.082-.537.532.532 0 01.124-.184.61.61 0 01.421-.165.602.602 0 01.42.168.497.497 0 01.15.403l-.001.039zm-.994-.114h.844a.386.386 0 00-.134-.26.44.44 0 00-.288-.106.44.44 0 00-.288.106.386.386 0 00-.134.26zM90.963 65.236l.072-.117a.748.748 0 00.423.124c.238 0 .319-.071.319-.182 0-.29-.771-.063-.771-.5 0-.183.166-.319.476-.316a.85.85 0 01.42.104l-.068.12a.64.64 0 00-.367-.1c-.214 0-.309.078-.309.185 0 .3.77.073.77.502 0 .192-.18.318-.49.316a.834.834 0 01-.475-.136zM92.07 65.236l.073-.118a.748.748 0 00.423.125c.238 0 .319-.071.319-.182 0-.29-.77-.063-.77-.5 0-.183.166-.319.475-.316a.85.85 0 01.421.104l-.069.12a.64.64 0 00-.35-.095c-.214 0-.309.078-.309.184 0 .3.77.074.77.503 0 .19-.18.318-.49.315a.835.835 0 01-.494-.14zM93.525 64.12v.131h.366v.118h-.361v.985h-.16v-.985h-.211v-.127h.211v-.138a.29.29 0 01.098-.242.333.333 0 01.261-.087.397.397 0 01.238.07l-.054.11a.284.284 0 00-.176-.055c-.129.011-.212.082-.212.22zM95.18 64.254v1.111h-.145v-.202a.462.462 0 01-.18.167.502.502 0 01-.248.055.489.489 0 01-.373-.127.406.406 0 01-.13-.35v-.645h.16v.629a.292.292 0 00.086.26.355.355 0 00.271.098.412.412 0 00.303-.115.34.34 0 00.102-.29v-.582l.154-.01zM95.63 63.795h.16v1.568h-.16v-1.568z" fill="#263238"/><path d="M72.248 60.215h-.854v-.378h2.184v.378h-.854v2.028h-.476v-2.028zM75.83 61.192v1.051h-.459v-.987c0-.327-.173-.484-.475-.484a.553.553 0 00-.414.155.457.457 0 00-.133.398v.927h-.46V59.7h.46v.927a.885.885 0 01.3-.18.931.931 0 01.354-.054c.478-.006.828.245.828.799zM78.06 61.167v1.076h-.436v-.222a.693.693 0 01-.275.198.741.741 0 01-.344.049c-.45 0-.732-.223-.732-.55 0-.326.221-.547.816-.547h.506v-.026c0-.251-.161-.398-.49-.398a1.019 1.019 0 00-.594.182l-.181-.313c.244-.155.535-.233.83-.223.571-.006.9.245.9.774zm-.46.503v-.223h-.476c-.311 0-.397.111-.397.245 0 .133.14.253.376.253a.53.53 0 00.295-.064.482.482 0 00.202-.211zM80.58 61.192v1.051h-.459v-.987c0-.327-.173-.484-.475-.484a.553.553 0 00-.414.155.48.48 0 00-.115.185.456.456 0 00-.018.213v.927h-.452v-1.836h.437v.238a.857.857 0 01.307-.2.908.908 0 01.369-.058c.473-.01.82.242.82.796zM81.967 61.456l-.342.303v.484h-.46V59.7h.46v1.54l.951-.824h.552l-.82.769.896 1.065h-.559l-.678-.794zM86.358 60.407l-.92 1.983c-.181.416-.43.543-.76.543a.85.85 0 01-.525-.17l.183-.315c.092.08.212.126.338.127.162 0 .257-.071.345-.254l.033-.073-.856-1.843h.476l.618 1.358.621-1.358.447.002zM86.427 61.325a.93.93 0 01.158-.553c.11-.166.271-.296.462-.376.19-.08.402-.104.607-.07.206.034.396.124.546.26.15.135.254.31.297.5.043.192.024.39-.054.57a.995.995 0 01-.386.445 1.1 1.1 0 01-.586.167 1.05 1.05 0 01-.4-.057 1 1 0 01-.342-.201.925.925 0 01-.227-.313.872.872 0 01-.075-.372zm1.63 0a.522.522 0 00-.113-.294.58.58 0 00-.267-.188.621.621 0 00-.334-.02.593.593 0 00-.29.155.512.512 0 00-.115.589.555.555 0 00.214.24c.094.06.206.091.32.092a.607.607 0 00.428-.165.53.53 0 00.125-.19.5.5 0 00.031-.219zM90.863 60.407v1.836h-.438v-.233a.799.799 0 01-.285.196.852.852 0 01-.347.062c-.504 0-.847-.258-.847-.812v-1.05h.46v.99c0 .334.168.492.458.492a.55.55 0 00.408-.159.456.456 0 00.13-.395v-.927h.461zM91.382 61.999a.253.253 0 01.088-.192.289.289 0 01.21-.073.299.299 0 01.205.075.261.261 0 01.084.19.262.262 0 01-.084.192.288.288 0 01-.206.077.305.305 0 01-.21-.076.256.256 0 01-.088-.194zm.026-2.164h.535l-.093 1.61h-.364l-.078-1.61z"/><path d="M88.225 23.812l-.694 9.205a2.797 2.797 0 01-.968 1.897 3.187 3.187 0 01-2.091.771c-.42 0-.835-.08-1.22-.236a3.079 3.079 0 01-1.019-.671 2.844 2.844 0 01-.65-.994c-.14-.37-.2-.762-.172-1.154.061-.876.116-1.592.116-1.592s-2.378-.347-2.412-2.572c-.016-1.286.222-4.203.424-6.449a2.853 2.853 0 011-1.9 3.247 3.247 0 012.113-.768h1.427c.59.03 1.165.172 1.695.414.529.243 1 .582 1.387.998.387.416.68.9.863 1.425.183.524.251 1.077.201 1.626z" fill="#FFBE9D"/><path d="M81.527 31.027a6.046 6.046 0 003.092-.856s-.763 1.619-3.142 1.419l.05-.563z" fill="#EB996E"/><path d="M79.986 24.143c.043.042.3-.138.666-.136.366.002.635.171.673.131.038-.04-.024-.093-.14-.173a.979.979 0 00-.54-.156.94.94 0 00-.53.16c-.11.08-.148.154-.13.174zM83.25 25.092c-.001.083.033.163.094.223s.145.095.234.098a.349.349 0 00.239-.075.292.292 0 00.11-.212.308.308 0 00-.094-.223.351.351 0 00-.234-.098.349.349 0 00-.24.075.31.31 0 00-.077.096.29.29 0 00-.033.116zM79.981 25.092c0 .083.033.163.095.223.061.06.145.095.233.098a.348.348 0 00.24-.075.306.306 0 00.11-.212.307.307 0 00-.095-.223.351.351 0 00-.233-.098.349.349 0 00-.24.075.31.31 0 00-.078.096.288.288 0 00-.032.116zM83.52 24.188c.043.042.3-.138.666-.136.367.002.636.171.674.129.038-.043-.024-.094-.14-.174a.978.978 0 00-.54-.155.94.94 0 00-.531.16c-.11.082-.148.158-.129.175zM82.22 26.85a2.575 2.575 0 00-.595-.1c-.093 0-.181-.028-.198-.088a.422.422 0 01.062-.258l.276-.667c.383-.947.661-1.725.62-1.74-.04-.016-.384.742-.767 1.69l-.264.666a.476.476 0 00-.048.343c.014.03.035.058.062.08a.243.243 0 00.093.046c.052.013.105.02.159.02.199.026.4.029.6.007zM83.297 27.087c-.06 0-.06.37-.4.632s-.763.222-.766.275c-.002.054.096.071.274.076.233.003.46-.071.64-.21a.792.792 0 00.309-.528c.014-.156-.03-.247-.057-.245zM83.544 22.949c.036.093.402.049.83.098.428.049.778.158.833.073.026-.04-.036-.127-.176-.222a1.552 1.552 0 00-1.268-.131c-.145.064-.233.137-.219.182zM79.931 23.109c.064.078.317 0 .621 0s.559.051.618-.029c.027-.04-.014-.118-.126-.191a.945.945 0 00-.999.029c-.107.073-.142.153-.114.191z" fill="#263238"/><path d="M87.424 25.484c.04-.016 1.636-.445 1.584 1.07-.052 1.514-1.665 1.158-1.677 1.111-.012-.047.093-2.181.093-2.181z" fill="#FFBE9D"/><path d="M87.847 27.107s.029.02.076.042a.301.301 0 00.212 0 .69.69 0 00.254-.246.633.633 0 00.09-.332.823.823 0 00-.066-.382.302.302 0 00-.076-.129.33.33 0 00-.13-.08.154.154 0 00-.098.005.142.142 0 00-.072.061c-.023.043-.014.074-.023.076-.01.002-.034-.027-.02-.089a.17.17 0 01.067-.093.226.226 0 01.16-.034.41.41 0 01.177.088c.05.042.089.096.11.157.065.134.094.28.084.427a.657.657 0 01-.114.384.726.726 0 01-.322.26.327.327 0 01-.257-.048c-.05-.032-.057-.065-.052-.067z" fill="#EB996E"/><path d="M88.328 25.43a.905.905 0 00-.447.087.838.838 0 00-.336.29c-.107.222-.128.464-.238.68a.545.545 0 01-.23.275.607.607 0 01-.362.085.507.507 0 01-.22-.13.46.46 0 01-.12-.217 1.207 1.207 0 010-.491c.095-.712.257-1.417.285-2.133a3.46 3.46 0 00-.475-2.07c-.403-.61-1.142-1.058-1.903-1-.507.037-.97.284-1.473.35-.3.038-.603.01-.89-.079a2.017 2.017 0 01-.763-.436 3.715 3.715 0 00-.309-.207.84.84 0 01.171-.471c.997-.863 2.795-1.112 4.113-.794.67.154 1.295.443 1.834.846.538.402.976.91 1.284 1.486.566 1.154.4 2.76.086 3.927" fill="#263238"/><path d="M79.28 21.615c.124.224.309.414.535.552.227.137.489.216.758.23.54.02 1.08-.055 1.59-.222a13.239 13.239 0 012.447-.338c.08 0 .178 0 .221-.062.043-.062-.033-.187-.119-.25-.713-.52-2.426-.837-3.33-.873a2.81 2.81 0 00-1.312.234 2.613 2.613 0 00-1.024.802" fill="#263238"/><path d="M79.513 21.677a3.156 3.156 0 011.774-.75c2.06-.164 5.438.428 7.21 3.743a7.189 7.189 0 00.37-1.763c0-.445-.29-3.149-3.256-4.003 0 .003-4.472-1.592-6.099 2.773z"/><path opacity=".4" d="M79.513 21.677a2.998 2.998 0 011.986-.843c1.843-.075 5.325.714 6.998 3.838a7.19 7.19 0 00.37-1.763c0-.445-.29-3.149-3.256-4.002 0 0-4.472-1.595-6.099 2.77z"/><path d="M88.22 24.194c-.889-1.405-2.223-2.359-3.65-3.197-1.428-.838-3.806-1.668-5.447-2.075a3.805 3.805 0 00-1.506-.146c-.253.03-.492.125-.69.276a1.27 1.27 0 00-.426.577c-.154.576.94 1.468 1.454 1.817.504.314 1.027.602 1.565.863 0 0-.015-1.074 1.817-1.29 2.493-.296 6.957 3.235 6.884 3.175z"/><path d="M84.893 20.016a6.912 6.912 0 00-3.449-.785c.171-.049.35-.071.528-.066a5.049 5.049 0 012.483.564c.162.073.31.17.438.287z" fill="white"/><path d="M97.188 56.293c0 .031-6.09.058-13.6.058-7.512 0-13.602-.027-13.602-.058 0-.031 6.09-.058 13.601-.058 7.512 0 13.6.027 13.6.058z" fill="#263238"/><path d="M71.963 38.1l-3.501 1.481-5.433-4.14-1.665 2.446s3.092 3.335 4.24 4.482c1.15 1.148 1.904 1.744 2.815 1.635.91-.11 6.063-2.382 6.063-2.382s-1.218-3.38-2.52-3.522z" fill="#FFBE9D"/><path d="M57.066 33.35s.682.48 1.13.445c.447-.035 2.14-.038 2.264-.029.124.01 1.774.848 1.774.848l1.209 1.087-1.903 2.463s-.314-.335-.526-.31c-.212.024-2.818-.185-3.21-.31-.393-.124-.895-.195-1.026-.422-.13-.227-.162-.387.2-.678a.571.571 0 01-.158-.16.533.533 0 01-.071-.422.542.542 0 01.098-.197s-.542-.371-.347-.713c0 0-.31-.118-.357-.3a1.83 1.83 0 01.021-.572l.778-.222s-.233-.254.124-.507z" fill="#FFBE9D"/><path d="M56.761 33.907s.036-.016.1-.032c.094-.03.192-.048.29-.055.156.007.304.06.424.153a.459.459 0 01.164.227.43.43 0 01-.002.273.353.353 0 01-.08.133.383.383 0 01-.132.09 1.36 1.36 0 01-.255.067l-.418.08c-.128.034-.26.05-.393.046.116-.059.241-.101.371-.124l.412-.105c.157-.035.328-.07.373-.222a.335.335 0 00.002-.207.357.357 0 00-.12-.173.698.698 0 00-.35-.154 2.27 2.27 0 00-.279.018c-.069.005-.107-.015-.107-.015zM57.736 34.55a.572.572 0 01.184-.047c.169-.033.34-.05.513-.054.265-.01.526.053.752.183a.605.605 0 01.283.362.39.39 0 01-.022.251.425.425 0 01-.173.194 1.28 1.28 0 01-.492.093l-.447.033-.757.05c-.232.024-.466.03-.7.015.228-.052.46-.085.693-.098l.754-.073.445-.04c.15 0 .3-.029.44-.083a.309.309 0 00.127-.137.284.284 0 00.02-.18.505.505 0 00-.238-.298 1.367 1.367 0 00-.687-.187c-.426-.011-.692.04-.694.015zM59.344 35.439s.05 0 .1.069a.346.346 0 01.045.313.542.542 0 01-.144.199.589.589 0 01-.222.121c-.191.052-.39.077-.59.074-.818.035-1.467.186-1.477.153a4.36 4.36 0 011.473-.269c.188.004.376-.016.558-.058a.521.521 0 00.19-.09.482.482 0 00.134-.157.319.319 0 000-.264c-.04-.067-.074-.083-.067-.091zM62.042 35.868a.844.844 0 01-.343.124 2.662 2.662 0 01-1.736-.222c-.2-.102-.305-.194-.297-.205.73.358 1.573.464 2.378.298l-.002.005z" fill="#EB996E"/><path d="M59.33 34.732c.017-.03.186.026.393 0 .206-.027.361-.11.383-.083.021.027-.12.174-.37.198-.249.025-.425-.091-.406-.115zM59.145 37.162c.046-.235.172-.45.359-.614.187-.163.426-.265.68-.291a5.23 5.23 0 00-.592.378 4.923 4.923 0 00-.447.527z" fill="#EB996E"/><path d="M53.5 43.557h10.333L65.75 57.68H51.483L53.5 43.557z"/><path d="M63.833 43.557h1.194l3.525 14.124H65.75l-1.917-14.124z"/><path opacity=".3" d="M63.833 43.557h1.194l3.525 14.124H65.75l-1.917-14.124z"/><path d="M58.062 36.212s.031-.015.084 0a.31.31 0 01.18.131.343.343 0 01.034.32.556.556 0 01-.281.285c-.165.07-.345.103-.526.096l.046-.03c-.136.243-.298.352-.31.337-.012-.016.11-.145.214-.378v-.027h.034a1.33 1.33 0 00.475-.1.484.484 0 00.238-.222.272.272 0 000-.243c-.069-.14-.192-.151-.188-.169z" fill="#EB996E"/><path d="M56.126 44.173a1.278 1.278 0 01.022-.287c.021-.185.061-.445.118-.774.112-.651.303-1.556.526-2.53.224-.974.426-1.875.56-2.522l.159-.767c.012-.095.035-.19.069-.28.003.096-.004.192-.022.287-.021.184-.062.444-.119.773a50.254 50.254 0 01-.526 2.53c-.223.975-.425 1.875-.558 2.522l-.16.767c-.012.096-.035.19-.069.28zM61.58 44.315a1.847 1.847 0 01-.114-.325l-.266-.889a208.81 208.81 0 01-.835-2.968c-.319-1.161-.602-2.224-.802-2.978l-.238-.905a1.812 1.812 0 01-.066-.335c.048.104.086.213.114.324l.266.89c.222.758.517 1.807.835 2.968.319 1.16.602 2.224.802 2.977l.238.905c.032.11.055.223.066.336z"/><path d="M68.554 57.68a2.96 2.96 0 01-.497-.324c-.297-.222-.713-.511-1.144-.847l-.224-.171.09-.014c-.277.392-.527.736-.713.979-.089.136-.194.263-.314.378.063-.148.143-.29.238-.42.167-.254.405-.605.678-.999l.038-.053.052.04.224.169c.442.336.84.645 1.123.874.164.114.314.245.45.389z" fill="#263238"/><path d="M66.726 56.291c.034-.005-.446-2.86-1.072-6.377-.625-3.517-1.16-6.363-1.193-6.358-.034.005.446 2.86 1.072 6.377.625 3.517 1.16 6.363 1.193 6.358z" fill="#263238"/><path d="M64.437 47.566a2.494 2.494 0 01-.238.222 4.291 4.291 0 01-.787.5 4.905 4.905 0 01-1.427.459 4.499 4.499 0 01-1.991-.11 2.486 2.486 0 01-1-.569 1.718 1.718 0 01-.544-1.07 1.303 1.303 0 01.108-.637c.09-.202.228-.38.406-.523.189-.15.424-.24.67-.26.253-.016.504.034.728.142.228.107.428.258.586.445.156.196.27.419.333.656.12.485.12.99 0 1.474a4.923 4.923 0 01-1.623 2.668c-.419.359-.902.646-1.427.85a3.724 3.724 0 01-1.61.258 2.849 2.849 0 01-1.47-.532 1.931 1.931 0 01-.787-1.2c-.09-.456.01-.927.278-1.317.122-.187.296-.341.503-.445.207-.105.44-.156.674-.148.113.01.223.041.323.092.1.05.188.119.26.201.134.153.225.334.267.527.067.366.02.743-.136 1.085a2.981 2.981 0 01-1.325 1.38 4.844 4.844 0 01-1.427.481 7.705 7.705 0 01-.952.114H52.506h.083l.238-.023a8.86 8.86 0 00.937-.133 4.88 4.88 0 001.394-.491 2.92 2.92 0 001.28-1.355c.147-.327.19-.688.123-1.038a1.079 1.079 0 00-.237-.498.75.75 0 00-.23-.177.8.8 0 00-.287-.08 1.293 1.293 0 00-.617.142c-.189.098-.347.24-.458.413-.25.368-.34.812-.254 1.24.088.453.355.857.747 1.135.405.294.894.47 1.405.507 1.05.078 2.117-.383 2.933-1.079a4.826 4.826 0 001.587-2.597 2.95 2.95 0 000-1.423 1.694 1.694 0 00-.312-.618 1.606 1.606 0 00-.544-.425 1.348 1.348 0 00-.669-.133c-.224.017-.437.1-.609.235a1.295 1.295 0 00-.375.486c-.083.186-.117.389-.1.59.04.384.22.742.51 1.015.266.252.593.442.952.553.63.185 1.3.227 1.95.123a4.949 4.949 0 001.416-.445c.282-.134.548-.295.794-.48.086-.06.148-.114.19-.147a.45.45 0 01.084-.04z" fill="white"/><path d="M79.058 33.773h-1.862c-.602.196-5.438 4.043-5.438 4.043l2.733 4.015 3.544-1.936 1.023-6.122z" fill="#455A64"/><path d="M77.196 33.773l4.115-1.46s.601 1.178 2.433.926c1.832-.25 3.994-1.46 3.994-1.46s3.154 1.685 4.084 2.385c.93.7-.752 15.416-.752 15.416l-.42 4.41s.33.222.33.982.03 1.263.03 1.263h-16.3s-.397-1.779-.097-2.47a8.96 8.96 0 01.796-1.403l.255-6.795.09-6.066 1.442-5.728z" fill="#455A64"/><path d="M91.824 34.167s1.316.347 1.706 2.17c.39 1.823.316 8.787.316 8.787l-7.345-1.487s.996-2.924.996-3.113c0-.19 2.022-4.907 2.094-5.008.071-.1 2.233-1.35 2.233-1.35z" fill="#455A64"/><path d="M75.718 42.074c.034 0 .042-1.219.018-2.72-.024-1.502-.07-2.72-.105-2.719-.034 0-.042 1.219-.019 2.72.024 1.502.071 2.719.106 2.719zM88.418 37.29a.922.922 0 01-.029.243c-.026.154-.069.376-.126.652a33.65 33.65 0 01-.525 2.123c-.231.823-.476 1.557-.662 2.093-.095.264-.173.477-.237.624a.951.951 0 01-.103.223.934.934 0 01.057-.238l.195-.634c.167-.536.393-1.274.624-2.097.23-.823.423-1.57.559-2.112l.164-.643a.944.944 0 01.083-.233zM87.71 38.542c.043-.772.05-1.4.017-1.402-.034-.001-.097.624-.141 1.396-.044.773-.051 1.4-.017 1.402.034.002.097-.623.14-1.396z" fill="#263238"/><path d="M84.32 39.499c.87 0 1.577-.026 1.577-.058s-.706-.058-1.577-.058-1.577.026-1.577.058.706.058 1.577.058z" fill="white"/><path d="M77.479 49.44l8.127-.914 1.283-4.81 4.547.921s-1.798 6.671-3.65 7.322c-1.854.652-11.023-.444-11.023-.444l.716-2.075z" fill="#FFBE9D"/><path d="M77.148 49.385c-.439-.175-.891-.318-1.353-.43-.378-.05-.82.025-.933.196l-2.185 1.19s-1.62-.145-1.775.195c0 0-1.035-.273-1.201-.078 0 0-.516.156-.433.379.083.222 1.955.836 1.955.836l2.562.244s.978-.496 1.384-.536c.39-.002.78.027 1.166.087-.033 0 1.498.16 1.498.16s.314-.311.438-1.174 0-1.045 0-1.045l-1.123-.024z" fill="#FFBE9D"/><path d="M76.061 50.48s-.069 0-.16-.057c-.09-.058-.168-.202-.31-.294a.858.858 0 00-.281-.08.673.673 0 01-.353-.144.576.576 0 01-.187-.36.478.478 0 01.138-.414.906.906 0 01.38-.203.951.951 0 01.438-.008c.227.05.437.15.614.293.116.093.224.194.323.303.069.076.105.122.097.127-.007.004-.178-.152-.475-.365a1.494 1.494 0 00-.583-.254.848.848 0 00-.381.01.81.81 0 00-.333.175.44.44 0 00.04.618c.158.151.427.111.603.223.108.1.207.21.295.329.08.08.14.093.135.102zM74.705 50.085c0 .02-.123.014-.297.087a4.775 4.775 0 01-.713.311c-.263.03-.529.01-.783-.058a2.827 2.827 0 01-.314-.042c0-.013.121-.051.323-.038.246.04.497.049.745.025.271-.065.502-.223.7-.274.197-.05.344-.024.34-.01zM74.76 51.041s-.047.04-.147.091a2.426 2.426 0 01-.45.16 4.691 4.691 0 01-1.58.085c-.306-.036-.594-.08-.858-.116a2.87 2.87 0 01-.702-.146.426.426 0 01-.209-.19.318.318 0 01-.03-.202c.025-.115.104-.142.104-.138 0 .005-.05.045-.057.143a.31.31 0 00.064.193.346.346 0 00.174.12c.22.063.45.102.68.116l.854.107a5.356 5.356 0 001.546-.05c.38-.082.602-.186.611-.173zM86.948 50.47a8.547 8.547 0 00-.528-.95 8.936 8.936 0 00-.747-.811c.34.186.63.441.85.746.22.305.366.651.425 1.015z" fill="#EB996E"/><path d="M26.344 76.728l-.312 14.842 3.846.387 2.643-15.114-2.076-2.441-4.101 2.326z" fill="#FFBE9D"/><path d="M30.35 91.223v.242s4.374 1.7 4.412 2.477l-8.727-.135V91.09a5.722 5.722 0 004.315.133z"/><path d="M26.032 93.806l.04-.651 8.352.37s.385.164.338.42l-8.73-.138zM24.755 31.376c-.062-.682-.502-1.376-1.201-1.583l-.804.432a1.869 1.869 0 00-.926.93 1.705 1.705 0 00-.045 1.27c-.513.302-.878.78-1.016 1.331a2.027 2.027 0 00.281 1.614c-.523.222-.747.823-.737 1.36.01.539.193 1.061.238 1.597.04.414 0 .834.08 1.243.027.207.107.405.234.576.128.17.298.31.497.405.223.066.462.07.687.01a1.2 1.2 0 00.578-.348c.3-.34.489-.754.543-1.192.216-1.243-.065-2.54.268-3.76.184-.667.54-1.274.84-1.899.3-.625.545-1.303.483-1.986z" fill="#263238"/><path d="M24.367 31.288a2.702 2.702 0 01-1.3-.344 2.478 2.478 0 01-.932-.912 2.273 2.273 0 01-.31-1.228 2.29 2.29 0 01.401-1.205.65.65 0 01.293-.265c.271-.1.552.105.761.296L24.786 29" fill="#263238"/><path d="M24.41 29.53c-1.13-.5-2.02-1.682-2.348-2.81-.328-1.127.05-3.41.376-4.54.397-1.374 1.006.393 1.506.538a.975.975 0 01.379.246c.103.109.177.24.215.381.074.284.097.577.07.867l-.198 5.317M27.3 18.329c1.89-.95 3.406-.39 4.143.15.738.541 1.19 1.362 1.454 2.198.264.836.39 1.712.609 2.561.135.49.231.988.29 1.49.11.73.071 2.028-.326 2.668a4.468 4.468 0 01-1.427 1.541c-.238.14-.497.285-.756.21a.898.898 0 01-.429-.368 33.282 33.282 0 01-4.778-8.93" fill="#263238"/><path d="M25.195 20.37l3.273-1.234.856.089c1.927 0 3.268 1.979 3.287 3.44.022 1.62-.019 3.602-.287 4.798-.543 2.406-2.548 2.622-2.548 2.622s.024.667.045 1.463a2.4 2.4 0 01-.194 1.004c-.136.32-.34.61-.6.853-.26.243-.57.435-.91.564-.341.128-.706.191-1.074.185a2.817 2.817 0 01-1.887-.76 2.464 2.464 0 01-.782-1.777l-.04-10.422a.828.828 0 01.259-.569.943.943 0 01.602-.256z" fill="#FFBE9D"/><path d="M31.779 24.27a.303.303 0 01-.104.213.346.346 0 01-.234.085.338.338 0 01-.23-.083.298.298 0 01-.098-.213.303.303 0 01.104-.213.346.346 0 01.234-.085.339.339 0 01.23.084.298.298 0 01.098.212zM31.929 23.492c-.043.038-.286-.147-.645-.165-.36-.018-.63.14-.666.096-.036-.045.029-.091.148-.162a.965.965 0 011.044.053c.107.087.14.16.119.178zM29.743 26.111c.192-.046.389-.07.587-.071.093 0 .179-.018.198-.076a.42.42 0 00-.048-.255l-.238-.667c-.326-.945-.556-1.72-.516-1.73.04-.012.338.742.664 1.687l.223.667a.467.467 0 01.029.338.228.228 0 01-.065.076.245.245 0 01-.092.042.661.661 0 01-.157.014 2.49 2.49 0 01-.585-.025z" fill="#263238"/><path d="M29.779 30.085a6.93 6.93 0 01-3.428-1.03s.835 1.726 3.444 1.619l-.017-.59zM29.514 26.836a.639.639 0 00-.248-.215.693.693 0 00-.33-.07.55.55 0 00-.234.048.515.515 0 00-.187.141.407.407 0 00-.026.445.473.473 0 00.216.16c.087.031.183.039.274.02.177-.045.34-.128.476-.242a.352.352 0 00.105-.103.246.246 0 00-.046-.184z" fill="#EB996E"/><path d="M28.672 26.293c.06 0 .04.363.36.636.318.274.735.254.735.305 0 .051-.096.067-.272.062a1.007 1.007 0 01-.613-.222.77.77 0 01-.276-.532c-.003-.164.045-.25.066-.249zM31.879 22.567c-.067.073-.31-.018-.607-.036s-.55.025-.604-.058c-.024-.04.021-.113.133-.18a.93.93 0 01.976.074c.102.073.13.153.102.2zM27.823 24.25a.3.3 0 00.09.22c.058.058.14.094.227.098a.342.342 0 00.235-.07.303.303 0 00.078-.092.283.283 0 00.034-.114.3.3 0 00-.09-.219.343.343 0 00-.226-.099.338.338 0 00-.236.07.303.303 0 00-.078.092.283.283 0 00-.034.114zM27.152 23.456c.04.04.295-.131.655-.124.359.006.618.175.659.135.04-.04-.022-.09-.136-.171a.96.96 0 00-1.047-.007c-.114.071-.152.145-.13.167zM27.307 22.391c.062.078.31 0 .607 0s.547.058.606-.022c.026-.038-.012-.116-.121-.189a.927.927 0 00-.978.018c-.104.078-.14.147-.114.193zM28.092 18.878c-.83-.311-2.098-.207-2.81.298a3.391 3.391 0 00-1.317 2.117c-.162.822.055 2.039.288 2.846 1.34-1.617 2.721-3.48 4.015-5.13l-.176-.131z" fill="#263238"/><path d="M28.725 18.144c4.548-.598 4.127 5.83 4.127 5.83-.455-2.368-3.982-4.847-3.982-4.847l-.714-.113.569-.87z" fill="#263238"/><path d="M24.614 25.293c0-.18-.19-.616-.38-.654-.507-.098-1.427-.102-1.499 1.112-.1 1.652 1.696 1.405 1.701 1.358.005-.046.148-1.191.178-1.816z" fill="#FFBE9D"/><path d="M24.17 26.45s-.031.017-.086.037a.328.328 0 01-.238 0 .726.726 0 01-.255-.293.671.671 0 01-.059-.374.904.904 0 01.112-.407.332.332 0 01.092-.131.363.363 0 01.146-.078.166.166 0 01.105.015.15.15 0 01.07.074c.022.047 0 .08.018.082.016.002.04-.027.028-.096a.182.182 0 00-.064-.106.25.25 0 00-.169-.051.45.45 0 00-.203.078.41.41 0 00-.135.162.93.93 0 00-.135.445c0 .333.154.655.406.738a.353.353 0 00.286-.03c.064-.026.085-.062.08-.066z" fill="#EB996E"/><path d="M22.536 21.34a6.088 6.088 0 012.433-2.756 4.496 4.496 0 011.903-.751c.345-.05.698-.022 1.029.082.33.104.63.28.874.514l.128.122c-.782 1.621-1.332 2.99-2.34 4.5-.371.554-.528 2.446-.619 3.089-.304 2.212-1.598 3.16-1.598 3.16-2.81 0-2.262-6.827-1.81-7.96z" fill="#263238"/><path d="M23.915 29.037a.825.825 0 01-.347-.104 2.286 2.286 0 01-1.168-1.199.696.696 0 01-.078-.333c.163.344.376.667.632.958.286.265.61.494.961.678zM23.57 31.19a1.41 1.41 0 01-.73-.253 1.272 1.272 0 01-.459-.586c.17.175.349.34.538.496.21.125.428.24.651.343zM22.389 33.218c.027-.018-.09-.215-.262-.44-.172-.224-.334-.391-.362-.373-.027.019.09.216.262.44.172.225.334.392.362.373zM21.476 35.723c.026-.021-.057-.15-.186-.286-.128-.137-.252-.23-.278-.21-.026.022.057.15.185.286.128.137.253.23.279.21zM22.012 25.082c.107-.07.219-.13.336-.183a8.02 8.02 0 00.392-.209c.155-.087.326-.178.51-.296a12.21 12.21 0 001.246-.873c.48-.39.93-.811 1.346-1.261.409-.455.783-.938 1.118-1.443.267-.416.505-.846.713-1.29.098-.187.165-.364.238-.516.074-.15.12-.287.16-.395.036-.116.083-.23.14-.338-.021.119-.053.237-.095.35a3.959 3.959 0 01-.14.406c-.065.155-.124.335-.217.527-.204.452-.443.89-.714 1.311a10.96 10.96 0 01-2.488 2.731c-.401.315-.827.604-1.272.863-.186.115-.366.202-.521.284a5.24 5.24 0 01-.407.194c-.11.054-.226.1-.345.138zM26.391 23.1s-.04.06-.13.158-.238.223-.405.387a8.852 8.852 0 01-3.26 1.812 7.375 7.375 0 01-.558.145.759.759 0 01-.209.031c0-.018.286-.093.738-.251a10.597 10.597 0 003.235-1.78c.363-.313.575-.515.59-.502zM32.992 25.213c.016-.123.041-.244.074-.363a5.75 5.75 0 00.116-.992 5.475 5.475 0 00-.845-3.145 6.02 6.02 0 00-2.528-2.222 6.813 6.813 0 00-.984-.387 3.296 3.296 0 01-.374-.118.34.34 0 01.102.014c.065.013.165.026.286.062.349.088.687.208 1.01.358a5.937 5.937 0 012.597 2.235 5.384 5.384 0 01.67 4.206c-.029.116-.062.203-.081.263a.292.292 0 01-.043.089z" fill="#455A64"/><path d="M54.071 40.244a.501.501 0 00-.078.516.88.88 0 00.354.335c.24-.23.437-.493.585-.782M53.039 39.961a.54.54 0 00-.175.215.501.501 0 00-.04.268.839.839 0 00.253.41 3.11 3.11 0 00.773-.623" fill="#EB996E"/><path d="M29.581 32.63s7.823 5.755 9.234 5.944c1.41.189 8.01-.558 10.718-.638l.383 2.123s-7.476 2.373-10.195 2.468c-2.719.096-4.281-.591-4.281-.591l-5.084-4.867-.775-4.439zM49.366 37.958s3.494-.465 4.044-.222c.55.242 2.103 1.485 2.103 1.485s.518 1.368.192 1.432c-.326.065-.666-.445-.666-.445l-.454-.742-1.95-.445-3.24.267-.029-1.33z" fill="#FFBE9D"/><path d="M49.916 40.06c.05.057 1.298.62 1.934.604.634-.016 1.36-.478 1.902-.41.543.07 1.68.154 1.818-.03a.389.389 0 00.121-.28.39.39 0 00-.121-.28c-.186-.165-1.102-.328-1.763-.494a2.735 2.735 0 01-.98-.423l-3.846.396-.219 1.112 1.154-.196z" fill="#FFBE9D"/><path d="M51.578 38.712a.673.673 0 01.203-.013c.183.005.365.026.544.062.582.138 1.155.308 1.715.509.31.096.628.166.952.209a.83.83 0 01.425.154.397.397 0 01-.017.63.456.456 0 01-.237.081c-.138 0-.202-.04-.2-.044.064.005.129.005.193 0a.378.378 0 00.185-.081.341.341 0 00.11-.16.32.32 0 000-.191.34.34 0 00-.107-.162.747.747 0 00-.374-.12 5.291 5.291 0 01-.973-.205c-.67-.209-1.253-.444-1.698-.54-.445-.096-.72-.107-.72-.13z" fill="#EB996E"/><path d="M54.097 39.39a1.12 1.12 0 01-.566-.267c-.278-.204-.435-.433-.409-.444.026-.012.219.166.476.36.257.193.525.32.5.351z" fill="#EB996E"/><path d="M22.84 76.24l-7.088 2.951.851 3.538s8.915-2.484 11.832-3.035c2.916-.552 7.642-1.254 8.976-3.9l-14.57.447z" fill="#FFBE9D"/><path d="M17.283 82.796l-.238.062s-.568 4.345-1.353 4.585l-2.177-7.805 2.77-.72a4.659 4.659 0 00.065 2.036c.172.668.49 1.295.933 1.842z"/><path d="M13.507 79.638l.675-.138 1.839 7.532s-.065.386-.338.411l-2.176-7.805z" fill="#263238"/><path d="M37.385 75.896a.916.916 0 01-.076.187c-.09.171-.204.33-.34.473a7.826 7.826 0 01-1.748 1.303 8.392 8.392 0 01-1.404.614c-.56.179-1.131.327-1.71.445-1.208.284-2.535.611-3.927.954l-7.136 1.758-2.16.528-.592.13a1.45 1.45 0 01-.21.038c.066-.024.134-.044.203-.06l.585-.153 2.155-.551c1.822-.463 4.336-1.112 7.122-1.793 1.391-.342 2.719-.667 3.932-.945a16.675 16.675 0 001.703-.444 8.364 8.364 0 003.151-1.86c.183-.185.336-.396.452-.624z" fill="#EB996E"/><path d="M26.123 47.47l.159 1.306s-2.455 4.338-2.455 6.67c0 2.333-1.132 20.86-1.132 20.86s13.32.709 14.726-.508l1.408-1.214 4.757-1.214-7.433-25.348v-1.359l-10.03.808z" fill="#263238"/><path d="M35.235 53.75a.167.167 0 01.014.05l.026.152.09.585.324 2.152c.279 1.817.692 4.323 1.225 7.075.533 2.753 1.09 5.237 1.51 7.029l.507 2.121.136.578.033.151a.17.17 0 010 .054.173.173 0 01-.019-.05l-.045-.148-.16-.572a97.718 97.718 0 01-.544-2.112c-.445-1.779-1.011-4.269-1.546-7.026a139.791 139.791 0 01-1.19-7.087 94.772 94.772 0 01-.283-2.157l-.066-.587-.014-.153a.17.17 0 01.002-.056zM25.668 56.071a.753.753 0 01.055.147l.136.427.492 1.57a105.238 105.238 0 003.81 10.177l.664 1.512.178.411a.738.738 0 01.055.147.77.77 0 01-.078-.138l-.2-.403a61.255 61.255 0 01-.7-1.498 85.247 85.247 0 01-2.074-5.039 82.348 82.348 0 01-1.738-5.147c-.2-.667-.355-1.205-.455-1.581l-.111-.431a.743.743 0 01-.034-.154zM36.614 48.624a2.663 2.663 0 01-.4.047c-.256.022-.63.05-1.093.074-.923.053-2.203.097-3.616.104a67.501 67.501 0 01-3.615-.078 40.58 40.58 0 01-1.094-.064 2.676 2.676 0 01-.4-.043c.134-.01.268-.01.402 0l1.094.03a117.143 117.143 0 007.224-.03l1.094-.037c.135-.011.27-.012.404-.003z" fill="#455A64"/><path d="M29.795 31.697c-.064-.143 4.724 3.428 5.326 5.167.602 1.739.713 6.755.713 6.755l.336 3.22-9.57.631-.256-.631-.714-1.795-.977-2.71s-2.358-3.422-2.824-4.892c-.58-1.83.383-3.704.383-3.704l2.16-2.277 5.423.236z"/><path d="M24.374 31.617s-.53-.92-.202-1.321c.26-.318 4.862.08 5.804.267.552.109 0 1.258 0 1.258l-5.602-.204z"/><path opacity=".3" d="M27.131 35.952c.402.97-.166 3.983-.252 4.701-.108.715-.285 1.42-.528 2.106-.105.322-.202.691 0 .974.314.444 1.123.324 1.513.724-.736.32-1.561.41-2.355.256a.648.648 0 01-.374-.169.601.601 0 01-.114-.282 7.83 7.83 0 01-.11-3.207c.208-1.056 1.288-3.59 2.196-4.258"/><path d="M27.3 37.284a3.798 3.798 0 01-1.218 1.897c-.028-.022.319-.4.652-.925s.53-.985.566-.972zM29.974 31.712a.85.85 0 01-.22.056c-.142.029-.349.062-.608.095a12.161 12.161 0 01-4.041-.18 6.741 6.741 0 01-.595-.153.835.835 0 01-.212-.078c0-.018.317.058.826.149a15.06 15.06 0 004.022.189c.506-.049.823-.096.828-.078zM33.342 40.355c-.022 0 .061-.247.126-.645a4.569 4.569 0 00-.576-3.035c-.207-.353-.373-.551-.357-.565.017-.013.053.04.133.127.111.124.212.257.3.396.597.927.806 2.028.585 3.09a2.91 2.91 0 01-.135.468.513.513 0 01-.076.164z" fill="#263238"/><path opacity=".3" d="M27.007 31.866c-.8-.052-1.595-.157-2.378-.316a6.673 6.673 0 003.658.685c.46-.054.951-.176 1.249-.503-.7.258-1.777.196-2.529.134zM32.402 41.378c.427-.423.749-.928.941-1.48a3.688 3.688 0 00.175-1.715c.113.377.172.768.176 1.16.05.452-.067.906-.333 1.285-.293.376-.464.603-.952.75"/><path d="M25.737 33.998a2.428 2.428 0 00-.826-.428 2.536 2.536 0 00-1.844.161c-.28.141-.527.333-.726.565a1.588 1.588 0 00-.098.129c-.497.696-1.865 11.536-1.32 12.834.545 1.299 1.34 1.205 1.34 1.205s3.586-.038 6.167-.593c2.58-.556 5.456-1.47 5.456-1.47l-.475-2.626s-6.318.783-8.054.596l.663-5.277s1.51-1.72 1.078-3.297c-.21-.75-.804-1.363-1.36-1.799zM35.401 42.16l1.428-.889 1.02-.805a1.014 1.014 0 01-.193.847c-.318.445-.849 1.112-.849 1.112l-1.406-.264z" fill="#FFBE9D"/><path d="M37.516 41.623c-.012 0 .08-.103.178-.294.134-.266.167-.566.093-.852l.086.025-1.016.811-.076.047-.894.556c-.241.156-.49.3-.747.431a5.36 5.36 0 01-.714.347c.213-.155.438-.295.673-.418.217-.118.46-.275.73-.444l.888-.563.076-.047 1.028-.798.066-.051.02.076c.074.307.025.629-.139.904a1.043 1.043 0 01-.162.207c-.059.045-.085.067-.09.063z" fill="#EB996E"/><path d="M34.888 44.397c.047-.088 3.777-3.975 4.697-4.931a.422.422 0 01.615.026.358.358 0 01.065.324.366.366 0 01-.087.148l-4.776 4.965-.514-.532z" fill="#263238"/><path d="M38.858 42.701c.152-.194-.076-.574-.288-.667-.212-.093-1.054.331-1.054.331l-.307.027s-1.639-.31-1.693-.285a5.377 5.377 0 00-1.19.667 2.138 2.138 0 00-.42.472c-.127.178-.431.473-1.145.633l.695 2.64s1.522-.336 1.639-.336c.116 0 1.391-.098 1.56-.124.513-.12.997-.33 1.427-.616.547-.38.29-.703.29-.703.566-.358.124-.714.124-.714l.157-.251c.238-.402-.238-.625-.238-.625.16-.139.308-.289.443-.449z" fill="#FFBE9D"/><path d="M37.725 43.52c0-.03.17-.105.371-.223.203-.118.357-.222.381-.21.024.014-.102.176-.319.301-.216.125-.423.16-.433.131zM38.404 44.15c.09-.07.149-.146.129-.169-.02-.022-.11.016-.202.086-.091.07-.15.146-.13.168.02.023.111-.015.203-.085zM38.037 44.822c0-.029.093-.062.202-.102.11-.04.205-.073.224-.05.019.025-.055.105-.183.15-.129.044-.243.031-.243.002zM37.516 42.356c-.28.075-.571.113-.863.114-.288.035-.578.05-.869.044.271-.108.563-.162.857-.16.29-.038.585-.038.875.002zM24.802 45.084c.375-.4.66-.74.634-.761-.026-.022-.352.285-.727.684-.376.4-.66.74-.634.762.026.02.351-.286.727-.685z" fill="#EB996E"/><path d="M27.04 37.153c-.011 0 .017-.118.039-.331.034-.297.02-.597-.045-.89a3.195 3.195 0 00-.698-1.3 3.48 3.48 0 00-1.231-.888 2.414 2.414 0 00-1.666-.102c-.455.122-.844.4-1.089.778a2.82 2.82 0 00-.34.834c-.02.11-.048.217-.083.323a.23.23 0 010-.087c.006-.082.018-.164.033-.245.044-.301.142-.594.29-.865a1.74 1.74 0 01.438-.491c.206-.154.44-.271.69-.347a2.508 2.508 0 011.76.098 3.31 3.31 0 011.377 1.043c.296.361.502.78.604 1.225a2.476 2.476 0 01-.057 1.156c-.007.062-.019.091-.021.09z" fill="#263238"/><path d="M44.683 26.645H34.93a.74.74 0 00-.505.195.646.646 0 00-.21.472v8.836c0 .177.076.347.21.472a.74.74 0 00.505.195h3.591l1.404 1.86 1.217-1.86h3.542c.19 0 .37-.07.505-.195a.646.646 0 00.209-.472v-8.825a.628.628 0 00-.051-.26.664.664 0 00-.155-.22.757.757 0 00-.51-.198z" fill="#FAFAFA"/><path d="M44.683 26.645a.73.73 0 01.617.294.659.659 0 01.127.377l.017 2.953c0 1.265 0 2.788.014 4.516v1.334a.698.698 0 01-.191.517.798.798 0 01-.522.246H41.14l.05-.027-1.216 1.86-.047.072-.052-.07-1.404-1.857.05.024H34.835a.821.821 0 01-.294-.09.772.772 0 01-.234-.19.753.753 0 01-.164-.538V33.97v-3.958-1.843-.89a.7.7 0 01.172-.42.785.785 0 01.404-.246c.15-.026.304-.034.456-.025h2.89l4.834.018h1.772-1.772l-4.834.018h-2.89a1.938 1.938 0 00-.43.022.679.679 0 00-.348.214.606.606 0 00-.147.364v8.785a.636.636 0 00.335.628.69.69 0 00.248.077H38.537l.019.025 1.4 1.858h-.1l1.218-1.856.017-.027H44.718a.702.702 0 00.326-.107.65.65 0 00.224-.242.602.602 0 00.069-.313v-1.335c0-1.727 0-3.25.014-4.516l.017-2.952a.64.64 0 00-.155-.412.738.738 0 00-.273-.198 1.003 1.003 0 00-.257.005z" fill="#263238"/><path d="M41.44 33.09h-3.37v-.017l-.054-.369-.395-2.668.014.01H36.774h.873v.012l.411 2.668.055.37-.021-.018h3.285l.064.013z" fill="#263238"/><path d="M38.066 33.155a.044.044 0 01-.024-.011.04.04 0 01-.012-.022l-.447-3.013h-.754c-.067 0-.098 0-.1-.042-.003-.043.033-.045.1-.047H37.645c.01 0 .02.004.028.01a.04.04 0 01.014.026l.462 2.997 3.225.013c.079 0 .107 0 .11.042 0 .04-.031.04-.11.045h-3.306l-.002.002z" fill="#263238"/><path d="M37.994 32.446h3.444l-.021.018.238-1.245.123-.654.022.024h-4.018 4.037v.025l-.121.653-.238 1.246v.017H37.999l-.005-.084z" fill="#263238"/><path d="M37.996 32.488c-.019 0-.045 0-.045-.042s.043-.04.057-.042h3.368l.334-1.78-3.992-.012c-.019 0-.064 0-.062-.043.003-.042.04-.04.062-.042h4.096c.006 0 .013.001.018.003.006.003.011.006.015.011a.038.038 0 01.01.033l-.364 1.939a.04.04 0 01-.015.024.044.044 0 01-.028.009l-3.449-.013-.005-.045zM38.931 33.942s0-.029-.019-.073a.33.33 0 00-.455-.19.31.31 0 00-.127.109.282.282 0 000 .31.31.31 0 00.127.11.335.335 0 00.455-.19c.014-.047.014-.076.02-.074a.149.149 0 010 .078.309.309 0 01-.122.183.363.363 0 01-.333.05.353.353 0 01-.171-.12.317.317 0 010-.383.354.354 0 01.171-.121.372.372 0 01.333.051c.062.045.105.11.121.182a.15.15 0 010 .078z" fill="#263238"/><path d="M38.536 34.312a.407.407 0 01-.23-.111.352.352 0 01-.048-.457.394.394 0 01.202-.15.418.418 0 01.374.057c.07.051.117.124.135.205a.89.89 0 010 .17.351.351 0 01-.135.208.404.404 0 01-.298.078zm.103-.62a.286.286 0 00-.265.105.243.243 0 000 .29.27.27 0 00.13.093.295.295 0 00.258-.033.274.274 0 00.12-.196v-.017a.275.275 0 00-.119-.196.285.285 0 00-.124-.054v.007zM41.086 33.94s0-.029-.019-.073a.33.33 0 00-.455-.19.31.31 0 00-.127.109.282.282 0 000 .31.31.31 0 00.127.11.335.335 0 00.455-.19c.014-.047.014-.076.02-.074a.149.149 0 010 .078.309.309 0 01-.122.182.363.363 0 01-.333.052.353.353 0 01-.171-.121.317.317 0 010-.383.354.354 0 01.171-.121.372.372 0 01.333.05c.062.046.105.11.121.183a.15.15 0 010 .078z" fill="#263238"/><path d="M40.691 34.31a.414.414 0 01-.164-.064.382.382 0 01-.119-.123.353.353 0 01.084-.458.408.408 0 01.333-.088.35.35 0 01.299.27.874.874 0 010 .17.35.35 0 01-.135.208.402.402 0 01-.298.084zm.112-.626a.287.287 0 00-.264.107.243.243 0 000 .29.27.27 0 00.129.093.294.294 0 00.259-.034.275.275 0 00.119-.195v-.018a.275.275 0 00-.243-.242z" fill="#263238"/><path d="M41.897 31.915c.62 0 1.123-.47 1.123-1.05 0-.58-.503-1.05-1.123-1.05s-1.122.47-1.122 1.05c0 .58.502 1.05 1.122 1.05z"/><path d="M41.255 30.887l.17-.155.323.269.637-.572.155.156-.816.718-.469-.416z" fill="white"/></g><defs><clipPath id="clip0"><path fill="white" d="M0 0h129v94H0z"/></clipPath></defs></svg>